<svg width="1040" height="360" viewBox="0 0 1040 360" fill="none" xmlns="http://www.w3.org/2000/svg">
<g filter="url(#filter0_f_349_7679)">
<path d="M130 230C185.228 230 230 185.228 230 130C230 74.7715 185.228 30 130 30C74.7715 30 30 74.7715 30 130C30 185.228 74.7715 230 130 230Z" fill="#FF2A00"/>
</g>
<path fill-rule="evenodd" clip-rule="evenodd" d="M230 230C230 285.228 185.228 330 130 330C74.7715 330 30 285.228 30 230C30 224.873 30.3858 219.837 31.1299 214.918C31.1747 215.085 31.2268 215.251 31.2863 215.417C32.1922 217.942 34.5805 219.479 37.106 219.479C37.7922 219.479 38.506 219.342 39.2197 219.095C42.404 217.915 44.0785 214.374 42.8981 211.164C41.7452 207.98 38.204 206.306 34.9922 207.486C33.7586 207.94 32.7558 208.741 32.0539 209.738C41.4202 164.224 81.7134 130 130 130C178.384 130 218.743 164.362 228.002 210.014C227.299 208.94 226.254 208.074 224.953 207.596C221.769 206.416 218.228 208.063 217.047 211.273C215.894 214.484 217.541 218.024 220.753 219.204H220.726C221.412 219.479 222.126 219.589 222.839 219.589C225.365 219.589 227.726 218.052 228.631 215.527C228.721 215.284 228.794 215.04 228.851 214.794C229.608 219.752 230 224.83 230 230ZM50.3099 238.277C47.702 240.472 47.3452 244.369 49.5412 246.976V247.004C50.7765 248.458 52.506 249.199 54.2903 249.199C55.6903 249.199 57.0903 248.705 58.2707 247.745C60.851 245.549 61.2079 241.652 59.0118 239.045C56.8158 236.438 52.9177 236.082 50.3099 238.277ZM201.675 247.8C199.067 245.632 198.737 241.707 200.933 239.1C203.129 236.493 207.027 236.164 209.635 238.359C212.243 240.555 212.573 244.452 210.377 247.059C209.169 248.513 207.412 249.254 205.655 249.254C204.255 249.254 202.855 248.788 201.675 247.8ZM75.2079 261.96C73.5059 264.924 74.5216 268.711 77.4589 270.412L77.4863 270.385C78.4471 270.934 79.5177 271.208 80.5608 271.208C82.6746 271.208 84.7608 270.11 85.9138 268.135C87.6157 265.198 86.6001 261.411 83.6628 259.71C80.6981 258.008 76.9099 259.024 75.2079 261.96ZM174.004 268.217C172.302 265.281 173.318 261.494 176.282 259.792C179.247 258.091 183.008 259.106 184.737 262.042C186.439 265.006 185.424 268.766 182.486 270.467C181.526 271.044 180.455 271.291 179.412 271.291C177.271 271.291 175.212 270.165 174.031 268.217H174.004ZM106.722 275.764C106.118 279.084 108.369 282.322 111.718 282.899L111.69 282.871L111.767 282.882C112.122 282.933 112.455 282.981 112.788 282.981C115.726 282.981 118.333 280.868 118.855 277.877C119.459 274.556 117.235 271.318 113.859 270.742C110.51 270.165 107.298 272.416 106.722 275.764ZM146.059 270.769C142.682 271.345 140.431 274.556 141.035 277.904H141.063C141.584 280.895 144.165 283.009 147.129 283.009C147.486 283.009 147.816 282.981 148.2 282.926C151.549 282.35 153.8 279.139 153.196 275.791C152.62 272.443 149.408 270.165 146.059 270.769Z" fill="black"/>
<path d="M228.824 185.807C225.42 185.807 222.647 183.035 222.647 179.632C222.647 176.229 225.42 173.457 228.824 173.457C232.255 173.457 235 176.229 235 179.632C235 183.062 232.227 185.807 228.824 185.807Z" fill="black"/>
<path d="M25 179.522V179.275C25 175.872 27.7725 173.128 31.1765 173.128C34.5804 173.128 37.3529 175.9 37.3529 179.303V179.522C37.3529 182.925 34.5804 185.697 31.1765 185.697C27.7451 185.697 25 182.925 25 179.522Z" fill="black"/>
<mask id="mask0_349_7679" style="mask-type:alpha" maskUnits="userSpaceOnUse" x="30" y="130" width="200" height="200">
<path d="M130 330C185.228 330 230 285.228 230 230C230 174.772 185.228 130 130 130C74.7715 130 30 174.772 30 230C30 285.228 74.7715 330 130 330Z" fill="black"/>
</mask>
<g mask="url(#mask0_349_7679)">
<g filter="url(#filter1_f_349_7679)">
<path d="M130 230C185.228 230 230 185.228 230 130C230 74.7715 185.228 30 130 30C74.7715 30 30 74.7715 30 130C30 185.228 74.7715 230 130 230Z" fill="#02D5FF"/>
</g>
</g>
<path d="M35.0472 151.339C31.8354 150.159 30.1884 146.618 31.3688 143.408C32.5492 140.197 36.1178 138.578 39.3021 139.758C42.5139 140.938 44.1609 144.478 42.9805 147.689C42.0747 150.186 39.6864 151.75 37.1884 151.75C36.4747 151.75 35.7609 151.613 35.0747 151.366L35.0472 151.339Z" fill="url(#paint0_linear_349_7679)"/>
<path d="M222.647 151.695C220.122 151.695 217.761 150.131 216.855 147.634C215.675 144.423 217.322 140.883 220.534 139.703C223.745 138.523 227.286 140.169 228.467 143.353C229.62 146.564 227.973 150.104 224.788 151.284C224.102 151.531 223.388 151.668 222.675 151.668L222.647 151.695Z" fill="url(#paint1_linear_349_7679)"/>
<path d="M201.043 120.081C198.847 117.474 199.204 113.55 201.812 111.382C204.42 109.187 208.318 109.516 210.514 112.151C212.71 114.758 212.353 118.654 209.745 120.85C208.593 121.81 207.193 122.304 205.793 122.304C204.036 122.304 202.279 121.536 201.043 120.081ZM50.42 120.603C47.8121 118.407 47.4827 114.511 49.6788 111.904C51.8749 109.296 55.7729 108.967 58.3808 111.163C61.016 113.358 61.318 117.255 59.1219 119.862C57.8866 121.316 56.1572 122.057 54.4004 122.057C53.0004 122.057 51.6004 121.591 50.42 120.603ZM176.447 99.3622C173.483 97.6608 172.494 93.8737 174.196 90.9373C175.898 88.001 179.687 86.9856 182.651 88.6871C185.589 90.3885 186.604 94.1756 184.902 97.1119C183.749 99.0878 181.663 100.186 179.549 100.186C178.479 100.186 177.436 99.9111 176.475 99.3348L176.447 99.3622ZM75.4004 96.9473C73.6984 94.0109 74.7141 90.2238 77.6513 88.5224C80.6161 86.821 84.4043 87.8363 86.1062 90.7727C87.8082 93.7365 86.7925 97.4961 83.8278 99.1976C82.867 99.7739 81.7964 100.021 80.7533 100.021C78.6396 100.021 76.5533 98.9232 75.4004 96.9198V96.9473ZM146.251 88.3029C142.902 87.6991 140.651 84.5158 141.255 81.1678C141.859 77.7923 145.044 75.5695 148.393 76.1732C151.769 76.7495 153.993 79.9877 153.416 83.3357C152.894 86.327 150.287 88.4126 147.349 88.4126C146.993 88.4126 146.636 88.3852 146.251 88.3303V88.3029ZM106.914 83.226C106.338 79.878 108.589 76.6672 111.938 76.0909C115.314 75.5146 118.498 77.7374 119.075 81.1129C119.651 84.4609 117.428 87.6717 114.051 88.248C113.694 88.3029 113.338 88.3303 112.981 88.3303C110.043 88.3303 107.436 86.2172 106.914 83.226Z" fill="#02D5FF"/>
<path d="M481.152 107.899V113.185C476.145 114.115 472.317 115.722 469.75 118.005C466.048 121.43 462.766 126.673 459.906 133.776L410.472 255H406.602L353.508 132.212C350.773 125.912 348.88 122.064 347.744 120.669C346.019 118.512 343.874 116.821 341.307 115.553C338.783 114.326 335.333 113.523 331 113.185V107.899H388.932V113.185C382.369 113.819 378.12 114.918 376.184 116.567C374.249 118.174 373.239 120.246 373.239 122.783C373.239 126.292 374.838 131.747 378.035 139.188L414.09 222.696L447.537 140.203C450.818 132.085 452.459 126.461 452.459 123.29C452.459 121.261 451.449 119.316 449.43 117.455C447.411 115.595 444.003 114.284 439.165 113.523C438.828 113.438 438.239 113.354 437.398 113.227V107.899H481.109H481.152Z" fill="black"/>
<path d="M548.883 244.517V248.957C548.883 248.957 543.918 252.805 535.967 253.65C532.559 254.031 527.006 253.397 523.892 250.056C521.747 247.731 520.779 243.545 520.737 237.752C510.808 245.448 504.582 249.93 502.058 251.113C498.271 252.889 494.19 253.777 489.941 253.777C483.252 253.777 477.74 251.494 473.407 246.885C469.074 242.276 466.928 236.23 466.928 228.746C466.928 224.01 467.98 219.909 470.084 216.442C472.986 211.622 477.993 207.097 485.145 202.869C492.297 198.641 504.161 193.482 520.779 187.394V183.588C520.779 173.906 519.265 167.267 516.193 163.631C513.122 160.037 508.663 158.219 502.857 158.219C498.439 158.219 494.905 159.403 492.297 161.813C489.605 164.223 488.3 166.971 488.3 170.1L488.511 176.274C488.511 179.529 487.669 182.024 486.028 183.8C484.388 185.576 482.2 186.464 479.55 186.464C476.899 186.464 474.838 185.533 473.155 183.715C471.514 181.855 470.673 179.36 470.673 176.189C470.673 170.1 473.786 164.519 479.97 159.445C486.155 154.371 494.863 151.792 506.054 151.792C514.637 151.792 521.663 153.23 527.174 156.147C531.339 158.346 534.368 161.771 536.345 166.422C537.608 169.466 538.239 175.682 538.239 185.111V218.091C538.239 227.351 538.407 237.71 538.743 239.782C539.08 241.854 539.753 243.207 540.468 243.968C542.362 245.955 546.485 245.405 548.967 244.644L548.883 244.517ZM520.695 230.818V193.778C510.051 198.007 503.193 201.009 500.122 202.785C494.569 205.914 490.572 209.127 488.216 212.552C485.818 215.934 484.64 219.655 484.64 223.672C484.64 228.746 486.155 232.974 489.184 236.357C492.213 239.697 495.705 241.388 499.617 241.388C504.96 241.388 511.986 237.837 520.737 230.776L520.695 230.818Z" fill="black"/>
<path d="M649.183 191.154C649.099 205.572 652.591 216.904 659.617 225.107C666.643 233.309 674.931 237.411 684.439 237.411C690.792 237.411 696.261 235.677 700.973 232.168C705.685 228.658 709.555 222.654 712.753 214.198L716.034 216.312C714.562 225.994 710.27 234.832 703.16 242.781C696.05 250.73 687.131 254.704 676.445 254.704C664.834 254.704 654.905 250.18 646.617 241.089C638.329 231.999 634.206 219.779 634.206 204.43C634.206 187.813 638.455 174.833 646.912 165.531C655.41 156.228 666.012 151.577 678.843 151.577C689.698 151.577 698.575 155.171 705.559 162.359C712.542 169.547 715.992 179.146 715.992 191.154H649.183ZM649.183 184.981H693.947C693.61 178.765 692.853 174.368 691.717 171.831C689.95 167.856 687.342 164.77 683.85 162.486C680.358 160.203 676.74 159.104 672.911 159.104C667.064 159.104 661.847 161.387 657.219 165.953C652.591 170.52 649.899 176.862 649.141 184.981H649.183Z" fill="black"/>
<path d="M921.383 214.838C918.774 227.649 913.684 237.501 906.069 244.393C898.454 251.285 890.082 254.752 880.826 254.752C869.846 254.752 860.296 250.143 852.134 240.841C843.972 231.539 839.891 219.066 839.891 203.295C839.891 187.523 844.435 175.6 853.438 166.044C862.483 156.488 873.338 151.71 886.001 151.71C895.509 151.71 903.292 154.247 909.435 159.279C915.577 164.352 918.606 169.595 918.606 175.05C918.606 177.756 917.723 179.912 915.998 181.561C914.273 183.21 911.875 184.056 908.761 184.056C904.596 184.056 901.483 182.703 899.38 180.039C898.159 178.559 897.402 175.726 897.024 171.54C896.645 167.354 895.215 164.183 892.732 161.985C890.292 159.87 886.842 158.813 882.509 158.813C875.483 158.813 869.804 161.435 865.512 166.678C859.833 173.612 856.972 182.788 856.972 194.162C856.972 205.535 859.791 215.979 865.47 224.859C871.15 233.738 878.807 238.178 888.441 238.178C895.341 238.178 901.525 235.81 907.037 231.074C910.907 227.818 914.651 221.899 918.312 213.358L921.383 214.838Z" fill="black"/>
<path d="M949.149 191.154C949.065 205.572 952.557 216.904 959.583 225.107C966.609 233.309 974.897 237.411 984.405 237.411C990.757 237.411 996.227 235.677 1000.94 232.168C1005.65 228.658 1009.52 222.654 1012.72 214.198L1016 216.312C1014.53 225.994 1010.24 234.832 1003.13 242.781C996.016 250.73 987.097 254.704 976.411 254.704C964.8 254.704 954.871 250.18 946.583 241.089C938.295 231.999 934.172 219.779 934.172 204.43C934.172 187.813 938.421 174.833 946.877 165.531C955.376 156.228 965.978 151.577 978.809 151.577C989.664 151.577 998.541 155.171 1005.52 162.359C1012.51 169.547 1015.96 179.146 1015.96 191.154H949.149ZM949.149 184.981H993.913C993.576 178.765 992.819 174.368 991.683 171.831C989.916 167.856 987.308 164.77 983.816 162.486C980.324 160.203 976.706 159.104 972.877 159.104C967.029 159.104 961.813 161.387 957.185 165.953C952.557 170.52 949.864 176.862 949.107 184.981H949.149Z" fill="black"/>
<path d="M554.398 110.905V118.812H567.272C570.133 118.812 578 119.192 579.767 120.545C581.534 121.898 582.376 122.828 582.923 125.365C583.427 127.902 583.554 134.118 583.554 145.196V220.797C583.554 229.422 582.712 234.961 581.029 237.202C578.337 240.67 571.185 244.94 560.204 244.94H554.441V251.705H630.337V244.94H623.984C614.77 244.94 609.932 243.122 606.903 241.431C604.631 240.162 603.159 237.076 602.486 235.3C601.56 232.974 601.097 228.069 601.097 220.797V106H595.838C595.838 106 576.023 109.763 554.441 110.905H554.398Z" fill="black"/>
<path d="M760.798 172.302C772.115 158.56 782.927 151.71 793.193 151.71C798.452 151.71 802.995 153.021 806.824 155.685C810.652 158.348 813.639 162.703 815.911 168.792C817.468 173.02 818.225 179.532 818.225 188.327V226.846C818.225 233.019 818.73 237.163 819.697 239.361C820.455 241.137 821.717 242.49 823.442 243.505C825.167 244.52 828.364 244.985 832.992 244.985V251.75H785.157V244.985H787.176C791.678 244.985 794.833 244.309 796.642 242.913C798.452 241.518 799.672 239.488 800.387 236.825C800.681 235.767 800.808 232.427 800.808 226.846V190.018C800.808 181.181 799.672 174.754 797.358 170.779C795.086 166.805 791.215 164.775 785.788 164.775C777.416 164.775 769.086 169.384 760.756 178.559V226.846C760.756 233.442 761.135 237.501 761.934 239.023C762.902 241.095 764.29 242.575 766.015 243.547C767.74 244.52 771.232 244.985 776.533 244.985V251.75H728.698V244.985H730.801C735.724 244.985 739.047 243.717 740.772 241.222C742.497 238.727 743.381 233.907 743.381 226.846V193.739C743.381 182.069 743.128 172.132 742.581 169.595C742.076 167.058 741.235 165.325 740.141 164.395C739.047 163.464 737.575 162.999 735.766 162.999C733.788 162.999 728.698 163.084 728.698 163.084V157.122C743.717 156.403 756.254 151.71 756.254 151.71H760.798V172.302Z" fill="black"/>
<defs>
<filter id="filter0_f_349_7679" x="5" y="5" width="250" height="250" filterUnits="userSpaceOnUse" color-interpolation-filters="sRGB">
<feFlood flood-opacity="0" result="BackgroundImageFix"/>
<feBlend mode="normal" in="SourceGraphic" in2="BackgroundImageFix" result="shape"/>
<feGaussianBlur stdDeviation="12.5" result="effect1_foregroundBlur_349_7679"/>
</filter>
<filter id="filter1_f_349_7679" x="5" y="5" width="250" height="250" filterUnits="userSpaceOnUse" color-interpolation-filters="sRGB">
<feFlood flood-opacity="0" result="BackgroundImageFix"/>
<feBlend mode="normal" in="SourceGraphic" in2="BackgroundImageFix" result="shape"/>
<feGaussianBlur stdDeviation="12.5" result="effect1_foregroundBlur_349_7679"/>
</filter>
<linearGradient id="paint0_linear_349_7679" x1="31.259" y1="146.426" x2="42.898" y2="144.642" gradientUnits="userSpaceOnUse">
<stop stop-color="#017994"/>
<stop offset="1" stop-color="#02BDE7"/>
</linearGradient>
<linearGradient id="paint1_linear_349_7679" x1="228.577" y1="146.426" x2="216.938" y2="144.642" gradientUnits="userSpaceOnUse">
<stop stop-color="#017994"/>
<stop offset="1" stop-color="#02BDE7"/>
</linearGradient>
</defs>
</svg>
