<svg width="520" height="720" viewBox="0 0 520 720" fill="none" xmlns="http://www.w3.org/2000/svg">
<g filter="url(#filter0_f_349_6964)">
<path d="M260 460C370.457 460 460 370.457 460 260C460 149.543 370.457 60 260 60C149.543 60 60 149.543 60 260C60 370.457 149.543 460 260 460Z" fill="#FF2A00"/>
</g>
<path fill-rule="evenodd" clip-rule="evenodd" d="M460 460C460 570.457 370.457 660 260 660C149.543 660 60 570.457 60 460C60 449.747 60.7716 439.673 62.2599 429.835C62.3495 430.169 62.4536 430.503 62.5727 430.834C64.3845 435.884 69.1609 438.958 74.2119 438.958C75.5845 438.958 77.0119 438.683 78.4394 438.189C84.808 435.829 88.157 428.749 85.7962 422.327C83.4903 415.961 76.408 412.613 69.9845 414.973C67.5172 415.879 65.5116 417.482 64.1077 419.476C82.8404 328.448 163.427 260 260 260C356.768 260 437.485 328.725 456.005 420.028C454.598 417.88 452.509 416.148 449.906 415.192C443.537 412.832 436.455 416.125 434.094 422.547C431.788 428.968 435.083 436.049 441.506 438.409H441.451C442.824 438.958 444.251 439.177 445.679 439.177C450.73 439.177 455.451 436.104 457.263 431.054C457.441 430.568 457.588 430.079 457.703 429.588C459.215 439.505 460 449.661 460 460ZM100.62 476.554C95.4041 480.945 94.6903 488.739 99.0825 493.953V494.008C101.553 496.916 105.012 498.398 108.581 498.398C111.381 498.398 114.181 497.41 116.541 495.489C121.702 491.099 122.416 483.305 118.024 478.091C113.632 472.877 105.835 472.163 100.62 476.554ZM403.349 495.599C398.133 491.263 397.475 483.415 401.867 478.201C406.259 472.986 414.055 472.328 419.271 476.719C424.486 481.109 425.145 488.903 420.753 494.117C418.337 497.026 414.824 498.508 411.31 498.508C408.51 498.508 405.71 497.575 403.349 495.599ZM150.416 523.92C147.012 529.848 149.043 537.422 154.918 540.825L154.973 540.77C156.894 541.868 159.035 542.416 161.122 542.416C165.349 542.416 169.522 540.221 171.828 536.269C175.231 530.397 173.2 522.822 167.326 519.419C161.396 516.017 153.82 518.047 150.416 523.92ZM348.008 536.434C344.604 530.561 346.635 522.987 352.565 519.584C358.494 516.181 366.016 518.212 369.475 524.085C372.879 530.012 370.847 537.532 364.973 540.935C363.051 542.087 360.91 542.581 358.824 542.581C354.541 542.581 350.424 540.331 348.063 536.434H348.008ZM213.443 551.527C212.235 558.168 216.737 564.645 223.435 565.798L223.381 565.743L223.534 565.765C224.245 565.867 224.911 565.962 225.577 565.962C231.451 565.962 236.667 561.736 237.71 555.753C238.918 549.112 234.471 542.636 227.718 541.483C221.02 540.331 214.596 544.831 213.443 551.527ZM292.118 541.538C285.365 542.691 280.863 549.112 282.071 555.808H282.126C283.169 561.791 288.33 566.017 294.259 566.017C294.973 566.017 295.631 565.962 296.4 565.852C303.098 564.7 307.6 558.278 306.392 551.582C305.239 544.886 298.816 540.331 292.118 541.538Z" fill="black"/>
<path d="M457.647 371.613C450.839 371.613 445.294 366.07 445.294 359.264C445.294 352.458 450.839 346.915 457.647 346.915C464.51 346.915 470 352.458 470 359.264C470 366.125 464.455 371.613 457.647 371.613Z" fill="black"/>
<path d="M50 359.045V358.551C50 351.745 55.5451 346.256 62.3529 346.256C69.1608 346.256 74.7059 351.8 74.7059 358.605V359.045C74.7059 365.85 69.1608 371.394 62.3529 371.394C55.4902 371.394 50 365.85 50 359.045Z" fill="black"/>
<mask id="mask0_349_6964" style="mask-type:alpha" maskUnits="userSpaceOnUse" x="60" y="260" width="400" height="400">
<path d="M260 660C370.457 660 460 570.457 460 460C460 349.543 370.457 260 260 260C149.543 260 60 349.543 60 460C60 570.457 149.543 660 260 660Z" fill="black"/>
</mask>
<g mask="url(#mask0_349_6964)">
<g filter="url(#filter1_f_349_6964)">
<path d="M260 460C370.457 460 460 370.457 460 260C460 149.543 370.457 60 260 60C149.543 60 60 149.543 60 260C60 370.457 149.543 460 260 460Z" fill="#02D5FF"/>
</g>
</g>
<path d="M70.0942 302.677C63.6706 300.317 60.3765 293.237 62.7373 286.815C65.0981 280.394 72.2353 277.156 78.604 279.516C85.0275 281.876 88.3216 288.956 85.9608 295.377C84.1491 300.372 79.3726 303.501 74.3765 303.501C72.9491 303.501 71.5216 303.226 70.1491 302.732L70.0942 302.677Z" fill="url(#paint0_linear_349_6964)"/>
<path d="M445.294 303.391C440.243 303.391 435.521 300.262 433.71 295.268C431.349 288.846 434.643 281.766 441.067 279.406C447.49 277.046 454.572 280.339 456.933 286.706C459.239 293.127 455.945 300.207 449.576 302.567C448.204 303.061 446.776 303.336 445.349 303.336L445.294 303.391Z" fill="url(#paint1_linear_349_6964)"/>
<path d="M402.086 240.163C397.694 234.949 398.408 227.1 403.624 222.764C408.839 218.373 416.635 219.032 421.027 224.301C425.42 229.515 424.706 237.309 419.49 241.7C417.184 243.621 414.384 244.609 411.584 244.609C408.071 244.609 404.557 243.072 402.086 240.163ZM100.839 241.206C95.6235 236.815 94.9647 229.021 99.3569 223.807C103.749 218.593 111.545 217.934 116.761 222.325C122.031 226.716 122.635 234.51 118.243 239.724C115.773 242.633 112.314 244.115 108.8 244.115C106 244.115 103.2 243.182 100.839 241.206ZM352.894 198.724C346.965 195.322 344.988 187.747 348.392 181.875C351.796 176.002 359.373 173.971 365.302 177.374C371.176 180.777 373.208 188.351 369.804 194.224C367.498 198.176 363.325 200.371 359.098 200.371C356.957 200.371 354.871 199.822 352.949 198.67L352.894 198.724ZM150.8 193.895C147.396 188.022 149.427 180.448 155.302 177.045C161.231 173.642 168.808 175.673 172.212 181.545C175.616 187.473 173.584 194.992 167.655 198.395C165.733 199.548 163.592 200.042 161.506 200.042C157.278 200.042 153.106 197.846 150.8 193.84V193.895ZM292.502 176.606C285.804 175.398 281.302 169.032 282.51 162.336C283.718 155.585 290.086 151.139 296.784 152.346C303.537 153.499 307.984 159.975 306.831 166.671C305.788 172.654 300.573 176.825 294.698 176.825C293.984 176.825 293.271 176.77 292.502 176.661V176.606ZM213.827 166.452C212.675 159.756 217.176 153.334 223.875 152.182C230.627 151.029 236.996 155.475 238.149 162.226C239.302 168.922 234.855 175.343 228.102 176.496C227.388 176.606 226.675 176.661 225.961 176.661C220.086 176.661 214.871 172.434 213.827 166.452Z" fill="#02D5FF"/>
<defs>
<filter id="filter0_f_349_6964" x="10" y="10" width="500" height="500" filterUnits="userSpaceOnUse" color-interpolation-filters="sRGB">
<feFlood flood-opacity="0" result="BackgroundImageFix"/>
<feBlend mode="normal" in="SourceGraphic" in2="BackgroundImageFix" result="shape"/>
<feGaussianBlur stdDeviation="25" result="effect1_foregroundBlur_349_6964"/>
</filter>
<filter id="filter1_f_349_6964" x="10" y="10" width="500" height="500" filterUnits="userSpaceOnUse" color-interpolation-filters="sRGB">
<feFlood flood-opacity="0" result="BackgroundImageFix"/>
<feBlend mode="normal" in="SourceGraphic" in2="BackgroundImageFix" result="shape"/>
<feGaussianBlur stdDeviation="25" result="effect1_foregroundBlur_349_6964"/>
</filter>
<linearGradient id="paint0_linear_349_6964" x1="62.5177" y1="292.853" x2="85.7958" y2="289.283" gradientUnits="userSpaceOnUse">
<stop stop-color="#017994"/>
<stop offset="1" stop-color="#02BDE7"/>
</linearGradient>
<linearGradient id="paint1_linear_349_6964" x1="457.153" y1="292.853" x2="433.875" y2="289.283" gradientUnits="userSpaceOnUse">
<stop stop-color="#017994"/>
<stop offset="1" stop-color="#02BDE7"/>
</linearGradient>
</defs>
</svg>
