<svg width="720" height="550" viewBox="0 0 720 550" fill="none" xmlns="http://www.w3.org/2000/svg">
<g filter="url(#filter0_f_349_7678)">
<path d="M358 230C413.228 230 458 185.228 458 130C458 74.7715 413.228 30 358 30C302.772 30 258 74.7715 258 130C258 185.228 302.772 230 358 230Z" fill="#FF2A00"/>
</g>
<path fill-rule="evenodd" clip-rule="evenodd" d="M458 230C458 285.228 413.228 330 358 330C302.772 330 258 285.228 258 230C258 224.873 258.386 219.837 259.13 214.918C259.175 215.085 259.227 215.251 259.286 215.417C260.192 217.942 262.58 219.479 265.106 219.479C265.792 219.479 266.506 219.342 267.22 219.095C270.404 217.915 272.079 214.374 270.898 211.164C269.745 207.98 266.204 206.306 262.992 207.486C261.759 207.94 260.756 208.741 260.054 209.738C269.42 164.224 309.713 130 358 130C406.384 130 446.743 164.362 456.002 210.014C455.299 208.94 454.254 208.074 452.953 207.596C449.769 206.416 446.228 208.063 445.047 211.273C443.894 214.484 445.541 218.024 448.753 219.204H448.726C449.412 219.479 450.126 219.589 450.839 219.589C453.365 219.589 455.726 218.052 456.631 215.527C456.721 215.284 456.794 215.04 456.851 214.794C457.608 219.752 458 224.83 458 230ZM278.31 238.277C275.702 240.472 275.345 244.369 277.541 246.976V247.004C278.777 248.458 280.506 249.199 282.29 249.199C283.69 249.199 285.09 248.705 286.271 247.745C288.851 245.549 289.208 241.652 287.012 239.045C284.816 236.438 280.918 236.082 278.31 238.277ZM429.675 247.8C427.067 245.632 426.737 241.707 428.933 239.1C431.129 236.493 435.027 236.164 437.635 238.359C440.243 240.555 440.573 244.452 438.377 247.059C437.169 248.513 435.412 249.254 433.655 249.254C432.255 249.254 430.855 248.788 429.675 247.8ZM303.208 261.96C301.506 264.924 302.522 268.711 305.459 270.412L305.486 270.385C306.447 270.934 307.518 271.208 308.561 271.208C310.675 271.208 312.761 270.11 313.914 268.135C315.616 265.198 314.6 261.411 311.663 259.71C308.698 258.008 304.91 259.024 303.208 261.96ZM402.004 268.217C400.302 265.281 401.318 261.494 404.282 259.792C407.247 258.091 411.008 259.106 412.737 262.042C414.439 265.006 413.424 268.766 410.486 270.467C409.526 271.044 408.455 271.291 407.412 271.291C405.271 271.291 403.212 270.165 402.031 268.217H402.004ZM334.722 275.764C334.118 279.084 336.369 282.322 339.718 282.899L339.69 282.871L339.767 282.882C340.122 282.933 340.455 282.981 340.788 282.981C343.726 282.981 346.333 280.868 346.855 277.877C347.459 274.556 345.235 271.318 341.859 270.742C338.51 270.165 335.298 272.416 334.722 275.764ZM374.059 270.769C370.682 271.345 368.431 274.556 369.035 277.904H369.063C369.584 280.895 372.165 283.009 375.129 283.009C375.486 283.009 375.816 282.981 376.2 282.926C379.549 282.35 381.8 279.139 381.196 275.791C380.62 272.443 377.408 270.165 374.059 270.769Z" fill="black"/>
<path d="M456.824 185.807C453.42 185.807 450.647 183.035 450.647 179.632C450.647 176.229 453.42 173.457 456.824 173.457C460.255 173.457 463 176.229 463 179.632C463 183.062 460.227 185.807 456.824 185.807Z" fill="black"/>
<path d="M253 179.522V179.275C253 175.872 255.773 173.128 259.176 173.128C262.58 173.128 265.353 175.9 265.353 179.303V179.522C265.353 182.925 262.58 185.697 259.176 185.697C255.745 185.697 253 182.925 253 179.522Z" fill="black"/>
<mask id="mask0_349_7678" style="mask-type:alpha" maskUnits="userSpaceOnUse" x="258" y="130" width="200" height="200">
<path d="M358 330C413.228 330 458 285.228 458 230C458 174.772 413.228 130 358 130C302.772 130 258 174.772 258 230C258 285.228 302.772 330 358 330Z" fill="black"/>
</mask>
<g mask="url(#mask0_349_7678)">
<g filter="url(#filter1_f_349_7678)">
<path d="M358 230C413.228 230 458 185.228 458 130C458 74.7715 413.228 30 358 30C302.772 30 258 74.7715 258 130C258 185.228 302.772 230 358 230Z" fill="#02D5FF"/>
</g>
</g>
<path d="M263.047 151.339C259.835 150.159 258.188 146.618 259.369 143.408C260.549 140.197 264.118 138.578 267.302 139.758C270.514 140.938 272.161 144.478 270.981 147.689C270.075 150.186 267.686 151.75 265.188 151.75C264.475 151.75 263.761 151.613 263.075 151.366L263.047 151.339Z" fill="url(#paint0_linear_349_7678)"/>
<path d="M450.647 151.695C448.122 151.695 445.761 150.131 444.855 147.634C443.675 144.423 445.322 140.883 448.534 139.703C451.745 138.523 455.286 140.169 456.467 143.353C457.62 146.564 455.973 150.104 452.788 151.284C452.102 151.531 451.388 151.668 450.675 151.668L450.647 151.695Z" fill="url(#paint1_linear_349_7678)"/>
<path d="M429.043 120.081C426.847 117.474 427.204 113.55 429.812 111.382C432.42 109.187 436.318 109.516 438.514 112.151C440.71 114.758 440.353 118.654 437.745 120.85C436.592 121.81 435.192 122.304 433.792 122.304C432.035 122.304 430.279 121.536 429.043 120.081ZM278.42 120.603C275.812 118.407 275.482 114.511 277.679 111.904C279.875 109.296 283.773 108.967 286.381 111.163C289.016 113.358 289.318 117.255 287.122 119.862C285.886 121.316 284.157 122.057 282.4 122.057C281 122.057 279.6 121.591 278.42 120.603ZM404.447 99.3622C401.482 97.6608 400.494 93.8737 402.196 90.9373C403.898 88.001 407.686 86.9856 410.651 88.6871C413.588 90.3885 414.604 94.1756 412.902 97.1119C411.749 99.0878 409.663 100.186 407.549 100.186C406.479 100.186 405.435 99.9111 404.475 99.3348L404.447 99.3622ZM303.4 96.9473C301.698 94.0109 302.714 90.2238 305.651 88.5224C308.616 86.821 312.404 87.8363 314.106 90.7727C315.808 93.7365 314.792 97.4961 311.828 99.1976C310.867 99.7739 309.796 100.021 308.753 100.021C306.639 100.021 304.553 98.9232 303.4 96.9198V96.9473ZM374.251 88.3029C370.902 87.6991 368.651 84.5158 369.255 81.1678C369.859 77.7923 373.043 75.5695 376.392 76.1732C379.769 76.7495 381.992 79.9877 381.416 83.3357C380.894 86.327 378.286 88.4126 375.349 88.4126C374.992 88.4126 374.635 88.3852 374.251 88.3303V88.3029ZM334.914 83.226C334.337 79.878 336.588 76.6672 339.937 76.0909C343.314 75.5146 346.498 77.7374 347.075 81.1129C347.651 84.4609 345.428 87.6717 342.051 88.248C341.694 88.3029 341.337 88.3303 340.981 88.3303C338.043 88.3303 335.435 86.2172 334.914 83.226Z" fill="#02D5FF"/>
<path d="M165.152 384.899V390.185C160.145 391.115 156.317 392.722 153.75 395.005C150.048 398.43 146.766 403.673 143.906 410.776L94.4722 532H90.6017L37.508 409.212C34.7734 402.912 32.8802 399.064 31.7443 397.669C30.0194 395.512 27.8737 393.821 25.3074 392.553C22.7831 391.326 19.3333 390.523 15 390.185V384.899H72.9318V390.185C66.3687 390.819 62.1196 391.918 60.1843 393.567C58.249 395.174 57.2393 397.246 57.2393 399.783C57.2393 403.292 58.838 408.747 62.0354 416.188L98.0903 499.696L131.537 417.203C134.818 409.085 136.459 403.461 136.459 400.29C136.459 398.261 135.449 396.316 133.43 394.455C131.411 392.595 128.003 391.284 123.165 390.523C122.828 390.438 122.239 390.354 121.398 390.227V384.899H165.109H165.152Z" fill="black"/>
<path d="M232.883 521.517V525.957C232.883 525.957 227.918 529.805 219.967 530.65C216.559 531.031 211.006 530.397 207.893 527.056C205.747 524.731 204.779 520.545 204.737 514.752C194.809 522.448 188.582 526.93 186.058 528.113C182.271 529.889 178.19 530.777 173.941 530.777C167.252 530.777 161.741 528.494 157.407 523.885C153.074 519.276 150.928 513.23 150.928 505.746C150.928 501.01 151.98 496.909 154.084 493.442C156.987 488.622 161.993 484.097 169.145 479.869C176.297 475.641 188.161 470.482 204.779 464.394V460.588C204.779 450.906 203.265 444.267 200.194 440.631C197.122 437.037 192.663 435.219 186.857 435.219C182.44 435.219 178.906 436.403 176.297 438.813C173.605 441.223 172.301 443.971 172.301 447.1L172.511 453.274C172.511 456.529 171.669 459.024 170.029 460.8C168.388 462.576 166.2 463.464 163.55 463.464C160.899 463.464 158.838 462.533 157.155 460.715C155.514 458.855 154.673 456.36 154.673 453.189C154.673 447.1 157.786 441.519 163.97 436.445C170.155 431.371 178.864 428.792 190.055 428.792C198.637 428.792 205.663 430.23 211.174 433.147C215.339 435.346 218.368 438.771 220.346 443.422C221.608 446.466 222.239 452.682 222.239 462.111V495.091C222.239 504.351 222.407 514.71 222.744 516.782C223.08 518.854 223.753 520.207 224.469 520.968C226.362 522.955 230.485 522.405 232.967 521.644L232.883 521.517ZM204.695 507.818V470.778C194.051 475.007 187.194 478.009 184.123 479.785C178.569 482.914 174.572 486.127 172.216 489.552C169.818 492.934 168.64 496.655 168.64 500.672C168.64 505.746 170.155 509.974 173.184 513.357C176.213 516.697 179.705 518.388 183.618 518.388C188.961 518.388 195.987 514.837 204.737 507.776L204.695 507.818Z" fill="black"/>
<path d="M333.183 468.154C333.099 482.572 336.591 493.904 343.617 502.107C350.643 510.309 358.931 514.411 368.439 514.411C374.792 514.411 380.261 512.677 384.973 509.168C389.685 505.658 393.555 499.654 396.753 491.198L400.034 493.312C398.562 502.994 394.27 511.832 387.16 519.781C380.05 527.73 371.131 531.704 360.445 531.704C348.834 531.704 338.905 527.18 330.617 518.089C322.329 508.999 318.206 496.779 318.206 481.43C318.206 464.813 322.455 451.833 330.912 442.531C339.41 433.228 350.012 428.577 362.843 428.577C373.698 428.577 382.575 432.171 389.559 439.359C396.542 446.547 399.992 456.146 399.992 468.154H333.183ZM333.183 461.981H377.947C377.61 455.765 376.853 451.368 375.717 448.831C373.95 444.856 371.342 441.77 367.85 439.486C364.358 437.203 360.74 436.104 356.911 436.104C351.064 436.104 345.847 438.387 341.219 442.953C336.591 447.52 333.899 453.862 333.141 461.981H333.183Z" fill="black"/>
<path d="M605.383 491.838C602.774 504.649 597.684 514.501 590.069 521.393C582.454 528.285 574.082 531.752 564.826 531.752C553.846 531.752 544.296 527.143 536.134 517.841C527.972 508.539 523.891 496.066 523.891 480.295C523.891 464.523 528.435 452.6 537.438 443.044C546.483 433.488 557.338 428.71 570.001 428.71C579.509 428.71 587.292 431.247 593.435 436.279C599.577 441.352 602.606 446.595 602.606 452.05C602.606 454.756 601.723 456.912 599.998 458.561C598.273 460.21 595.875 461.056 592.761 461.056C588.596 461.056 585.483 459.703 583.38 457.039C582.159 455.559 581.402 452.726 581.024 448.54C580.645 444.354 579.215 441.183 576.732 438.985C574.292 436.87 570.842 435.813 566.509 435.813C559.483 435.813 553.804 438.435 549.512 443.678C543.833 450.612 540.972 459.788 540.972 471.162C540.972 482.535 543.791 492.979 549.47 501.859C555.15 510.738 562.807 515.178 572.441 515.178C579.341 515.178 585.525 512.81 591.037 508.074C594.907 504.818 598.651 498.899 602.312 490.358L605.383 491.838Z" fill="black"/>
<path d="M633.149 468.154C633.065 482.572 636.557 493.904 643.583 502.107C650.609 510.309 658.897 514.411 668.405 514.411C674.757 514.411 680.227 512.677 684.939 509.168C689.651 505.658 693.521 499.654 696.718 491.198L700 493.312C698.528 502.994 694.236 511.832 687.126 519.781C680.016 527.73 671.097 531.704 660.411 531.704C648.8 531.704 638.871 527.18 630.583 518.089C622.295 508.999 618.172 496.779 618.172 481.43C618.172 464.813 622.421 451.833 630.877 442.531C639.376 433.228 649.978 428.577 662.809 428.577C673.664 428.577 682.541 432.171 689.524 439.359C696.508 446.547 699.958 456.146 699.958 468.154H633.149ZM633.149 461.981H677.913C677.576 455.765 676.819 451.368 675.683 448.831C673.916 444.856 671.308 441.77 667.816 439.486C664.324 437.203 660.706 436.104 656.877 436.104C651.029 436.104 645.813 438.387 641.185 442.953C636.557 447.52 633.864 453.862 633.107 461.981H633.149Z" fill="black"/>
<path d="M238.398 387.905V395.812H251.272C254.133 395.812 262 396.192 263.767 397.545C265.534 398.898 266.375 399.828 266.922 402.365C267.427 404.902 267.553 411.118 267.553 422.196V497.797C267.553 506.422 266.712 511.961 265.029 514.202C262.337 517.67 255.185 521.94 244.204 521.94H238.44V528.705H314.336V521.94H307.984C298.77 521.94 293.932 520.122 290.903 518.431C288.631 517.162 287.159 514.076 286.485 512.3C285.56 509.974 285.097 505.069 285.097 497.797V383H279.838C279.838 383 260.023 386.763 238.44 387.905H238.398Z" fill="black"/>
<path d="M444.798 449.302C456.115 435.56 466.927 428.71 477.193 428.71C482.452 428.71 486.995 430.021 490.824 432.685C494.652 435.348 497.639 439.703 499.911 445.792C501.468 450.02 502.225 456.532 502.225 465.327V503.846C502.225 510.019 502.73 514.163 503.697 516.361C504.455 518.137 505.717 519.49 507.442 520.505C509.167 521.52 512.364 521.985 516.992 521.985V528.75H469.157V521.985H471.176C475.678 521.985 478.833 521.309 480.642 519.913C482.452 518.518 483.672 516.488 484.387 513.825C484.681 512.767 484.808 509.427 484.808 503.846V467.018C484.808 458.181 483.672 451.754 481.358 447.779C479.086 443.805 475.215 441.775 469.788 441.775C461.416 441.775 453.086 446.384 444.756 455.559V503.846C444.756 510.442 445.135 514.501 445.934 516.023C446.902 518.095 448.29 519.575 450.015 520.547C451.74 521.52 455.232 521.985 460.533 521.985V528.75H412.698V521.985H414.801C419.724 521.985 423.047 520.717 424.772 518.222C426.497 515.727 427.381 510.907 427.381 503.846V470.739C427.381 459.069 427.128 449.132 426.581 446.595C426.076 444.058 425.235 442.325 424.141 441.395C423.047 440.464 421.575 439.999 419.766 439.999C417.788 439.999 412.698 440.084 412.698 440.084V434.122C427.717 433.403 440.254 428.71 440.254 428.71H444.798V449.302Z" fill="black"/>
<defs>
<filter id="filter0_f_349_7678" x="233" y="5" width="250" height="250" filterUnits="userSpaceOnUse" color-interpolation-filters="sRGB">
<feFlood flood-opacity="0" result="BackgroundImageFix"/>
<feBlend mode="normal" in="SourceGraphic" in2="BackgroundImageFix" result="shape"/>
<feGaussianBlur stdDeviation="12.5" result="effect1_foregroundBlur_349_7678"/>
</filter>
<filter id="filter1_f_349_7678" x="233" y="5" width="250" height="250" filterUnits="userSpaceOnUse" color-interpolation-filters="sRGB">
<feFlood flood-opacity="0" result="BackgroundImageFix"/>
<feBlend mode="normal" in="SourceGraphic" in2="BackgroundImageFix" result="shape"/>
<feGaussianBlur stdDeviation="12.5" result="effect1_foregroundBlur_349_7678"/>
</filter>
<linearGradient id="paint0_linear_349_7678" x1="259.259" y1="146.426" x2="270.898" y2="144.642" gradientUnits="userSpaceOnUse">
<stop stop-color="#017994"/>
<stop offset="1" stop-color="#02BDE7"/>
</linearGradient>
<linearGradient id="paint1_linear_349_7678" x1="456.577" y1="146.426" x2="444.938" y2="144.642" gradientUnits="userSpaceOnUse">
<stop stop-color="#017994"/>
<stop offset="1" stop-color="#02BDE7"/>
</linearGradient>
</defs>
</svg>
