<svg width="1050" height="270" viewBox="0 0 1050 270" fill="none" xmlns="http://www.w3.org/2000/svg">
<path d="M237.136 28.796V36.5761C229.729 37.9453 224.065 40.3105 220.269 43.6715C214.791 48.7129 209.937 56.4307 205.704 66.8871L132.572 245.33H126.846L48.2986 64.5842C44.253 55.3104 41.4521 49.6465 39.7716 47.5926C37.2198 44.4183 34.0455 41.9287 30.2489 40.0615C26.5145 38.2565 21.4108 37.074 15 36.5761V28.796H100.705V36.5761C90.9954 37.5097 84.7092 39.1279 81.8461 41.5553C78.983 43.9204 77.4893 46.9702 77.4893 50.7046C77.4893 55.8706 79.8544 63.8996 84.5847 74.8539L137.925 197.778L187.406 76.3476C192.26 64.3975 194.688 56.1195 194.688 51.4515C194.688 48.464 193.194 45.6009 190.206 42.8623C187.219 40.1238 182.177 38.1943 175.02 37.074C174.522 36.9495 173.651 36.825 172.406 36.6383V28.796H237.073H237.136Z" fill="black"/>
<path d="M337.338 229.899V236.435C337.338 236.435 329.994 242.098 318.23 243.343C313.189 243.903 304.973 242.97 300.367 238.053C297.193 234.63 295.761 228.468 295.699 219.941C281.011 231.269 271.799 237.866 268.065 239.609C262.463 242.223 256.426 243.53 250.139 243.53C240.243 243.53 232.09 240.169 225.679 233.385C219.268 226.601 216.094 217.7 216.094 206.684C216.094 199.713 217.65 193.676 220.762 188.572C225.056 181.476 232.463 174.817 243.044 168.593C253.625 162.369 271.177 154.775 295.761 145.813V140.211C295.761 125.958 293.521 116.186 288.977 110.834C284.434 105.543 277.836 102.867 269.247 102.867C262.712 102.867 257.484 104.61 253.625 108.157C249.641 111.705 247.712 115.751 247.712 120.356L248.023 129.444C248.023 134.236 246.778 137.908 244.351 140.522C241.924 143.136 238.687 144.443 234.766 144.443C230.845 144.443 227.795 143.074 225.305 140.398C222.878 137.659 221.633 133.987 221.633 129.319C221.633 120.356 226.239 112.141 235.388 104.672C244.538 97.203 257.421 93.4064 273.977 93.4064C286.674 93.4064 297.069 95.5225 305.222 99.8171C311.384 103.054 315.865 108.095 318.79 114.942C320.658 119.423 321.591 128.572 321.591 142.452V190.999C321.591 204.63 321.84 219.879 322.338 222.928C322.836 225.978 323.832 227.97 324.89 229.09C327.691 232.016 333.79 231.206 337.462 230.086L337.338 229.899ZM295.637 209.734V155.211C279.89 161.435 269.745 165.854 265.201 168.468C256.986 173.074 251.073 177.804 247.587 182.846C244.04 187.825 242.297 193.302 242.297 199.215C242.297 206.684 244.538 212.908 249.019 217.887C253.5 222.804 258.666 225.294 264.455 225.294C272.359 225.294 282.753 220.065 295.699 209.671L295.637 209.734Z" fill="black"/>
<path d="M485.724 151.347C485.599 172.571 490.765 189.252 501.159 201.326C511.553 213.401 523.815 219.438 537.881 219.438C547.279 219.438 555.371 216.886 562.342 211.721C569.312 206.555 575.039 197.716 579.769 185.268L584.624 188.38C582.445 202.633 576.097 215.642 565.578 227.343C555.059 239.044 541.864 244.895 526.055 244.895C508.877 244.895 494.188 238.235 481.927 224.853C469.666 211.472 463.566 193.484 463.566 170.891C463.566 146.43 469.852 127.323 482.363 113.63C494.935 99.9369 510.62 93.0905 529.603 93.0905C545.661 93.0905 558.794 98.3809 569.126 108.962C579.458 119.543 584.561 133.671 584.561 151.347H485.724ZM485.724 142.26H551.947C551.45 133.111 550.329 126.638 548.649 122.904C546.035 117.053 542.176 112.509 537.01 109.148C531.844 105.787 526.491 104.169 520.827 104.169C512.176 104.169 504.458 107.53 497.612 114.252C490.765 120.974 486.782 130.31 485.661 142.26H485.724Z" fill="black"/>
<path d="M888.418 186.21C884.559 205.069 877.028 219.571 865.762 229.716C854.497 239.862 842.111 244.965 828.418 244.965C812.173 244.965 798.045 238.181 785.97 224.488C773.896 210.795 767.858 192.434 767.858 169.219C767.858 146.003 774.58 128.451 787.9 114.385C801.281 100.319 817.339 93.2856 836.074 93.2856C850.14 93.2856 861.655 97.0201 870.742 104.427C879.829 111.895 884.31 119.613 884.31 127.642C884.31 131.626 883.003 134.8 880.451 137.227C877.899 139.655 874.352 140.899 869.746 140.899C863.584 140.899 858.978 138.908 855.866 134.987C854.061 132.808 852.941 128.638 852.381 122.476C851.821 116.315 849.704 111.647 846.032 108.41C842.422 105.298 837.319 103.742 830.908 103.742C820.514 103.742 812.111 107.601 805.763 115.319C797.36 125.526 793.128 139.032 793.128 155.775C793.128 172.518 797.298 187.891 805.701 200.961C814.103 214.032 825.431 220.567 839.684 220.567C849.891 220.567 859.04 217.082 867.194 210.111C872.92 205.318 878.459 196.605 883.874 184.032L888.418 186.21Z" fill="black"/>
<path d="M929.496 151.347C929.372 172.571 934.538 189.252 944.932 201.326C955.326 213.401 967.587 219.438 981.654 219.438C991.052 219.438 999.143 216.886 1006.11 211.721C1013.08 206.555 1018.81 197.716 1023.54 185.268L1028.4 188.38C1026.22 202.633 1019.87 215.642 1009.35 227.343C998.832 239.044 985.637 244.895 969.828 244.895C952.65 244.895 937.961 238.235 925.699 224.853C913.438 211.472 907.339 193.484 907.339 170.891C907.339 146.43 913.625 127.323 926.135 113.63C938.708 99.9369 954.392 93.0905 973.376 93.0905C989.434 93.0905 1002.57 98.3809 1012.9 108.962C1023.23 119.543 1028.33 133.671 1028.33 151.347H929.496ZM929.496 142.26H995.72C995.222 133.111 994.102 126.638 992.421 122.904C989.807 117.053 985.948 112.509 980.782 109.148C975.616 105.787 970.264 104.169 964.6 104.169C955.948 104.169 948.231 107.53 941.384 114.252C934.538 120.974 930.554 130.31 929.434 142.26H929.496Z" fill="black"/>
<path d="M345.498 33.2199V44.8588H364.543C368.775 44.8588 380.414 45.419 383.028 47.4107C385.643 49.4024 386.887 50.7716 387.696 54.5061C388.443 58.2405 388.63 67.3898 388.63 83.6968V194.982C388.63 207.679 387.385 215.833 384.896 219.132C380.912 224.235 370.331 230.522 354.087 230.522H345.56V240.48H457.841V230.522H448.443C434.812 230.522 427.655 227.845 423.173 225.356C419.812 223.488 417.634 218.945 416.638 216.331C415.269 212.908 414.584 205.688 414.584 194.982V26H406.804C406.804 26 377.489 31.5394 345.56 33.2199H345.498Z" fill="black"/>
<path d="M650.848 123.597C667.59 103.369 683.586 93.2856 698.773 93.2856C706.553 93.2856 713.275 95.2151 718.938 99.1362C724.602 103.057 729.021 109.468 732.382 118.431C734.685 124.655 735.806 134.24 735.806 147.186V203.887C735.806 212.974 736.552 219.073 737.984 222.31C739.104 224.924 740.971 226.916 743.523 228.409C746.075 229.903 750.805 230.588 757.652 230.588V240.546H686.885V230.588H689.872C696.532 230.588 701.2 229.592 703.876 227.538C706.553 225.484 708.358 222.497 709.416 218.575C709.851 217.019 710.038 212.102 710.038 203.887V149.675C710.038 136.667 708.358 127.207 704.934 121.356C701.573 115.505 695.847 112.518 687.818 112.518C675.432 112.518 663.109 119.302 650.785 132.808V203.887C650.785 213.596 651.345 219.571 652.528 221.812C653.96 224.862 656.013 227.04 658.565 228.472C661.117 229.903 666.283 230.588 674.125 230.588V240.546H603.358V230.588H606.47C613.752 230.588 618.669 228.721 621.221 225.048C623.773 221.376 625.08 214.281 625.08 203.887V155.153C625.08 137.974 624.707 123.348 623.897 119.613C623.151 115.879 621.906 113.327 620.288 111.958C618.669 110.588 616.491 109.904 613.815 109.904C610.889 109.904 603.358 110.028 603.358 110.028V101.252C625.578 100.194 644.126 93.2856 644.126 93.2856H650.848V123.597Z" fill="black"/>
</svg>
