<svg width="1014" height="220" viewBox="0 0 1014 220" fill="none" xmlns="http://www.w3.org/2000/svg">
<path d="M222.136 2.7959V10.5759C214.729 11.9452 209.065 14.3104 205.269 17.6713C199.791 22.7128 194.937 30.4306 190.704 40.887L117.572 219.33H111.846L33.2986 38.5841C29.253 29.3103 26.4521 23.6464 24.7716 21.5925C22.2198 18.4182 19.0455 15.9286 15.2489 14.0614C11.5145 12.2564 6.41075 11.0739 0 10.5759V2.7959H85.7049V10.5759C75.9954 11.5095 69.7092 13.1278 66.8461 15.5552C63.983 17.9203 62.4893 20.9701 62.4893 24.7045C62.4893 29.8704 64.8544 37.8994 69.5847 48.8537L122.925 171.778L172.406 50.3475C177.26 38.3974 179.688 30.1194 179.688 25.4514C179.688 22.4638 178.194 19.6008 175.206 16.8622C172.219 14.1236 167.178 12.1942 160.02 11.0739C159.522 10.9494 158.651 10.8249 157.406 10.6382V2.7959H222.073H222.136Z" fill="white"/>
<path d="M322.338 203.899V210.434C322.338 210.434 314.994 216.098 303.23 217.343C298.189 217.903 289.973 216.97 285.367 212.053C282.193 208.63 280.761 202.468 280.699 193.941C266.011 205.269 256.799 211.866 253.065 213.609C247.463 216.223 241.426 217.53 235.139 217.53C225.243 217.53 217.09 214.169 210.679 207.385C204.268 200.601 201.094 191.7 201.094 180.684C201.094 173.713 202.65 167.675 205.762 162.572C210.056 155.476 217.463 148.817 228.044 142.593C238.625 136.369 256.177 128.775 280.761 119.813V114.211C280.761 99.9579 278.521 90.1862 273.977 84.8335C269.434 79.5431 262.836 76.8668 254.247 76.8668C247.712 76.8668 242.484 78.6095 238.625 82.1572C234.641 85.7049 232.712 89.7505 232.712 94.3563L233.023 103.443C233.023 108.236 231.778 111.908 229.351 114.522C226.924 117.136 223.687 118.443 219.766 118.443C215.845 118.443 212.795 117.074 210.305 114.398C207.878 111.659 206.633 107.987 206.633 103.319C206.633 94.3563 211.239 86.1406 220.388 78.6717C229.538 71.2029 242.421 67.4062 258.977 67.4062C271.674 67.4062 282.069 69.5224 290.222 73.817C296.384 77.0535 300.865 82.095 303.79 88.9414C305.658 93.4227 306.591 102.572 306.591 116.452V164.999C306.591 178.63 306.84 193.879 307.338 196.928C307.836 199.978 308.832 201.97 309.89 203.09C312.691 206.015 318.79 205.206 322.462 204.086L322.338 203.899ZM280.637 183.733V129.211C264.89 135.435 254.745 139.854 250.201 142.468C241.986 147.074 236.073 151.804 232.587 156.846C229.04 161.825 227.297 167.302 227.297 173.215C227.297 180.684 229.538 186.908 234.019 191.887C238.5 196.804 243.666 199.293 249.455 199.293C257.359 199.293 267.753 194.065 280.699 183.671L280.637 183.733Z" fill="white"/>
<path d="M470.724 125.348C470.599 146.572 475.765 163.252 486.159 175.327C496.553 187.401 508.815 193.439 522.881 193.439C532.279 193.439 540.371 190.887 547.342 185.721C554.312 180.555 560.039 171.717 564.769 159.269L569.624 162.381C567.445 176.634 561.097 189.642 550.578 201.343C540.059 213.044 526.864 218.895 511.055 218.895C493.877 218.895 479.188 212.235 466.927 198.854C454.666 185.472 448.566 167.484 448.566 144.891C448.566 120.431 454.852 101.323 467.363 87.6301C479.935 73.9373 495.62 67.0908 514.603 67.0908C530.661 67.0908 543.794 72.3812 554.126 82.9621C564.458 93.543 569.561 107.672 569.561 125.348H470.724ZM470.724 116.261H536.947C536.45 107.111 535.329 100.638 533.649 96.9039C531.035 91.0533 527.176 86.5098 522.01 83.1488C516.844 79.7878 511.491 78.1696 505.827 78.1696C497.176 78.1696 489.458 81.5306 482.612 88.2525C475.765 94.9745 471.782 104.311 470.661 116.261H470.724Z" fill="white"/>
<path d="M873.418 160.21C869.559 179.069 862.028 193.571 850.762 203.716C839.497 213.861 827.111 218.965 813.418 218.965C797.173 218.965 783.045 212.181 770.97 198.488C758.896 184.795 752.858 166.434 752.858 143.218C752.858 120.003 759.58 102.451 772.9 88.3846C786.281 74.3183 802.339 67.2852 821.074 67.2852C835.14 67.2852 846.655 71.0196 855.742 78.4262C864.829 85.895 869.31 93.6128 869.31 101.642C869.31 105.625 868.003 108.799 865.451 111.227C862.899 113.654 859.352 114.899 854.746 114.899C848.584 114.899 843.978 112.907 840.866 108.986C839.061 106.808 837.941 102.638 837.381 96.4759C836.821 90.3141 834.704 85.646 831.032 82.4095C827.422 79.2975 822.319 77.7415 815.908 77.7415C805.514 77.7415 797.111 81.6004 790.763 89.3182C782.36 99.5256 778.128 113.032 778.128 129.774C778.128 146.517 782.298 161.89 790.701 174.961C799.103 188.031 810.431 194.567 824.684 194.567C834.891 194.567 844.04 191.081 852.194 184.11C857.92 179.318 863.459 170.604 868.874 158.032L873.418 160.21Z" fill="white"/>
<path d="M914.496 125.348C914.372 146.572 919.538 163.252 929.932 175.327C940.326 187.401 952.587 193.439 966.654 193.439C976.052 193.439 984.143 190.887 991.114 185.721C998.085 180.555 1003.81 171.717 1008.54 159.269L1013.4 162.381C1011.22 176.634 1004.87 189.642 994.35 201.343C983.832 213.044 970.637 218.895 954.828 218.895C937.65 218.895 922.961 212.235 910.699 198.854C898.438 185.472 892.339 167.484 892.339 144.891C892.339 120.431 898.625 101.323 911.135 87.6301C923.708 73.9373 939.392 67.0908 958.376 67.0908C974.434 67.0908 987.566 72.3812 997.898 82.9621C1008.23 93.543 1013.33 107.672 1013.33 125.348H914.496ZM914.496 116.261H980.72C980.222 107.111 979.102 100.638 977.421 96.9039C974.807 91.0533 970.948 86.5098 965.782 83.1488C960.616 79.7878 955.264 78.1696 949.6 78.1696C940.948 78.1696 933.231 81.5306 926.384 88.2525C919.538 94.9745 915.554 104.311 914.434 116.261H914.496Z" fill="white"/>
<path d="M330.498 7.21987V18.8588H349.543C353.775 18.8588 365.414 19.419 368.028 21.4107C370.643 23.4024 371.887 24.7716 372.696 28.5061C373.443 32.2405 373.63 41.3898 373.63 57.6968V168.982C373.63 181.679 372.385 189.833 369.896 193.132C365.912 198.235 355.331 204.522 339.087 204.522H330.56V214.48H442.841V204.522H433.443C419.812 204.522 412.655 201.845 408.173 199.356C404.812 197.488 402.634 192.945 401.638 190.331C400.269 186.908 399.584 179.688 399.584 168.982V0H391.804C391.804 0 362.489 5.53939 330.56 7.21987H330.498Z" fill="white"/>
<path d="M635.848 97.5962C652.59 77.3681 668.586 67.2852 683.773 67.2852C691.553 67.2852 698.275 69.2146 703.938 73.1357C709.602 77.0569 714.021 83.4676 717.382 92.4302C719.685 98.6543 720.806 108.239 720.806 121.185V177.886C720.806 186.973 721.552 193.073 722.984 196.309C724.104 198.923 725.971 200.915 728.523 202.409C731.075 203.903 735.805 204.587 742.652 204.587V214.546H671.885V204.587H674.872C681.532 204.587 686.2 203.591 688.876 201.538C691.553 199.484 693.358 196.496 694.416 192.575C694.851 191.019 695.038 186.102 695.038 177.886V123.675C695.038 110.667 693.358 101.206 689.934 95.3555C686.573 89.5049 680.847 86.5174 672.818 86.5174C660.432 86.5174 648.109 93.3016 635.785 106.808V177.886C635.785 187.596 636.345 193.571 637.528 195.811C638.96 198.861 641.013 201.04 643.565 202.471C646.117 203.903 651.283 204.587 659.125 204.587V214.546H588.358V204.587H591.47C598.752 204.587 603.669 202.72 606.221 199.048C608.773 195.376 610.08 188.28 610.08 177.886V129.152C610.08 111.974 609.707 97.3472 608.897 93.6128C608.151 89.8784 606.906 87.3265 605.288 85.9573C603.669 84.588 601.491 83.9033 598.815 83.9033C595.889 83.9033 588.358 84.0278 588.358 84.0278V75.2519C610.578 74.1938 629.126 67.2852 629.126 67.2852H635.848V97.5962Z" fill="white"/>
</svg>
