<svg width="226" height="144" viewBox="0 0 226 144" fill="none" xmlns="http://www.w3.org/2000/svg">
<circle cx="68.25" cy="71.75" r="68.25" fill="black"/>
<path fill-rule="evenodd" clip-rule="evenodd" d="M153.515 0H153.61C155.543 0.00124127 157.109 1.56925 157.107 3.50225C157.106 5.43524 155.538 7.00124 153.605 7H153.52C151.587 7.00124 150.019 5.43524 150.018 3.50225C150.016 1.56925 151.582 0.00124127 153.515 0ZM176.413 7.32325C177.152 5.5372 179.199 4.68862 180.985 5.42789L181.072 5.46371C182.857 6.20532 183.703 8.25361 182.961 10.0387C182.219 11.8238 180.171 12.6696 178.386 11.928L178.308 11.8957C176.522 11.1565 175.673 9.10929 176.413 7.32325ZM130.712 7.32325C131.451 9.10929 130.603 11.1565 128.817 11.8957L128.739 11.928C126.954 12.6696 124.906 11.8238 124.164 10.0387C123.422 8.25361 124.268 6.20533 126.053 5.46371L126.14 5.4279C127.926 4.68863 129.973 5.5372 130.712 7.32325ZM107.81 20.9852C109.176 22.3529 109.175 24.569 107.807 25.935L107.747 25.9947C106.382 27.3624 104.165 27.3639 102.798 25.9979C101.43 24.632 101.429 22.4159 102.794 21.0482L102.861 20.982C104.228 19.616 106.444 19.6175 107.81 20.9852ZM199.315 20.9852C200.68 19.6175 202.897 19.616 204.264 20.982L204.33 21.0482C205.696 22.4159 205.695 24.632 204.327 25.9979C202.96 27.3639 200.743 27.3624 199.378 25.9947L199.318 25.935C197.95 24.569 197.949 22.3529 199.315 20.9852ZM215.274 42.3515C217.059 41.6099 219.107 42.4558 219.849 44.2408L219.885 44.3272C220.624 46.1133 219.775 48.1604 217.989 48.8997C216.203 49.639 214.156 48.7904 213.417 47.0044L213.384 46.9265C212.643 45.1414 213.489 43.0931 215.274 42.3515ZM91.8512 42.3515C93.6363 43.0931 94.4821 45.1414 93.7405 46.9265L93.7082 47.0044C92.969 48.7904 90.9218 49.639 89.1357 48.8997C87.3497 48.1604 86.5011 46.1133 87.2404 44.3272L87.2762 44.2409C88.0178 42.4558 90.0661 41.6099 91.8512 42.3515ZM221.81 68.2052C223.743 68.204 225.311 69.77 225.312 71.703V71.797C225.311 73.73 223.743 75.296 221.81 75.2948C219.877 75.2935 218.311 73.7255 218.312 71.7925V71.7075C218.311 69.7745 219.877 68.2064 221.81 68.2052ZM85.3147 68.2052C87.2477 68.2064 88.8137 69.7745 88.8125 71.7075V71.7925C88.8137 73.7255 87.2477 75.2935 85.3147 75.2948C83.3818 75.296 81.8137 73.73 81.8125 71.797V71.703C81.8137 69.77 83.3818 68.204 85.3147 68.2052ZM89.1357 94.6003C90.9218 93.861 92.969 94.7096 93.7082 96.4956L93.7405 96.5735C94.4821 98.3586 93.6363 100.407 91.8512 101.148C90.0661 101.89 88.0178 101.044 87.2762 99.2591L87.2404 99.1728C86.5011 97.3867 87.3497 95.3395 89.1357 94.6003ZM217.989 94.6003C219.775 95.3395 220.624 97.3867 219.885 99.1728L219.849 99.2591C219.107 101.044 217.059 101.89 215.274 101.148C213.489 100.407 212.643 98.3586 213.384 96.5735L213.417 96.4956C214.156 94.7096 216.203 93.861 217.989 94.6003ZM102.798 117.502C104.165 116.136 106.382 116.138 107.747 117.505L107.807 117.565C109.175 118.931 109.176 121.147 107.81 122.515C106.444 123.882 104.228 123.884 102.861 122.518L102.794 122.452C101.429 121.084 101.43 118.868 102.798 117.502ZM204.327 117.502C205.695 118.868 205.696 121.084 204.33 122.452L204.264 122.518C202.897 123.884 200.68 123.882 199.315 122.515C197.949 121.147 197.95 118.931 199.318 117.565L199.378 117.505C200.743 116.138 202.96 116.136 204.327 117.502ZM182.961 133.461C183.703 135.246 182.857 137.295 181.072 138.036L180.985 138.072C179.199 138.811 177.152 137.963 176.413 136.177C175.673 134.391 176.522 132.344 178.308 131.604L178.386 131.572C180.171 130.83 182.219 131.676 182.961 133.461ZM124.164 133.461C124.906 131.676 126.954 130.83 128.739 131.572L128.817 131.604C130.603 132.344 131.451 134.391 130.712 136.177C129.973 137.963 127.926 138.811 126.14 138.072L126.053 138.036C124.268 137.295 123.422 135.246 124.164 133.461ZM150.018 139.998C150.019 138.065 151.587 136.499 153.52 136.5H153.605C155.538 136.499 157.106 138.065 157.107 139.998C157.109 141.931 155.543 143.499 153.61 143.5H153.515C151.582 143.499 150.016 141.931 150.018 139.998Z" fill="black"/>
<mask id="mask0_86_163" style="mask-type:alpha" maskUnits="userSpaceOnUse" x="0" y="3" width="137" height="137">
<circle cx="68.25" cy="71.75" r="68.25" fill="black"/>
</mask>
<g mask="url(#mask0_86_163)">
<path fill-rule="evenodd" clip-rule="evenodd" d="M153.515 -0.5H153.61C155.819 -0.498581 157.609 1.29343 157.607 3.50257C157.606 5.71171 155.814 7.50142 153.605 7.5H153.52C151.311 7.50142 149.519 5.71171 149.518 3.50257C149.516 1.29343 151.306 -0.498582 153.515 -0.5ZM175.951 7.13202C176.796 5.09083 179.135 4.12102 181.176 4.96591L181.263 5.00197C183.304 5.84953 184.27 8.19042 183.423 10.2305C182.575 12.2706 180.234 13.2373 178.194 12.3898L178.117 12.3577C176.076 11.5128 175.106 9.17321 175.951 7.13202ZM131.174 7.13202C132.019 9.17321 131.049 11.5128 129.008 12.3577L128.931 12.3898C126.891 13.2373 124.55 12.2706 123.702 10.2305C122.855 8.19043 123.821 5.84953 125.862 5.00197L125.948 4.96591C127.99 4.12103 130.329 5.09083 131.174 7.13202ZM198.961 20.6319C200.522 19.0688 203.055 19.0671 204.618 20.6282L204.684 20.6948C206.245 22.258 206.244 24.7906 204.681 26.3517C203.117 27.9128 200.585 27.9111 199.024 26.348L198.964 26.2887C197.401 24.7276 197.4 22.195 198.961 20.6319ZM108.164 20.6319C109.725 22.195 109.724 24.7277 108.161 26.2887L108.101 26.348C106.54 27.9111 104.007 27.9128 102.444 26.3517C100.881 24.7906 100.88 22.258 102.441 20.6948L102.507 20.6282C104.07 19.0671 106.603 19.0688 108.164 20.6319ZM215.082 41.8898C217.122 41.0422 219.463 42.0089 220.311 44.049L220.347 44.136C221.191 46.1772 220.222 48.5168 218.18 49.3617C216.139 50.2066 213.8 49.2368 212.955 47.1956L212.923 47.1183C212.075 45.0782 213.042 42.7373 215.082 41.8898ZM92.043 41.8898C94.0831 42.7373 95.0498 45.0782 94.2023 47.1183L94.1702 47.1956C93.3253 49.2368 90.9857 50.2066 88.9445 49.3617C86.9033 48.5168 85.9335 46.1772 86.7784 44.136L86.8145 44.049C87.662 42.0089 90.0029 41.0422 92.043 41.8898ZM85.3151 67.7052C87.5242 67.7066 89.3139 69.4986 89.3125 71.7078V71.7922C89.3139 74.0013 87.5242 75.7933 85.3151 75.7948C83.1059 75.7962 81.3139 74.0065 81.3125 71.7973V71.7026C81.3139 69.4935 83.1059 67.7038 85.3151 67.7052ZM221.81 67.7052C224.019 67.7038 225.811 69.4935 225.812 71.7026V71.7973C225.811 74.0065 224.019 75.7962 221.81 75.7948C219.601 75.7934 217.811 74.0013 217.812 71.7922V71.7078C217.811 69.4986 219.601 67.7066 221.81 67.7052ZM218.18 94.1383C220.222 94.9832 221.191 97.3228 220.347 99.364L220.311 99.451C219.463 101.491 217.122 102.458 215.082 101.61C213.042 100.763 212.075 98.4218 212.923 96.3817L212.955 96.3044C213.8 94.2632 216.139 93.2934 218.18 94.1383ZM88.9445 94.1383C90.9857 93.2934 93.3253 94.2632 94.1702 96.3044L94.2023 96.3817C95.0498 98.4218 94.0831 100.763 92.043 101.61C90.0029 102.458 87.662 101.491 86.8145 99.451L86.7784 99.364C85.9335 97.3228 86.9033 94.9832 88.9445 94.1383ZM102.444 117.148C104.007 115.587 106.54 115.589 108.101 117.152L108.161 117.211C109.724 118.772 109.725 121.305 108.164 122.868C106.603 124.431 104.07 124.433 102.507 122.872L102.441 122.805C100.88 121.242 100.881 118.709 102.444 117.148ZM204.681 117.148C206.244 118.709 206.245 121.242 204.684 122.805L204.618 122.872C203.055 124.433 200.522 124.431 198.961 122.868C197.4 121.305 197.401 118.772 198.964 117.211L199.024 117.152C200.585 115.589 203.117 115.587 204.681 117.148ZM123.702 133.269C124.55 131.229 126.891 130.263 128.931 131.11L129.008 131.142C131.049 131.987 132.019 134.327 131.174 136.368C130.329 138.409 127.99 139.379 125.948 138.534L125.862 138.498C123.821 137.65 122.855 135.31 123.702 133.269ZM183.423 133.269C184.27 135.31 183.304 137.65 181.263 138.498L181.176 138.534C179.135 139.379 176.796 138.409 175.951 136.368C175.106 134.327 176.076 131.987 178.117 131.142L178.194 131.11C180.234 130.263 182.575 131.229 183.423 133.269ZM149.518 139.997C149.519 137.788 151.311 135.999 153.52 136H153.605C155.814 135.999 157.606 137.788 157.607 139.997C157.609 142.207 155.819 143.999 153.61 144H153.515C151.306 143.999 149.516 142.207 149.518 139.997Z" fill="white"/>
</g>
</svg>
