<svg width="301" height="144" viewBox="0 0 301 144" fill="none" xmlns="http://www.w3.org/2000/svg">
<circle cx="231.875" cy="71.75" r="68.25" fill="black"/>
<path fill-rule="evenodd" clip-rule="evenodd" d="M71.7029 0H71.7971C73.7301 0.00124294 75.2961 1.56925 75.2948 3.50225C75.2936 5.43525 73.7256 7.00124 71.7926 7H71.7074C69.7744 7.00124 68.2064 5.43525 68.2051 3.50225C68.2039 1.56925 69.7699 0.00124314 71.7029 0ZM117.502 20.9852C118.868 19.6174 121.084 19.616 122.452 20.9819L122.518 21.0482C123.884 22.4159 123.883 24.632 122.515 25.998C121.147 27.3639 118.931 27.3625 117.565 25.9948L117.505 25.9349C116.137 24.569 116.136 22.3529 117.502 20.9852ZM25.998 20.9852C27.3639 22.3529 27.3625 24.569 25.9948 25.9349L25.9349 25.9948C24.569 27.3625 22.3529 27.3639 20.9852 25.998C19.6174 24.632 19.616 22.416 20.9819 21.0482L21.0482 20.9819C22.4159 19.616 24.632 19.6174 25.998 20.9852ZM139.998 68.2051C141.931 68.2039 143.499 69.7699 143.5 71.7029V71.7971C143.499 73.7301 141.931 75.2961 139.998 75.2948C138.065 75.2936 136.499 73.7256 136.5 71.7926V71.7074C136.499 69.7744 138.065 68.2064 139.998 68.2051ZM3.50225 68.2051C5.43525 68.2064 7.00124 69.7744 7 71.7074V71.7926C7.00124 73.7256 5.43525 75.2936 3.50225 75.2948C1.56925 75.2961 0.00124314 73.7301 0 71.7971V71.7029C0.00124294 69.7699 1.56925 68.2039 3.50225 68.2051ZM20.9852 117.502C22.3529 116.136 24.569 116.137 25.9349 117.505L25.9948 117.565C27.3625 118.931 27.3639 121.147 25.998 122.515C24.632 123.883 22.416 123.884 21.0482 122.518L20.9819 122.452C19.616 121.084 19.6174 118.868 20.9852 117.502ZM122.515 117.502C123.883 118.868 123.884 121.084 122.518 122.452L122.452 122.518C121.084 123.884 118.868 123.883 117.502 122.515C116.136 121.147 116.137 118.931 117.505 117.565L117.565 117.505C118.931 116.137 121.147 116.136 122.515 117.502ZM68.2051 139.998C68.2064 138.065 69.7744 136.499 71.7074 136.5H71.7926C73.7256 136.499 75.2936 138.065 75.2948 139.998C75.2961 141.931 73.7301 143.499 71.7971 143.5H71.7029C69.7699 143.499 68.2039 141.931 68.2051 139.998Z" fill="black"/>
<path d="M71.75 133V71.9469M71.75 71.9469L28.1683 115.275M71.75 71.9469H10.5M71.75 71.9469L28.1683 28.2251M71.75 71.9469L115.332 28.2251M71.75 71.9469H133M71.75 71.9469L115.332 115.275M71.75 71.9469V10.5" stroke="black"/>
<path d="M231.875 139.562V71.75M231.875 71.75L183.312 119.875M231.875 71.75H163.625M231.875 71.75L183.312 23.1875M231.875 71.75L280.437 23.1875M231.875 71.75H300.125M231.875 71.75L280.437 119.875M231.875 71.75V3.49998" stroke="white"/>
</svg>
