<svg width="345" height="653" viewBox="0 0 345 653" fill="none" xmlns="http://www.w3.org/2000/svg">
<g filter="url(#filter0_f_86_176)">
<path d="M295.002 172.473C295.002 240.113 240.339 294.946 172.909 294.946C105.478 294.946 50.8149 240.113 50.8149 172.473C50.8149 104.833 105.478 50 172.909 50C240.339 50 295.002 104.833 295.002 172.473Z" fill="#FB2A00"/>
</g>
<path d="M295.002 352.58C295.002 420.429 240.339 475.432 172.909 475.432C105.478 475.432 50.8149 420.429 50.8149 352.58C50.8149 284.731 105.478 229.728 172.909 229.728C240.339 229.728 295.002 284.731 295.002 352.58Z" fill="black"/>
<path d="M98.1556 610.817C94.9258 608.096 90.0642 608.538 87.3784 611.769C84.6586 614.999 85.0666 619.829 88.3303 622.549C91.5601 625.27 96.3877 624.828 99.1075 621.597C100.297 620.169 100.909 618.434 100.909 616.7C100.909 614.523 99.9574 612.347 98.1556 610.817ZM72.4875 580.346C70.3797 576.673 65.6881 575.448 62.0503 577.557C58.4126 579.665 57.1547 584.359 59.2625 588.031C61.3704 591.67 66.062 592.928 69.6997 590.82C72.1476 589.392 73.5075 586.807 73.5075 584.188C73.5075 582.862 73.1675 581.57 72.4535 580.38L72.4875 580.346ZM69.4958 455.163C65.858 453.055 61.1664 454.313 59.0586 457.952C56.9507 461.625 58.2086 466.318 61.8464 468.426C65.5181 470.535 70.1757 469.276 72.2836 465.604C72.9975 464.413 73.3035 463.087 73.3035 461.795C73.3035 459.176 71.9436 456.592 69.4618 455.163L69.4958 455.163ZM58.7866 542.937C58.0386 538.788 54.0949 536 49.9473 536.748C45.7656 537.496 43.0118 541.441 43.7597 545.59C44.4737 549.773 48.4854 552.527 52.6331 551.813C56.3388 551.167 58.9226 547.936 58.9226 544.297C58.9226 543.855 58.8886 543.413 58.8206 542.937L58.7866 542.937ZM52.4971 494.204C48.3494 493.49 44.3717 496.279 43.6577 500.427C42.9438 504.61 45.6976 508.555 49.8793 509.269C54.0269 509.984 58.0046 507.229 58.7186 503.046C58.7866 502.604 58.8206 502.162 58.8206 501.72C58.8206 498.081 56.2028 494.85 52.4971 494.204Z" fill="black"/>
<path d="M179.58 645.233C179.58 641.016 176.147 637.581 171.931 637.581C167.715 637.581 164.281 641.016 164.281 645.233C164.281 649.484 167.715 652.885 171.931 652.885C176.181 652.885 179.58 649.45 179.58 645.233Z" fill="black"/>
<path d="M293.675 536.477C289.527 535.729 285.55 538.517 284.836 542.7C284.088 546.849 286.91 550.828 291.057 551.542C295.205 552.29 299.183 549.502 299.897 545.353C299.965 544.877 299.999 544.469 299.999 544.026C299.999 540.354 297.381 537.157 293.675 536.511L293.675 536.477Z" fill="black"/>
<path d="M299.862 500.156C299.148 496.007 295.137 493.219 291.023 493.967C286.875 494.681 284.088 498.66 284.801 502.809C285.515 506.992 289.527 509.747 293.641 508.998C297.347 508.352 299.964 505.122 299.964 501.483C299.964 501.041 299.896 500.599 299.828 500.122L299.862 500.156Z" fill="black"/>
<path d="M281.673 577.32C278.035 575.211 273.343 576.47 271.236 580.142C269.128 583.815 270.386 588.474 274.023 590.617C277.695 592.725 282.353 591.467 284.46 587.828C285.174 586.638 285.48 585.312 285.48 584.019C285.48 581.367 284.087 578.816 281.673 577.354L281.673 577.32Z" fill="black"/>
<path d="M284.392 457.714C282.284 454.076 277.592 452.817 273.921 454.926C270.283 457.034 269.025 461.727 271.133 465.4C273.241 469.039 277.932 470.297 281.57 468.189C284.018 466.76 285.378 464.176 285.378 461.557C285.378 460.265 285.038 458.939 284.358 457.748L284.392 457.714Z" fill="black"/>
<path d="M256.377 611.598C253.692 608.367 248.83 607.959 245.6 610.68C242.371 613.401 241.963 618.23 244.682 621.46C247.402 624.691 252.23 625.099 255.46 622.379C257.261 620.882 258.179 618.706 258.179 616.529C258.179 614.795 257.601 613.061 256.377 611.598Z" fill="black"/>
<path d="M220.953 635.235C219.491 631.256 215.106 629.216 211.128 630.644C207.15 632.106 205.111 636.493 206.572 640.438C208.034 644.417 212.42 646.457 216.398 644.995C219.525 643.873 221.429 640.948 221.429 637.819C221.429 636.935 221.293 636.051 220.953 635.201L220.953 635.235Z" fill="black"/>
<path d="M137.321 637.582C137.321 634.453 135.383 631.528 132.289 630.406C128.311 628.944 123.926 630.984 122.464 634.963C121.002 638.942 123.042 643.329 126.985 644.791C130.963 646.22 135.349 644.179 136.811 640.234C137.117 639.384 137.287 638.5 137.287 637.616L137.321 637.582Z" fill="black"/>
<path d="M171.794 392.726L171.658 392.726L171.488 392.726C167.273 392.726 163.873 396.16 163.873 400.377C163.873 404.594 167.307 408.029 171.522 408.029L171.658 408.029L171.794 408.029C176.01 408.029 179.444 404.594 179.444 400.377C179.444 396.126 176.01 392.726 171.794 392.726Z" fill="white"/>
<path d="M136.879 405.173C135.417 401.194 131.032 399.154 127.054 400.616C123.076 402.079 121.071 406.5 122.532 410.445C123.994 414.423 128.38 416.464 132.358 415.002C135.451 413.879 137.389 410.921 137.389 407.826C137.389 406.942 137.219 406.058 136.913 405.207L136.879 405.173Z" fill="white"/>
<path d="M255.358 423.128C252.128 420.408 247.301 420.85 244.581 424.08C241.861 427.311 242.303 432.14 245.533 434.861C248.763 437.581 253.59 437.139 256.31 433.943C257.5 432.48 258.112 430.746 258.112 429.012C258.112 426.801 257.194 424.659 255.392 423.128L255.358 423.128Z" fill="white"/>
<path d="M216.264 400.513C212.286 399.085 207.901 401.125 206.439 405.104C204.977 409.083 207.051 413.47 210.994 414.898C214.972 416.361 219.358 414.286 220.82 410.341C221.126 409.457 221.296 408.573 221.296 407.723C221.296 404.594 219.392 401.635 216.264 400.513Z" fill="white"/>
<path d="M88.0241 423.298C91.2538 420.577 96.0815 420.985 98.8013 424.216C100.025 425.678 100.603 427.413 100.603 429.147C100.603 431.324 99.6852 433.466 97.8833 434.997C94.6536 437.717 89.826 437.343 87.1062 434.078C84.3864 430.848 84.7943 426.019 88.0241 423.298Z" fill="white"/>
<mask id="mask0_86_176" style="mask-type:alpha" maskUnits="userSpaceOnUse" x="50" y="229" width="246" height="247">
<path d="M295.002 352.58C295.002 420.429 240.339 475.432 172.909 475.432C105.478 475.432 50.8149 420.429 50.8149 352.58C50.8149 284.731 105.478 229.728 172.909 229.728C240.339 229.728 295.002 284.731 295.002 352.58Z" fill="black"/>
</mask>
<g mask="url(#mask0_86_176)">
<g filter="url(#filter1_f_86_176)">
<path d="M295.002 172.473C295.002 240.113 240.339 294.946 172.909 294.946C105.478 294.946 50.8149 240.113 50.8149 172.473C50.8149 104.833 105.478 50 172.909 50C240.339 50 295.002 104.833 295.002 172.473Z" fill="#03D5FF"/>
</g>
</g>
<defs>
<filter id="filter0_f_86_176" x="0.814941" y="0" width="344.187" height="344.946" filterUnits="userSpaceOnUse" color-interpolation-filters="sRGB">
<feFlood flood-opacity="0" result="BackgroundImageFix"/>
<feBlend mode="normal" in="SourceGraphic" in2="BackgroundImageFix" result="shape"/>
<feGaussianBlur stdDeviation="25" result="effect1_foregroundBlur_86_176"/>
</filter>
<filter id="filter1_f_86_176" x="0.814941" y="0" width="344.187" height="344.946" filterUnits="userSpaceOnUse" color-interpolation-filters="sRGB">
<feFlood flood-opacity="0" result="BackgroundImageFix"/>
<feBlend mode="normal" in="SourceGraphic" in2="BackgroundImageFix" result="shape"/>
<feGaussianBlur stdDeviation="25" result="effect1_foregroundBlur_86_176"/>
</filter>
</defs>
</svg>
