<svg width="236" height="140" viewBox="0 0 236 140" fill="none" xmlns="http://www.w3.org/2000/svg">
<path fill-rule="evenodd" clip-rule="evenodd" d="M205.778 4.67292e-05L205.832 0L205.885 4.67292e-05C207.335 0.00258241 208.508 1.17987 208.505 2.62959C208.503 4.0793 207.326 5.25248 205.876 5.24994L205.832 5.2499L205.787 5.24994C204.337 5.25248 203.16 4.0793 203.158 2.62959C203.155 1.17987 204.328 0.00258241 205.778 4.67292e-05ZM188.357 8.7604C189.38 9.78731 189.377 11.4493 188.35 12.4726L188.288 12.5349C187.265 13.5618 185.603 13.5648 184.576 12.5415C183.549 11.5182 183.546 9.85615 184.569 8.82923L184.645 8.75384C185.672 7.73055 187.334 7.73348 188.357 8.7604ZM223.306 8.7604C224.329 7.73348 225.991 7.73055 227.018 8.75384L227.094 8.82924C228.117 9.85615 228.114 11.5182 227.087 12.5415C226.06 13.5648 224.398 13.5618 223.375 12.5349L223.313 12.4726C222.286 11.4493 222.283 9.78732 223.306 8.7604ZM178.445 27.3422C179.895 27.3447 181.068 28.522 181.065 29.9717L181.065 30.0161L181.065 30.0604C181.068 31.5102 179.895 32.6874 178.445 32.69C176.995 32.6925 175.818 31.5193 175.815 30.0696L175.815 30.0161L175.815 29.9625C175.818 28.5128 176.995 27.3396 178.445 27.3422ZM233.218 27.3422C234.668 27.3397 235.845 28.5128 235.848 29.9625L235.848 30.0161L235.848 30.0696C235.845 31.5193 234.668 32.6925 233.218 32.69C231.768 32.6874 230.595 31.5102 230.598 30.0604L230.598 30.0161L230.598 29.9717C230.595 28.522 231.768 27.3447 233.218 27.3422ZM184.576 47.4907C185.603 46.4674 187.265 46.4703 188.288 47.4972L188.35 47.5595C189.377 48.5828 189.38 50.2448 188.357 51.2718C187.334 52.2987 185.672 52.3016 184.645 51.2783L184.569 51.2029C183.546 50.176 183.549 48.514 184.576 47.4907ZM227.087 47.4907C228.114 48.514 228.117 50.176 227.094 51.2029L227.018 51.2783C225.991 52.3016 224.329 52.2987 223.306 51.2718C222.283 50.2448 222.286 48.5828 223.313 47.5595L223.375 47.4972C224.398 46.4703 226.06 46.4674 227.087 47.4907ZM203.158 57.4026C203.16 55.9529 204.337 54.7797 205.787 54.7822L205.832 54.7823L205.876 54.7822C207.326 54.7797 208.503 55.9529 208.505 57.4026C208.508 58.8523 207.335 60.0296 205.885 60.0321L205.832 60.0322L205.778 60.0321C204.328 60.0296 203.155 58.8523 203.158 57.4026Z" fill="black"/>
<ellipse cx="27.562" cy="111.998" rx="27.562" ry="27.1245" fill="black"/>
<line x1="27.5798" y1="111.736" x2="205.622" y2="29.5621" stroke="black"/>
<line x1="27.5773" y1="111.737" x2="52.2871" y2="100.17" stroke="white"/>
<ellipse cx="205.621" cy="29.7494" rx="4.37492" ry="4.37492" fill="black"/>
<ellipse cx="27.1244" cy="111.998" rx="4.37492" ry="4.37492" fill="white"/>
</svg>
