<svg width="1920" height="1080" viewBox="0 0 1920 1080" fill="none" xmlns="http://www.w3.org/2000/svg">
<rect width="1920" height="1080" fill="#F5F5F5"/>
<path d="M620 740C730.457 740 820 650.457 820 540C820 429.543 730.457 340 620 340C509.543 340 420 429.543 420 540C420 650.457 509.543 740 620 740Z" fill="black" stroke="#00A3FF" stroke-width="2" stroke-miterlimit="10"/>
<line x1="1287.66" y1="540.06" x2="1561.66" y2="440.332" stroke="#00A3FF" stroke-width="2"/>
<line x1="1488" y1="540" x2="1580" y2="540" stroke="#00A3FF" stroke-width="2"/>
<line x1="1287.36" y1="540.234" x2="1510.72" y2="352.807" stroke="#00A3FF" stroke-width="2"/>
<line x1="1287.13" y1="539.341" x2="1432.93" y2="286.821" stroke="#00A3FF" stroke-width="2"/>
<line x1="1088" y1="540" x2="1488" y2="540" stroke="#00A3FF" stroke-width="2" stroke-dasharray="4 4"/>
<line x1="420" y1="540" x2="820" y2="540" stroke="#00A3FF" stroke-width="2" stroke-dasharray="4 4"/>
<path d="M1288 740C1398.46 740 1488 650.457 1488 540C1488 429.543 1398.46 340 1288 340C1177.54 340 1088 429.543 1088 540C1088 650.457 1177.54 740 1288 740Z" stroke="#00A3FF" stroke-width="2" stroke-miterlimit="10"/>
<path d="M610 580.805C610 580.348 610.141 580.025 610.422 579.838C610.703 579.639 610.99 579.539 611.283 579.539C611.424 579.539 611.564 579.562 611.705 579.609C611.846 579.645 611.998 579.709 612.162 579.803L612.777 580.137C612.859 580.184 612.936 580.219 613.006 580.242C613.088 580.254 613.176 580.26 613.27 580.26C613.562 580.26 613.785 580.189 613.938 580.049C614.102 579.896 614.512 579.381 615.168 578.502C615.602 577.928 616.586 576.527 618.121 574.301C618.121 574.219 617.986 573.592 617.717 572.42C617.447 571.236 617.201 570.234 616.979 569.414C616.756 568.582 616.557 568.037 616.381 567.779C616.205 567.51 615.877 567.375 615.396 567.375C615.232 567.375 614.91 567.434 614.43 567.551C614.125 567.621 613.797 567.703 613.445 567.797L613.287 567.252L615.238 566.584C615.742 566.408 616.205 566.268 616.627 566.162C617.061 566.057 617.43 566.004 617.734 566.004C618.227 566.004 618.596 566.15 618.842 566.443C619.217 566.912 619.533 567.838 619.791 569.221L620.16 571.225C621.215 569.607 622.035 568.471 622.621 567.814C623.148 567.217 623.646 566.771 624.115 566.479C624.584 566.186 625.029 566.039 625.451 566.039C625.85 566.039 626.172 566.098 626.418 566.215C626.863 566.426 627.086 566.824 627.086 567.41C627.086 567.809 626.975 568.119 626.752 568.342C626.529 568.564 626.242 568.676 625.891 568.676C625.762 568.676 625.639 568.664 625.521 568.641C625.404 568.605 625.281 568.559 625.152 568.5L624.695 568.307C624.566 568.248 624.443 568.201 624.326 568.166C624.209 568.119 624.121 568.096 624.062 568.096C623.535 568.096 622.803 568.781 621.865 570.152C620.928 571.512 620.459 572.297 620.459 572.508C620.459 572.684 620.564 573.258 620.775 574.23C620.998 575.191 621.238 576.211 621.496 577.289C621.73 578.309 621.93 579.012 622.094 579.398C622.363 580.031 622.668 580.348 623.008 580.348C623.324 580.348 623.646 580.172 623.975 579.82C624.303 579.469 624.795 578.836 625.451 577.922L625.943 578.221C625.439 579.135 624.918 579.914 624.379 580.559C623.359 581.777 622.387 582.387 621.461 582.387C620.875 582.387 620.412 582.105 620.072 581.543C619.873 581.215 619.68 580.676 619.492 579.926L618.402 575.584L614.799 580.312C614.096 581.133 613.551 581.684 613.164 581.965C612.789 582.246 612.32 582.387 611.758 582.387C611.008 582.387 610.498 582.152 610.229 581.684C610.076 581.438 610 581.145 610 580.805Z" fill="#00A3FF"/>
<path d="M1519.49 508.453L1526.24 501.297C1527.4 500.078 1528.32 498.984 1529.01 498.016C1530.23 496.307 1530.84 494.859 1530.84 493.672C1530.84 492.568 1530.48 491.63 1529.76 490.859C1529.05 490.089 1528.08 489.703 1526.84 489.703C1525.67 489.703 1524.65 490.094 1523.77 490.875C1523.31 491.302 1522.83 491.917 1522.35 492.719L1521.68 492.484C1522.48 490.318 1523.74 488.818 1525.46 487.984C1526.36 487.557 1527.31 487.344 1528.32 487.344C1529.96 487.344 1531.24 487.901 1532.18 489.016C1533.13 490.13 1533.6 491.37 1533.6 492.734C1533.6 493.922 1533.24 495.042 1532.51 496.094C1531.79 497.146 1530.57 498.536 1528.84 500.266L1522.68 506.422V506.562H1528.76C1529.64 506.562 1530.3 506.422 1530.73 506.141C1531.17 505.859 1531.57 505.333 1531.95 504.562L1532.46 504.781L1530.87 509H1519.49V508.453ZM1542.39 508.375C1544.38 508.375 1546.1 506.396 1547.56 502.438C1548.82 499.052 1549.45 495.812 1549.45 492.719C1549.45 491.646 1549.34 490.781 1549.11 490.125C1548.69 488.875 1547.91 488.25 1546.75 488.25C1544.61 488.25 1542.81 490.552 1541.33 495.156C1540.2 498.677 1539.64 501.609 1539.64 503.953C1539.64 504.943 1539.76 505.771 1539.98 506.438C1540.42 507.729 1541.22 508.375 1542.39 508.375ZM1546.8 487.344C1548.8 487.344 1550.24 488.339 1551.12 490.328C1551.7 491.63 1551.98 493.146 1551.98 494.875C1551.98 498.688 1550.98 502.042 1548.97 504.938C1546.99 507.771 1544.76 509.188 1542.27 509.188C1540.82 509.188 1539.59 508.573 1538.59 507.344C1537.59 506.104 1537.09 504.396 1537.09 502.219C1537.09 498.583 1538.08 495.214 1540.05 492.109C1542.07 488.932 1544.32 487.344 1546.8 487.344ZM1558.71 491.891C1558.71 492.745 1559.01 493.479 1559.62 494.094C1560.23 494.698 1560.97 495 1561.82 495C1562.68 495 1563.42 494.698 1564.02 494.094C1564.63 493.479 1564.93 492.745 1564.93 491.891C1564.93 491.026 1564.63 490.292 1564.02 489.688C1563.42 489.083 1562.68 488.781 1561.82 488.781C1560.97 488.781 1560.23 489.083 1559.62 489.688C1559.01 490.292 1558.71 491.026 1558.71 491.891ZM1557.27 491.891C1557.27 490.63 1557.72 489.557 1558.6 488.672C1559.49 487.786 1560.56 487.344 1561.82 487.344C1563.08 487.344 1564.15 487.786 1565.04 488.672C1565.93 489.557 1566.38 490.63 1566.38 491.891C1566.38 493.151 1565.93 494.229 1565.04 495.125C1564.15 496.01 1563.08 496.453 1561.82 496.453C1560.56 496.453 1559.49 496.01 1558.6 495.125C1557.72 494.229 1557.27 493.151 1557.27 491.891Z" fill="#00A3FF"/>
<path d="M1494.49 419.453L1501.24 412.297C1502.4 411.078 1503.32 409.984 1504.01 409.016C1505.23 407.307 1505.84 405.859 1505.84 404.672C1505.84 403.568 1505.48 402.63 1504.76 401.859C1504.05 401.089 1503.08 400.703 1501.84 400.703C1500.67 400.703 1499.65 401.094 1498.77 401.875C1498.31 402.302 1497.83 402.917 1497.35 403.719L1496.68 403.484C1497.48 401.318 1498.74 399.818 1500.46 398.984C1501.36 398.557 1502.31 398.344 1503.32 398.344C1504.96 398.344 1506.24 398.901 1507.18 400.016C1508.13 401.13 1508.6 402.37 1508.6 403.734C1508.6 404.922 1508.24 406.042 1507.51 407.094C1506.79 408.146 1505.57 409.536 1503.84 411.266L1497.68 417.422V417.562H1503.76C1504.64 417.562 1505.3 417.422 1505.73 417.141C1506.17 416.859 1506.57 416.333 1506.95 415.562L1507.46 415.781L1505.87 420H1494.49V419.453ZM1517.39 419.375C1519.38 419.375 1521.1 417.396 1522.56 413.438C1523.82 410.052 1524.45 406.812 1524.45 403.719C1524.45 402.646 1524.34 401.781 1524.11 401.125C1523.69 399.875 1522.91 399.25 1521.75 399.25C1519.61 399.25 1517.81 401.552 1516.33 406.156C1515.2 409.677 1514.64 412.609 1514.64 414.953C1514.64 415.943 1514.76 416.771 1514.98 417.438C1515.42 418.729 1516.22 419.375 1517.39 419.375ZM1521.8 398.344C1523.8 398.344 1525.24 399.339 1526.12 401.328C1526.7 402.63 1526.98 404.146 1526.98 405.875C1526.98 409.688 1525.98 413.042 1523.97 415.938C1521.99 418.771 1519.76 420.188 1517.27 420.188C1515.82 420.188 1514.59 419.573 1513.59 418.344C1512.59 417.104 1512.09 415.396 1512.09 413.219C1512.09 409.583 1513.08 406.214 1515.05 403.109C1517.07 399.932 1519.32 398.344 1521.8 398.344ZM1533.71 402.891C1533.71 403.745 1534.01 404.479 1534.62 405.094C1535.23 405.698 1535.97 406 1536.82 406C1537.68 406 1538.42 405.698 1539.02 405.094C1539.63 404.479 1539.93 403.745 1539.93 402.891C1539.93 402.026 1539.63 401.292 1539.02 400.688C1538.42 400.083 1537.68 399.781 1536.82 399.781C1535.97 399.781 1535.23 400.083 1534.62 400.688C1534.01 401.292 1533.71 402.026 1533.71 402.891ZM1532.27 402.891C1532.27 401.63 1532.72 400.557 1533.6 399.672C1534.49 398.786 1535.56 398.344 1536.82 398.344C1538.08 398.344 1539.15 398.786 1540.04 399.672C1540.93 400.557 1541.38 401.63 1541.38 402.891C1541.38 404.151 1540.93 405.229 1540.04 406.125C1539.15 407.01 1538.08 407.453 1536.82 407.453C1535.56 407.453 1534.49 407.01 1533.6 406.125C1532.72 405.229 1532.27 404.151 1532.27 402.891Z" fill="#00A3FF"/>
<path d="M1435.49 354.453L1442.24 347.297C1443.4 346.078 1444.32 344.984 1445.01 344.016C1446.23 342.307 1446.84 340.859 1446.84 339.672C1446.84 338.568 1446.48 337.63 1445.76 336.859C1445.05 336.089 1444.08 335.703 1442.84 335.703C1441.67 335.703 1440.65 336.094 1439.77 336.875C1439.31 337.302 1438.83 337.917 1438.35 338.719L1437.68 338.484C1438.48 336.318 1439.74 334.818 1441.46 333.984C1442.36 333.557 1443.31 333.344 1444.32 333.344C1445.96 333.344 1447.24 333.901 1448.18 335.016C1449.13 336.13 1449.6 337.37 1449.6 338.734C1449.6 339.922 1449.24 341.042 1448.51 342.094C1447.79 343.146 1446.57 344.536 1444.84 346.266L1438.68 352.422V352.562H1444.76C1445.64 352.562 1446.3 352.422 1446.73 352.141C1447.17 351.859 1447.57 351.333 1447.95 350.562L1448.46 350.781L1446.87 355H1435.49V354.453ZM1458.39 354.375C1460.38 354.375 1462.1 352.396 1463.56 348.438C1464.82 345.052 1465.45 341.812 1465.45 338.719C1465.45 337.646 1465.34 336.781 1465.11 336.125C1464.69 334.875 1463.91 334.25 1462.75 334.25C1460.61 334.25 1458.81 336.552 1457.33 341.156C1456.2 344.677 1455.64 347.609 1455.64 349.953C1455.64 350.943 1455.76 351.771 1455.98 352.438C1456.42 353.729 1457.22 354.375 1458.39 354.375ZM1462.8 333.344C1464.8 333.344 1466.24 334.339 1467.12 336.328C1467.7 337.63 1467.98 339.146 1467.98 340.875C1467.98 344.688 1466.98 348.042 1464.97 350.938C1462.99 353.771 1460.76 355.188 1458.27 355.188C1456.82 355.188 1455.59 354.573 1454.59 353.344C1453.59 352.104 1453.09 350.396 1453.09 348.219C1453.09 344.583 1454.08 341.214 1456.05 338.109C1458.07 334.932 1460.32 333.344 1462.8 333.344ZM1474.71 337.891C1474.71 338.745 1475.01 339.479 1475.62 340.094C1476.23 340.698 1476.97 341 1477.82 341C1478.68 341 1479.42 340.698 1480.02 340.094C1480.63 339.479 1480.93 338.745 1480.93 337.891C1480.93 337.026 1480.63 336.292 1480.02 335.688C1479.42 335.083 1478.68 334.781 1477.82 334.781C1476.97 334.781 1476.23 335.083 1475.62 335.688C1475.01 336.292 1474.71 337.026 1474.71 337.891ZM1473.27 337.891C1473.27 336.63 1473.72 335.557 1474.6 334.672C1475.49 333.786 1476.56 333.344 1477.82 333.344C1479.08 333.344 1480.15 333.786 1481.04 334.672C1481.93 335.557 1482.38 336.63 1482.38 337.891C1482.38 339.151 1481.93 340.229 1481.04 341.125C1480.15 342.01 1479.08 342.453 1477.82 342.453C1476.56 342.453 1475.49 342.01 1474.6 341.125C1473.72 340.229 1473.27 339.151 1473.27 337.891Z" fill="#00A3FF"/>
<path d="M1279 580.805C1279 580.348 1279.14 580.025 1279.42 579.838C1279.7 579.639 1279.99 579.539 1280.28 579.539C1280.42 579.539 1280.56 579.562 1280.71 579.609C1280.85 579.645 1281 579.709 1281.16 579.803L1281.78 580.137C1281.86 580.184 1281.94 580.219 1282.01 580.242C1282.09 580.254 1282.18 580.26 1282.27 580.26C1282.56 580.26 1282.79 580.189 1282.94 580.049C1283.1 579.896 1283.51 579.381 1284.17 578.502C1284.6 577.928 1285.59 576.527 1287.12 574.301C1287.12 574.219 1286.99 573.592 1286.72 572.42C1286.45 571.236 1286.2 570.234 1285.98 569.414C1285.76 568.582 1285.56 568.037 1285.38 567.779C1285.21 567.51 1284.88 567.375 1284.4 567.375C1284.23 567.375 1283.91 567.434 1283.43 567.551C1283.12 567.621 1282.8 567.703 1282.45 567.797L1282.29 567.252L1284.24 566.584C1284.74 566.408 1285.21 566.268 1285.63 566.162C1286.06 566.057 1286.43 566.004 1286.73 566.004C1287.23 566.004 1287.6 566.15 1287.84 566.443C1288.22 566.912 1288.53 567.838 1288.79 569.221L1289.16 571.225C1290.21 569.607 1291.04 568.471 1291.62 567.814C1292.15 567.217 1292.65 566.771 1293.12 566.479C1293.58 566.186 1294.03 566.039 1294.45 566.039C1294.85 566.039 1295.17 566.098 1295.42 566.215C1295.86 566.426 1296.09 566.824 1296.09 567.41C1296.09 567.809 1295.97 568.119 1295.75 568.342C1295.53 568.564 1295.24 568.676 1294.89 568.676C1294.76 568.676 1294.64 568.664 1294.52 568.641C1294.4 568.605 1294.28 568.559 1294.15 568.5L1293.7 568.307C1293.57 568.248 1293.44 568.201 1293.33 568.166C1293.21 568.119 1293.12 568.096 1293.06 568.096C1292.54 568.096 1291.8 568.781 1290.87 570.152C1289.93 571.512 1289.46 572.297 1289.46 572.508C1289.46 572.684 1289.56 573.258 1289.78 574.23C1290 575.191 1290.24 576.211 1290.5 577.289C1290.73 578.309 1290.93 579.012 1291.09 579.398C1291.36 580.031 1291.67 580.348 1292.01 580.348C1292.32 580.348 1292.65 580.172 1292.97 579.82C1293.3 579.469 1293.79 578.836 1294.45 577.922L1294.94 578.221C1294.44 579.135 1293.92 579.914 1293.38 580.559C1292.36 581.777 1291.39 582.387 1290.46 582.387C1289.88 582.387 1289.41 582.105 1289.07 581.543C1288.87 581.215 1288.68 580.676 1288.49 579.926L1287.4 575.584L1283.8 580.312C1283.1 581.133 1282.55 581.684 1282.16 581.965C1281.79 582.246 1281.32 582.387 1280.76 582.387C1280.01 582.387 1279.5 582.152 1279.23 581.684C1279.08 581.438 1279 581.145 1279 580.805Z" fill="#00A3FF"/>
<path d="M552.09 914V896.576H557.226C560.298 896.576 563.946 896.792 563.946 901.16C563.946 902.864 562.914 904.52 560.946 905.048V905.096C563.154 905.6 564.402 906.752 564.402 909.2C564.402 913.424 560.418 914 557.034 914H552.09ZM554.442 912.104H557.058C559.722 912.104 561.978 911.84 561.978 909.152C561.978 906.68 560.418 906.128 556.746 906.128H554.442V912.104ZM554.442 904.232H556.626C558.594 904.232 561.594 904.232 561.594 901.376C561.594 898.712 559.506 898.496 556.89 898.496H554.442V904.232ZM568.517 914V896.576H570.725V914H568.517ZM578.962 914.264C576.226 914.264 574.666 912.704 574.666 910.52C574.666 906.464 579.85 906.608 582.922 906.248V905.816C582.922 903.968 582.082 902.912 580.186 902.912C578.458 902.912 577.306 903.776 577.306 905.432H575.122C575.122 902.888 577.21 901.256 580.186 901.256C584.866 901.256 585.082 904.376 585.082 906.872V910.256C585.082 911.696 585.154 912.872 585.394 914H583.33C583.258 913.64 583.186 913.16 583.162 912.32C582.106 913.712 580.738 914.264 578.962 914.264ZM579.466 912.656C581.242 912.656 582.922 911.936 582.922 908.648V907.952C581.05 908.192 576.898 908.048 576.898 910.568C576.898 911.768 577.882 912.656 579.466 912.656ZM594.635 914.36C590.891 914.36 588.851 911.72 588.851 907.808C588.851 904.064 590.963 901.256 594.683 901.256C597.659 901.256 599.507 902.888 599.891 905.672H597.587C597.323 903.92 596.315 903.032 594.659 903.032C592.379 903.032 591.155 904.952 591.155 907.808C591.155 910.688 592.427 912.608 594.659 912.608C596.267 912.608 597.371 911.72 597.755 909.848H599.915C599.387 912.872 597.659 914.36 594.635 914.36ZM603.641 914V896.576H605.849V906.704L610.865 901.616H613.481L608.009 907.04L614.033 914H611.249L605.849 907.52V914H603.641ZM629.647 914.36C624.487 914.36 621.775 910.328 621.775 905.288C621.775 900.248 624.583 896.216 629.599 896.216C633.631 896.216 636.247 898.736 636.607 902.264H634.183C633.775 899.624 632.119 898.088 629.599 898.088C626.359 898.088 624.223 900.968 624.223 905.288C624.223 909.608 626.407 912.488 629.647 912.488C632.119 912.488 633.799 910.832 634.231 908.216H636.679C636.127 911.744 633.535 914.36 629.647 914.36ZM640.452 914V901.616H642.66V914H640.452ZM640.452 898.976V896.576H642.66V898.976H640.452ZM647.464 914V901.616H649.552V903.44C650.512 901.952 651.664 901.472 653.032 901.472C653.488 901.472 653.968 901.52 654.424 901.616V903.56C653.872 903.464 653.392 903.392 652.96 903.392C650.296 903.392 649.672 905.312 649.672 908.312V914H647.464ZM662.303 914.36C658.559 914.36 656.519 911.72 656.519 907.808C656.519 904.064 658.631 901.256 662.351 901.256C665.327 901.256 667.175 902.888 667.559 905.672H665.255C664.991 903.92 663.983 903.032 662.327 903.032C660.047 903.032 658.823 904.952 658.823 907.808C658.823 910.688 660.095 912.608 662.327 912.608C663.935 912.608 665.039 911.72 665.423 909.848H667.583C667.055 912.872 665.327 914.36 662.303 914.36ZM671.309 914V896.576H673.517V914H671.309ZM683.362 914.36C679.57 914.36 677.482 911.888 677.482 907.808C677.482 904.064 679.762 901.256 683.41 901.256C687.274 901.256 689.026 903.92 689.026 908.504H679.786C679.906 910.952 681.418 912.608 683.434 912.608C685.018 912.608 686.218 911.888 686.674 910.304H689.002C688.474 912.968 686.194 914.36 683.362 914.36ZM679.834 906.704H686.674C686.434 904.208 685.09 903.032 683.314 903.032C681.442 903.032 680.146 904.208 679.834 906.704Z" fill="black"/>
<path d="M1236.36 902.096H1232.71V900.536C1235.44 900.392 1236.48 899.648 1236.69 897.608H1238.56V914H1236.36V902.096ZM1248.94 914.36C1245.44 914.36 1243.02 912.392 1243.02 909.632C1243.02 907.472 1244.1 906.104 1246.45 905.552V905.432C1244.53 905 1243.47 903.584 1243.47 901.712C1243.47 899.048 1245.66 897.248 1248.94 897.248C1252.18 897.248 1254.37 899.048 1254.37 901.712C1254.37 903.584 1253.34 905 1251.39 905.432V905.552C1253.74 906.104 1254.82 907.472 1254.82 909.632C1254.82 912.392 1252.4 914.36 1248.94 914.36ZM1248.94 912.584C1251.06 912.584 1252.47 911.264 1252.47 909.488C1252.47 907.64 1251.06 906.44 1248.94 906.44C1246.81 906.44 1245.39 907.64 1245.39 909.488C1245.39 911.264 1246.81 912.584 1248.94 912.584ZM1248.94 904.592C1250.86 904.592 1252.14 903.512 1252.14 901.808C1252.14 900.152 1250.91 899.024 1248.94 899.024C1246.95 899.024 1245.7 900.152 1245.7 901.808C1245.7 903.512 1247 904.592 1248.94 904.592ZM1265.29 914V896.576H1268.91L1273.18 907.808C1273.81 909.44 1274.1 910.328 1274.41 911.432H1274.53C1274.79 910.28 1275.15 909.152 1275.63 907.808L1279.74 896.576H1283.38V914H1281.18V904.04C1281.18 902.408 1281.25 900.776 1281.27 898.808H1281.15L1275.58 914H1273.04L1267.45 898.808H1267.33C1267.35 900.056 1267.45 902.6 1267.45 904.04V914H1265.29ZM1293.39 914.36C1289.72 914.36 1287.44 911.672 1287.44 907.808C1287.44 903.968 1289.74 901.256 1293.41 901.256C1297.11 901.256 1299.44 903.968 1299.44 907.808C1299.44 911.672 1297.13 914.36 1293.39 914.36ZM1293.39 912.608C1295.72 912.608 1297.16 910.688 1297.16 907.832C1297.16 904.976 1295.69 903.032 1293.41 903.032C1291.16 903.032 1289.72 904.928 1289.72 907.784C1289.72 910.664 1291.13 912.608 1293.39 912.608ZM1308.51 914.36C1304.84 914.36 1302.56 911.672 1302.56 907.808C1302.56 903.968 1304.86 901.256 1308.54 901.256C1312.23 901.256 1314.56 903.968 1314.56 907.808C1314.56 911.672 1312.26 914.36 1308.51 914.36ZM1308.51 912.608C1310.84 912.608 1312.28 910.688 1312.28 907.832C1312.28 904.976 1310.82 903.032 1308.54 903.032C1306.28 903.032 1304.84 904.928 1304.84 907.784C1304.84 910.664 1306.26 912.608 1308.51 912.608ZM1318.52 914V901.616H1320.56V903.2C1321.69 901.712 1323.25 901.352 1324.5 901.352C1326.63 901.352 1327.88 902.168 1328.43 903.56C1328.77 904.4 1328.87 905.408 1328.87 906.584V914H1326.66V907.016C1326.66 905.096 1326.39 903.104 1324.02 903.104C1321.95 903.104 1320.73 904.544 1320.73 907.52V914H1318.52ZM1337.97 914.36C1334.54 914.36 1332.59 912.776 1332.57 910.016H1334.8C1334.8 911.768 1335.98 912.656 1338.02 912.656C1339.7 912.656 1340.66 912.008 1340.66 910.808C1340.66 909.296 1339.14 908.984 1337.46 908.672C1335.3 908.264 1332.86 907.88 1332.86 904.856C1332.86 902.744 1334.78 901.256 1337.7 901.256C1340.82 901.256 1342.62 902.72 1342.65 905.408H1340.46C1340.44 903.776 1339.55 902.984 1337.66 902.984C1336.14 902.984 1335.16 903.656 1335.16 904.712C1335.16 906.104 1336.58 906.416 1338.21 906.728C1340.42 907.16 1343.01 907.592 1343.01 910.664C1343.01 912.896 1340.87 914.36 1337.97 914.36Z" fill="black"/>
<path d="M1431.33 419.226C1426.89 413.949 1427.61 406.006 1432.89 401.617C1438.17 397.174 1446.06 397.84 1450.5 403.173C1454.95 408.45 1454.22 416.337 1448.94 420.781C1446.61 422.725 1443.78 423.725 1440.94 423.725C1437.39 423.725 1433.83 422.17 1431.33 419.226ZM1126.45 420.281C1121.17 415.837 1120.51 407.95 1124.95 402.673C1129.4 397.396 1137.29 396.729 1142.57 401.173C1147.9 405.617 1148.51 413.504 1144.07 418.781C1141.57 421.725 1138.07 423.225 1134.51 423.225C1131.68 423.225 1128.84 422.281 1126.45 420.281ZM1381.55 377.288C1375.54 373.844 1373.54 366.178 1376.99 360.235C1380.43 354.291 1388.1 352.236 1394.1 355.68C1400.05 359.124 1402.1 366.789 1398.66 372.733C1396.33 376.732 1392.1 378.954 1387.82 378.954C1385.66 378.954 1383.55 378.399 1381.6 377.232L1381.55 377.288ZM1177.02 372.4C1173.57 366.456 1175.63 358.791 1181.57 355.347C1187.57 351.903 1195.24 353.958 1198.69 359.902C1202.13 365.901 1200.07 373.511 1194.07 376.955C1192.13 378.121 1189.96 378.621 1187.85 378.621C1183.57 378.621 1179.35 376.399 1177.02 372.344V372.4ZM1320.43 354.902C1313.65 353.68 1309.09 347.237 1310.31 340.46C1311.54 333.628 1317.98 329.129 1324.76 330.351C1331.59 331.517 1336.09 338.072 1334.93 344.848C1333.87 350.903 1328.59 355.125 1322.65 355.125C1321.93 355.125 1321.2 355.069 1320.43 354.958V354.902ZM1240.8 344.626C1239.64 337.849 1244.19 331.35 1250.97 330.184C1257.81 329.017 1264.25 333.517 1265.42 340.349C1266.58 347.126 1262.08 353.625 1255.25 354.791C1254.53 354.902 1253.8 354.958 1253.08 354.958C1247.14 354.958 1241.86 350.681 1240.8 344.626Z" fill="black"/>
<path d="M1487.56 552.261C1480.67 552.261 1475.06 546.651 1475.06 539.763C1475.06 532.875 1480.67 527.265 1487.56 527.265C1494.51 527.265 1500.06 532.875 1500.06 539.763C1500.06 546.706 1494.45 552.261 1487.56 552.261Z" fill="black"/>
<path d="M1075 539.541V539.319V539.041C1075 532.153 1080.61 526.598 1087.5 526.598C1094.39 526.598 1100 532.209 1100 539.096V539.319V539.541C1100 546.429 1094.39 552.039 1087.5 552.039C1080.56 552.039 1075 546.429 1075 539.541Z" fill="black"/>
<path d="M1095.34 482.494C1088.84 480.105 1085.5 472.94 1087.89 466.441C1090.28 459.942 1097.5 456.664 1103.95 459.053C1110.45 461.442 1113.78 468.607 1111.39 475.106C1109.56 480.161 1104.73 483.327 1099.67 483.327C1098.23 483.327 1096.78 483.049 1095.39 482.549L1095.34 482.494Z" fill="black"/>
<path d="M1309.87 738.677C1308.65 731.9 1313.2 725.401 1320.04 724.235C1326.82 723.013 1333.32 727.623 1334.48 734.4C1335.71 741.177 1331.15 747.676 1324.37 748.842C1323.59 748.953 1322.93 749.009 1322.2 749.009C1316.2 749.009 1310.98 744.732 1309.92 738.677H1309.87Z" fill="black"/>
<path d="M1250.53 748.786C1243.75 747.62 1239.19 741.065 1240.41 734.344C1241.58 727.567 1248.08 723.013 1254.86 724.179C1261.69 725.345 1266.2 731.9 1264.97 738.621C1263.92 744.676 1258.64 748.953 1252.69 748.953C1251.97 748.953 1251.25 748.842 1250.47 748.731L1250.53 748.786Z" fill="black"/>
<path d="M1376.6 719.069C1373.16 713.125 1375.21 705.46 1381.21 702.016C1387.21 698.572 1394.83 700.627 1398.33 706.571C1401.77 712.57 1399.72 720.18 1393.77 723.623C1391.83 724.79 1389.66 725.29 1387.55 725.29C1383.21 725.29 1379.05 723.012 1376.66 719.069H1376.6Z" fill="black"/>
<path d="M1181.18 723.512C1175.24 720.069 1173.18 712.403 1176.63 706.404C1180.07 700.46 1187.74 698.405 1193.74 701.849C1199.69 705.293 1201.74 712.959 1198.3 718.902C1195.96 722.901 1191.74 725.123 1187.46 725.123C1185.35 725.123 1183.18 724.568 1181.24 723.457L1181.18 723.512Z" fill="black"/>
<path d="M1432.61 677.742C1427.33 673.353 1426.66 665.41 1431.11 660.133C1435.55 654.856 1443.44 654.19 1448.72 658.633C1454 663.077 1454.67 670.965 1450.22 676.242C1447.78 679.186 1444.22 680.686 1440.67 680.686C1437.83 680.686 1435 679.741 1432.61 677.742Z" fill="black"/>
<path d="M1124.67 676.075C1120.23 670.798 1120.95 662.911 1126.23 658.467C1131.51 654.023 1139.4 654.745 1143.84 660.022C1148.29 665.299 1147.57 673.187 1142.34 677.631C1139.95 679.575 1137.12 680.575 1134.29 680.575C1130.67 680.575 1127.17 679.075 1124.67 676.131V676.075Z" fill="black"/>
<path d="M1471.23 619.862C1464.73 617.473 1461.39 610.308 1463.72 603.809C1466.11 597.31 1473.28 593.977 1479.73 596.365C1486.23 598.754 1489.56 605.92 1487.17 612.419C1485.34 617.529 1480.56 620.64 1475.45 620.64C1474 620.64 1472.56 620.417 1471.17 619.862H1471.23Z" fill="black"/>
<path d="M1087.72 612.196C1085.39 605.697 1088.72 598.531 1095.23 596.143C1101.73 593.754 1108.89 597.143 1111.23 603.586C1113.62 610.085 1110.23 617.251 1103.78 619.639C1102.34 620.139 1100.89 620.417 1099.5 620.417C1094.39 620.417 1089.56 617.306 1087.72 612.196Z" fill="black"/>
<path d="M1475.06 483.216C1469.95 483.216 1465.17 480.05 1463.34 474.995C1460.95 468.496 1464.28 461.33 1470.78 458.942C1477.28 456.553 1484.45 459.886 1486.84 466.33C1489.17 472.829 1485.84 479.994 1479.39 482.383C1478 482.883 1476.56 483.16 1475.12 483.16L1475.06 483.216Z" fill="black"/>
</svg>
