<svg width="1920" height="1080" viewBox="0 0 1920 1080" fill="none" xmlns="http://www.w3.org/2000/svg">
<rect width="1920" height="1080" fill="#F5F5F5"/>
<rect x="298.707" y="207" width="76.0976" height="76.0976" rx="38.0488" fill="#FF2A00"/>
<path d="M298 345.878H295.6V328.502H305.584V330.422H298V336.23H305.152V338.15H298V345.878ZM312.39 345.878H309.99V328.502H319.974V330.422H312.39V336.23H319.542V338.15H312.39V345.878ZM334.269 345.878H323.277V345.182C323.277 341.534 325.293 339.566 328.221 337.622C330.957 335.822 331.869 334.694 331.869 332.798C331.869 331.022 330.621 329.966 328.821 329.966C326.757 329.966 325.581 331.238 325.485 333.71H323.253C323.301 330.158 325.653 328.142 329.013 328.142C332.181 328.142 334.173 330.182 334.173 332.918C334.173 335.318 332.949 336.83 329.829 338.966C328.173 340.094 326.061 341.51 325.773 343.934H334.269V345.878ZM347.915 345.878L346.307 340.814H339.995L338.411 345.878H336.011L341.963 328.502H344.363L350.315 345.878H347.915ZM343.115 330.998L340.619 338.87H345.683L343.211 330.998H343.115ZM357.53 328.142C361.226 328.142 363.53 331.286 363.53 337.166C363.53 343.19 361.226 346.238 357.53 346.238C353.834 346.238 351.554 343.046 351.554 337.166C351.554 331.286 353.834 328.142 357.53 328.142ZM357.53 329.966C355.058 329.966 353.906 332.438 353.906 337.166C353.906 341.798 355.058 344.414 357.53 344.414C359.978 344.414 361.154 341.798 361.154 337.166C361.154 332.438 359.978 329.966 357.53 329.966ZM371.921 328.142C375.617 328.142 377.921 331.286 377.921 337.166C377.921 343.19 375.617 346.238 371.921 346.238C368.225 346.238 365.945 343.046 365.945 337.166C365.945 331.286 368.225 328.142 371.921 328.142ZM371.921 329.966C369.449 329.966 368.297 332.438 368.297 337.166C368.297 341.798 369.449 344.414 371.921 344.414C374.369 344.414 375.545 341.798 375.545 337.166C375.545 332.438 374.369 329.966 371.921 329.966Z" fill="black"/>
<rect x="438.22" y="207" width="76.0976" height="76.0976" rx="38.0488" fill="#00A3FF"/>
<path d="M438.687 328.142C442.383 328.142 444.687 331.286 444.687 337.166C444.687 343.19 442.383 346.238 438.687 346.238C434.991 346.238 432.711 343.046 432.711 337.166C432.711 331.286 434.991 328.142 438.687 328.142ZM438.687 329.966C436.215 329.966 435.063 332.438 435.063 337.166C435.063 341.798 436.215 344.414 438.687 344.414C441.135 344.414 442.311 341.798 442.311 337.166C442.311 332.438 441.135 329.966 438.687 329.966ZM453.078 328.142C456.774 328.142 459.078 331.286 459.078 337.166C459.078 343.19 456.774 346.238 453.078 346.238C449.382 346.238 447.102 343.046 447.102 337.166C447.102 331.286 449.382 328.142 453.078 328.142ZM453.078 329.966C450.606 329.966 449.454 332.438 449.454 337.166C449.454 341.798 450.606 344.414 453.078 344.414C455.526 344.414 456.702 341.798 456.702 337.166C456.702 332.438 455.526 329.966 453.078 329.966ZM472.244 345.878L470.636 340.814H464.324L462.74 345.878H460.34L466.292 328.502H468.692L474.644 345.878H472.244ZM467.444 330.998L464.948 338.87H470.012L467.54 330.998H467.444ZM475.931 340.694H478.283C478.283 343.022 479.603 344.414 481.835 344.414C483.971 344.414 485.291 342.974 485.291 341.054C485.291 339.086 483.947 337.958 481.691 337.958H480.923V336.11H481.451C483.779 336.11 485.099 335.054 485.099 332.966C485.099 331.142 483.827 329.966 481.859 329.966C479.747 329.966 478.475 331.214 478.403 333.446H476.123C476.267 330.062 478.451 328.142 481.979 328.142C485.219 328.142 487.427 330.062 487.427 332.774C487.427 334.742 486.179 336.47 484.451 336.902V337.022C486.539 337.574 487.643 338.942 487.643 341.102C487.643 344.03 485.411 346.238 481.715 346.238C478.139 346.238 475.931 344.054 475.931 340.694ZM494.282 345.878H491.882V328.502H501.866V330.422H494.282V336.23H501.434V338.15H494.282V345.878ZM508.672 345.878H506.272V328.502H516.256V330.422H508.672V336.23H515.824V338.15H508.672V345.878Z" fill="black"/>
<rect x="576.146" y="207" width="76.0976" height="76.0976" rx="38.0488" fill="#EA80D1"/>
<path d="M582.11 345.878H572.102V328.502H581.726V330.422H574.502V336.014H581.342V337.934H574.502V343.958H582.11V345.878ZM595.781 345.878L594.173 340.814H587.861L586.277 345.878H583.877L589.829 328.502H592.229L598.181 345.878H595.781ZM590.981 330.998L588.485 338.87H593.549L591.077 330.998H590.981ZM605.443 346.238C601.939 346.238 599.515 344.318 599.515 341.222C599.515 338.918 600.595 337.526 602.947 336.902V336.782C601.027 336.35 599.971 334.79 599.971 332.774C599.971 330.014 602.059 328.142 605.443 328.142C608.779 328.142 610.867 330.014 610.867 332.774C610.867 334.79 609.835 336.35 607.891 336.782V336.902C610.243 337.526 611.323 338.918 611.323 341.222C611.323 344.318 608.899 346.238 605.443 346.238ZM605.443 335.942C607.363 335.942 608.635 334.718 608.635 332.87C608.635 331.118 607.411 329.918 605.443 329.918C603.451 329.918 602.203 331.118 602.203 332.87C602.203 334.718 603.499 335.942 605.443 335.942ZM605.443 344.462C607.555 344.462 608.971 343.19 608.971 341.078C608.971 339.086 607.555 337.79 605.443 337.79C603.307 337.79 601.891 339.086 601.891 341.078C601.891 343.19 603.307 344.462 605.443 344.462ZM619.786 328.142C623.482 328.142 625.786 331.286 625.786 337.166C625.786 343.19 623.482 346.238 619.786 346.238C616.09 346.238 613.81 343.046 613.81 337.166C613.81 331.286 616.09 328.142 619.786 328.142ZM619.786 329.966C617.314 329.966 616.162 332.438 616.162 337.166C616.162 341.798 617.314 344.414 619.786 344.414C622.234 344.414 623.41 341.798 623.41 337.166C623.41 332.438 622.234 329.966 619.786 329.966ZM628.608 345.878V328.502H632.832C637.872 328.502 640.704 331.406 640.704 337.142C640.704 342.47 637.8 345.878 632.832 345.878H628.608ZM630.912 343.958H632.544C636.312 343.958 638.304 341.702 638.304 337.142C638.304 332.63 636.576 330.422 632.544 330.422H630.912V343.958ZM644.367 345.878V343.934H647.967V333.014H644.367V331.454C647.079 331.31 648.063 330.542 648.303 328.502H650.151V343.934H653.751V345.878H644.367Z" fill="black"/>
<rect x="714.073" y="207" width="76.0976" height="76.0976" rx="38.0488" fill="#4EBB5B"/>
<path d="M721.645 339.446V341.342H718.693V345.878H716.461V341.342H708.949V339.518L716.029 328.502H718.693V339.446H721.645ZM714.949 333.518L711.301 339.446H716.581V335.63C716.581 334.478 716.605 332.222 716.701 331.022L716.533 330.998C716.005 331.958 715.549 332.558 714.949 333.518ZM735.22 345.878H725.212V328.502H734.836V330.422H727.612V336.014H734.452V337.934H727.612V343.958H735.22V345.878ZM739.027 345.878V328.502H742.723C745.795 328.502 749.635 328.646 749.635 333.014C749.635 334.718 748.627 336.374 746.659 336.854V336.95C748.867 337.454 750.115 338.63 750.115 341.078C750.115 345.302 746.107 345.878 742.723 345.878H739.027ZM741.331 336.086H742.819C745.219 336.086 747.331 335.606 747.331 333.302C747.331 330.638 745.243 330.422 742.627 330.422H741.331V336.086ZM741.331 343.958H742.723C745.387 343.958 747.715 343.766 747.715 341.078C747.715 338.606 746.587 338.006 742.915 338.006H741.331V343.958ZM753.417 345.878V328.502H757.113C760.185 328.502 764.025 328.646 764.025 333.014C764.025 334.718 763.017 336.374 761.049 336.854V336.95C763.257 337.454 764.505 338.63 764.505 341.078C764.505 345.302 760.497 345.878 757.113 345.878H753.417ZM755.721 336.086H757.209C759.609 336.086 761.721 335.606 761.721 333.302C761.721 330.638 759.633 330.422 757.017 330.422H755.721V336.086ZM755.721 343.958H757.113C759.777 343.958 762.105 343.766 762.105 341.078C762.105 338.606 760.977 338.006 757.305 338.006H755.721V343.958ZM767.448 338.246L768.36 328.502H777.792V330.422H770.208L769.632 336.086C770.568 334.79 771.816 334.358 773.448 334.358C776.76 334.358 778.8 336.806 778.8 340.19C778.8 343.742 776.376 346.238 772.944 346.238C769.776 346.238 767.616 344.414 767.232 341.51H769.536C769.752 343.31 771.072 344.414 772.92 344.414C775.056 344.414 776.472 342.902 776.472 340.31C776.472 337.91 775.224 336.182 773.016 336.182C771.408 336.182 770.352 336.974 769.8 338.462L767.448 338.246ZM782.199 345.878V328.502H785.895C788.967 328.502 792.807 328.646 792.807 333.014C792.807 334.718 791.799 336.374 789.831 336.854V336.95C792.039 337.454 793.287 338.63 793.287 341.078C793.287 345.302 789.279 345.878 785.895 345.878H782.199ZM784.503 336.086H785.991C788.391 336.086 790.503 335.606 790.503 333.302C790.503 330.638 788.415 330.422 785.799 330.422H784.503V336.086ZM784.503 343.958H785.895C788.559 343.958 790.887 343.766 790.887 341.078C790.887 338.606 789.759 338.006 786.087 338.006H784.503V343.958Z" fill="black"/>
<rect x="853.585" y="207" width="76.0976" height="76.0976" rx="38.0488" fill="#FFB13C"/>
<path d="M852.085 345.878H849.685V328.502H859.669V330.422H852.085V336.23H859.237V338.15H852.085V345.878ZM866.475 345.878H864.075V328.502H874.059V330.422H866.475V336.23H873.627V338.15H866.475V345.878ZM877.746 345.878V328.502H881.442C884.514 328.502 888.354 328.646 888.354 333.014C888.354 334.718 887.346 336.374 885.378 336.854V336.95C887.586 337.454 888.834 338.63 888.834 341.078C888.834 345.302 884.826 345.878 881.442 345.878H877.746ZM880.05 336.086H881.538C883.938 336.086 886.05 335.606 886.05 333.302C886.05 330.638 883.962 330.422 881.346 330.422H880.05V336.086ZM880.05 343.958H881.442C884.106 343.958 886.434 343.766 886.434 341.078C886.434 338.606 885.306 338.006 881.634 338.006H880.05V343.958ZM901.281 340.094H903.585C902.913 343.934 900.849 346.238 897.537 346.238C893.481 346.238 891.201 342.638 891.201 337.166C891.201 331.694 893.625 328.142 897.609 328.142C900.921 328.142 902.865 329.966 903.585 334.142H901.281C900.753 331.382 899.457 330.062 897.609 330.062C895.089 330.062 893.601 332.846 893.601 337.166C893.601 341.486 895.017 344.318 897.537 344.318C899.457 344.318 900.777 342.782 901.281 340.094ZM906.167 338.246L907.079 328.502H916.511V330.422H908.927L908.351 336.086C909.287 334.79 910.535 334.358 912.167 334.358C915.479 334.358 917.519 336.806 917.519 340.19C917.519 343.742 915.095 346.238 911.663 346.238C908.495 346.238 906.335 344.414 905.951 341.51H908.255C908.471 343.31 909.791 344.414 911.639 344.414C913.775 344.414 915.191 342.902 915.191 340.31C915.191 337.91 913.943 336.182 911.735 336.182C910.127 336.182 909.071 336.974 908.519 338.462L906.167 338.246ZM925.718 345.878H923.246C924.23 340.814 926.366 335.606 929.174 330.446H920.534V328.502H931.598V330.158C928.958 335.054 926.774 340.19 925.718 345.878Z" fill="black"/>
<rect x="989.927" y="207" width="76.0976" height="76.0976" rx="38.0488" fill="#800000"/>
<path d="M991.235 346.238C987.731 346.238 985.307 344.318 985.307 341.222C985.307 338.918 986.387 337.526 988.739 336.902V336.782C986.819 336.35 985.763 334.79 985.763 332.774C985.763 330.014 987.851 328.142 991.235 328.142C994.571 328.142 996.659 330.014 996.659 332.774C996.659 334.79 995.627 336.35 993.683 336.782V336.902C996.035 337.526 997.115 338.918 997.115 341.222C997.115 344.318 994.691 346.238 991.235 346.238ZM991.235 335.942C993.155 335.942 994.427 334.718 994.427 332.87C994.427 331.118 993.203 329.918 991.235 329.918C989.243 329.918 987.995 331.118 987.995 332.87C987.995 334.718 989.291 335.942 991.235 335.942ZM991.235 344.462C993.347 344.462 994.763 343.19 994.763 341.078C994.763 339.086 993.347 337.79 991.235 337.79C989.099 337.79 987.683 339.086 987.683 341.078C987.683 343.19 989.099 344.462 991.235 344.462ZM1005.58 328.142C1009.27 328.142 1011.58 331.286 1011.58 337.166C1011.58 343.19 1009.27 346.238 1005.58 346.238C1001.88 346.238 999.602 343.046 999.602 337.166C999.602 331.286 1001.88 328.142 1005.58 328.142ZM1005.58 329.966C1003.11 329.966 1001.95 332.438 1001.95 337.166C1001.95 341.798 1003.11 344.414 1005.58 344.414C1008.03 344.414 1009.2 341.798 1009.2 337.166C1009.2 332.438 1008.03 329.966 1005.58 329.966ZM1019.97 328.142C1023.66 328.142 1025.97 331.286 1025.97 337.166C1025.97 343.19 1023.66 346.238 1019.97 346.238C1016.27 346.238 1013.99 343.046 1013.99 337.166C1013.99 331.286 1016.27 328.142 1019.97 328.142ZM1019.97 329.966C1017.5 329.966 1016.34 332.438 1016.34 337.166C1016.34 341.798 1017.5 344.414 1019.97 344.414C1022.42 344.414 1023.59 341.798 1023.59 337.166C1023.59 332.438 1022.42 329.966 1019.97 329.966ZM1034.36 328.142C1038.05 328.142 1040.36 331.286 1040.36 337.166C1040.36 343.19 1038.05 346.238 1034.36 346.238C1030.66 346.238 1028.38 343.046 1028.38 337.166C1028.38 331.286 1030.66 328.142 1034.36 328.142ZM1034.36 329.966C1031.89 329.966 1030.73 332.438 1030.73 337.166C1030.73 341.798 1031.89 344.414 1034.36 344.414C1036.81 344.414 1037.98 341.798 1037.98 337.166C1037.98 332.438 1036.81 329.966 1034.36 329.966ZM1048.75 328.142C1052.45 328.142 1054.75 331.286 1054.75 337.166C1054.75 343.19 1052.45 346.238 1048.75 346.238C1045.05 346.238 1042.77 343.046 1042.77 337.166C1042.77 331.286 1045.05 328.142 1048.75 328.142ZM1048.75 329.966C1046.28 329.966 1045.13 332.438 1045.13 337.166C1045.13 341.798 1046.28 344.414 1048.75 344.414C1051.2 344.414 1052.37 341.798 1052.37 337.166C1052.37 332.438 1051.2 329.966 1048.75 329.966ZM1063.14 328.142C1066.84 328.142 1069.14 331.286 1069.14 337.166C1069.14 343.19 1066.84 346.238 1063.14 346.238C1059.44 346.238 1057.16 343.046 1057.16 337.166C1057.16 331.286 1059.44 328.142 1063.14 328.142ZM1063.14 329.966C1060.67 329.966 1059.52 332.438 1059.52 337.166C1059.52 341.798 1060.67 344.414 1063.14 344.414C1065.59 344.414 1066.76 341.798 1066.76 337.166C1066.76 332.438 1065.59 329.966 1063.14 329.966Z" fill="black"/>
<rect x="1134.2" y="207" width="76.0976" height="76.0976" rx="38.0488" fill="#A0A0A0"/>
<path d="M1139.44 345.878L1137.83 340.814H1131.52L1129.93 345.878H1127.53L1133.49 328.502H1135.89L1141.84 345.878H1139.44ZM1134.64 330.998L1132.14 338.87H1137.21L1134.73 330.998H1134.64ZM1149.05 328.142C1152.75 328.142 1155.05 331.286 1155.05 337.166C1155.05 343.19 1152.75 346.238 1149.05 346.238C1145.36 346.238 1143.08 343.046 1143.08 337.166C1143.08 331.286 1145.36 328.142 1149.05 328.142ZM1149.05 329.966C1146.58 329.966 1145.43 332.438 1145.43 337.166C1145.43 341.798 1146.58 344.414 1149.05 344.414C1151.5 344.414 1152.68 341.798 1152.68 337.166C1152.68 332.438 1151.5 329.966 1149.05 329.966ZM1168.22 345.878L1166.61 340.814H1160.3L1158.72 345.878H1156.32L1162.27 328.502H1164.67L1170.62 345.878H1168.22ZM1163.42 330.998L1160.92 338.87H1165.99L1163.52 330.998H1163.42ZM1177.83 328.142C1181.53 328.142 1183.83 331.286 1183.83 337.166C1183.83 343.19 1181.53 346.238 1177.83 346.238C1174.14 346.238 1171.86 343.046 1171.86 337.166C1171.86 331.286 1174.14 328.142 1177.83 328.142ZM1177.83 329.966C1175.36 329.966 1174.21 332.438 1174.21 337.166C1174.21 341.798 1175.36 344.414 1177.83 344.414C1180.28 344.414 1181.46 341.798 1181.46 337.166C1181.46 332.438 1180.28 329.966 1177.83 329.966ZM1197 345.878L1195.39 340.814H1189.08L1187.5 345.878H1185.1L1191.05 328.502H1193.45L1199.4 345.878H1197ZM1192.2 330.998L1189.71 338.87H1194.77L1192.3 330.998H1192.2ZM1206.62 328.142C1210.31 328.142 1212.62 331.286 1212.62 337.166C1212.62 343.19 1210.31 346.238 1206.62 346.238C1202.92 346.238 1200.64 343.046 1200.64 337.166C1200.64 331.286 1202.92 328.142 1206.62 328.142ZM1206.62 329.966C1204.14 329.966 1202.99 332.438 1202.99 337.166C1202.99 341.798 1204.14 344.414 1206.62 344.414C1209.06 344.414 1210.24 341.798 1210.24 337.166C1210.24 332.438 1209.06 329.966 1206.62 329.966Z" fill="black"/>
<rect x="1280.05" y="207" width="76.0976" height="76.0976" rx="38.0488" fill="#C2C600"/>
<path d="M1284.57 340.094H1286.88C1286.2 343.934 1284.14 346.238 1280.83 346.238C1276.77 346.238 1274.49 342.638 1274.49 337.166C1274.49 331.694 1276.92 328.142 1280.9 328.142C1284.21 328.142 1286.16 329.966 1286.88 334.142H1284.57C1284.04 331.382 1282.75 330.062 1280.9 330.062C1278.38 330.062 1276.89 332.846 1276.89 337.166C1276.89 341.486 1278.31 344.318 1280.83 344.318C1282.75 344.318 1284.07 342.782 1284.57 340.094ZM1300.43 345.878H1289.44V345.182C1289.44 341.534 1291.45 339.566 1294.38 337.622C1297.12 335.822 1298.03 334.694 1298.03 332.798C1298.03 331.022 1296.78 329.966 1294.98 329.966C1292.92 329.966 1291.74 331.238 1291.64 333.71H1289.41C1289.46 330.158 1291.81 328.142 1295.17 328.142C1298.34 328.142 1300.33 330.182 1300.33 332.918C1300.33 335.318 1299.11 336.83 1295.99 338.966C1294.33 340.094 1292.22 341.51 1291.93 343.934H1300.43V345.878ZM1313.35 340.094H1315.66C1314.99 343.934 1312.92 346.238 1309.61 346.238C1305.55 346.238 1303.27 342.638 1303.27 337.166C1303.27 331.694 1305.7 328.142 1309.68 328.142C1312.99 328.142 1314.94 329.966 1315.66 334.142H1313.35C1312.83 331.382 1311.53 330.062 1309.68 330.062C1307.16 330.062 1305.67 332.846 1305.67 337.166C1305.67 341.486 1307.09 344.318 1309.61 344.318C1311.53 344.318 1312.85 342.782 1313.35 340.094ZM1329.4 332.654H1327.05C1326.86 330.878 1325.85 329.966 1324.17 329.966C1321.7 329.966 1320.21 332.486 1320.21 336.35V336.95C1321.14 335.318 1322.54 334.526 1324.38 334.526C1327.12 334.526 1329.57 336.614 1329.57 340.238C1329.57 344.03 1327.24 346.238 1323.98 346.238C1319.75 346.238 1317.93 342.974 1317.93 337.286C1317.93 331.502 1320.18 328.142 1324.17 328.142C1327.17 328.142 1329.09 329.798 1329.4 332.654ZM1324.07 336.35C1322.08 336.35 1320.59 338.054 1320.59 340.286C1320.59 342.662 1322.08 344.438 1324.07 344.438C1325.99 344.438 1327.31 342.83 1327.31 340.334C1327.31 338.006 1326.06 336.35 1324.07 336.35ZM1338.08 328.142C1341.77 328.142 1344.08 331.286 1344.08 337.166C1344.08 343.19 1341.77 346.238 1338.08 346.238C1334.38 346.238 1332.1 343.046 1332.1 337.166C1332.1 331.286 1334.38 328.142 1338.08 328.142ZM1338.08 329.966C1335.61 329.966 1334.45 332.438 1334.45 337.166C1334.45 341.798 1335.61 344.414 1338.08 344.414C1340.53 344.414 1341.7 341.798 1341.7 337.166C1341.7 332.438 1340.53 329.966 1338.08 329.966ZM1352.47 328.142C1356.17 328.142 1358.47 331.286 1358.47 337.166C1358.47 343.19 1356.17 346.238 1352.47 346.238C1348.77 346.238 1346.49 343.046 1346.49 337.166C1346.49 331.286 1348.77 328.142 1352.47 328.142ZM1352.47 329.966C1350 329.966 1348.85 332.438 1348.85 337.166C1348.85 341.798 1350 344.414 1352.47 344.414C1354.92 344.414 1356.09 341.798 1356.09 337.166C1356.09 332.438 1354.92 329.966 1352.47 329.966Z" fill="black"/>
<rect x="1417.98" y="207" width="76.0976" height="76.0976" rx="38.0488" fill="#8476DE"/>
<path d="M1419.28 346.238C1415.78 346.238 1413.36 344.318 1413.36 341.222C1413.36 338.918 1414.44 337.526 1416.79 336.902V336.782C1414.87 336.35 1413.81 334.79 1413.81 332.774C1413.81 330.014 1415.9 328.142 1419.28 328.142C1422.62 328.142 1424.71 330.014 1424.71 332.774C1424.71 334.79 1423.68 336.35 1421.73 336.782V336.902C1424.08 337.526 1425.16 338.918 1425.16 341.222C1425.16 344.318 1422.74 346.238 1419.28 346.238ZM1419.28 335.942C1421.2 335.942 1422.48 334.718 1422.48 332.87C1422.48 331.118 1421.25 329.918 1419.28 329.918C1417.29 329.918 1416.04 331.118 1416.04 332.87C1416.04 334.718 1417.34 335.942 1419.28 335.942ZM1419.28 344.462C1421.4 344.462 1422.81 343.19 1422.81 341.078C1422.81 339.086 1421.4 337.79 1419.28 337.79C1417.15 337.79 1415.73 339.086 1415.73 341.078C1415.73 343.19 1417.15 344.462 1419.28 344.462ZM1439.94 339.446V341.342H1436.99V345.878H1434.75V341.342H1427.24V339.518L1434.32 328.502H1436.99V339.446H1439.94ZM1433.24 333.518L1429.59 339.446H1434.87V335.63C1434.87 334.478 1434.9 332.222 1434.99 331.022L1434.83 330.998C1434.3 331.958 1433.84 332.558 1433.24 333.518ZM1447.73 345.878H1445.26C1446.24 340.814 1448.38 335.606 1451.18 330.446H1442.54V328.502H1453.61V330.158C1450.97 335.054 1448.78 340.19 1447.73 345.878ZM1468.12 332.654H1465.77C1465.58 330.878 1464.57 329.966 1462.89 329.966C1460.42 329.966 1458.93 332.486 1458.93 336.35V336.95C1459.86 335.318 1461.26 334.526 1463.1 334.526C1465.84 334.526 1468.29 336.614 1468.29 340.238C1468.29 344.03 1465.96 346.238 1462.7 346.238C1458.47 346.238 1456.65 342.974 1456.65 337.286C1456.65 331.502 1458.9 328.142 1462.89 328.142C1465.89 328.142 1467.81 329.798 1468.12 332.654ZM1462.79 336.35C1460.8 336.35 1459.31 338.054 1459.31 340.286C1459.31 342.662 1460.8 344.438 1462.79 344.438C1464.71 344.438 1466.03 342.83 1466.03 340.334C1466.03 338.006 1464.78 336.35 1462.79 336.35ZM1471.23 345.878V328.502H1475.45C1480.49 328.502 1483.33 331.406 1483.33 337.142C1483.33 342.47 1480.42 345.878 1475.45 345.878H1471.23ZM1473.53 343.958H1475.17C1478.93 343.958 1480.93 341.702 1480.93 337.142C1480.93 332.63 1479.2 330.422 1475.17 330.422H1473.53V343.958ZM1496.68 345.878H1486.68V328.502H1496.3V330.422H1489.08V336.014H1495.92V337.934H1489.08V343.958H1496.68V345.878Z" fill="black"/>
<rect x="1551.15" y="207" width="76.0976" height="76.0976" rx="38.0488" fill="#17CFCF"/>
<path d="M1547.41 345.878V343.934H1551.01V333.014H1547.41V331.454C1550.13 331.31 1551.11 330.542 1551.35 328.502H1553.2V343.934H1556.8V345.878H1547.41ZM1565.72 345.878H1563.24C1564.23 340.814 1566.36 335.606 1569.17 330.446H1560.53V328.502H1571.6V330.158C1568.96 335.054 1566.77 340.19 1565.72 345.878ZM1584.45 340.094H1586.76C1586.08 343.934 1584.02 346.238 1580.71 346.238C1576.65 346.238 1574.37 342.638 1574.37 337.166C1574.37 331.694 1576.8 328.142 1580.78 328.142C1584.09 328.142 1586.04 329.966 1586.76 334.142H1584.45C1583.92 331.382 1582.63 330.062 1580.78 330.062C1578.26 330.062 1576.77 332.846 1576.77 337.166C1576.77 341.486 1578.19 344.318 1580.71 344.318C1582.63 344.318 1583.95 342.782 1584.45 340.094ZM1592.82 345.878H1590.42V328.502H1600.4V330.422H1592.82V336.23H1599.97V338.15H1592.82V345.878ZM1613.23 340.094H1615.54C1614.86 343.934 1612.8 346.238 1609.49 346.238C1605.43 346.238 1603.15 342.638 1603.15 337.166C1603.15 331.694 1605.58 328.142 1609.56 328.142C1612.87 328.142 1614.82 329.966 1615.54 334.142H1613.23C1612.7 331.382 1611.41 330.062 1609.56 330.062C1607.04 330.062 1605.55 332.846 1605.55 337.166C1605.55 341.486 1606.97 344.318 1609.49 344.318C1611.41 344.318 1612.73 342.782 1613.23 340.094ZM1621.6 345.878H1619.2V328.502H1629.18V330.422H1621.6V336.23H1628.75V338.15H1621.6V345.878Z" fill="black"/>
<rect y="539" width="1920" height="541" fill="black"/>
<rect x="298.707" y="744" width="76.0976" height="76.0976" rx="38.0488" fill="#FF2A00"/>
<path d="M298 882.878H295.6V865.502H305.584V867.422H298V873.23H305.152V875.15H298V882.878ZM312.39 882.878H309.99V865.502H319.974V867.422H312.39V873.23H319.542V875.15H312.39V882.878ZM334.269 882.878H323.277V882.182C323.277 878.534 325.293 876.566 328.221 874.622C330.957 872.822 331.869 871.694 331.869 869.798C331.869 868.022 330.621 866.966 328.821 866.966C326.757 866.966 325.581 868.238 325.485 870.71H323.253C323.301 867.158 325.653 865.142 329.013 865.142C332.181 865.142 334.173 867.182 334.173 869.918C334.173 872.318 332.949 873.83 329.829 875.966C328.173 877.094 326.061 878.51 325.773 880.934H334.269V882.878ZM347.915 882.878L346.307 877.814H339.995L338.411 882.878H336.011L341.963 865.502H344.363L350.315 882.878H347.915ZM343.115 867.998L340.619 875.87H345.683L343.211 867.998H343.115ZM357.53 865.142C361.226 865.142 363.53 868.286 363.53 874.166C363.53 880.19 361.226 883.238 357.53 883.238C353.834 883.238 351.554 880.046 351.554 874.166C351.554 868.286 353.834 865.142 357.53 865.142ZM357.53 866.966C355.058 866.966 353.906 869.438 353.906 874.166C353.906 878.798 355.058 881.414 357.53 881.414C359.978 881.414 361.154 878.798 361.154 874.166C361.154 869.438 359.978 866.966 357.53 866.966ZM371.921 865.142C375.617 865.142 377.921 868.286 377.921 874.166C377.921 880.19 375.617 883.238 371.921 883.238C368.225 883.238 365.945 880.046 365.945 874.166C365.945 868.286 368.225 865.142 371.921 865.142ZM371.921 866.966C369.449 866.966 368.297 869.438 368.297 874.166C368.297 878.798 369.449 881.414 371.921 881.414C374.369 881.414 375.545 878.798 375.545 874.166C375.545 869.438 374.369 866.966 371.921 866.966Z" fill="white"/>
<rect x="438.22" y="744" width="76.0976" height="76.0976" rx="38.0488" fill="#00A3FF"/>
<path d="M438.687 865.142C442.383 865.142 444.687 868.286 444.687 874.166C444.687 880.19 442.383 883.238 438.687 883.238C434.991 883.238 432.711 880.046 432.711 874.166C432.711 868.286 434.991 865.142 438.687 865.142ZM438.687 866.966C436.215 866.966 435.063 869.438 435.063 874.166C435.063 878.798 436.215 881.414 438.687 881.414C441.135 881.414 442.311 878.798 442.311 874.166C442.311 869.438 441.135 866.966 438.687 866.966ZM453.078 865.142C456.774 865.142 459.078 868.286 459.078 874.166C459.078 880.19 456.774 883.238 453.078 883.238C449.382 883.238 447.102 880.046 447.102 874.166C447.102 868.286 449.382 865.142 453.078 865.142ZM453.078 866.966C450.606 866.966 449.454 869.438 449.454 874.166C449.454 878.798 450.606 881.414 453.078 881.414C455.526 881.414 456.702 878.798 456.702 874.166C456.702 869.438 455.526 866.966 453.078 866.966ZM472.244 882.878L470.636 877.814H464.324L462.74 882.878H460.34L466.292 865.502H468.692L474.644 882.878H472.244ZM467.444 867.998L464.948 875.87H470.012L467.54 867.998H467.444ZM475.931 877.694H478.283C478.283 880.022 479.603 881.414 481.835 881.414C483.971 881.414 485.291 879.974 485.291 878.054C485.291 876.086 483.947 874.958 481.691 874.958H480.923V873.11H481.451C483.779 873.11 485.099 872.054 485.099 869.966C485.099 868.142 483.827 866.966 481.859 866.966C479.747 866.966 478.475 868.214 478.403 870.446H476.123C476.267 867.062 478.451 865.142 481.979 865.142C485.219 865.142 487.427 867.062 487.427 869.774C487.427 871.742 486.179 873.47 484.451 873.902V874.022C486.539 874.574 487.643 875.942 487.643 878.102C487.643 881.03 485.411 883.238 481.715 883.238C478.139 883.238 475.931 881.054 475.931 877.694ZM494.282 882.878H491.882V865.502H501.866V867.422H494.282V873.23H501.434V875.15H494.282V882.878ZM508.672 882.878H506.272V865.502H516.256V867.422H508.672V873.23H515.824V875.15H508.672V882.878Z" fill="white"/>
<rect x="576.146" y="744" width="76.0976" height="76.0976" rx="38.0488" fill="#EA80D1"/>
<path d="M582.11 882.878H572.102V865.502H581.726V867.422H574.502V873.014H581.342V874.934H574.502V880.958H582.11V882.878ZM595.781 882.878L594.173 877.814H587.861L586.277 882.878H583.877L589.829 865.502H592.229L598.181 882.878H595.781ZM590.981 867.998L588.485 875.87H593.549L591.077 867.998H590.981ZM605.443 883.238C601.939 883.238 599.515 881.318 599.515 878.222C599.515 875.918 600.595 874.526 602.947 873.902V873.782C601.027 873.35 599.971 871.79 599.971 869.774C599.971 867.014 602.059 865.142 605.443 865.142C608.779 865.142 610.867 867.014 610.867 869.774C610.867 871.79 609.835 873.35 607.891 873.782V873.902C610.243 874.526 611.323 875.918 611.323 878.222C611.323 881.318 608.899 883.238 605.443 883.238ZM605.443 872.942C607.363 872.942 608.635 871.718 608.635 869.87C608.635 868.118 607.411 866.918 605.443 866.918C603.451 866.918 602.203 868.118 602.203 869.87C602.203 871.718 603.499 872.942 605.443 872.942ZM605.443 881.462C607.555 881.462 608.971 880.19 608.971 878.078C608.971 876.086 607.555 874.79 605.443 874.79C603.307 874.79 601.891 876.086 601.891 878.078C601.891 880.19 603.307 881.462 605.443 881.462ZM619.786 865.142C623.482 865.142 625.786 868.286 625.786 874.166C625.786 880.19 623.482 883.238 619.786 883.238C616.09 883.238 613.81 880.046 613.81 874.166C613.81 868.286 616.09 865.142 619.786 865.142ZM619.786 866.966C617.314 866.966 616.162 869.438 616.162 874.166C616.162 878.798 617.314 881.414 619.786 881.414C622.234 881.414 623.41 878.798 623.41 874.166C623.41 869.438 622.234 866.966 619.786 866.966ZM628.608 882.878V865.502H632.832C637.872 865.502 640.704 868.406 640.704 874.142C640.704 879.47 637.8 882.878 632.832 882.878H628.608ZM630.912 880.958H632.544C636.312 880.958 638.304 878.702 638.304 874.142C638.304 869.63 636.576 867.422 632.544 867.422H630.912V880.958ZM644.367 882.878V880.934H647.967V870.014H644.367V868.454C647.079 868.31 648.063 867.542 648.303 865.502H650.151V880.934H653.751V882.878H644.367Z" fill="white"/>
<rect x="714.073" y="744" width="76.0976" height="76.0976" rx="38.0488" fill="#4EBB5B"/>
<path d="M721.645 876.446V878.342H718.693V882.878H716.461V878.342H708.949V876.518L716.029 865.502H718.693V876.446H721.645ZM714.949 870.518L711.301 876.446H716.581V872.63C716.581 871.478 716.605 869.222 716.701 868.022L716.533 867.998C716.005 868.958 715.549 869.558 714.949 870.518ZM735.22 882.878H725.212V865.502H734.836V867.422H727.612V873.014H734.452V874.934H727.612V880.958H735.22V882.878ZM739.027 882.878V865.502H742.723C745.795 865.502 749.635 865.646 749.635 870.014C749.635 871.718 748.627 873.374 746.659 873.854V873.95C748.867 874.454 750.115 875.63 750.115 878.078C750.115 882.302 746.107 882.878 742.723 882.878H739.027ZM741.331 873.086H742.819C745.219 873.086 747.331 872.606 747.331 870.302C747.331 867.638 745.243 867.422 742.627 867.422H741.331V873.086ZM741.331 880.958H742.723C745.387 880.958 747.715 880.766 747.715 878.078C747.715 875.606 746.587 875.006 742.915 875.006H741.331V880.958ZM753.417 882.878V865.502H757.113C760.185 865.502 764.025 865.646 764.025 870.014C764.025 871.718 763.017 873.374 761.049 873.854V873.95C763.257 874.454 764.505 875.63 764.505 878.078C764.505 882.302 760.497 882.878 757.113 882.878H753.417ZM755.721 873.086H757.209C759.609 873.086 761.721 872.606 761.721 870.302C761.721 867.638 759.633 867.422 757.017 867.422H755.721V873.086ZM755.721 880.958H757.113C759.777 880.958 762.105 880.766 762.105 878.078C762.105 875.606 760.977 875.006 757.305 875.006H755.721V880.958ZM767.448 875.246L768.36 865.502H777.792V867.422H770.208L769.632 873.086C770.568 871.79 771.816 871.358 773.448 871.358C776.76 871.358 778.8 873.806 778.8 877.19C778.8 880.742 776.376 883.238 772.944 883.238C769.776 883.238 767.616 881.414 767.232 878.51H769.536C769.752 880.31 771.072 881.414 772.92 881.414C775.056 881.414 776.472 879.902 776.472 877.31C776.472 874.91 775.224 873.182 773.016 873.182C771.408 873.182 770.352 873.974 769.8 875.462L767.448 875.246ZM782.199 882.878V865.502H785.895C788.967 865.502 792.807 865.646 792.807 870.014C792.807 871.718 791.799 873.374 789.831 873.854V873.95C792.039 874.454 793.287 875.63 793.287 878.078C793.287 882.302 789.279 882.878 785.895 882.878H782.199ZM784.503 873.086H785.991C788.391 873.086 790.503 872.606 790.503 870.302C790.503 867.638 788.415 867.422 785.799 867.422H784.503V873.086ZM784.503 880.958H785.895C788.559 880.958 790.887 880.766 790.887 878.078C790.887 875.606 789.759 875.006 786.087 875.006H784.503V880.958Z" fill="white"/>
<rect x="853.585" y="744" width="76.0976" height="76.0976" rx="38.0488" fill="#FFB13C"/>
<path d="M852.085 882.878H849.685V865.502H859.669V867.422H852.085V873.23H859.237V875.15H852.085V882.878ZM866.475 882.878H864.075V865.502H874.059V867.422H866.475V873.23H873.627V875.15H866.475V882.878ZM877.746 882.878V865.502H881.442C884.514 865.502 888.354 865.646 888.354 870.014C888.354 871.718 887.346 873.374 885.378 873.854V873.95C887.586 874.454 888.834 875.63 888.834 878.078C888.834 882.302 884.826 882.878 881.442 882.878H877.746ZM880.05 873.086H881.538C883.938 873.086 886.05 872.606 886.05 870.302C886.05 867.638 883.962 867.422 881.346 867.422H880.05V873.086ZM880.05 880.958H881.442C884.106 880.958 886.434 880.766 886.434 878.078C886.434 875.606 885.306 875.006 881.634 875.006H880.05V880.958ZM901.281 877.094H903.585C902.913 880.934 900.849 883.238 897.537 883.238C893.481 883.238 891.201 879.638 891.201 874.166C891.201 868.694 893.625 865.142 897.609 865.142C900.921 865.142 902.865 866.966 903.585 871.142H901.281C900.753 868.382 899.457 867.062 897.609 867.062C895.089 867.062 893.601 869.846 893.601 874.166C893.601 878.486 895.017 881.318 897.537 881.318C899.457 881.318 900.777 879.782 901.281 877.094ZM906.167 875.246L907.079 865.502H916.511V867.422H908.927L908.351 873.086C909.287 871.79 910.535 871.358 912.167 871.358C915.479 871.358 917.519 873.806 917.519 877.19C917.519 880.742 915.095 883.238 911.663 883.238C908.495 883.238 906.335 881.414 905.951 878.51H908.255C908.471 880.31 909.791 881.414 911.639 881.414C913.775 881.414 915.191 879.902 915.191 877.31C915.191 874.91 913.943 873.182 911.735 873.182C910.127 873.182 909.071 873.974 908.519 875.462L906.167 875.246ZM925.718 882.878H923.246C924.23 877.814 926.366 872.606 929.174 867.446H920.534V865.502H931.598V867.158C928.958 872.054 926.774 877.19 925.718 882.878Z" fill="white"/>
<rect x="989.927" y="744" width="76.0976" height="76.0976" rx="38.0488" fill="#800000"/>
<path d="M991.235 883.238C987.731 883.238 985.307 881.318 985.307 878.222C985.307 875.918 986.387 874.526 988.739 873.902V873.782C986.819 873.35 985.763 871.79 985.763 869.774C985.763 867.014 987.851 865.142 991.235 865.142C994.571 865.142 996.659 867.014 996.659 869.774C996.659 871.79 995.627 873.35 993.683 873.782V873.902C996.035 874.526 997.115 875.918 997.115 878.222C997.115 881.318 994.691 883.238 991.235 883.238ZM991.235 872.942C993.155 872.942 994.427 871.718 994.427 869.87C994.427 868.118 993.203 866.918 991.235 866.918C989.243 866.918 987.995 868.118 987.995 869.87C987.995 871.718 989.291 872.942 991.235 872.942ZM991.235 881.462C993.347 881.462 994.763 880.19 994.763 878.078C994.763 876.086 993.347 874.79 991.235 874.79C989.099 874.79 987.683 876.086 987.683 878.078C987.683 880.19 989.099 881.462 991.235 881.462ZM1005.58 865.142C1009.27 865.142 1011.58 868.286 1011.58 874.166C1011.58 880.19 1009.27 883.238 1005.58 883.238C1001.88 883.238 999.602 880.046 999.602 874.166C999.602 868.286 1001.88 865.142 1005.58 865.142ZM1005.58 866.966C1003.11 866.966 1001.95 869.438 1001.95 874.166C1001.95 878.798 1003.11 881.414 1005.58 881.414C1008.03 881.414 1009.2 878.798 1009.2 874.166C1009.2 869.438 1008.03 866.966 1005.58 866.966ZM1019.97 865.142C1023.66 865.142 1025.97 868.286 1025.97 874.166C1025.97 880.19 1023.66 883.238 1019.97 883.238C1016.27 883.238 1013.99 880.046 1013.99 874.166C1013.99 868.286 1016.27 865.142 1019.97 865.142ZM1019.97 866.966C1017.5 866.966 1016.34 869.438 1016.34 874.166C1016.34 878.798 1017.5 881.414 1019.97 881.414C1022.42 881.414 1023.59 878.798 1023.59 874.166C1023.59 869.438 1022.42 866.966 1019.97 866.966ZM1034.36 865.142C1038.05 865.142 1040.36 868.286 1040.36 874.166C1040.36 880.19 1038.05 883.238 1034.36 883.238C1030.66 883.238 1028.38 880.046 1028.38 874.166C1028.38 868.286 1030.66 865.142 1034.36 865.142ZM1034.36 866.966C1031.89 866.966 1030.73 869.438 1030.73 874.166C1030.73 878.798 1031.89 881.414 1034.36 881.414C1036.81 881.414 1037.98 878.798 1037.98 874.166C1037.98 869.438 1036.81 866.966 1034.36 866.966ZM1048.75 865.142C1052.45 865.142 1054.75 868.286 1054.75 874.166C1054.75 880.19 1052.45 883.238 1048.75 883.238C1045.05 883.238 1042.77 880.046 1042.77 874.166C1042.77 868.286 1045.05 865.142 1048.75 865.142ZM1048.75 866.966C1046.28 866.966 1045.13 869.438 1045.13 874.166C1045.13 878.798 1046.28 881.414 1048.75 881.414C1051.2 881.414 1052.37 878.798 1052.37 874.166C1052.37 869.438 1051.2 866.966 1048.75 866.966ZM1063.14 865.142C1066.84 865.142 1069.14 868.286 1069.14 874.166C1069.14 880.19 1066.84 883.238 1063.14 883.238C1059.44 883.238 1057.16 880.046 1057.16 874.166C1057.16 868.286 1059.44 865.142 1063.14 865.142ZM1063.14 866.966C1060.67 866.966 1059.52 869.438 1059.52 874.166C1059.52 878.798 1060.67 881.414 1063.14 881.414C1065.59 881.414 1066.76 878.798 1066.76 874.166C1066.76 869.438 1065.59 866.966 1063.14 866.966Z" fill="white"/>
<rect x="1134.2" y="744" width="76.0976" height="76.0976" rx="38.0488" fill="#A0A0A0"/>
<path d="M1139.44 882.878L1137.83 877.814H1131.52L1129.93 882.878H1127.53L1133.49 865.502H1135.89L1141.84 882.878H1139.44ZM1134.64 867.998L1132.14 875.87H1137.21L1134.73 867.998H1134.64ZM1149.05 865.142C1152.75 865.142 1155.05 868.286 1155.05 874.166C1155.05 880.19 1152.75 883.238 1149.05 883.238C1145.36 883.238 1143.08 880.046 1143.08 874.166C1143.08 868.286 1145.36 865.142 1149.05 865.142ZM1149.05 866.966C1146.58 866.966 1145.43 869.438 1145.43 874.166C1145.43 878.798 1146.58 881.414 1149.05 881.414C1151.5 881.414 1152.68 878.798 1152.68 874.166C1152.68 869.438 1151.5 866.966 1149.05 866.966ZM1168.22 882.878L1166.61 877.814H1160.3L1158.72 882.878H1156.32L1162.27 865.502H1164.67L1170.62 882.878H1168.22ZM1163.42 867.998L1160.92 875.87H1165.99L1163.52 867.998H1163.42ZM1177.83 865.142C1181.53 865.142 1183.83 868.286 1183.83 874.166C1183.83 880.19 1181.53 883.238 1177.83 883.238C1174.14 883.238 1171.86 880.046 1171.86 874.166C1171.86 868.286 1174.14 865.142 1177.83 865.142ZM1177.83 866.966C1175.36 866.966 1174.21 869.438 1174.21 874.166C1174.21 878.798 1175.36 881.414 1177.83 881.414C1180.28 881.414 1181.46 878.798 1181.46 874.166C1181.46 869.438 1180.28 866.966 1177.83 866.966ZM1197 882.878L1195.39 877.814H1189.08L1187.5 882.878H1185.1L1191.05 865.502H1193.45L1199.4 882.878H1197ZM1192.2 867.998L1189.71 875.87H1194.77L1192.3 867.998H1192.2ZM1206.62 865.142C1210.31 865.142 1212.62 868.286 1212.62 874.166C1212.62 880.19 1210.31 883.238 1206.62 883.238C1202.92 883.238 1200.64 880.046 1200.64 874.166C1200.64 868.286 1202.92 865.142 1206.62 865.142ZM1206.62 866.966C1204.14 866.966 1202.99 869.438 1202.99 874.166C1202.99 878.798 1204.14 881.414 1206.62 881.414C1209.06 881.414 1210.24 878.798 1210.24 874.166C1210.24 869.438 1209.06 866.966 1206.62 866.966Z" fill="white"/>
<rect x="1280.05" y="744" width="76.0976" height="76.0976" rx="38.0488" fill="#C2C600"/>
<path d="M1284.57 877.094H1286.88C1286.2 880.934 1284.14 883.238 1280.83 883.238C1276.77 883.238 1274.49 879.638 1274.49 874.166C1274.49 868.694 1276.92 865.142 1280.9 865.142C1284.21 865.142 1286.16 866.966 1286.88 871.142H1284.57C1284.04 868.382 1282.75 867.062 1280.9 867.062C1278.38 867.062 1276.89 869.846 1276.89 874.166C1276.89 878.486 1278.31 881.318 1280.83 881.318C1282.75 881.318 1284.07 879.782 1284.57 877.094ZM1300.43 882.878H1289.44V882.182C1289.44 878.534 1291.45 876.566 1294.38 874.622C1297.12 872.822 1298.03 871.694 1298.03 869.798C1298.03 868.022 1296.78 866.966 1294.98 866.966C1292.92 866.966 1291.74 868.238 1291.64 870.71H1289.41C1289.46 867.158 1291.81 865.142 1295.17 865.142C1298.34 865.142 1300.33 867.182 1300.33 869.918C1300.33 872.318 1299.11 873.83 1295.99 875.966C1294.33 877.094 1292.22 878.51 1291.93 880.934H1300.43V882.878ZM1313.35 877.094H1315.66C1314.99 880.934 1312.92 883.238 1309.61 883.238C1305.55 883.238 1303.27 879.638 1303.27 874.166C1303.27 868.694 1305.7 865.142 1309.68 865.142C1312.99 865.142 1314.94 866.966 1315.66 871.142H1313.35C1312.83 868.382 1311.53 867.062 1309.68 867.062C1307.16 867.062 1305.67 869.846 1305.67 874.166C1305.67 878.486 1307.09 881.318 1309.61 881.318C1311.53 881.318 1312.85 879.782 1313.35 877.094ZM1329.4 869.654H1327.05C1326.86 867.878 1325.85 866.966 1324.17 866.966C1321.7 866.966 1320.21 869.486 1320.21 873.35V873.95C1321.14 872.318 1322.54 871.526 1324.38 871.526C1327.12 871.526 1329.57 873.614 1329.57 877.238C1329.57 881.03 1327.24 883.238 1323.98 883.238C1319.75 883.238 1317.93 879.974 1317.93 874.286C1317.93 868.502 1320.18 865.142 1324.17 865.142C1327.17 865.142 1329.09 866.798 1329.4 869.654ZM1324.07 873.35C1322.08 873.35 1320.59 875.054 1320.59 877.286C1320.59 879.662 1322.08 881.438 1324.07 881.438C1325.99 881.438 1327.31 879.83 1327.31 877.334C1327.31 875.006 1326.06 873.35 1324.07 873.35ZM1338.08 865.142C1341.77 865.142 1344.08 868.286 1344.08 874.166C1344.08 880.19 1341.77 883.238 1338.08 883.238C1334.38 883.238 1332.1 880.046 1332.1 874.166C1332.1 868.286 1334.38 865.142 1338.08 865.142ZM1338.08 866.966C1335.61 866.966 1334.45 869.438 1334.45 874.166C1334.45 878.798 1335.61 881.414 1338.08 881.414C1340.53 881.414 1341.7 878.798 1341.7 874.166C1341.7 869.438 1340.53 866.966 1338.08 866.966ZM1352.47 865.142C1356.17 865.142 1358.47 868.286 1358.47 874.166C1358.47 880.19 1356.17 883.238 1352.47 883.238C1348.77 883.238 1346.49 880.046 1346.49 874.166C1346.49 868.286 1348.77 865.142 1352.47 865.142ZM1352.47 866.966C1350 866.966 1348.85 869.438 1348.85 874.166C1348.85 878.798 1350 881.414 1352.47 881.414C1354.92 881.414 1356.09 878.798 1356.09 874.166C1356.09 869.438 1354.92 866.966 1352.47 866.966Z" fill="white"/>
<rect x="1417.98" y="744" width="76.0976" height="76.0976" rx="38.0488" fill="#8476DE"/>
<path d="M1419.28 883.238C1415.78 883.238 1413.36 881.318 1413.36 878.222C1413.36 875.918 1414.44 874.526 1416.79 873.902V873.782C1414.87 873.35 1413.81 871.79 1413.81 869.774C1413.81 867.014 1415.9 865.142 1419.28 865.142C1422.62 865.142 1424.71 867.014 1424.71 869.774C1424.71 871.79 1423.68 873.35 1421.73 873.782V873.902C1424.08 874.526 1425.16 875.918 1425.16 878.222C1425.16 881.318 1422.74 883.238 1419.28 883.238ZM1419.28 872.942C1421.2 872.942 1422.48 871.718 1422.48 869.87C1422.48 868.118 1421.25 866.918 1419.28 866.918C1417.29 866.918 1416.04 868.118 1416.04 869.87C1416.04 871.718 1417.34 872.942 1419.28 872.942ZM1419.28 881.462C1421.4 881.462 1422.81 880.19 1422.81 878.078C1422.81 876.086 1421.4 874.79 1419.28 874.79C1417.15 874.79 1415.73 876.086 1415.73 878.078C1415.73 880.19 1417.15 881.462 1419.28 881.462ZM1439.94 876.446V878.342H1436.99V882.878H1434.75V878.342H1427.24V876.518L1434.32 865.502H1436.99V876.446H1439.94ZM1433.24 870.518L1429.59 876.446H1434.87V872.63C1434.87 871.478 1434.9 869.222 1434.99 868.022L1434.83 867.998C1434.3 868.958 1433.84 869.558 1433.24 870.518ZM1447.73 882.878H1445.26C1446.24 877.814 1448.38 872.606 1451.18 867.446H1442.54V865.502H1453.61V867.158C1450.97 872.054 1448.78 877.19 1447.73 882.878ZM1468.12 869.654H1465.77C1465.58 867.878 1464.57 866.966 1462.89 866.966C1460.42 866.966 1458.93 869.486 1458.93 873.35V873.95C1459.86 872.318 1461.26 871.526 1463.1 871.526C1465.84 871.526 1468.29 873.614 1468.29 877.238C1468.29 881.03 1465.96 883.238 1462.7 883.238C1458.47 883.238 1456.65 879.974 1456.65 874.286C1456.65 868.502 1458.9 865.142 1462.89 865.142C1465.89 865.142 1467.81 866.798 1468.12 869.654ZM1462.79 873.35C1460.8 873.35 1459.31 875.054 1459.31 877.286C1459.31 879.662 1460.8 881.438 1462.79 881.438C1464.71 881.438 1466.03 879.83 1466.03 877.334C1466.03 875.006 1464.78 873.35 1462.79 873.35ZM1471.23 882.878V865.502H1475.45C1480.49 865.502 1483.33 868.406 1483.33 874.142C1483.33 879.47 1480.42 882.878 1475.45 882.878H1471.23ZM1473.53 880.958H1475.17C1478.93 880.958 1480.93 878.702 1480.93 874.142C1480.93 869.63 1479.2 867.422 1475.17 867.422H1473.53V880.958ZM1496.68 882.878H1486.68V865.502H1496.3V867.422H1489.08V873.014H1495.92V874.934H1489.08V880.958H1496.68V882.878Z" fill="white"/>
<rect x="1551.15" y="744" width="76.0976" height="76.0976" rx="38.0488" fill="#17CFCF"/>
<path d="M1547.41 882.878V880.934H1551.01V870.014H1547.41V868.454C1550.13 868.31 1551.11 867.542 1551.35 865.502H1553.2V880.934H1556.8V882.878H1547.41ZM1565.72 882.878H1563.24C1564.23 877.814 1566.36 872.606 1569.17 867.446H1560.53V865.502H1571.6V867.158C1568.96 872.054 1566.77 877.19 1565.72 882.878ZM1584.45 877.094H1586.76C1586.08 880.934 1584.02 883.238 1580.71 883.238C1576.65 883.238 1574.37 879.638 1574.37 874.166C1574.37 868.694 1576.8 865.142 1580.78 865.142C1584.09 865.142 1586.04 866.966 1586.76 871.142H1584.45C1583.92 868.382 1582.63 867.062 1580.78 867.062C1578.26 867.062 1576.77 869.846 1576.77 874.166C1576.77 878.486 1578.19 881.318 1580.71 881.318C1582.63 881.318 1583.95 879.782 1584.45 877.094ZM1592.82 882.878H1590.42V865.502H1600.4V867.422H1592.82V873.23H1599.97V875.15H1592.82V882.878ZM1613.23 877.094H1615.54C1614.86 880.934 1612.8 883.238 1609.49 883.238C1605.43 883.238 1603.15 879.638 1603.15 874.166C1603.15 868.694 1605.58 865.142 1609.56 865.142C1612.87 865.142 1614.82 866.966 1615.54 871.142H1613.23C1612.7 868.382 1611.41 867.062 1609.56 867.062C1607.04 867.062 1605.55 869.846 1605.55 874.166C1605.55 878.486 1606.97 881.318 1609.49 881.318C1611.41 881.318 1612.73 879.782 1613.23 877.094ZM1621.6 882.878H1619.2V865.502H1629.18V867.422H1621.6V873.23H1628.75V875.15H1621.6V882.878Z" fill="white"/>
</svg>
