<svg width="1920" height="1080" viewBox="0 0 1920 1080" fill="none" xmlns="http://www.w3.org/2000/svg">
<rect width="1920" height="1080" fill="#F5F5F5"/>
<g filter="url(#filter0_f_349_1286)">
<path d="M960 504C1015.23 504 1060 459.228 1060 404C1060 348.772 1015.23 304 960 304C904.772 304 860 348.772 860 404C860 459.228 904.772 504 960 504Z" fill="#FF2A00"/>
</g>
<path fill-rule="evenodd" clip-rule="evenodd" d="M1060 504C1060 559.228 1015.23 604 960 604C904.772 604 860 559.228 860 504C860 498.873 860.386 493.837 861.13 488.918C861.175 489.085 861.227 489.251 861.286 489.417C862.192 491.942 864.58 493.479 867.106 493.479C867.792 493.479 868.506 493.342 869.22 493.095C872.404 491.915 874.079 488.374 872.898 485.164C871.745 481.98 868.204 480.306 864.992 481.486C863.759 481.94 862.756 482.741 862.054 483.738C871.42 438.224 911.713 404 960 404C1008.38 404 1048.74 438.362 1058 484.014C1057.3 482.94 1056.25 482.074 1054.95 481.596C1051.77 480.416 1048.23 482.063 1047.05 485.273C1045.89 488.484 1047.54 492.024 1050.75 493.204H1050.73C1051.41 493.479 1052.13 493.589 1052.84 493.589C1055.36 493.589 1057.73 492.052 1058.63 489.527C1058.72 489.284 1058.79 489.04 1058.85 488.794C1059.61 493.752 1060 498.83 1060 504ZM880.31 512.277C877.702 514.472 877.345 518.369 879.541 520.976V521.004C880.777 522.458 882.506 523.199 884.29 523.199C885.69 523.199 887.09 522.705 888.271 521.745C890.851 519.549 891.208 515.652 889.012 513.045C886.816 510.438 882.918 510.082 880.31 512.277ZM1031.67 521.8C1029.07 519.632 1028.74 515.707 1030.93 513.1C1033.13 510.493 1037.03 510.164 1039.64 512.359C1042.24 514.555 1042.57 518.452 1040.38 521.059C1039.17 522.513 1037.41 523.254 1035.65 523.254C1034.25 523.254 1032.85 522.788 1031.67 521.8ZM905.208 535.96C903.506 538.924 904.522 542.711 907.459 544.412L907.486 544.385C908.447 544.934 909.518 545.208 910.561 545.208C912.675 545.208 914.761 544.11 915.914 542.135C917.616 539.198 916.6 535.411 913.663 533.71C910.698 532.008 906.91 533.024 905.208 535.96ZM1004 542.217C1002.3 539.281 1003.32 535.494 1006.28 533.792C1009.25 532.091 1013.01 533.106 1014.74 536.042C1016.44 539.006 1015.42 542.766 1012.49 544.467C1011.53 545.044 1010.45 545.291 1009.41 545.291C1007.27 545.291 1005.21 544.165 1004.03 542.217H1004ZM936.722 549.764C936.118 553.084 938.369 556.322 941.718 556.899L941.69 556.871L941.767 556.882C942.122 556.933 942.455 556.981 942.788 556.981C945.726 556.981 948.333 554.868 948.855 551.877C949.459 548.556 947.235 545.318 943.859 544.742C940.51 544.165 937.298 546.416 936.722 549.764ZM976.059 544.769C972.682 545.345 970.431 548.556 971.035 551.904H971.063C971.584 554.895 974.165 557.009 977.129 557.009C977.486 557.009 977.816 556.981 978.2 556.926C981.549 556.35 983.8 553.139 983.196 549.791C982.62 546.443 979.408 544.165 976.059 544.769Z" fill="black"/>
<path d="M1058.82 459.807C1055.42 459.807 1052.65 457.035 1052.65 453.632C1052.65 450.229 1055.42 447.457 1058.82 447.457C1062.25 447.457 1065 450.229 1065 453.632C1065 457.062 1062.23 459.807 1058.82 459.807Z" fill="black"/>
<path d="M855 453.522V453.275C855 449.872 857.773 447.128 861.176 447.128C864.58 447.128 867.353 449.9 867.353 453.303V453.522C867.353 456.925 864.58 459.697 861.176 459.697C857.745 459.697 855 456.925 855 453.522Z" fill="black"/>
<mask id="mask0_349_1286" style="mask-type:alpha" maskUnits="userSpaceOnUse" x="860" y="404" width="200" height="200">
<path d="M960 604C1015.23 604 1060 559.228 1060 504C1060 448.772 1015.23 404 960 404C904.772 404 860 448.772 860 504C860 559.228 904.772 604 960 604Z" fill="black"/>
</mask>
<g mask="url(#mask0_349_1286)">
<g filter="url(#filter1_f_349_1286)">
<path d="M960 504C1015.23 504 1060 459.228 1060 404C1060 348.772 1015.23 304 960 304C904.772 304 860 348.772 860 404C860 459.228 904.772 504 960 504Z" fill="#02D5FF"/>
</g>
</g>
<path d="M865.047 425.339C861.835 424.159 860.188 420.618 861.369 417.408C862.549 414.197 866.118 412.578 869.302 413.758C872.514 414.938 874.161 418.478 872.981 421.689C872.075 424.186 869.686 425.75 867.188 425.75C866.475 425.75 865.761 425.613 865.075 425.366L865.047 425.339Z" fill="url(#paint0_linear_349_1286)"/>
<path d="M1052.65 425.695C1050.12 425.695 1047.76 424.131 1046.86 421.634C1045.67 418.423 1047.32 414.883 1050.53 413.703C1053.75 412.523 1057.29 414.169 1058.47 417.353C1059.62 420.564 1057.97 424.104 1054.79 425.284C1054.1 425.531 1053.39 425.668 1052.67 425.668L1052.65 425.695Z" fill="url(#paint1_linear_349_1286)"/>
<path d="M1031.04 394.081C1028.85 391.474 1029.2 387.55 1031.81 385.382C1034.42 383.187 1038.32 383.516 1040.51 386.151C1042.71 388.758 1042.35 392.654 1039.75 394.85C1038.59 395.81 1037.19 396.304 1035.79 396.304C1034.04 396.304 1032.28 395.536 1031.04 394.081ZM880.42 394.603C877.812 392.407 877.482 388.511 879.679 385.904C881.875 383.296 885.773 382.967 888.381 385.163C891.016 387.358 891.318 391.255 889.122 393.862C887.886 395.316 886.157 396.057 884.4 396.057C883 396.057 881.6 395.591 880.42 394.603ZM1006.45 373.362C1003.48 371.661 1002.49 367.874 1004.2 364.937C1005.9 362.001 1009.69 360.986 1012.65 362.687C1015.59 364.388 1016.6 368.176 1014.9 371.112C1013.75 373.088 1011.66 374.186 1009.55 374.186C1008.48 374.186 1007.44 373.911 1006.47 373.335L1006.45 373.362ZM905.4 370.947C903.698 368.011 904.714 364.224 907.651 362.522C910.616 360.821 914.404 361.836 916.106 364.773C917.808 367.737 916.792 371.496 913.828 373.198C912.867 373.774 911.796 374.021 910.753 374.021C908.639 374.021 906.553 372.923 905.4 370.92V370.947ZM976.251 362.303C972.902 361.699 970.651 358.516 971.255 355.168C971.859 351.792 975.043 349.569 978.392 350.173C981.769 350.749 983.992 353.988 983.416 357.336C982.894 360.327 980.286 362.413 977.349 362.413C976.992 362.413 976.635 362.385 976.251 362.33V362.303ZM936.914 357.226C936.337 353.878 938.588 350.667 941.937 350.091C945.314 349.515 948.498 351.737 949.075 355.113C949.651 358.461 947.428 361.672 944.051 362.248C943.694 362.303 943.337 362.33 942.981 362.33C940.043 362.33 937.435 360.217 936.914 357.226Z" fill="#02D5FF"/>
<line x1="511" y1="603" x2="1409" y2="603" stroke="#00A3FF" stroke-width="2"/>
<line x1="511" y1="703" x2="1409" y2="703" stroke="#00A3FF" stroke-width="2"/>
<line x1="511" y1="803" x2="1409" y2="803" stroke="#00A3FF" stroke-width="2"/>
<line x1="961" y1="403" x2="1409" y2="403" stroke="#00A3FF" stroke-width="2" stroke-dasharray="4 4"/>
<line x1="962" y1="194" x2="962" y2="914" stroke="#00A3FF" stroke-width="2" stroke-dasharray="4 4"/>
<line x1="511" y1="303" x2="1409" y2="303" stroke="#00A3FF" stroke-width="2"/>
<line x1="961" y1="503" x2="1409" y2="503" stroke="#00A3FF" stroke-width="2" stroke-dasharray="4 4"/>
<path d="M767.152 658.899V664.185C762.145 665.115 758.317 666.722 755.75 669.005C752.048 672.43 748.766 677.673 745.906 684.776L696.472 806H692.602L639.508 683.212C636.773 676.912 634.88 673.064 633.744 671.669C632.019 669.512 629.874 667.821 627.307 666.553C624.783 665.326 621.333 664.523 617 664.185V658.899H674.932V664.185C668.369 664.819 664.12 665.918 662.184 667.567C660.249 669.174 659.239 671.246 659.239 673.783C659.239 677.292 660.838 682.747 664.035 690.188L700.09 773.696L733.537 691.203C736.818 683.085 738.459 677.461 738.459 674.29C738.459 672.261 737.449 670.316 735.43 668.455C733.411 666.595 730.003 665.284 725.165 664.523C724.828 664.438 724.239 664.354 723.398 664.227V658.899H767.109H767.152Z" fill="black"/>
<path d="M834.883 795.517V799.957C834.883 799.957 829.918 803.805 821.967 804.65C818.559 805.031 813.006 804.397 809.893 801.056C807.747 798.731 806.779 794.545 806.737 788.752C796.809 796.448 790.582 800.93 788.058 802.113C784.271 803.889 780.19 804.777 775.941 804.777C769.252 804.777 763.741 802.494 759.407 797.885C755.074 793.276 752.928 787.23 752.928 779.746C752.928 775.01 753.98 770.909 756.084 767.442C758.987 762.622 763.993 758.097 771.145 753.869C778.297 749.641 790.161 744.482 806.779 738.394V734.588C806.779 724.906 805.265 718.267 802.194 714.631C799.122 711.037 794.663 709.219 788.857 709.219C784.44 709.219 780.906 710.403 778.297 712.813C775.605 715.223 774.301 717.971 774.301 721.1L774.511 727.274C774.511 730.529 773.669 733.024 772.029 734.8C770.388 736.576 768.2 737.464 765.55 737.464C762.899 737.464 760.838 736.533 759.155 734.715C757.514 732.855 756.673 730.36 756.673 727.189C756.673 721.1 759.786 715.519 765.97 710.445C772.155 705.371 780.864 702.792 792.055 702.792C800.637 702.792 807.663 704.23 813.174 707.147C817.339 709.346 820.368 712.771 822.346 717.422C823.608 720.466 824.239 726.682 824.239 736.111V769.091C824.239 778.351 824.407 788.71 824.744 790.782C825.08 792.854 825.753 794.207 826.469 794.968C828.362 796.955 832.485 796.405 834.967 795.644L834.883 795.517ZM806.695 781.818V744.778C796.051 749.007 789.194 752.009 786.123 753.785C780.569 756.914 776.572 760.127 774.216 763.552C771.818 766.934 770.64 770.655 770.64 774.672C770.64 779.746 772.155 783.974 775.184 787.357C778.213 790.697 781.705 792.388 785.618 792.388C790.961 792.388 797.987 788.837 806.737 781.776L806.695 781.818Z" fill="black"/>
<path d="M935.183 742.154C935.099 756.572 938.591 767.904 945.617 776.107C952.643 784.309 960.931 788.411 970.439 788.411C976.792 788.411 982.261 786.677 986.973 783.168C991.685 779.658 995.555 773.654 998.753 765.198L1002.03 767.312C1000.56 776.994 996.27 785.832 989.16 793.781C982.05 801.73 973.131 805.704 962.445 805.704C950.834 805.704 940.905 801.18 932.617 792.089C924.329 782.999 920.206 770.779 920.206 755.43C920.206 738.813 924.455 725.833 932.912 716.531C941.41 707.228 952.012 702.577 964.843 702.577C975.698 702.577 984.575 706.171 991.559 713.359C998.542 720.547 1001.99 730.146 1001.99 742.154H935.183ZM935.183 735.981H979.947C979.61 729.765 978.853 725.368 977.717 722.831C975.95 718.856 973.342 715.77 969.85 713.486C966.358 711.203 962.74 710.104 958.911 710.104C953.064 710.104 947.847 712.387 943.219 716.953C938.591 721.52 935.899 727.862 935.141 735.981H935.183Z" fill="black"/>
<path d="M1207.38 765.838C1204.77 778.649 1199.68 788.501 1192.07 795.393C1184.45 802.285 1176.08 805.752 1166.83 805.752C1155.85 805.752 1146.3 801.143 1138.13 791.841C1129.97 782.539 1125.89 770.066 1125.89 754.295C1125.89 738.523 1130.43 726.6 1139.44 717.044C1148.48 707.488 1159.34 702.71 1172 702.71C1181.51 702.71 1189.29 705.247 1195.43 710.279C1201.58 715.352 1204.61 720.595 1204.61 726.05C1204.61 728.756 1203.72 730.912 1202 732.561C1200.27 734.21 1197.87 735.056 1194.76 735.056C1190.6 735.056 1187.48 733.703 1185.38 731.039C1184.16 729.559 1183.4 726.726 1183.02 722.54C1182.64 718.354 1181.21 715.183 1178.73 712.985C1176.29 710.87 1172.84 709.813 1168.51 709.813C1161.48 709.813 1155.8 712.435 1151.51 717.678C1145.83 724.612 1142.97 733.788 1142.97 745.162C1142.97 756.535 1145.79 766.979 1151.47 775.859C1157.15 784.738 1164.81 789.178 1174.44 789.178C1181.34 789.178 1187.53 786.81 1193.04 782.074C1196.91 778.818 1200.65 772.899 1204.31 764.358L1207.38 765.838Z" fill="black"/>
<path d="M1235.15 742.154C1235.07 756.572 1238.56 767.904 1245.58 776.107C1252.61 784.309 1260.9 788.411 1270.4 788.411C1276.76 788.411 1282.23 786.677 1286.94 783.168C1291.65 779.658 1295.52 773.654 1298.72 765.198L1302 767.312C1300.53 776.994 1296.24 785.832 1289.13 793.781C1282.02 801.73 1273.1 805.704 1262.41 805.704C1250.8 805.704 1240.87 801.18 1232.58 792.089C1224.29 782.999 1220.17 770.779 1220.17 755.43C1220.17 738.813 1224.42 725.833 1232.88 716.531C1241.38 707.228 1251.98 702.577 1264.81 702.577C1275.66 702.577 1284.54 706.171 1291.52 713.359C1298.51 720.547 1301.96 730.146 1301.96 742.154H1235.15ZM1235.15 735.981H1279.91C1279.58 729.765 1278.82 725.368 1277.68 722.831C1275.92 718.856 1273.31 715.77 1269.82 713.486C1266.32 711.203 1262.71 710.104 1258.88 710.104C1253.03 710.104 1247.81 712.387 1243.18 716.953C1238.56 721.52 1235.86 727.862 1235.11 735.981H1235.15Z" fill="black"/>
<path d="M840.398 661.905V669.812H853.272C856.133 669.812 864 670.192 865.767 671.545C867.534 672.898 868.375 673.828 868.922 676.365C869.427 678.902 869.553 685.118 869.553 696.196V771.797C869.553 780.422 868.712 785.961 867.029 788.202C864.337 791.67 857.185 795.94 846.204 795.94H840.44V802.705H916.336V795.94H909.984C900.77 795.94 895.932 794.122 892.903 792.431C890.631 791.162 889.159 788.076 888.485 786.3C887.56 783.974 887.097 779.069 887.097 771.797V657H881.838C881.838 657 862.023 660.763 840.44 661.905H840.398Z" fill="black"/>
<path d="M1046.8 723.302C1058.12 709.56 1068.93 702.71 1079.19 702.71C1084.45 702.71 1089 704.021 1092.82 706.685C1096.65 709.348 1099.64 713.703 1101.91 719.792C1103.47 724.02 1104.22 730.532 1104.22 739.327V777.846C1104.22 784.019 1104.73 788.163 1105.7 790.361C1106.45 792.137 1107.72 793.49 1109.44 794.505C1111.17 795.52 1114.36 795.985 1118.99 795.985V802.75H1071.16V795.985H1073.18C1077.68 795.985 1080.83 795.309 1082.64 793.913C1084.45 792.518 1085.67 790.488 1086.39 787.825C1086.68 786.767 1086.81 783.427 1086.81 777.846V741.018C1086.81 732.181 1085.67 725.754 1083.36 721.779C1081.09 717.805 1077.22 715.775 1071.79 715.775C1063.42 715.775 1055.09 720.384 1046.76 729.559V777.846C1046.76 784.442 1047.13 788.501 1047.93 790.023C1048.9 792.095 1050.29 793.575 1052.01 794.547C1053.74 795.52 1057.23 795.985 1062.53 795.985V802.75H1014.7V795.985H1016.8C1021.72 795.985 1025.05 794.717 1026.77 792.222C1028.5 789.727 1029.38 784.907 1029.38 777.846V744.739C1029.38 733.069 1029.13 723.132 1028.58 720.595C1028.08 718.058 1027.23 716.325 1026.14 715.395C1025.05 714.464 1023.57 713.999 1021.77 713.999C1019.79 713.999 1014.7 714.084 1014.7 714.084V708.122C1029.72 707.403 1042.25 702.71 1042.25 702.71H1046.8V723.302Z" fill="black"/>
<path d="M1370.89 362.938C1370.89 362.531 1371.02 362.245 1371.27 362.078C1371.52 361.901 1371.77 361.812 1372.03 361.812C1372.16 361.812 1372.28 361.833 1372.41 361.875C1372.53 361.906 1372.67 361.964 1372.81 362.047L1373.36 362.344C1373.43 362.385 1373.5 362.417 1373.56 362.438C1373.64 362.448 1373.71 362.453 1373.8 362.453C1374.06 362.453 1374.26 362.391 1374.39 362.266C1374.54 362.13 1374.9 361.672 1375.48 360.891C1375.87 360.38 1376.74 359.135 1378.11 357.156C1378.11 357.083 1377.99 356.526 1377.75 355.484C1377.51 354.432 1377.29 353.542 1377.09 352.812C1376.9 352.073 1376.72 351.589 1376.56 351.359C1376.41 351.12 1376.11 351 1375.69 351C1375.54 351 1375.26 351.052 1374.83 351.156C1374.56 351.219 1374.27 351.292 1373.95 351.375L1373.81 350.891L1375.55 350.297C1375.99 350.141 1376.41 350.016 1376.78 349.922C1377.17 349.828 1377.49 349.781 1377.77 349.781C1378.2 349.781 1378.53 349.911 1378.75 350.172C1379.08 350.589 1379.36 351.411 1379.59 352.641L1379.92 354.422C1380.86 352.984 1381.59 351.974 1382.11 351.391C1382.58 350.859 1383.02 350.464 1383.44 350.203C1383.85 349.943 1384.25 349.812 1384.62 349.812C1384.98 349.812 1385.27 349.865 1385.48 349.969C1385.88 350.156 1386.08 350.51 1386.08 351.031C1386.08 351.385 1385.98 351.661 1385.78 351.859C1385.58 352.057 1385.33 352.156 1385.02 352.156C1384.9 352.156 1384.79 352.146 1384.69 352.125C1384.58 352.094 1384.47 352.052 1384.36 352L1383.95 351.828C1383.84 351.776 1383.73 351.734 1383.62 351.703C1383.52 351.661 1383.44 351.641 1383.39 351.641C1382.92 351.641 1382.27 352.25 1381.44 353.469C1380.6 354.677 1380.19 355.375 1380.19 355.562C1380.19 355.719 1380.28 356.229 1380.47 357.094C1380.67 357.948 1380.88 358.854 1381.11 359.812C1381.32 360.719 1381.49 361.344 1381.64 361.688C1381.88 362.25 1382.15 362.531 1382.45 362.531C1382.73 362.531 1383.02 362.375 1383.31 362.062C1383.6 361.75 1384.04 361.188 1384.62 360.375L1385.06 360.641C1384.61 361.453 1384.15 362.146 1383.67 362.719C1382.77 363.802 1381.9 364.344 1381.08 364.344C1380.56 364.344 1380.15 364.094 1379.84 363.594C1379.67 363.302 1379.49 362.823 1379.33 362.156L1378.36 358.297L1375.16 362.5C1374.53 363.229 1374.05 363.719 1373.7 363.969C1373.37 364.219 1372.95 364.344 1372.45 364.344C1371.79 364.344 1371.33 364.135 1371.09 363.719C1370.96 363.5 1370.89 363.24 1370.89 362.938Z" fill="#00A3FF"/>
<path d="M1370.89 462.938C1370.89 462.531 1371.02 462.245 1371.27 462.078C1371.52 461.901 1371.77 461.812 1372.03 461.812C1372.16 461.812 1372.28 461.833 1372.41 461.875C1372.53 461.906 1372.67 461.964 1372.81 462.047L1373.36 462.344C1373.43 462.385 1373.5 462.417 1373.56 462.438C1373.64 462.448 1373.71 462.453 1373.8 462.453C1374.06 462.453 1374.26 462.391 1374.39 462.266C1374.54 462.13 1374.9 461.672 1375.48 460.891C1375.87 460.38 1376.74 459.135 1378.11 457.156C1378.11 457.083 1377.99 456.526 1377.75 455.484C1377.51 454.432 1377.29 453.542 1377.09 452.812C1376.9 452.073 1376.72 451.589 1376.56 451.359C1376.41 451.12 1376.11 451 1375.69 451C1375.54 451 1375.26 451.052 1374.83 451.156C1374.56 451.219 1374.27 451.292 1373.95 451.375L1373.81 450.891L1375.55 450.297C1375.99 450.141 1376.41 450.016 1376.78 449.922C1377.17 449.828 1377.49 449.781 1377.77 449.781C1378.2 449.781 1378.53 449.911 1378.75 450.172C1379.08 450.589 1379.36 451.411 1379.59 452.641L1379.92 454.422C1380.86 452.984 1381.59 451.974 1382.11 451.391C1382.58 450.859 1383.02 450.464 1383.44 450.203C1383.85 449.943 1384.25 449.812 1384.62 449.812C1384.98 449.812 1385.27 449.865 1385.48 449.969C1385.88 450.156 1386.08 450.51 1386.08 451.031C1386.08 451.385 1385.98 451.661 1385.78 451.859C1385.58 452.057 1385.33 452.156 1385.02 452.156C1384.9 452.156 1384.79 452.146 1384.69 452.125C1384.58 452.094 1384.47 452.052 1384.36 452L1383.95 451.828C1383.84 451.776 1383.73 451.734 1383.62 451.703C1383.52 451.661 1383.44 451.641 1383.39 451.641C1382.92 451.641 1382.27 452.25 1381.44 453.469C1380.6 454.677 1380.19 455.375 1380.19 455.562C1380.19 455.719 1380.28 456.229 1380.47 457.094C1380.67 457.948 1380.88 458.854 1381.11 459.812C1381.32 460.719 1381.49 461.344 1381.64 461.688C1381.88 462.25 1382.15 462.531 1382.45 462.531C1382.73 462.531 1383.02 462.375 1383.31 462.062C1383.6 461.75 1384.04 461.188 1384.62 460.375L1385.06 460.641C1384.61 461.453 1384.15 462.146 1383.67 462.719C1382.77 463.802 1381.9 464.344 1381.08 464.344C1380.56 464.344 1380.15 464.094 1379.84 463.594C1379.67 463.302 1379.49 462.823 1379.33 462.156L1378.36 458.297L1375.16 462.5C1374.53 463.229 1374.05 463.719 1373.7 463.969C1373.37 464.219 1372.95 464.344 1372.45 464.344C1371.79 464.344 1371.33 464.135 1371.09 463.719C1370.96 463.5 1370.89 463.24 1370.89 462.938Z" fill="#00A3FF"/>
<path d="M1370.89 562.938C1370.89 562.531 1371.02 562.245 1371.27 562.078C1371.52 561.901 1371.77 561.812 1372.03 561.812C1372.16 561.812 1372.28 561.833 1372.41 561.875C1372.53 561.906 1372.67 561.964 1372.81 562.047L1373.36 562.344C1373.43 562.385 1373.5 562.417 1373.56 562.438C1373.64 562.448 1373.71 562.453 1373.8 562.453C1374.06 562.453 1374.26 562.391 1374.39 562.266C1374.54 562.13 1374.9 561.672 1375.48 560.891C1375.87 560.38 1376.74 559.135 1378.11 557.156C1378.11 557.083 1377.99 556.526 1377.75 555.484C1377.51 554.432 1377.29 553.542 1377.09 552.812C1376.9 552.073 1376.72 551.589 1376.56 551.359C1376.41 551.12 1376.11 551 1375.69 551C1375.54 551 1375.26 551.052 1374.83 551.156C1374.56 551.219 1374.27 551.292 1373.95 551.375L1373.81 550.891L1375.55 550.297C1375.99 550.141 1376.41 550.016 1376.78 549.922C1377.17 549.828 1377.49 549.781 1377.77 549.781C1378.2 549.781 1378.53 549.911 1378.75 550.172C1379.08 550.589 1379.36 551.411 1379.59 552.641L1379.92 554.422C1380.86 552.984 1381.59 551.974 1382.11 551.391C1382.58 550.859 1383.02 550.464 1383.44 550.203C1383.85 549.943 1384.25 549.812 1384.62 549.812C1384.98 549.812 1385.27 549.865 1385.48 549.969C1385.88 550.156 1386.08 550.51 1386.08 551.031C1386.08 551.385 1385.98 551.661 1385.78 551.859C1385.58 552.057 1385.33 552.156 1385.02 552.156C1384.9 552.156 1384.79 552.146 1384.69 552.125C1384.58 552.094 1384.47 552.052 1384.36 552L1383.95 551.828C1383.84 551.776 1383.73 551.734 1383.62 551.703C1383.52 551.661 1383.44 551.641 1383.39 551.641C1382.92 551.641 1382.27 552.25 1381.44 553.469C1380.6 554.677 1380.19 555.375 1380.19 555.562C1380.19 555.719 1380.28 556.229 1380.47 557.094C1380.67 557.948 1380.88 558.854 1381.11 559.812C1381.32 560.719 1381.49 561.344 1381.64 561.688C1381.88 562.25 1382.15 562.531 1382.45 562.531C1382.73 562.531 1383.02 562.375 1383.31 562.062C1383.6 561.75 1384.04 561.188 1384.62 560.375L1385.06 560.641C1384.61 561.453 1384.15 562.146 1383.67 562.719C1382.77 563.802 1381.9 564.344 1381.08 564.344C1380.56 564.344 1380.15 564.094 1379.84 563.594C1379.67 563.302 1379.49 562.823 1379.33 562.156L1378.36 558.297L1375.16 562.5C1374.53 563.229 1374.05 563.719 1373.7 563.969C1373.37 564.219 1372.95 564.344 1372.45 564.344C1371.79 564.344 1371.33 564.135 1371.09 563.719C1370.96 563.5 1370.89 563.24 1370.89 562.938Z" fill="#00A3FF"/>
<path d="M1370.89 662.938C1370.89 662.531 1371.02 662.245 1371.27 662.078C1371.52 661.901 1371.77 661.812 1372.03 661.812C1372.16 661.812 1372.28 661.833 1372.41 661.875C1372.53 661.906 1372.67 661.964 1372.81 662.047L1373.36 662.344C1373.43 662.385 1373.5 662.417 1373.56 662.438C1373.64 662.448 1373.71 662.453 1373.8 662.453C1374.06 662.453 1374.26 662.391 1374.39 662.266C1374.54 662.13 1374.9 661.672 1375.48 660.891C1375.87 660.38 1376.74 659.135 1378.11 657.156C1378.11 657.083 1377.99 656.526 1377.75 655.484C1377.51 654.432 1377.29 653.542 1377.09 652.812C1376.9 652.073 1376.72 651.589 1376.56 651.359C1376.41 651.12 1376.11 651 1375.69 651C1375.54 651 1375.26 651.052 1374.83 651.156C1374.56 651.219 1374.27 651.292 1373.95 651.375L1373.81 650.891L1375.55 650.297C1375.99 650.141 1376.41 650.016 1376.78 649.922C1377.17 649.828 1377.49 649.781 1377.77 649.781C1378.2 649.781 1378.53 649.911 1378.75 650.172C1379.08 650.589 1379.36 651.411 1379.59 652.641L1379.92 654.422C1380.86 652.984 1381.59 651.974 1382.11 651.391C1382.58 650.859 1383.02 650.464 1383.44 650.203C1383.85 649.943 1384.25 649.812 1384.62 649.812C1384.98 649.812 1385.27 649.865 1385.48 649.969C1385.88 650.156 1386.08 650.51 1386.08 651.031C1386.08 651.385 1385.98 651.661 1385.78 651.859C1385.58 652.057 1385.33 652.156 1385.02 652.156C1384.9 652.156 1384.79 652.146 1384.69 652.125C1384.58 652.094 1384.47 652.052 1384.36 652L1383.95 651.828C1383.84 651.776 1383.73 651.734 1383.62 651.703C1383.52 651.661 1383.44 651.641 1383.39 651.641C1382.92 651.641 1382.27 652.25 1381.44 653.469C1380.6 654.677 1380.19 655.375 1380.19 655.562C1380.19 655.719 1380.28 656.229 1380.47 657.094C1380.67 657.948 1380.88 658.854 1381.11 659.812C1381.32 660.719 1381.49 661.344 1381.64 661.688C1381.88 662.25 1382.15 662.531 1382.45 662.531C1382.73 662.531 1383.02 662.375 1383.31 662.062C1383.6 661.75 1384.04 661.188 1384.62 660.375L1385.06 660.641C1384.61 661.453 1384.15 662.146 1383.67 662.719C1382.77 663.802 1381.9 664.344 1381.08 664.344C1380.56 664.344 1380.15 664.094 1379.84 663.594C1379.67 663.302 1379.49 662.823 1379.33 662.156L1378.36 658.297L1375.16 662.5C1374.53 663.229 1374.05 663.719 1373.7 663.969C1373.37 664.219 1372.95 664.344 1372.45 664.344C1371.79 664.344 1371.33 664.135 1371.09 663.719C1370.96 663.5 1370.89 663.24 1370.89 662.938Z" fill="#00A3FF"/>
<path d="M1370.89 762.938C1370.89 762.531 1371.02 762.245 1371.27 762.078C1371.52 761.901 1371.77 761.812 1372.03 761.812C1372.16 761.812 1372.28 761.833 1372.41 761.875C1372.53 761.906 1372.67 761.964 1372.81 762.047L1373.36 762.344C1373.43 762.385 1373.5 762.417 1373.56 762.438C1373.64 762.448 1373.71 762.453 1373.8 762.453C1374.06 762.453 1374.26 762.391 1374.39 762.266C1374.54 762.13 1374.9 761.672 1375.48 760.891C1375.87 760.38 1376.74 759.135 1378.11 757.156C1378.11 757.083 1377.99 756.526 1377.75 755.484C1377.51 754.432 1377.29 753.542 1377.09 752.812C1376.9 752.073 1376.72 751.589 1376.56 751.359C1376.41 751.12 1376.11 751 1375.69 751C1375.54 751 1375.26 751.052 1374.83 751.156C1374.56 751.219 1374.27 751.292 1373.95 751.375L1373.81 750.891L1375.55 750.297C1375.99 750.141 1376.41 750.016 1376.78 749.922C1377.17 749.828 1377.49 749.781 1377.77 749.781C1378.2 749.781 1378.53 749.911 1378.75 750.172C1379.08 750.589 1379.36 751.411 1379.59 752.641L1379.92 754.422C1380.86 752.984 1381.59 751.974 1382.11 751.391C1382.58 750.859 1383.02 750.464 1383.44 750.203C1383.85 749.943 1384.25 749.812 1384.62 749.812C1384.98 749.812 1385.27 749.865 1385.48 749.969C1385.88 750.156 1386.08 750.51 1386.08 751.031C1386.08 751.385 1385.98 751.661 1385.78 751.859C1385.58 752.057 1385.33 752.156 1385.02 752.156C1384.9 752.156 1384.79 752.146 1384.69 752.125C1384.58 752.094 1384.47 752.052 1384.36 752L1383.95 751.828C1383.84 751.776 1383.73 751.734 1383.62 751.703C1383.52 751.661 1383.44 751.641 1383.39 751.641C1382.92 751.641 1382.27 752.25 1381.44 753.469C1380.6 754.677 1380.19 755.375 1380.19 755.562C1380.19 755.719 1380.28 756.229 1380.47 757.094C1380.67 757.948 1380.88 758.854 1381.11 759.812C1381.32 760.719 1381.49 761.344 1381.64 761.688C1381.88 762.25 1382.15 762.531 1382.45 762.531C1382.73 762.531 1383.02 762.375 1383.31 762.062C1383.6 761.75 1384.04 761.188 1384.62 760.375L1385.06 760.641C1384.61 761.453 1384.15 762.146 1383.67 762.719C1382.77 763.802 1381.9 764.344 1381.08 764.344C1380.56 764.344 1380.15 764.094 1379.84 763.594C1379.67 763.302 1379.49 762.823 1379.33 762.156L1378.36 758.297L1375.16 762.5C1374.53 763.229 1374.05 763.719 1373.7 763.969C1373.37 764.219 1372.95 764.344 1372.45 764.344C1371.79 764.344 1371.33 764.135 1371.09 763.719C1370.96 763.5 1370.89 763.24 1370.89 762.938Z" fill="#00A3FF"/>
<defs>
<filter id="filter0_f_349_1286" x="835" y="279" width="250" height="250" filterUnits="userSpaceOnUse" color-interpolation-filters="sRGB">
<feFlood flood-opacity="0" result="BackgroundImageFix"/>
<feBlend mode="normal" in="SourceGraphic" in2="BackgroundImageFix" result="shape"/>
<feGaussianBlur stdDeviation="12.5" result="effect1_foregroundBlur_349_1286"/>
</filter>
<filter id="filter1_f_349_1286" x="835" y="279" width="250" height="250" filterUnits="userSpaceOnUse" color-interpolation-filters="sRGB">
<feFlood flood-opacity="0" result="BackgroundImageFix"/>
<feBlend mode="normal" in="SourceGraphic" in2="BackgroundImageFix" result="shape"/>
<feGaussianBlur stdDeviation="12.5" result="effect1_foregroundBlur_349_1286"/>
</filter>
<linearGradient id="paint0_linear_349_1286" x1="861.259" y1="420.426" x2="872.898" y2="418.642" gradientUnits="userSpaceOnUse">
<stop stop-color="#017994"/>
<stop offset="1" stop-color="#02BDE7"/>
</linearGradient>
<linearGradient id="paint1_linear_349_1286" x1="1058.58" y1="420.426" x2="1046.94" y2="418.642" gradientUnits="userSpaceOnUse">
<stop stop-color="#017994"/>
<stop offset="1" stop-color="#02BDE7"/>
</linearGradient>
</defs>
</svg>
