<svg width="1920" height="1080" viewBox="0 0 1920 1080" fill="none" xmlns="http://www.w3.org/2000/svg">
<rect width="1920" height="1080" fill="#F5F5F5"/>
<circle cx="1000" cy="304" r="60" fill="#FF2A00"/>
<circle cx="917" cy="775" r="60" fill="#02D5FF"/>
<circle cx="959" cy="540" r="61" fill="black"/>
<circle cx="959.5" cy="539.5" r="239.5" stroke="#00A3FF" stroke-width="2"/>
<line x1="958" y1="861" x2="958" y2="219" stroke="#00A3FF" stroke-width="2" stroke-dasharray="4 4"/>
<line x1="670" y1="539" x2="960" y2="539" stroke="#00A3FF" stroke-width="2"/>
<line x1="902.274" y1="855.95" x2="1013.76" y2="223.703" stroke="#00A3FF" stroke-width="2"/>
<path d="M1037.55 240.469L1038.61 240.453C1039.31 240.37 1039.86 240.219 1040.28 240C1040.7 239.771 1040.98 239.38 1041.14 238.828L1045.55 223.078C1045.62 222.818 1045.67 222.599 1045.7 222.422C1045.74 222.234 1045.77 222.068 1045.77 221.922C1045.77 221.557 1045.65 221.312 1045.41 221.188C1045.17 221.062 1044.79 221 1044.27 221L1042.73 221.078V220.594L1043.14 220.531C1043.43 220.479 1044.2 220.328 1045.45 220.078C1046.71 219.828 1047.61 219.646 1048.14 219.531L1048.62 219.422L1048.92 219.375L1049.11 219.484C1049.11 219.547 1049.1 219.609 1049.09 219.672C1049.09 219.734 1049.08 219.797 1049.06 219.859L1043.81 239C1043.79 239.083 1043.77 239.167 1043.75 239.25C1043.74 239.333 1043.73 239.417 1043.73 239.5C1043.73 239.927 1043.92 240.198 1044.3 240.312C1044.67 240.427 1045.4 240.5 1046.47 240.531V241H1037.55V240.469ZM1059.26 240.375C1061.25 240.375 1062.97 238.396 1064.43 234.438C1065.69 231.052 1066.32 227.812 1066.32 224.719C1066.32 223.646 1066.2 222.781 1065.98 222.125C1065.56 220.875 1064.77 220.25 1063.62 220.25C1061.48 220.25 1059.67 222.552 1058.19 227.156C1057.07 230.677 1056.51 233.609 1056.51 235.953C1056.51 236.943 1056.62 237.771 1056.85 238.438C1057.29 239.729 1058.09 240.375 1059.26 240.375ZM1063.66 219.344C1065.66 219.344 1067.11 220.339 1067.99 222.328C1068.56 223.63 1068.85 225.146 1068.85 226.875C1068.85 230.688 1067.85 234.042 1065.83 236.938C1063.86 239.771 1061.62 241.188 1059.13 241.188C1057.68 241.188 1056.46 240.573 1055.46 239.344C1054.46 238.104 1053.96 236.396 1053.96 234.219C1053.96 230.583 1054.94 227.214 1056.91 224.109C1058.93 220.932 1061.18 219.344 1063.66 219.344ZM1075.58 223.891C1075.58 224.745 1075.88 225.479 1076.48 226.094C1077.1 226.698 1077.83 227 1078.69 227C1079.55 227 1080.28 226.698 1080.89 226.094C1081.49 225.479 1081.79 224.745 1081.79 223.891C1081.79 223.026 1081.49 222.292 1080.89 221.688C1080.28 221.083 1079.55 220.781 1078.69 220.781C1077.83 220.781 1077.1 221.083 1076.48 221.688C1075.88 222.292 1075.58 223.026 1075.58 223.891ZM1074.14 223.891C1074.14 222.63 1074.58 221.557 1075.47 220.672C1076.35 219.786 1077.43 219.344 1078.69 219.344C1079.95 219.344 1081.02 219.786 1081.9 220.672C1082.8 221.557 1083.25 222.63 1083.25 223.891C1083.25 225.151 1082.8 226.229 1081.9 227.125C1081.02 228.01 1079.95 228.453 1078.69 228.453C1077.43 228.453 1076.35 228.01 1075.47 227.125C1074.58 226.229 1074.14 225.151 1074.14 223.891Z" fill="#00A3FF"/>
<path d="M816.547 860.469L817.609 860.453C818.307 860.37 818.865 860.219 819.281 860C819.698 859.771 819.984 859.38 820.141 858.828L824.547 843.078C824.62 842.818 824.672 842.599 824.703 842.422C824.745 842.234 824.766 842.068 824.766 841.922C824.766 841.557 824.646 841.312 824.406 841.188C824.167 841.062 823.786 841 823.266 841L821.734 841.078V840.594L822.141 840.531C822.432 840.479 823.203 840.328 824.453 840.078C825.714 839.828 826.609 839.646 827.141 839.531L827.625 839.422L827.922 839.375L828.109 839.484C828.109 839.547 828.104 839.609 828.094 839.672C828.094 839.734 828.083 839.797 828.062 839.859L822.812 859C822.792 859.083 822.771 859.167 822.75 859.25C822.74 859.333 822.734 859.417 822.734 859.5C822.734 859.927 822.922 860.198 823.297 860.312C823.672 860.427 824.396 860.5 825.469 860.531V861H816.547V860.469ZM840.304 852.234C841.064 852.234 841.83 852.026 842.601 851.609C843.371 851.193 843.929 850.578 844.272 849.766C844.502 849.234 844.726 848.469 844.944 847.469C845.163 846.458 845.272 845.547 845.272 844.734C845.272 843.589 845.137 842.688 844.866 842.031C844.377 840.833 843.444 840.234 842.069 840.234C840.507 840.234 839.267 841.036 838.351 842.641C837.444 844.245 836.991 845.984 836.991 847.859C836.991 848.943 837.132 849.807 837.413 850.453C837.924 851.641 838.887 852.234 840.304 852.234ZM834.179 847.875C834.179 845.844 834.924 843.922 836.413 842.109C837.913 840.297 839.736 839.391 841.882 839.391C843.757 839.391 845.194 840.047 846.194 841.359C847.194 842.672 847.694 844.365 847.694 846.438C847.694 850.323 846.174 853.75 843.132 856.719C840.184 859.604 836.705 861.229 832.694 861.594V861C835.163 860.562 837.538 859.224 839.819 856.984C841.632 855.214 842.762 853.667 843.21 852.344L843.101 852.266C842.496 852.661 841.845 853.005 841.147 853.297C840.45 853.578 839.71 853.719 838.929 853.719C837.835 853.719 836.767 853.266 835.726 852.359C834.694 851.443 834.179 849.948 834.179 847.875ZM855.217 860.375C857.206 860.375 858.93 858.396 860.389 854.438C861.649 851.052 862.279 847.812 862.279 844.719C862.279 843.646 862.165 842.781 861.936 842.125C861.519 840.875 860.732 840.25 859.576 840.25C857.441 840.25 855.634 842.552 854.154 847.156C853.029 850.677 852.467 853.609 852.467 855.953C852.467 856.943 852.581 857.771 852.811 858.438C853.248 859.729 854.05 860.375 855.217 860.375ZM859.623 839.344C861.623 839.344 863.066 840.339 863.951 842.328C864.524 843.63 864.811 845.146 864.811 846.875C864.811 850.688 863.805 854.042 861.795 856.938C859.816 859.771 857.581 861.188 855.092 861.188C853.644 861.188 852.42 860.573 851.42 859.344C850.42 858.104 849.92 856.396 849.92 854.219C849.92 850.583 850.904 847.214 852.873 844.109C854.894 840.932 857.144 839.344 859.623 839.344ZM871.536 843.891C871.536 844.745 871.838 845.479 872.443 846.094C873.057 846.698 873.791 847 874.646 847C875.51 847 876.245 846.698 876.849 846.094C877.453 845.479 877.755 844.745 877.755 843.891C877.755 843.026 877.453 842.292 876.849 841.688C876.245 841.083 875.51 840.781 874.646 840.781C873.791 840.781 873.057 841.083 872.443 841.688C871.838 842.292 871.536 843.026 871.536 843.891ZM870.099 843.891C870.099 842.63 870.541 841.557 871.427 840.672C872.312 839.786 873.385 839.344 874.646 839.344C875.906 839.344 876.979 839.786 877.864 840.672C878.76 841.557 879.208 842.63 879.208 843.891C879.208 845.151 878.76 846.229 877.864 847.125C876.979 848.01 875.906 848.453 874.646 848.453C873.385 848.453 872.312 848.01 871.427 847.125C870.541 846.229 870.099 845.151 870.099 843.891Z" fill="#00A3FF"/>
<path d="M917.297 240.375C919.286 240.375 921.01 238.396 922.469 234.438C923.729 231.052 924.359 227.812 924.359 224.719C924.359 223.646 924.245 222.781 924.016 222.125C923.599 220.875 922.812 220.25 921.656 220.25C919.521 220.25 917.714 222.552 916.234 227.156C915.109 230.677 914.547 233.609 914.547 235.953C914.547 236.943 914.661 237.771 914.891 238.438C915.328 239.729 916.13 240.375 917.297 240.375ZM921.703 219.344C923.703 219.344 925.146 220.339 926.031 222.328C926.604 223.63 926.891 225.146 926.891 226.875C926.891 230.688 925.885 234.042 923.875 236.938C921.896 239.771 919.661 241.188 917.172 241.188C915.724 241.188 914.5 240.573 913.5 239.344C912.5 238.104 912 236.396 912 234.219C912 230.583 912.984 227.214 914.953 224.109C916.974 220.932 919.224 219.344 921.703 219.344ZM933.616 223.891C933.616 224.745 933.918 225.479 934.522 226.094C935.137 226.698 935.871 227 936.726 227C937.59 227 938.325 226.698 938.929 226.094C939.533 225.479 939.835 224.745 939.835 223.891C939.835 223.026 939.533 222.292 938.929 221.688C938.325 221.083 937.59 220.781 936.726 220.781C935.871 220.781 935.137 221.083 934.522 221.688C933.918 222.292 933.616 223.026 933.616 223.891ZM932.179 223.891C932.179 222.63 932.621 221.557 933.507 220.672C934.392 219.786 935.465 219.344 936.726 219.344C937.986 219.344 939.059 219.786 939.944 220.672C940.84 221.557 941.288 222.63 941.288 223.891C941.288 225.151 940.84 226.229 939.944 227.125C939.059 228.01 937.986 228.453 936.726 228.453C935.465 228.453 934.392 228.01 933.507 227.125C932.621 226.229 932.179 225.151 932.179 223.891Z" fill="#00A3FF"/>
<path d="M877.703 198.484C878.453 198.422 878.969 198.286 879.25 198.078C879.688 197.766 880.047 197.115 880.328 196.125L884.25 181.969C884.396 181.396 884.495 180.995 884.547 180.766C884.599 180.526 884.625 180.292 884.625 180.062C884.625 179.542 884.443 179.182 884.078 178.984C883.724 178.776 883.078 178.661 882.141 178.641V178.125H890.875V178.641C890.01 178.714 889.391 178.854 889.016 179.062C888.37 179.417 887.917 180.062 887.656 181L885.953 187.234H895.062L896.625 181.562C896.729 181.156 896.797 180.833 896.828 180.594C896.859 180.354 896.875 180.146 896.875 179.969C896.875 179.458 896.62 179.094 896.109 178.875C895.766 178.74 895.271 178.661 894.625 178.641V178.125H902.547V178.641C901.703 178.745 901.12 178.922 900.797 179.172C900.484 179.411 900.193 180.021 899.922 181L896 195.156L895.703 196.375C895.682 196.49 895.661 196.599 895.641 196.703C895.63 196.807 895.625 196.911 895.625 197.016C895.625 197.62 895.802 198.01 896.156 198.188C896.521 198.354 897.172 198.453 898.109 198.484V199H889.359V198.484C890.203 198.422 890.818 198.286 891.203 198.078C891.849 197.724 892.307 197.073 892.578 196.125L894.703 188.562H885.578L883.734 195.156L883.438 196.375C883.417 196.49 883.396 196.599 883.375 196.703C883.365 196.807 883.359 196.911 883.359 197.016C883.359 197.599 883.521 197.979 883.844 198.156C884.177 198.323 884.771 198.432 885.625 198.484V199H877.703V198.484ZM905.741 187.719C905.762 187.615 905.778 187.521 905.788 187.438C905.809 187.344 905.819 187.25 905.819 187.156C905.819 186.708 905.684 186.438 905.413 186.344C905.153 186.24 904.658 186.188 903.929 186.188V185.75L906.226 185.297L908.71 184.828C908.762 184.818 908.809 184.839 908.851 184.891C908.892 184.943 908.908 184.995 908.897 185.047L908.851 185.266L906.085 195.891C906.012 196.151 905.96 196.354 905.929 196.5C905.897 196.646 905.882 196.75 905.882 196.812C905.882 197.052 905.95 197.24 906.085 197.375C906.22 197.51 906.397 197.578 906.616 197.578C907.231 197.578 907.996 197.031 908.913 195.938C909.84 194.844 910.663 193.708 911.382 192.531C912.028 191.479 912.621 190.307 913.163 189.016C913.496 188.214 913.976 186.938 914.601 185.188H916.96L914.007 196.266C913.955 196.474 913.908 196.667 913.866 196.844C913.825 197.021 913.804 197.167 913.804 197.281C913.804 197.417 913.835 197.536 913.897 197.641C913.96 197.734 914.069 197.781 914.226 197.781C914.382 197.781 914.543 197.724 914.71 197.609C914.877 197.484 915.085 197.297 915.335 197.047C915.45 196.932 915.658 196.688 915.96 196.312C916.147 196.083 916.434 195.734 916.819 195.266L917.257 195.562C916.778 196.354 916.278 197.036 915.757 197.609C914.726 198.766 913.767 199.344 912.882 199.344C912.424 199.344 912.049 199.219 911.757 198.969C911.465 198.719 911.319 198.328 911.319 197.797C911.319 197.526 911.345 197.229 911.397 196.906C911.45 196.583 911.533 196.219 911.647 195.812C911.835 195.083 912.075 194.172 912.366 193.078L912.71 191.75H912.601C911.163 194.135 910.033 195.823 909.21 196.812C907.783 198.51 906.434 199.359 905.163 199.359C904.819 199.359 904.507 199.286 904.226 199.141C903.684 198.849 903.413 198.328 903.413 197.578C903.413 197.359 903.424 197.182 903.444 197.047C903.465 196.911 903.502 196.724 903.554 196.484L905.741 187.719ZM920.045 194.859C920.045 192.547 921.087 190.307 923.17 188.141C925.232 185.974 927.363 184.891 929.561 184.891C930.373 184.891 931.019 185.078 931.498 185.453C931.977 185.828 932.217 186.385 932.217 187.125C932.217 188.625 931.337 189.911 929.576 190.984C927.826 192.047 925.982 192.698 924.045 192.938L923.154 193.047C923.019 193.474 922.925 193.818 922.873 194.078C922.821 194.328 922.795 194.646 922.795 195.031C922.795 195.948 923.092 196.661 923.686 197.172C924.29 197.682 925.003 197.938 925.826 197.938C926.607 197.938 927.436 197.677 928.311 197.156C928.811 196.854 929.535 196.312 930.482 195.531L930.889 195.891C930.42 196.484 929.748 197.094 928.873 197.719C927.321 198.833 925.764 199.391 924.201 199.391C923.097 199.391 922.128 199 921.295 198.219C920.462 197.438 920.045 196.318 920.045 194.859ZM923.373 192.344C925.363 192.052 926.982 191.354 928.232 190.25C929.482 189.135 930.107 188.031 930.107 186.938C930.107 186.542 930.014 186.229 929.826 186C929.639 185.76 929.363 185.641 928.998 185.641C928.321 185.641 927.654 185.932 926.998 186.516C926.352 187.089 925.769 187.74 925.248 188.469C924.696 189.323 924.259 190.141 923.936 190.922C923.759 191.339 923.571 191.812 923.373 192.344Z" fill="#00A3FF"/>
<path d="M498.703 549.484C499.453 549.422 499.969 549.286 500.25 549.078C500.688 548.766 501.047 548.115 501.328 547.125L505.25 532.969C505.396 532.396 505.495 531.995 505.547 531.766C505.599 531.526 505.625 531.292 505.625 531.062C505.625 530.542 505.443 530.182 505.078 529.984C504.724 529.776 504.078 529.661 503.141 529.641V529.125H511.875V529.641C511.01 529.714 510.391 529.854 510.016 530.062C509.37 530.406 508.917 531.052 508.656 532L504.734 546.156L504.438 547.375C504.427 547.438 504.417 547.505 504.406 547.578C504.406 547.651 504.406 547.714 504.406 547.766C504.406 548.026 504.49 548.234 504.656 548.391C504.823 548.536 505.083 548.646 505.438 548.719C505.729 548.771 506.13 548.807 506.641 548.828C506.943 548.839 507.448 548.844 508.156 548.844C510.333 548.844 511.99 548.557 513.125 547.984C514.26 547.401 515.302 546.099 516.25 544.078L516.875 544.266L515.031 550H498.703V549.484ZM524.647 532.422C524.22 532.422 523.856 532.255 523.554 531.922C523.252 531.589 523.101 531.188 523.101 530.719C523.101 530.24 523.252 529.833 523.554 529.5C523.856 529.167 524.22 529 524.647 529C525.075 529 525.439 529.167 525.741 529.5C526.054 529.833 526.21 530.24 526.21 530.719C526.21 531.198 526.054 531.604 525.741 531.938C525.439 532.26 525.075 532.422 524.647 532.422ZM525.022 535.844C525.085 535.875 525.111 535.917 525.101 535.969L521.944 547.125C521.799 547.719 521.726 548.073 521.726 548.188C521.726 548.344 521.757 548.479 521.819 548.594C521.871 548.719 522.002 548.781 522.21 548.781C522.564 548.781 523.033 548.474 523.616 547.859C523.96 547.495 524.382 546.974 524.882 546.297L525.288 546.641L525.132 546.859C524.351 547.953 523.705 548.74 523.194 549.219C522.392 549.969 521.611 550.344 520.851 550.344C520.403 550.344 520.028 550.156 519.726 549.781C519.434 549.406 519.288 548.964 519.288 548.453C519.288 548.151 519.309 547.891 519.351 547.672C519.392 547.443 519.47 547.109 519.585 546.672L521.772 538.641C521.804 538.516 521.83 538.401 521.851 538.297C521.871 538.193 521.882 538.089 521.882 537.984C521.882 537.609 521.741 537.38 521.46 537.297C521.189 537.203 520.647 537.156 519.835 537.156V536.641C520.7 536.536 521.319 536.458 521.694 536.406C522.08 536.344 522.465 536.281 522.851 536.219C523.351 536.135 523.825 536.042 524.272 535.938C524.72 535.833 524.97 535.802 525.022 535.844ZM533.186 542C533.186 542.646 533.285 543.161 533.483 543.547C533.816 544.182 534.415 544.5 535.279 544.5C536.217 544.5 537.05 543.906 537.779 542.719C538.519 541.521 538.889 540.203 538.889 538.766C538.889 538.078 538.738 537.542 538.436 537.156C538.134 536.76 537.68 536.562 537.076 536.562C535.91 536.562 534.967 537.182 534.248 538.422C533.54 539.661 533.186 540.854 533.186 542ZM533.733 555.938C534.972 555.938 535.998 555.641 536.811 555.047C537.634 554.453 538.045 553.745 538.045 552.922C538.045 552.297 537.831 551.771 537.404 551.344C537.175 551.115 536.805 550.87 536.295 550.609C535.868 550.401 535.144 550.104 534.123 549.719C533.113 549.323 532.529 549.125 532.373 549.125C532.102 549.125 531.576 549.484 530.795 550.203C530.014 550.932 529.623 551.755 529.623 552.672C529.623 554.057 530.222 555.01 531.42 555.531C532.045 555.802 532.816 555.938 533.733 555.938ZM527.889 553.078C527.889 552.297 528.186 551.552 528.779 550.844C529.384 550.146 530.337 549.448 531.639 548.75C531.378 548.583 531.165 548.411 530.998 548.234C530.831 548.047 530.748 547.802 530.748 547.5C530.748 547.073 531.045 546.583 531.639 546.031C531.972 545.719 532.514 545.307 533.264 544.797C532.597 544.547 532.024 544.193 531.545 543.734C530.962 543.12 530.67 542.323 530.67 541.344C530.67 539.771 531.285 538.464 532.514 537.422C533.743 536.38 535.264 535.859 537.076 535.859C538.024 535.859 538.826 536.01 539.483 536.312C540.139 536.604 540.524 536.849 540.639 537.047H542.748V538.297H541.154C541.217 538.526 541.264 538.734 541.295 538.922C541.326 539.109 541.342 539.375 541.342 539.719C541.342 541.406 540.686 542.734 539.373 543.703C538.071 544.672 536.665 545.156 535.154 545.156C534.998 545.156 534.852 545.151 534.717 545.141C534.581 545.12 534.415 545.089 534.217 545.047C534.061 545.047 533.847 545.198 533.576 545.5C533.295 545.802 533.154 546.073 533.154 546.312C533.154 546.667 534.3 547.271 536.592 548.125C538.873 548.99 540.014 550.255 540.014 551.922C540.014 553.172 539.441 554.266 538.295 555.203C537.149 556.151 535.42 556.625 533.108 556.625C531.503 556.625 530.233 556.281 529.295 555.594C528.358 554.906 527.889 554.068 527.889 553.078ZM548.146 529.047C548.812 528.953 549.349 528.88 549.755 528.828C550.172 528.766 550.531 528.708 550.833 528.656C552.062 528.417 552.724 528.286 552.818 528.266C552.911 528.245 552.984 528.234 553.036 528.234C553.161 528.297 553.224 528.375 553.224 528.469L549.552 542.422C550.864 540.484 551.937 539.068 552.771 538.172C554.229 536.63 555.568 535.859 556.786 535.859C557.286 535.859 557.765 536.021 558.224 536.344C558.693 536.656 558.927 537.224 558.927 538.047C558.927 538.245 558.901 538.5 558.849 538.812C558.797 539.125 558.734 539.401 558.661 539.641L556.552 547.125C556.489 547.333 556.437 547.536 556.396 547.734C556.354 547.922 556.333 548.094 556.333 548.25C556.333 548.427 556.375 548.562 556.458 548.656C556.541 548.74 556.661 548.781 556.818 548.781C557.14 548.781 557.521 548.557 557.958 548.109C558.229 547.828 558.734 547.214 559.474 546.266L559.88 546.641C559.151 547.724 558.531 548.516 558.021 549.016C557.114 549.901 556.203 550.344 555.286 550.344C554.87 550.344 554.521 550.214 554.239 549.953C553.958 549.693 553.818 549.318 553.818 548.828C553.818 548.693 553.823 548.568 553.833 548.453C553.854 548.328 553.885 548.193 553.927 548.047L556.333 538.891C556.354 538.807 556.37 538.724 556.38 538.641C556.401 538.547 556.411 538.453 556.411 538.359C556.411 538.099 556.333 537.896 556.177 537.75C556.01 537.604 555.797 537.531 555.536 537.531C554.838 537.531 553.958 538.094 552.896 539.219C551.833 540.333 550.937 541.474 550.208 542.641C549.708 543.464 549.328 544.24 549.068 544.969C548.818 545.698 548.328 547.375 547.599 550H545.177L550.177 531.047C550.208 530.911 550.229 530.797 550.239 530.703C550.25 530.609 550.255 530.521 550.255 530.438C550.255 529.99 550.109 529.724 549.818 529.641C549.526 529.547 548.969 529.521 548.146 529.562V529.047ZM562.762 548.969C562.762 548.885 562.767 548.792 562.778 548.688C562.788 548.573 562.809 548.458 562.84 548.344L565.778 537.422H563.403C563.403 537.141 563.423 536.964 563.465 536.891C563.507 536.818 563.611 536.745 563.778 536.672C564.83 536.224 565.642 535.792 566.215 535.375C566.798 534.958 567.59 534.156 568.59 532.969L568.84 532.672C568.871 532.63 568.908 532.599 568.949 532.578C569.001 532.547 569.054 532.531 569.106 532.531C569.21 532.552 569.283 532.573 569.324 532.594C569.356 532.667 569.371 532.734 569.371 532.797C569.382 532.849 569.382 532.906 569.371 532.969L568.481 536.375H571.028L570.84 537.422H568.184L565.371 547.938C565.319 548.125 565.335 548.307 565.418 548.484C565.501 548.651 565.642 548.734 565.84 548.734C566.111 548.734 566.491 548.464 566.981 547.922C567.262 547.63 567.736 547.052 568.403 546.188L568.809 546.422L568.59 546.75C567.694 548.094 566.903 549.031 566.215 549.562C565.538 550.083 564.892 550.344 564.278 550.344C563.746 550.344 563.361 550.203 563.121 549.922C562.882 549.641 562.762 549.323 562.762 548.969ZM572.003 550L574.706 540.344C574.935 539.531 575.066 539.042 575.097 538.875C575.139 538.698 575.159 538.51 575.159 538.312C575.159 538.01 575.071 537.776 574.894 537.609C574.727 537.432 574.394 537.344 573.894 537.344C573.769 537.344 573.644 537.354 573.519 537.375C573.404 537.385 573.274 537.401 573.128 537.422V536.891C573.805 536.786 574.284 536.708 574.566 536.656C574.857 536.604 575.17 536.542 575.503 536.469L578.3 535.859C578.363 535.901 578.404 535.948 578.425 536L576.347 542.719C577.618 540.771 578.68 539.323 579.534 538.375C581.034 536.698 582.378 535.859 583.566 535.859C584.024 535.859 584.42 535.948 584.753 536.125C585.389 536.469 585.706 537.089 585.706 537.984C585.706 538.234 585.68 538.495 585.628 538.766C585.576 539.036 585.508 539.328 585.425 539.641L583.378 547.125C583.336 547.281 583.29 547.474 583.238 547.703C583.185 547.922 583.159 548.078 583.159 548.172C583.159 548.328 583.196 548.469 583.269 548.594C583.342 548.719 583.461 548.781 583.628 548.781C583.899 548.781 584.211 548.625 584.566 548.312C584.92 547.99 585.498 547.307 586.3 546.266L586.753 546.672C585.899 547.828 585.222 548.641 584.722 549.109C583.868 549.932 583.05 550.344 582.269 550.344C581.915 550.344 581.571 550.229 581.238 550C580.915 549.76 580.753 549.333 580.753 548.719C580.753 548.542 580.764 548.354 580.784 548.156C580.816 547.958 580.852 547.786 580.894 547.641L582.863 540.047C582.967 539.63 583.034 539.292 583.066 539.031C583.107 538.76 583.128 538.568 583.128 538.453C583.128 538.203 583.066 537.99 582.941 537.812C582.826 537.625 582.618 537.531 582.316 537.531C581.534 537.531 580.55 538.24 579.363 539.656C578.665 540.5 577.956 541.505 577.238 542.672C576.685 543.578 576.248 544.464 575.925 545.328C575.613 546.182 575.113 547.74 574.425 550H572.003ZM589.385 545.859C589.385 543.547 590.427 541.307 592.51 539.141C594.573 536.974 596.703 535.891 598.901 535.891C599.713 535.891 600.359 536.078 600.838 536.453C601.317 536.828 601.557 537.385 601.557 538.125C601.557 539.625 600.677 540.911 598.916 541.984C597.166 543.047 595.323 543.698 593.385 543.938L592.494 544.047C592.359 544.474 592.265 544.818 592.213 545.078C592.161 545.328 592.135 545.646 592.135 546.031C592.135 546.948 592.432 547.661 593.026 548.172C593.63 548.682 594.343 548.938 595.166 548.938C595.948 548.938 596.776 548.677 597.651 548.156C598.151 547.854 598.875 547.312 599.823 546.531L600.229 546.891C599.76 547.484 599.088 548.094 598.213 548.719C596.661 549.833 595.104 550.391 593.541 550.391C592.437 550.391 591.468 550 590.635 549.219C589.802 548.438 589.385 547.318 589.385 545.859ZM592.713 543.344C594.703 543.052 596.323 542.354 597.573 541.25C598.823 540.135 599.448 539.031 599.448 537.938C599.448 537.542 599.354 537.229 599.166 537C598.979 536.76 598.703 536.641 598.338 536.641C597.661 536.641 596.994 536.932 596.338 537.516C595.692 538.089 595.109 538.74 594.588 539.469C594.036 540.323 593.599 541.141 593.276 541.922C593.099 542.339 592.911 542.812 592.713 543.344ZM604.704 545.344H605.22C605.449 546.604 605.72 547.526 606.033 548.109C606.605 549.182 607.46 549.719 608.595 549.719C609.23 549.719 609.762 549.495 610.189 549.047C610.626 548.599 610.845 548.005 610.845 547.266C610.845 546.807 610.788 546.432 610.673 546.141C610.569 545.849 610.434 545.583 610.267 545.344L608.97 543.422C608.189 542.255 607.699 541.474 607.501 541.078C607.199 540.484 607.048 539.891 607.048 539.297C607.048 538.391 607.371 537.594 608.017 536.906C608.673 536.208 609.6 535.859 610.798 535.859C611.309 535.859 611.892 535.958 612.548 536.156C613.204 536.344 613.652 536.438 613.892 536.438C614.152 536.438 614.345 536.385 614.47 536.281C614.595 536.177 614.71 536.036 614.814 535.859H615.267L614.626 540.297H614.111C613.975 539.286 613.772 538.526 613.501 538.016C613.001 537.068 612.21 536.594 611.126 536.594C610.668 536.594 610.256 536.74 609.892 537.031C609.538 537.312 609.361 537.729 609.361 538.281C609.361 538.708 609.439 539.083 609.595 539.406C609.762 539.729 610.131 540.302 610.704 541.125L611.814 542.719C612.387 543.542 612.793 544.214 613.033 544.734C613.272 545.255 613.392 545.818 613.392 546.422C613.392 547.547 612.913 548.495 611.954 549.266C610.996 550.036 609.855 550.422 608.533 550.422C608.105 550.422 607.496 550.333 606.704 550.156C605.913 549.979 605.454 549.891 605.329 549.891C605.121 549.891 604.965 549.938 604.861 550.031C604.767 550.125 604.678 550.266 604.595 550.453H604.079L604.704 545.344ZM618.133 545.344H618.649C618.878 546.604 619.149 547.526 619.461 548.109C620.034 549.182 620.888 549.719 622.024 549.719C622.659 549.719 623.19 549.495 623.618 549.047C624.055 548.599 624.274 548.005 624.274 547.266C624.274 546.807 624.216 546.432 624.102 546.141C623.998 545.849 623.862 545.583 623.696 545.344L622.399 543.422C621.618 542.255 621.128 541.474 620.93 541.078C620.628 540.484 620.477 539.891 620.477 539.297C620.477 538.391 620.8 537.594 621.446 536.906C622.102 536.208 623.029 535.859 624.227 535.859C624.737 535.859 625.321 535.958 625.977 536.156C626.633 536.344 627.081 536.438 627.321 536.438C627.581 536.438 627.774 536.385 627.899 536.281C628.024 536.177 628.138 536.036 628.243 535.859H628.696L628.055 540.297H627.539C627.404 539.286 627.201 538.526 626.93 538.016C626.43 537.068 625.638 536.594 624.555 536.594C624.097 536.594 623.685 536.74 623.321 537.031C622.966 537.312 622.789 537.729 622.789 538.281C622.789 538.708 622.868 539.083 623.024 539.406C623.19 539.729 623.56 540.302 624.133 541.125L625.243 542.719C625.815 543.542 626.222 544.214 626.461 544.734C626.701 545.255 626.821 545.818 626.821 546.422C626.821 547.547 626.341 548.495 625.383 549.266C624.425 550.036 623.284 550.422 621.961 550.422C621.534 550.422 620.925 550.333 620.133 550.156C619.341 549.979 618.883 549.891 618.758 549.891C618.55 549.891 618.394 549.938 618.289 550.031C618.196 550.125 618.107 550.266 618.024 550.453H617.508L618.133 545.344Z" fill="#00A3FF"/>
<path d="M984.547 860.469L985.609 860.453C986.307 860.37 986.865 860.219 987.281 860C987.698 859.771 987.984 859.38 988.141 858.828L992.547 843.078C992.62 842.818 992.672 842.599 992.703 842.422C992.745 842.234 992.766 842.068 992.766 841.922C992.766 841.557 992.646 841.312 992.406 841.188C992.167 841.062 991.786 841 991.266 841L989.734 841.078V840.594L990.141 840.531C990.432 840.479 991.203 840.328 992.453 840.078C993.714 839.828 994.609 839.646 995.141 839.531L995.625 839.422L995.922 839.375L996.109 839.484C996.109 839.547 996.104 839.609 996.094 839.672C996.094 839.734 996.083 839.797 996.062 839.859L990.812 859C990.792 859.083 990.771 859.167 990.75 859.25C990.74 859.333 990.734 859.417 990.734 859.5C990.734 859.927 990.922 860.198 991.297 860.312C991.672 860.427 992.396 860.5 993.469 860.531V861H984.547V860.469ZM1009.91 848.234C1011.16 847.63 1012.01 847.109 1012.46 846.672C1013.19 845.953 1013.55 845.005 1013.55 843.828C1013.55 842.87 1013.27 842.021 1012.69 841.281C1012.12 840.531 1011.29 840.156 1010.19 840.156C1009.11 840.156 1008.29 840.484 1007.73 841.141C1007.16 841.786 1006.88 842.536 1006.88 843.391C1006.88 844.255 1007.15 845.083 1007.68 845.875C1008.21 846.667 1008.95 847.453 1009.91 848.234ZM1007.52 860.484C1008.58 860.484 1009.56 860.104 1010.44 859.344C1011.34 858.583 1011.79 857.505 1011.79 856.109C1011.79 855.495 1011.68 854.938 1011.48 854.438C1011.27 853.938 1011.02 853.484 1010.73 853.078C1010.3 852.557 1009.82 852.031 1009.3 851.5C1008.79 850.969 1008.28 850.484 1007.76 850.047C1006.56 850.401 1005.48 851.073 1004.52 852.062C1003.57 853.052 1003.1 854.302 1003.1 855.812C1003.1 857.396 1003.53 858.573 1004.38 859.344C1005.24 860.104 1006.28 860.484 1007.52 860.484ZM1007.13 849.484C1006.18 848.484 1005.48 847.568 1005.02 846.734C1004.57 845.891 1004.35 845.057 1004.35 844.234C1004.35 842.87 1004.94 841.693 1006.13 840.703C1007.24 839.818 1008.56 839.375 1010.1 839.375C1011.54 839.375 1012.83 839.781 1013.99 840.594C1015.15 841.396 1015.73 842.51 1015.73 843.938C1015.73 845.323 1015.03 846.474 1013.65 847.391C1012.9 847.891 1011.84 848.354 1010.48 848.781C1011.75 849.979 1012.68 851.068 1013.29 852.047C1013.92 853.026 1014.24 854.068 1014.24 855.172C1014.24 856.786 1013.6 858.203 1012.32 859.422C1011.04 860.63 1009.37 861.234 1007.32 861.234C1005.31 861.234 1003.74 860.714 1002.62 859.672C1001.5 858.63 1000.94 857.401 1000.94 855.984C1000.94 854.141 1001.75 852.594 1003.37 851.344C1004.36 850.583 1005.61 849.964 1007.13 849.484ZM1023.22 860.375C1025.21 860.375 1026.93 858.396 1028.39 854.438C1029.65 851.052 1030.28 847.812 1030.28 844.719C1030.28 843.646 1030.16 842.781 1029.94 842.125C1029.52 840.875 1028.73 840.25 1027.58 840.25C1025.44 840.25 1023.63 842.552 1022.15 847.156C1021.03 850.677 1020.47 853.609 1020.47 855.953C1020.47 856.943 1020.58 857.771 1020.81 858.438C1021.25 859.729 1022.05 860.375 1023.22 860.375ZM1027.62 839.344C1029.62 839.344 1031.07 840.339 1031.95 842.328C1032.52 843.63 1032.81 845.146 1032.81 846.875C1032.81 850.688 1031.81 854.042 1029.79 856.938C1027.82 859.771 1025.58 861.188 1023.09 861.188C1021.64 861.188 1020.42 860.573 1019.42 859.344C1018.42 858.104 1017.92 856.396 1017.92 854.219C1017.92 850.583 1018.9 847.214 1020.87 844.109C1022.89 840.932 1025.14 839.344 1027.62 839.344ZM1039.54 843.891C1039.54 844.745 1039.84 845.479 1040.44 846.094C1041.06 846.698 1041.79 847 1042.65 847C1043.51 847 1044.24 846.698 1044.85 846.094C1045.45 845.479 1045.76 844.745 1045.76 843.891C1045.76 843.026 1045.45 842.292 1044.85 841.688C1044.24 841.083 1043.51 840.781 1042.65 840.781C1041.79 840.781 1041.06 841.083 1040.44 841.688C1039.84 842.292 1039.54 843.026 1039.54 843.891ZM1038.1 843.891C1038.1 842.63 1038.54 841.557 1039.43 840.672C1040.31 839.786 1041.39 839.344 1042.65 839.344C1043.91 839.344 1044.98 839.786 1045.86 840.672C1046.76 841.557 1047.21 842.63 1047.21 843.891C1047.21 845.151 1046.76 846.229 1045.86 847.125C1044.98 848.01 1043.91 848.453 1042.65 848.453C1041.39 848.453 1040.31 848.01 1039.43 847.125C1038.54 846.229 1038.1 845.151 1038.1 843.891Z" fill="#00A3FF"/>
</svg>
