<svg width="1920" height="1080" viewBox="0 0 1920 1080" fill="none" xmlns="http://www.w3.org/2000/svg">
<rect width="1920" height="1080" fill="#F5F5F5"/>
<g filter="url(#filter0_f_349_1276)">
<path d="M436 693C518.843 693 586 625.843 586 543C586 460.157 518.843 393 436 393C353.157 393 286 460.157 286 543C286 625.843 353.157 693 436 693Z" fill="#FF2A00"/>
</g>
<path d="M960 693C1042.84 693 1110 625.843 1110 543C1110 460.157 1042.84 393 960 393C877.157 393 810 460.157 810 543C810 625.843 877.157 693 960 693Z" fill="black"/>
<path d="M1592.25 449.92C1588.92 445.962 1589.46 440.004 1593.42 436.713C1597.37 433.38 1603.29 433.88 1606.63 437.88C1609.96 441.837 1609.42 447.753 1605.46 451.086C1603.71 452.544 1601.58 453.294 1599.46 453.294C1596.79 453.294 1594.12 452.128 1592.25 449.92ZM1363.59 450.711C1359.63 447.378 1359.13 441.463 1362.46 437.505C1365.8 433.547 1371.72 433.047 1375.67 436.38C1379.67 439.713 1380.13 445.629 1376.8 449.586C1374.92 451.794 1372.3 452.919 1369.63 452.919C1367.51 452.919 1365.38 452.211 1363.59 450.711ZM1554.91 418.466C1550.41 415.883 1548.91 410.134 1551.49 405.676C1554.08 401.219 1559.83 399.677 1564.33 402.26C1568.79 404.843 1570.33 410.592 1567.75 415.05C1566 418.049 1562.83 419.716 1559.62 419.716C1557.99 419.716 1556.41 419.299 1554.95 418.424L1554.91 418.466ZM1401.51 414.8C1398.93 410.342 1400.47 404.593 1404.93 402.01C1409.43 399.427 1415.18 400.969 1417.76 405.426C1420.35 409.926 1418.81 415.633 1414.31 418.216C1412.85 419.091 1411.22 419.466 1409.64 419.466C1406.43 419.466 1403.26 417.799 1401.51 414.758V414.8ZM1509.07 401.677C1503.99 400.76 1500.57 395.928 1501.49 390.845C1502.4 385.721 1507.24 382.346 1512.32 383.263C1517.45 384.138 1520.82 389.054 1519.95 394.136C1519.15 398.677 1515.2 401.843 1510.74 401.843C1510.19 401.843 1509.65 401.802 1509.07 401.718V401.677ZM1449.35 393.97C1448.48 388.887 1451.89 384.013 1456.98 383.138C1462.1 382.263 1466.94 385.638 1467.81 390.762C1468.69 395.844 1465.31 400.719 1460.19 401.594C1459.65 401.677 1459.1 401.718 1458.56 401.718C1454.1 401.718 1450.14 398.511 1449.35 393.97Z" fill="black"/>
<path d="M1634.42 549.696C1629.25 549.696 1625.05 545.489 1625.05 540.323C1625.05 535.157 1629.25 530.949 1634.42 530.949C1639.63 530.949 1643.8 535.157 1643.8 540.323C1643.8 545.53 1639.59 549.696 1634.42 549.696Z" fill="black"/>
<path d="M1325 540.156V539.989V539.781C1325 534.615 1329.21 530.449 1334.38 530.449C1339.54 530.449 1343.75 534.657 1343.75 539.823V539.989V540.156C1343.75 545.322 1339.54 549.53 1334.38 549.53C1329.17 549.53 1325 545.322 1325 540.156Z" fill="black"/>
<path d="M1340.25 497.371C1335.38 495.579 1332.88 490.205 1334.67 485.331C1336.46 480.457 1341.88 477.999 1346.71 479.79C1351.59 481.581 1354.09 486.956 1352.3 491.83C1350.92 495.621 1347.3 497.996 1343.5 497.996C1342.42 497.996 1341.34 497.787 1340.29 497.412L1340.25 497.371Z" fill="black"/>
<path d="M1501.15 689.509C1500.24 684.426 1503.65 679.552 1508.78 678.677C1513.86 677.76 1518.74 681.218 1519.61 686.301C1520.53 691.383 1517.11 696.258 1512.03 697.133C1511.45 697.216 1510.95 697.258 1510.4 697.258C1505.9 697.258 1501.99 694.05 1501.19 689.509H1501.15Z" fill="black"/>
<path d="M1456.65 697.091C1451.56 696.216 1448.14 691.3 1449.06 686.259C1449.94 681.176 1454.81 677.76 1459.9 678.635C1465.02 679.51 1468.4 684.426 1467.48 689.467C1466.69 694.008 1462.73 697.216 1458.27 697.216C1457.73 697.216 1457.19 697.132 1456.6 697.049L1456.65 697.091Z" fill="black"/>
<path d="M1551.2 674.802C1548.62 670.345 1550.16 664.596 1554.66 662.013C1559.16 659.43 1564.87 660.971 1567.5 665.429C1570.08 669.928 1568.54 675.636 1564.08 678.219C1562.62 679.093 1560.99 679.468 1559.41 679.468C1556.16 679.468 1553.03 677.76 1551.24 674.802H1551.2Z" fill="black"/>
<path d="M1404.64 678.135C1400.18 675.552 1398.64 669.803 1401.22 665.304C1403.8 660.846 1409.55 659.305 1414.06 661.888C1418.51 664.471 1420.06 670.22 1417.47 674.677C1415.72 677.677 1412.56 679.343 1409.35 679.343C1407.76 679.343 1406.14 678.927 1404.68 678.094L1404.64 678.135Z" fill="black"/>
<path d="M1593.21 643.807C1589.25 640.516 1588.75 634.558 1592.08 630.601C1595.42 626.643 1601.33 626.143 1605.29 629.476C1609.25 632.809 1609.75 638.724 1606.42 642.682C1604.58 644.89 1601.92 646.015 1599.25 646.015C1597.12 646.015 1595 645.307 1593.21 643.807Z" fill="black"/>
<path d="M1362.26 642.557C1358.92 638.6 1359.46 632.684 1363.42 629.351C1367.38 626.018 1373.3 626.56 1376.63 630.518C1379.97 634.475 1379.42 640.391 1375.51 643.724C1373.72 645.182 1371.59 645.932 1369.47 645.932C1366.76 645.932 1364.13 644.807 1362.26 642.599V642.557Z" fill="black"/>
<path d="M1622.17 600.397C1617.29 598.606 1614.79 593.232 1616.54 588.357C1618.34 583.483 1623.71 580.983 1628.55 582.775C1633.42 584.566 1635.92 589.94 1634.13 594.815C1632.76 598.647 1629.17 600.98 1625.34 600.98C1624.25 600.98 1623.17 600.814 1622.13 600.397H1622.17Z" fill="black"/>
<path d="M1334.54 594.648C1332.79 589.773 1335.29 584.399 1340.17 582.608C1345.04 580.816 1350.42 583.358 1352.17 588.19C1353.96 593.065 1351.42 598.439 1346.59 600.23C1345.5 600.605 1344.42 600.813 1343.38 600.813C1339.54 600.813 1335.92 598.48 1334.54 594.648Z" fill="black"/>
<path d="M1625.05 497.912C1621.21 497.912 1617.63 495.538 1616.25 491.747C1614.46 486.872 1616.96 481.498 1621.84 479.707C1626.71 477.915 1632.09 480.415 1633.88 485.248C1635.63 490.122 1633.13 495.496 1628.3 497.287C1627.25 497.662 1626.17 497.871 1625.09 497.871L1625.05 497.912Z" fill="black"/>
<path d="M329.837 826V808.576H334.973C338.045 808.576 341.693 808.792 341.693 813.16C341.693 814.864 340.661 816.52 338.693 817.048V817.096C340.901 817.6 342.149 818.752 342.149 821.2C342.149 825.424 338.165 826 334.781 826H329.837ZM332.189 824.104H334.805C337.469 824.104 339.725 823.84 339.725 821.152C339.725 818.68 338.165 818.128 334.493 818.128H332.189V824.104ZM332.189 816.232H334.373C336.341 816.232 339.341 816.232 339.341 813.376C339.341 810.712 337.253 810.496 334.637 810.496H332.189V816.232ZM346.265 826V808.576H348.473V826H346.265ZM357.453 826.264C355.293 826.264 354.189 825.376 353.541 824.056C353.133 823.216 353.133 821.992 353.133 820.816V813.616H355.317V820.6C355.317 822.496 355.557 824.512 357.933 824.512C359.997 824.512 361.221 823.096 361.221 820.12V813.616H363.405V826H361.365V824.416C360.261 825.904 358.701 826.264 357.453 826.264ZM368.212 826V813.616H370.3V815.44C371.26 813.952 372.412 813.472 373.78 813.472C374.236 813.472 374.716 813.52 375.172 813.616V815.56C374.62 815.464 374.14 815.392 373.708 815.392C371.044 815.392 370.42 817.312 370.42 820.312V826H368.212ZM378.482 826V813.616H380.57V815.44C381.53 813.952 382.682 813.472 384.05 813.472C384.506 813.472 384.986 813.52 385.442 813.616V815.56C384.89 815.464 384.41 815.392 383.978 815.392C381.314 815.392 380.69 817.312 380.69 820.312V826H378.482ZM393.417 826.36C389.625 826.36 387.537 823.888 387.537 819.808C387.537 816.064 389.817 813.256 393.465 813.256C397.329 813.256 399.081 815.92 399.081 820.504H389.841C389.961 822.952 391.473 824.608 393.489 824.608C395.073 824.608 396.273 823.888 396.729 822.304H399.057C398.529 824.968 396.249 826.36 393.417 826.36ZM389.889 818.704H396.729C396.489 816.208 395.145 815.032 393.369 815.032C391.497 815.032 390.201 816.208 389.889 818.704ZM407.542 826.264C404.278 826.264 402.238 823.936 402.238 819.808C402.238 816.112 404.326 813.352 407.542 813.352C409.222 813.352 410.47 813.808 411.286 815.056V808.576H413.494V826H411.382V824.368C410.542 825.616 409.222 826.264 407.542 826.264ZM407.854 824.512C409.942 824.512 411.334 822.688 411.334 819.808C411.334 816.856 409.942 815.104 407.854 815.104C405.814 815.104 404.518 816.856 404.518 819.808C404.518 822.688 405.814 824.512 407.854 824.512ZM424.586 826V808.576H429.746C430.898 808.576 432.098 808.624 433.13 808.936C435.026 809.512 436.394 810.976 436.394 813.472C436.394 815.536 434.882 817.336 432.602 817.84V817.912C434.426 818.008 435.146 819.232 435.53 820.408L437.354 826H434.834L433.274 821.056C432.554 818.8 431.138 818.776 428.882 818.776H426.938V826H424.586ZM426.938 816.856H428.93C431.306 816.856 433.994 816.568 433.994 813.688C433.994 811.696 432.866 810.928 431.402 810.64C430.658 810.496 429.77 810.496 428.93 810.496H426.938V816.856ZM445.819 826.36C442.027 826.36 439.939 823.888 439.939 819.808C439.939 816.064 442.219 813.256 445.867 813.256C449.731 813.256 451.483 815.92 451.483 820.504H442.243C442.363 822.952 443.875 824.608 445.891 824.608C447.475 824.608 448.675 823.888 449.131 822.304H451.459C450.931 824.968 448.651 826.36 445.819 826.36ZM442.291 818.704H449.131C448.891 816.208 447.547 815.032 445.771 815.032C443.899 815.032 442.603 816.208 442.291 818.704ZM459.943 826.264C456.679 826.264 454.639 823.936 454.639 819.808C454.639 816.112 456.727 813.352 459.943 813.352C461.623 813.352 462.871 813.808 463.687 815.056V808.576H465.895V826H463.783V824.368C462.943 825.616 461.623 826.264 459.943 826.264ZM460.255 824.512C462.343 824.512 463.735 822.688 463.735 819.808C463.735 816.856 462.343 815.104 460.255 815.104C458.215 815.104 456.919 816.856 456.919 819.808C456.919 822.688 458.215 824.512 460.255 824.512ZM483.899 826.36C478.739 826.36 476.027 822.328 476.027 817.288C476.027 812.248 478.835 808.216 483.851 808.216C487.883 808.216 490.499 810.736 490.859 814.264H488.435C488.027 811.624 486.371 810.088 483.851 810.088C480.611 810.088 478.475 812.968 478.475 817.288C478.475 821.608 480.659 824.488 483.899 824.488C486.371 824.488 488.051 822.832 488.483 820.216H490.931C490.379 823.744 487.787 826.36 483.899 826.36ZM494.704 826V813.616H496.912V826H494.704ZM494.704 810.976V808.576H496.912V810.976H494.704ZM501.716 826V813.616H503.804V815.44C504.764 813.952 505.916 813.472 507.284 813.472C507.74 813.472 508.22 813.52 508.676 813.616V815.56C508.124 815.464 507.644 815.392 507.212 815.392C504.548 815.392 503.924 817.312 503.924 820.312V826H501.716ZM516.556 826.36C512.812 826.36 510.772 823.72 510.772 819.808C510.772 816.064 512.884 813.256 516.604 813.256C519.58 813.256 521.428 814.888 521.812 817.672H519.508C519.244 815.92 518.236 815.032 516.58 815.032C514.3 815.032 513.076 816.952 513.076 819.808C513.076 822.688 514.348 824.608 516.58 824.608C518.188 824.608 519.292 823.72 519.676 821.848H521.836C521.308 824.872 519.58 826.36 516.556 826.36ZM525.562 826V808.576H527.77V826H525.562ZM537.614 826.36C533.822 826.36 531.734 823.888 531.734 819.808C531.734 816.064 534.014 813.256 537.662 813.256C541.526 813.256 543.278 815.92 543.278 820.504H534.038C534.158 822.952 535.67 824.608 537.686 824.608C539.27 824.608 540.47 823.888 540.926 822.304H543.254C542.726 824.968 540.446 826.36 537.614 826.36ZM534.086 818.704H540.926C540.686 816.208 539.342 815.032 537.566 815.032C535.694 815.032 534.398 816.208 534.086 818.704Z" fill="black"/>
<path d="M892.09 826V808.576H897.226C900.298 808.576 903.946 808.792 903.946 813.16C903.946 814.864 902.914 816.52 900.946 817.048V817.096C903.154 817.6 904.402 818.752 904.402 821.2C904.402 825.424 900.418 826 897.034 826H892.09ZM894.442 824.104H897.058C899.722 824.104 901.978 823.84 901.978 821.152C901.978 818.68 900.418 818.128 896.746 818.128H894.442V824.104ZM894.442 816.232H896.626C898.594 816.232 901.594 816.232 901.594 813.376C901.594 810.712 899.506 810.496 896.89 810.496H894.442V816.232ZM908.517 826V808.576H910.725V826H908.517ZM918.962 826.264C916.226 826.264 914.666 824.704 914.666 822.52C914.666 818.464 919.85 818.608 922.922 818.248V817.816C922.922 815.968 922.082 814.912 920.186 814.912C918.458 814.912 917.306 815.776 917.306 817.432H915.122C915.122 814.888 917.21 813.256 920.186 813.256C924.866 813.256 925.082 816.376 925.082 818.872V822.256C925.082 823.696 925.154 824.872 925.394 826H923.33C923.258 825.64 923.186 825.16 923.162 824.32C922.106 825.712 920.738 826.264 918.962 826.264ZM919.466 824.656C921.242 824.656 922.922 823.936 922.922 820.648V819.952C921.05 820.192 916.898 820.048 916.898 822.568C916.898 823.768 917.882 824.656 919.466 824.656ZM934.635 826.36C930.891 826.36 928.851 823.72 928.851 819.808C928.851 816.064 930.963 813.256 934.683 813.256C937.659 813.256 939.507 814.888 939.891 817.672H937.587C937.323 815.92 936.315 815.032 934.659 815.032C932.379 815.032 931.155 816.952 931.155 819.808C931.155 822.688 932.427 824.608 934.659 824.608C936.267 824.608 937.371 823.72 937.755 821.848H939.915C939.387 824.872 937.659 826.36 934.635 826.36ZM943.641 826V808.576H945.849V818.704L950.865 813.616H953.481L948.009 819.04L954.033 826H951.249L945.849 819.52V826H943.641ZM969.647 826.36C964.487 826.36 961.775 822.328 961.775 817.288C961.775 812.248 964.583 808.216 969.599 808.216C973.631 808.216 976.247 810.736 976.607 814.264H974.183C973.775 811.624 972.119 810.088 969.599 810.088C966.359 810.088 964.223 812.968 964.223 817.288C964.223 821.608 966.407 824.488 969.647 824.488C972.119 824.488 973.799 822.832 974.231 820.216H976.679C976.127 823.744 973.535 826.36 969.647 826.36ZM980.452 826V813.616H982.66V826H980.452ZM980.452 810.976V808.576H982.66V810.976H980.452ZM987.464 826V813.616H989.552V815.44C990.512 813.952 991.664 813.472 993.032 813.472C993.488 813.472 993.968 813.52 994.424 813.616V815.56C993.872 815.464 993.392 815.392 992.96 815.392C990.296 815.392 989.672 817.312 989.672 820.312V826H987.464ZM1002.3 826.36C998.559 826.36 996.519 823.72 996.519 819.808C996.519 816.064 998.631 813.256 1002.35 813.256C1005.33 813.256 1007.18 814.888 1007.56 817.672H1005.26C1004.99 815.92 1003.98 815.032 1002.33 815.032C1000.05 815.032 998.823 816.952 998.823 819.808C998.823 822.688 1000.1 824.608 1002.33 824.608C1003.94 824.608 1005.04 823.72 1005.42 821.848H1007.58C1007.06 824.872 1005.33 826.36 1002.3 826.36ZM1011.31 826V808.576H1013.52V826H1011.31ZM1023.36 826.36C1019.57 826.36 1017.48 823.888 1017.48 819.808C1017.48 816.064 1019.76 813.256 1023.41 813.256C1027.27 813.256 1029.03 815.92 1029.03 820.504H1019.79C1019.91 822.952 1021.42 824.608 1023.43 824.608C1025.02 824.608 1026.22 823.888 1026.67 822.304H1029C1028.47 824.968 1026.19 826.36 1023.36 826.36ZM1019.83 818.704H1026.67C1026.43 816.208 1025.09 815.032 1023.31 815.032C1021.44 815.032 1020.15 816.208 1019.83 818.704Z" fill="black"/>
<path d="M1432.36 814.096H1428.71V812.536C1431.44 812.392 1432.48 811.648 1432.69 809.608H1434.56V826H1432.36V814.096ZM1444.94 826.36C1441.44 826.36 1439.02 824.392 1439.02 821.632C1439.02 819.472 1440.1 818.104 1442.45 817.552V817.432C1440.53 817 1439.47 815.584 1439.47 813.712C1439.47 811.048 1441.66 809.248 1444.94 809.248C1448.18 809.248 1450.37 811.048 1450.37 813.712C1450.37 815.584 1449.34 817 1447.39 817.432V817.552C1449.74 818.104 1450.82 819.472 1450.82 821.632C1450.82 824.392 1448.4 826.36 1444.94 826.36ZM1444.94 824.584C1447.06 824.584 1448.47 823.264 1448.47 821.488C1448.47 819.64 1447.06 818.44 1444.94 818.44C1442.81 818.44 1441.39 819.64 1441.39 821.488C1441.39 823.264 1442.81 824.584 1444.94 824.584ZM1444.94 816.592C1446.86 816.592 1448.14 815.512 1448.14 813.808C1448.14 812.152 1446.91 811.024 1444.94 811.024C1442.95 811.024 1441.7 812.152 1441.7 813.808C1441.7 815.512 1443 816.592 1444.94 816.592ZM1461.29 826V808.576H1464.91L1469.18 819.808C1469.81 821.44 1470.1 822.328 1470.41 823.432H1470.53C1470.79 822.28 1471.15 821.152 1471.63 819.808L1475.74 808.576H1479.38V826H1477.18V816.04C1477.18 814.408 1477.25 812.776 1477.27 810.808H1477.15L1471.58 826H1469.04L1463.45 810.808H1463.33C1463.35 812.056 1463.45 814.6 1463.45 816.04V826H1461.29ZM1489.39 826.36C1485.72 826.36 1483.44 823.672 1483.44 819.808C1483.44 815.968 1485.74 813.256 1489.41 813.256C1493.11 813.256 1495.44 815.968 1495.44 819.808C1495.44 823.672 1493.13 826.36 1489.39 826.36ZM1489.39 824.608C1491.72 824.608 1493.16 822.688 1493.16 819.832C1493.16 816.976 1491.69 815.032 1489.41 815.032C1487.16 815.032 1485.72 816.928 1485.72 819.784C1485.72 822.664 1487.13 824.608 1489.39 824.608ZM1504.51 826.36C1500.84 826.36 1498.56 823.672 1498.56 819.808C1498.56 815.968 1500.86 813.256 1504.54 813.256C1508.23 813.256 1510.56 815.968 1510.56 819.808C1510.56 823.672 1508.26 826.36 1504.51 826.36ZM1504.51 824.608C1506.84 824.608 1508.28 822.688 1508.28 819.832C1508.28 816.976 1506.82 815.032 1504.54 815.032C1502.28 815.032 1500.84 816.928 1500.84 819.784C1500.84 822.664 1502.26 824.608 1504.51 824.608ZM1514.52 826V813.616H1516.56V815.2C1517.69 813.712 1519.25 813.352 1520.5 813.352C1522.63 813.352 1523.88 814.168 1524.43 815.56C1524.77 816.4 1524.87 817.408 1524.87 818.584V826H1522.66V819.016C1522.66 817.096 1522.39 815.104 1520.02 815.104C1517.95 815.104 1516.73 816.544 1516.73 819.52V826H1514.52ZM1533.97 826.36C1530.54 826.36 1528.59 824.776 1528.57 822.016H1530.8C1530.8 823.768 1531.98 824.656 1534.02 824.656C1535.7 824.656 1536.66 824.008 1536.66 822.808C1536.66 821.296 1535.14 820.984 1533.46 820.672C1531.3 820.264 1528.86 819.88 1528.86 816.856C1528.86 814.744 1530.78 813.256 1533.7 813.256C1536.82 813.256 1538.62 814.72 1538.65 817.408H1536.46C1536.44 815.776 1535.55 814.984 1533.66 814.984C1532.14 814.984 1531.16 815.656 1531.16 816.712C1531.16 818.104 1532.58 818.416 1534.21 818.728C1536.42 819.16 1539.01 819.592 1539.01 822.664C1539.01 824.896 1536.87 826.36 1533.97 826.36Z" fill="black"/>
<defs>
<filter id="filter0_f_349_1276" x="248.5" y="355.5" width="375" height="375" filterUnits="userSpaceOnUse" color-interpolation-filters="sRGB">
<feFlood flood-opacity="0" result="BackgroundImageFix"/>
<feBlend mode="normal" in="SourceGraphic" in2="BackgroundImageFix" result="shape"/>
<feGaussianBlur stdDeviation="18.75" result="effect1_foregroundBlur_349_1276"/>
</filter>
</defs>
</svg>
