<svg width="1920" height="540" viewBox="0 0 1920 540" fill="none" xmlns="http://www.w3.org/2000/svg">
<rect width="1920" height="540" fill="black"/>
<rect width="520" height="180" transform="translate(220 180)" fill="black"/>
<g filter="url(#filter0_f_467_1183)">
<path d="M285 295C312.614 295 335 272.614 335 245C335 217.386 312.614 195 285 195C257.386 195 235 217.386 235 245C235 272.614 257.386 295 285 295Z" fill="#FF2A00"/>
</g>
<path fill-rule="evenodd" clip-rule="evenodd" d="M335 295C335 322.614 312.614 345 285 345C257.386 345 235 322.614 235 295C235 292.437 235.193 289.918 235.565 287.459C235.587 287.542 235.613 287.626 235.643 287.709C236.096 288.971 237.29 289.74 238.553 289.74C238.896 289.74 239.253 289.671 239.61 289.548C241.202 288.958 242.039 287.187 241.449 285.582C240.873 283.99 239.102 283.153 237.496 283.743C236.879 283.97 236.378 284.371 236.027 284.869C240.71 262.112 260.857 245 285 245C309.192 245 329.371 262.181 334.001 285.007C333.649 284.47 333.127 284.037 332.477 283.798C330.885 283.208 329.114 284.031 328.523 285.636C327.947 287.242 328.771 289.012 330.377 289.602H330.363C330.706 289.739 331.063 289.795 331.42 289.795C332.683 289.795 333.863 289.026 334.315 287.763C334.36 287.642 334.397 287.52 334.425 287.397C334.804 289.876 335 292.415 335 295ZM245.155 299.138C243.851 300.236 243.673 302.184 244.771 303.488V303.502C245.388 304.229 246.253 304.6 247.145 304.6C247.845 304.6 248.545 304.352 249.135 303.872C250.425 302.774 250.604 300.826 249.506 299.522C248.408 298.219 246.459 298.041 245.155 299.138ZM320.838 303.9C319.534 302.816 319.368 300.854 320.466 299.55C321.564 298.247 323.513 298.082 324.817 299.179C326.121 300.277 326.286 302.226 325.188 303.53C324.584 304.257 323.706 304.627 322.827 304.627C322.127 304.627 321.428 304.394 320.838 303.9ZM257.604 310.98C256.753 312.462 257.261 314.355 258.729 315.206L258.743 315.193C259.224 315.467 259.759 315.604 260.28 315.604C261.337 315.604 262.38 315.055 262.957 314.068C263.808 312.599 263.3 310.705 261.831 309.855C260.349 309.004 258.455 309.512 257.604 310.98ZM307.002 314.109C306.151 312.641 306.659 310.747 308.141 309.896C309.623 309.045 311.504 309.553 312.368 311.021C313.219 312.503 312.712 314.383 311.243 315.234C310.763 315.522 310.228 315.645 309.706 315.645C308.636 315.645 307.606 315.083 307.016 314.109H307.002ZM273.361 317.882C273.059 319.542 274.185 321.161 275.859 321.449L275.845 321.436L275.883 321.441C276.061 321.466 276.228 321.49 276.394 321.49C277.863 321.49 279.167 320.434 279.428 318.939C279.73 317.278 278.618 315.659 276.93 315.371C275.255 315.083 273.649 316.208 273.361 317.882ZM293.03 315.385C291.341 315.673 290.216 317.278 290.518 318.952H290.532C290.792 320.447 292.082 321.505 293.564 321.505C293.743 321.505 293.908 321.49 294.1 321.463C295.774 321.175 296.9 319.569 296.598 317.895C296.31 316.221 294.704 315.083 293.03 315.385Z" fill="white"/>
<path d="M334.412 272.904C332.71 272.904 331.323 271.518 331.323 269.816C331.323 268.115 332.71 266.729 334.412 266.729C336.127 266.729 337.5 268.115 337.5 269.816C337.5 271.531 336.113 272.904 334.412 272.904Z" fill="white"/>
<path d="M232.5 269.761V269.637C232.5 267.936 233.886 266.564 235.588 266.564C237.29 266.564 238.676 267.95 238.676 269.651V269.761C238.676 271.462 237.29 272.848 235.588 272.848C233.873 272.848 232.5 271.462 232.5 269.761Z" fill="white"/>
<mask id="mask0_467_1183" style="mask-type:alpha" maskUnits="userSpaceOnUse" x="235" y="245" width="100" height="100">
<path d="M285 345C312.614 345 335 322.614 335 295C335 267.386 312.614 245 285 245C257.386 245 235 267.386 235 295C235 322.614 257.386 345 285 345Z" fill="black"/>
</mask>
<g mask="url(#mask0_467_1183)">
<g filter="url(#filter1_f_467_1183)">
<path d="M285 295C312.614 295 335 272.614 335 245C335 217.386 312.614 195 285 195C257.386 195 235 217.386 235 245C235 272.614 257.386 295 285 295Z" fill="#02D5FF"/>
</g>
</g>
<path d="M237.524 255.67C235.918 255.08 235.094 253.309 235.684 251.704C236.275 250.099 238.059 249.289 239.651 249.879C241.257 250.469 242.08 252.239 241.49 253.845C241.037 255.093 239.843 255.875 238.594 255.875C238.237 255.875 237.88 255.807 237.537 255.683L237.524 255.67Z" fill="url(#paint0_linear_467_1183)"/>
<path d="M331.324 255.848C330.061 255.848 328.881 255.066 328.428 253.817C327.838 252.212 328.661 250.442 330.267 249.852C331.873 249.262 333.643 250.085 334.234 251.677C334.81 253.282 333.987 255.052 332.394 255.642C332.051 255.766 331.694 255.834 331.338 255.834L331.324 255.848Z" fill="url(#paint1_linear_467_1183)"/>
<path d="M320.522 240.04C319.424 238.737 319.602 236.775 320.906 235.691C322.21 234.593 324.159 234.758 325.257 236.075C326.355 237.379 326.177 239.327 324.873 240.425C324.297 240.905 323.597 241.152 322.897 241.152C322.018 241.152 321.14 240.768 320.522 240.04ZM245.21 240.301C243.906 239.203 243.741 237.255 244.839 235.952C245.937 234.648 247.886 234.483 249.19 235.581C250.508 236.679 250.659 238.627 249.561 239.931C248.943 240.658 248.079 241.028 247.2 241.028C246.5 241.028 245.8 240.795 245.21 240.301ZM308.224 229.681C306.742 228.83 306.247 226.937 307.098 225.469C307.949 224 309.844 223.493 311.326 224.344C312.795 225.194 313.302 227.088 312.451 228.556C311.875 229.544 310.832 230.093 309.775 230.093C309.24 230.093 308.718 229.956 308.238 229.667L308.224 229.681ZM257.7 228.474C256.849 227.005 257.357 225.112 258.826 224.261C260.308 223.41 262.202 223.918 263.053 225.386C263.904 226.868 263.396 228.748 261.914 229.599C261.434 229.887 260.898 230.01 260.377 230.01C259.32 230.01 258.277 229.462 257.7 228.46V228.474ZM293.126 224.151C291.451 223.85 290.326 222.258 290.628 220.584C290.93 218.896 292.522 217.785 294.197 218.087C295.885 218.375 296.997 219.994 296.708 221.668C296.447 223.163 295.144 224.206 293.675 224.206C293.497 224.206 293.318 224.193 293.126 224.165V224.151ZM273.457 221.613C273.169 219.939 274.295 218.334 275.969 218.045C277.657 217.757 279.249 218.869 279.538 220.556C279.826 222.23 278.714 223.836 277.026 224.124C276.847 224.151 276.669 224.165 276.491 224.165C275.022 224.165 273.718 223.109 273.457 221.613Z" fill="#02D5FF"/>
<path d="M460.576 233.95V236.593C458.073 237.058 456.158 237.861 454.875 239.003C453.024 240.715 451.383 243.337 449.953 246.888L425.236 307.5H423.301L396.754 246.106C395.386 242.956 394.44 241.032 393.872 240.335C393.009 239.256 391.937 238.411 390.654 237.777C389.392 237.163 387.667 236.762 385.5 236.593V233.95H414.466V236.593C411.185 236.91 409.06 237.459 408.092 238.284C407.124 239.087 406.62 240.123 406.62 241.392C406.62 243.146 407.419 245.874 409.018 249.594L427.045 291.348L443.768 250.102C445.409 246.043 446.23 243.231 446.23 241.645C446.23 240.631 445.724 239.658 444.715 238.728C443.705 237.798 442.002 237.142 439.583 236.762C439.414 236.719 439.12 236.677 438.699 236.614V233.95H460.555H460.576Z" fill="white"/>
<path d="M494.441 302.258V304.478C494.441 304.478 491.959 306.402 487.983 306.825C486.279 307.015 483.503 306.698 481.946 305.028C480.873 303.865 480.389 301.772 480.368 298.876C475.404 302.724 472.291 304.965 471.029 305.556C469.135 306.444 467.095 306.888 464.97 306.888C461.626 306.888 458.87 305.747 456.703 303.442C454.537 301.138 453.464 298.115 453.464 294.373C453.464 292.005 453.99 289.954 455.042 288.221C456.493 285.811 458.996 283.548 462.572 281.434C466.148 279.32 472.08 276.741 480.389 273.697V271.794C480.389 266.953 479.632 263.633 478.096 261.815C476.561 260.018 474.331 259.109 471.428 259.109C469.219 259.109 467.452 259.701 466.148 260.906C464.802 262.111 464.15 263.485 464.15 265.05L464.255 268.137C464.255 269.764 463.834 271.012 463.014 271.9C462.194 272.788 461.1 273.232 459.775 273.232C458.449 273.232 457.419 272.766 456.577 271.857C455.757 270.927 455.336 269.68 455.336 268.094C455.336 265.05 456.893 262.259 459.985 259.722C463.077 257.185 467.431 255.896 473.027 255.896C477.318 255.896 480.831 256.615 483.587 258.073C485.669 259.173 487.184 260.885 488.172 263.211C488.804 264.733 489.119 267.841 489.119 272.555V289.045C489.119 293.675 489.203 298.855 489.371 299.891C489.54 300.927 489.876 301.603 490.234 301.984C491.181 302.977 493.242 302.702 494.483 302.322L494.441 302.258ZM480.347 295.409V276.889C475.025 279.003 471.596 280.504 470.061 281.392C467.284 282.957 465.286 284.563 464.108 286.276C462.909 287.967 462.32 289.827 462.32 291.836C462.32 294.373 463.077 296.487 464.592 298.178C466.106 299.848 467.852 300.694 469.808 300.694C472.48 300.694 475.993 298.918 480.368 295.388L480.347 295.409Z" fill="white"/>
<path d="M544.591 275.577C544.549 282.786 546.296 288.452 549.809 292.554C553.322 296.655 557.466 298.706 562.22 298.706C565.396 298.706 568.131 297.839 570.487 296.084C572.843 294.329 574.777 291.327 576.376 287.099L578.017 288.156C577.281 292.997 575.135 297.416 571.58 301.391C568.025 305.365 563.566 307.352 558.223 307.352C552.417 307.352 547.453 305.09 543.309 300.545C539.165 296 537.103 289.89 537.103 282.215C537.103 273.907 539.227 267.417 543.456 262.766C547.705 258.114 553.006 255.789 559.422 255.789C564.849 255.789 569.288 257.586 572.78 261.18C576.271 264.774 577.996 269.573 577.996 275.577H544.591ZM544.591 272.491H566.974C566.805 269.383 566.426 267.184 565.858 265.916C564.975 263.928 563.671 262.385 561.925 261.243C560.179 260.102 558.37 259.552 556.456 259.552C553.532 259.552 550.923 260.694 548.609 262.977C546.295 265.26 544.949 268.431 544.57 272.491H544.591Z" fill="white"/>
<path d="M680.691 287.419C679.387 293.824 676.842 298.75 673.034 302.196C669.227 305.642 665.041 307.376 660.413 307.376C654.923 307.376 650.148 305.071 646.067 300.42C641.986 295.769 639.945 289.533 639.945 281.647C639.945 273.761 642.217 267.8 646.719 263.022C651.241 258.244 656.669 255.855 663 255.855C667.754 255.855 671.646 257.123 674.717 259.639C677.788 262.176 679.303 264.797 679.303 267.525C679.303 268.878 678.861 269.956 677.999 270.78C677.136 271.605 675.937 272.028 674.38 272.028C672.298 272.028 670.742 271.351 669.69 270.019C669.08 269.279 668.701 267.863 668.512 265.77C668.322 263.677 667.607 262.091 666.366 260.992C665.146 259.935 663.421 259.406 661.254 259.406C657.741 259.406 654.902 260.717 652.756 263.339C649.917 266.806 648.486 271.394 648.486 277.081C648.486 282.767 649.895 287.989 652.735 292.429C655.575 296.869 659.403 299.089 664.22 299.089C667.67 299.089 670.762 297.905 673.518 295.537C675.453 293.909 677.326 290.949 679.156 286.679L680.691 287.419Z" fill="white"/>
<path d="M694.574 275.577C694.532 282.786 696.279 288.452 699.792 292.554C703.305 296.655 707.449 298.706 712.203 298.706C715.379 298.706 718.114 297.839 720.47 296.084C722.825 294.329 724.76 291.327 726.36 287.099L728 288.156C727.265 292.997 725.12 297.416 721.565 301.391C718.008 305.365 713.549 307.352 708.206 307.352C702.4 307.352 697.436 305.09 693.292 300.545C689.148 296 687.086 289.89 687.086 282.215C687.086 273.907 689.211 267.417 693.439 262.766C697.688 258.114 702.989 255.789 709.405 255.789C714.832 255.789 719.271 257.586 722.76 261.18C726.255 264.774 727.98 269.573 727.98 275.577H694.574ZM694.574 272.491H716.957C716.788 269.383 716.409 267.184 715.841 265.916C714.958 263.928 713.654 262.385 711.908 261.243C710.162 260.102 708.353 259.552 706.439 259.552C703.515 259.552 700.906 260.694 698.592 262.977C696.278 265.26 694.932 268.431 694.553 272.491H694.574Z" fill="white"/>
<path d="M497.199 235.452V239.406H503.636C505.066 239.406 509 239.596 509.884 240.272C510.767 240.949 511.188 241.414 511.461 242.682C511.713 243.951 511.777 247.059 511.777 252.598V290.398C511.777 294.711 511.356 297.48 510.514 298.601C509.168 300.335 505.592 302.47 500.102 302.47H497.22V305.853H535.168V302.47H531.992C527.385 302.47 524.966 301.561 523.452 300.715C522.316 300.081 521.58 298.538 521.243 297.65C520.78 296.487 520.548 294.034 520.548 290.398V233H517.919C517.919 233 508.011 234.881 497.22 235.452H497.199Z" fill="white"/>
<path d="M600.399 266.151C606.057 259.28 611.463 255.855 616.596 255.855C619.226 255.855 621.497 256.51 623.412 257.842C625.326 259.174 626.82 261.351 627.956 264.396C628.734 266.51 629.112 269.766 629.112 274.163V293.423C629.112 296.509 629.365 298.581 629.849 299.68C630.228 300.568 630.859 301.245 631.721 301.752C632.584 302.26 634.182 302.492 636.496 302.492V305.875H612.578V302.492H613.588C615.839 302.492 617.417 302.154 618.321 301.456C619.226 300.759 619.836 299.744 620.194 298.412C620.341 297.883 620.404 296.213 620.404 293.423V275.009C620.404 270.59 619.836 267.377 618.679 265.389C617.543 263.402 615.608 262.387 612.894 262.387C608.708 262.387 604.543 264.692 600.378 269.279V293.423C600.378 296.721 600.568 298.75 600.967 299.511C601.451 300.547 602.145 301.287 603.008 301.773C603.87 302.26 605.616 302.492 608.267 302.492V305.875H584.349V302.492H585.401C587.862 302.492 589.523 301.858 590.386 300.611C591.248 299.363 591.69 296.953 591.69 293.423V276.869C591.69 271.034 591.564 266.066 591.29 264.797C591.038 263.529 590.617 262.662 590.07 262.197C589.523 261.732 588.787 261.499 587.883 261.499C586.894 261.499 584.349 261.542 584.349 261.542V258.561C591.858 258.201 598.127 255.855 598.127 255.855H600.399V266.151Z" fill="white"/>
<rect width="360" height="275" transform="translate(1260 121)" fill="black"/>
<g filter="url(#filter2_f_467_1183)">
<path d="M1439 236C1466.61 236 1489 213.614 1489 186C1489 158.386 1466.61 136 1439 136C1411.39 136 1389 158.386 1389 186C1389 213.614 1411.39 236 1439 236Z" fill="#FF2A00"/>
</g>
<path fill-rule="evenodd" clip-rule="evenodd" d="M1489 236C1489 263.614 1466.61 286 1439 286C1411.39 286 1389 263.614 1389 236C1389 233.437 1389.19 230.918 1389.57 228.459C1389.59 228.542 1389.61 228.626 1389.64 228.709C1390.1 229.971 1391.29 230.74 1392.55 230.74C1392.9 230.74 1393.25 230.671 1393.61 230.548C1395.2 229.958 1396.04 228.187 1395.45 226.582C1394.87 224.99 1393.1 224.153 1391.5 224.743C1390.88 224.97 1390.38 225.371 1390.03 225.869C1394.71 203.112 1414.86 186 1439 186C1463.19 186 1483.37 203.181 1488 226.007C1487.65 225.47 1487.13 225.037 1486.48 224.798C1484.88 224.208 1483.11 225.031 1482.52 226.636C1481.95 228.242 1482.77 230.012 1484.38 230.602H1484.36C1484.71 230.739 1485.06 230.795 1485.42 230.795C1486.68 230.795 1487.86 230.026 1488.32 228.763C1488.36 228.642 1488.4 228.52 1488.43 228.397C1488.8 230.876 1489 233.415 1489 236ZM1399.15 240.138C1397.85 241.236 1397.67 243.184 1398.77 244.488V244.502C1399.39 245.229 1400.25 245.6 1401.15 245.6C1401.85 245.6 1402.54 245.352 1403.14 244.872C1404.43 243.774 1404.6 241.826 1403.51 240.522C1402.41 239.219 1400.46 239.041 1399.15 240.138ZM1474.84 244.9C1473.53 243.816 1473.37 241.854 1474.47 240.55C1475.56 239.247 1477.51 239.082 1478.82 240.179C1480.12 241.277 1480.29 243.226 1479.19 244.53C1478.58 245.257 1477.71 245.627 1476.83 245.627C1476.13 245.627 1475.43 245.394 1474.84 244.9ZM1411.6 251.98C1410.75 253.462 1411.26 255.355 1412.73 256.206L1412.74 256.193C1413.22 256.467 1413.76 256.604 1414.28 256.604C1415.34 256.604 1416.38 256.055 1416.96 255.068C1417.81 253.599 1417.3 251.705 1415.83 250.855C1414.35 250.004 1412.46 250.512 1411.6 251.98ZM1461 255.109C1460.15 253.641 1460.66 251.747 1462.14 250.896C1463.62 250.045 1465.5 250.553 1466.37 252.021C1467.22 253.503 1466.71 255.383 1465.24 256.234C1464.76 256.522 1464.23 256.645 1463.71 256.645C1462.64 256.645 1461.61 256.083 1461.02 255.109H1461ZM1427.36 258.882C1427.06 260.542 1428.18 262.161 1429.86 262.449L1429.85 262.436L1429.88 262.441C1430.06 262.466 1430.23 262.49 1430.39 262.49C1431.86 262.49 1433.17 261.434 1433.43 259.939C1433.73 258.278 1432.62 256.659 1430.93 256.371C1429.26 256.083 1427.65 257.208 1427.36 258.882ZM1447.03 256.385C1445.34 256.673 1444.22 258.278 1444.52 259.952H1444.53C1444.79 261.447 1446.08 262.505 1447.56 262.505C1447.74 262.505 1447.91 262.49 1448.1 262.463C1449.77 262.175 1450.9 260.569 1450.6 258.895C1450.31 257.221 1448.7 256.083 1447.03 256.385Z" fill="white"/>
<path d="M1488.41 213.904C1486.71 213.904 1485.32 212.518 1485.32 210.816C1485.32 209.115 1486.71 207.729 1488.41 207.729C1490.13 207.729 1491.5 209.115 1491.5 210.816C1491.5 212.531 1490.11 213.904 1488.41 213.904Z" fill="white"/>
<path d="M1386.5 210.761V210.637C1386.5 208.936 1387.89 207.564 1389.59 207.564C1391.29 207.564 1392.68 208.95 1392.68 210.651V210.761C1392.68 212.462 1391.29 213.848 1389.59 213.848C1387.87 213.848 1386.5 212.462 1386.5 210.761Z" fill="white"/>
<mask id="mask1_467_1183" style="mask-type:alpha" maskUnits="userSpaceOnUse" x="1389" y="186" width="100" height="100">
<path d="M1439 286C1466.61 286 1489 263.614 1489 236C1489 208.386 1466.61 186 1439 186C1411.39 186 1389 208.386 1389 236C1389 263.614 1411.39 286 1439 286Z" fill="black"/>
</mask>
<g mask="url(#mask1_467_1183)">
<g filter="url(#filter3_f_467_1183)">
<path d="M1439 236C1466.61 236 1489 213.614 1489 186C1489 158.386 1466.61 136 1439 136C1411.39 136 1389 158.386 1389 186C1389 213.614 1411.39 236 1439 236Z" fill="#02D5FF"/>
</g>
</g>
<path d="M1391.52 196.67C1389.92 196.08 1389.09 194.309 1389.68 192.704C1390.27 191.099 1392.06 190.289 1393.65 190.879C1395.26 191.469 1396.08 193.239 1395.49 194.845C1395.04 196.093 1393.84 196.875 1392.59 196.875C1392.24 196.875 1391.88 196.807 1391.54 196.683L1391.52 196.67Z" fill="url(#paint2_linear_467_1183)"/>
<path d="M1485.32 196.848C1484.06 196.848 1482.88 196.066 1482.43 194.817C1481.84 193.212 1482.66 191.442 1484.27 190.852C1485.87 190.262 1487.64 191.085 1488.23 192.677C1488.81 194.282 1487.99 196.052 1486.39 196.642C1486.05 196.766 1485.69 196.834 1485.34 196.834L1485.32 196.848Z" fill="url(#paint3_linear_467_1183)"/>
<path d="M1474.52 181.04C1473.42 179.737 1473.6 177.775 1474.91 176.691C1476.21 175.593 1478.16 175.758 1479.26 177.075C1480.36 178.379 1480.18 180.327 1478.87 181.425C1478.3 181.905 1477.6 182.152 1476.9 182.152C1476.02 182.152 1475.14 181.768 1474.52 181.04ZM1399.21 181.301C1397.91 180.203 1397.74 178.255 1398.84 176.952C1399.94 175.648 1401.89 175.483 1403.19 176.581C1404.51 177.679 1404.66 179.627 1403.56 180.931C1402.94 181.658 1402.08 182.028 1401.2 182.028C1400.5 182.028 1399.8 181.795 1399.21 181.301ZM1462.22 170.681C1460.74 169.83 1460.25 167.937 1461.1 166.469C1461.95 165 1463.84 164.493 1465.33 165.344C1466.79 166.194 1467.3 168.088 1466.45 169.556C1465.87 170.544 1464.83 171.093 1463.77 171.093C1463.24 171.093 1462.72 170.956 1462.24 170.667L1462.22 170.681ZM1411.7 169.474C1410.85 168.005 1411.36 166.112 1412.83 165.261C1414.31 164.41 1416.2 164.918 1417.05 166.386C1417.9 167.868 1417.4 169.748 1415.91 170.599C1415.43 170.887 1414.9 171.01 1414.38 171.01C1413.32 171.01 1412.28 170.462 1411.7 169.46V169.474ZM1447.13 165.151C1445.45 164.85 1444.33 163.258 1444.63 161.584C1444.93 159.896 1446.52 158.785 1448.2 159.087C1449.88 159.375 1451 160.994 1450.71 162.668C1450.45 164.163 1449.14 165.206 1447.67 165.206C1447.5 165.206 1447.32 165.193 1447.13 165.165V165.151ZM1427.46 162.613C1427.17 160.939 1428.29 159.334 1429.97 159.045C1431.66 158.757 1433.25 159.869 1433.54 161.556C1433.83 163.23 1432.71 164.836 1431.03 165.124C1430.85 165.151 1430.67 165.165 1430.49 165.165C1429.02 165.165 1427.72 164.109 1427.46 162.613Z" fill="#02D5FF"/>
<path d="M1342.58 313.45V316.093C1340.07 316.558 1338.16 317.361 1336.88 318.503C1335.02 320.215 1333.38 322.837 1331.95 326.388L1307.24 387H1305.3L1278.75 325.606C1277.39 322.456 1276.44 320.532 1275.87 319.835C1275.01 318.756 1273.94 317.911 1272.65 317.277C1271.39 316.663 1269.67 316.262 1267.5 316.093V313.45H1296.47V316.093C1293.18 316.41 1291.06 316.959 1290.09 317.784C1289.12 318.587 1288.62 319.623 1288.62 320.892C1288.62 322.646 1289.42 325.374 1291.02 329.094L1309.05 370.848L1325.77 329.602C1327.41 325.543 1328.23 322.731 1328.23 321.145C1328.23 320.131 1327.72 319.158 1326.71 318.228C1325.71 317.298 1324 316.642 1321.58 316.262C1321.41 316.219 1321.12 316.177 1320.7 316.114V313.45H1342.55H1342.58Z" fill="white"/>
<path d="M1376.44 381.759V383.978C1376.44 383.978 1373.96 385.903 1369.98 386.325C1368.28 386.516 1365.5 386.199 1363.95 384.528C1362.87 383.366 1362.39 381.273 1362.37 378.376C1357.4 382.224 1354.29 384.465 1353.03 385.056C1351.14 385.944 1349.09 386.388 1346.97 386.388C1343.63 386.388 1340.87 385.247 1338.7 382.943C1336.54 380.638 1335.46 377.615 1335.46 373.873C1335.46 371.505 1335.99 369.454 1337.04 367.721C1338.49 365.311 1341 363.048 1344.57 360.934C1348.15 358.82 1354.08 356.241 1362.39 353.197V351.294C1362.39 346.453 1361.63 343.134 1360.1 341.316C1358.56 339.519 1356.33 338.609 1353.43 338.609C1351.22 338.609 1349.45 339.201 1348.15 340.406C1346.8 341.611 1346.15 342.986 1346.15 344.55L1346.26 347.637C1346.26 349.264 1345.83 350.512 1345.01 351.4C1344.19 352.288 1343.1 352.732 1341.77 352.732C1340.45 352.732 1339.42 352.266 1338.58 351.357C1337.76 350.427 1337.34 349.18 1337.34 347.594C1337.34 344.55 1338.89 341.76 1341.98 339.223C1345.08 336.686 1349.43 335.396 1355.03 335.396C1359.32 335.396 1362.83 336.115 1365.59 337.574C1367.67 338.673 1369.18 340.385 1370.17 342.711C1370.8 344.233 1371.12 347.341 1371.12 352.055V368.546C1371.12 373.176 1371.2 378.355 1371.37 379.391C1371.54 380.427 1371.88 381.104 1372.23 381.484C1373.18 382.478 1375.24 382.202 1376.48 381.822L1376.44 381.759ZM1362.35 374.909V356.389C1357.03 358.504 1353.6 360.005 1352.06 360.893C1349.28 362.457 1347.29 364.064 1346.11 365.776C1344.91 367.467 1344.32 369.327 1344.32 371.336C1344.32 373.873 1345.08 375.987 1346.59 377.678C1348.11 379.348 1349.85 380.194 1351.81 380.194C1354.48 380.194 1357.99 378.419 1362.37 374.888L1362.35 374.909Z" fill="white"/>
<path d="M1426.59 355.077C1426.55 362.286 1428.3 367.952 1431.81 372.054C1435.32 376.155 1439.47 378.206 1444.22 378.206C1447.4 378.206 1450.13 377.339 1452.49 375.584C1454.84 373.829 1456.78 370.827 1458.38 366.599L1460.02 367.656C1459.28 372.497 1457.14 376.916 1453.58 380.891C1450.03 384.865 1445.57 386.852 1440.22 386.852C1434.42 386.852 1429.45 384.59 1425.31 380.045C1421.16 375.5 1419.1 369.39 1419.1 361.715C1419.1 353.407 1421.23 346.917 1425.46 342.266C1429.71 337.614 1435.01 335.289 1441.42 335.289C1446.85 335.289 1451.29 337.086 1454.78 340.68C1458.27 344.274 1460 349.073 1460 355.077H1426.59ZM1426.59 351.991H1448.97C1448.81 348.883 1448.43 346.684 1447.86 345.416C1446.98 343.428 1445.67 341.885 1443.93 340.743C1442.18 339.602 1440.37 339.052 1438.46 339.052C1435.53 339.052 1432.92 340.194 1430.61 342.477C1428.3 344.76 1426.95 347.931 1426.57 351.991H1426.59Z" fill="white"/>
<path d="M1562.69 366.919C1561.39 373.324 1558.84 378.25 1555.03 381.696C1551.23 385.142 1547.04 386.876 1542.41 386.876C1536.92 386.876 1532.15 384.571 1528.07 379.92C1523.99 375.269 1521.95 369.033 1521.95 361.147C1521.95 353.261 1524.22 347.3 1528.72 342.522C1533.24 337.744 1538.67 335.355 1545 335.355C1549.75 335.355 1553.65 336.623 1556.72 339.139C1559.79 341.676 1561.3 344.297 1561.3 347.025C1561.3 348.378 1560.86 349.456 1560 350.28C1559.14 351.105 1557.94 351.528 1556.38 351.528C1554.3 351.528 1552.74 350.851 1551.69 349.519C1551.08 348.779 1550.7 347.363 1550.51 345.27C1550.32 343.177 1549.61 341.591 1548.37 340.492C1547.15 339.435 1545.42 338.906 1543.25 338.906C1539.74 338.906 1536.9 340.217 1534.76 342.839C1531.92 346.306 1530.49 350.894 1530.49 356.581C1530.49 362.267 1531.9 367.489 1534.73 371.929C1537.57 376.369 1541.4 378.589 1546.22 378.589C1549.67 378.589 1552.76 377.405 1555.52 375.037C1557.45 373.409 1559.33 370.449 1561.16 366.179L1562.69 366.919Z" fill="white"/>
<path d="M1576.57 355.077C1576.53 362.286 1578.28 367.952 1581.79 372.054C1585.3 376.155 1589.45 378.206 1594.2 378.206C1597.38 378.206 1600.11 377.339 1602.47 375.584C1604.83 373.829 1606.76 370.827 1608.36 366.599L1610 367.656C1609.26 372.497 1607.12 376.916 1603.56 380.891C1600.01 384.865 1595.55 386.852 1590.21 386.852C1584.4 386.852 1579.44 384.59 1575.29 380.045C1571.15 375.5 1569.09 369.39 1569.09 361.715C1569.09 353.407 1571.21 346.917 1575.44 342.266C1579.69 337.614 1584.99 335.289 1591.4 335.289C1596.83 335.289 1601.27 337.086 1604.76 340.68C1608.25 344.274 1609.98 349.073 1609.98 355.077H1576.57ZM1576.57 351.991H1598.96C1598.79 348.883 1598.41 346.684 1597.84 345.416C1596.96 343.428 1595.65 341.885 1593.91 340.743C1592.16 339.602 1590.35 339.052 1588.44 339.052C1585.51 339.052 1582.91 340.194 1580.59 342.477C1578.28 344.76 1576.93 347.931 1576.55 351.991H1576.57Z" fill="white"/>
<path d="M1379.2 314.952V318.906H1385.64C1387.07 318.906 1391 319.096 1391.88 319.773C1392.77 320.449 1393.19 320.914 1393.46 322.182C1393.71 323.451 1393.78 326.559 1393.78 332.098V369.898C1393.78 374.211 1393.36 376.981 1392.51 378.101C1391.17 379.835 1387.59 381.97 1382.1 381.97H1379.22V385.353H1417.17V381.97H1413.99C1409.38 381.97 1406.97 381.061 1405.45 380.216C1404.32 379.581 1403.58 378.038 1403.24 377.15C1402.78 375.987 1402.55 373.534 1402.55 369.898V312.5H1399.92C1399.92 312.5 1390.01 314.381 1379.22 314.952H1379.2Z" fill="white"/>
<path d="M1482.4 345.651C1488.06 338.78 1493.46 335.355 1498.6 335.355C1501.23 335.355 1503.5 336.01 1505.41 337.342C1507.33 338.674 1508.82 340.851 1509.96 343.896C1510.73 346.01 1511.11 349.266 1511.11 353.663V372.923C1511.11 376.009 1511.36 378.081 1511.85 379.18C1512.23 380.068 1512.86 380.745 1513.72 381.252C1514.58 381.76 1516.18 381.992 1518.5 381.992V385.375H1494.58V381.992H1495.59C1497.84 381.992 1499.42 381.654 1500.32 380.956C1501.23 380.259 1501.84 379.244 1502.19 377.912C1502.34 377.383 1502.4 375.713 1502.4 372.923V354.509C1502.4 350.09 1501.84 346.877 1500.68 344.889C1499.54 342.902 1497.61 341.887 1494.89 341.887C1490.71 341.887 1486.54 344.192 1482.38 348.779V372.923C1482.38 376.221 1482.57 378.25 1482.97 379.011C1483.45 380.047 1484.15 380.787 1485.01 381.273C1485.87 381.76 1487.62 381.992 1490.27 381.992V385.375H1466.35V381.992H1467.4C1469.86 381.992 1471.52 381.358 1472.39 380.111C1473.25 378.863 1473.69 376.453 1473.69 372.923V356.369C1473.69 350.534 1473.56 345.566 1473.29 344.297C1473.04 343.029 1472.62 342.162 1472.07 341.697C1471.52 341.232 1470.79 340.999 1469.88 340.999C1468.89 340.999 1466.35 341.042 1466.35 341.042V338.061C1473.86 337.701 1480.13 335.355 1480.13 335.355H1482.4V345.651Z" fill="white"/>
<line x1="961" y1="-4.37114e-08" x2="961" y2="540" stroke="white" stroke-width="2"/>
<defs>
<filter id="filter0_f_467_1183" x="222.5" y="182.5" width="125" height="125" filterUnits="userSpaceOnUse" color-interpolation-filters="sRGB">
<feFlood flood-opacity="0" result="BackgroundImageFix"/>
<feBlend mode="normal" in="SourceGraphic" in2="BackgroundImageFix" result="shape"/>
<feGaussianBlur stdDeviation="6.25" result="effect1_foregroundBlur_467_1183"/>
</filter>
<filter id="filter1_f_467_1183" x="222.5" y="182.5" width="125" height="125" filterUnits="userSpaceOnUse" color-interpolation-filters="sRGB">
<feFlood flood-opacity="0" result="BackgroundImageFix"/>
<feBlend mode="normal" in="SourceGraphic" in2="BackgroundImageFix" result="shape"/>
<feGaussianBlur stdDeviation="6.25" result="effect1_foregroundBlur_467_1183"/>
</filter>
<filter id="filter2_f_467_1183" x="1376.5" y="123.5" width="125" height="125" filterUnits="userSpaceOnUse" color-interpolation-filters="sRGB">
<feFlood flood-opacity="0" result="BackgroundImageFix"/>
<feBlend mode="normal" in="SourceGraphic" in2="BackgroundImageFix" result="shape"/>
<feGaussianBlur stdDeviation="6.25" result="effect1_foregroundBlur_467_1183"/>
</filter>
<filter id="filter3_f_467_1183" x="1376.5" y="123.5" width="125" height="125" filterUnits="userSpaceOnUse" color-interpolation-filters="sRGB">
<feFlood flood-opacity="0" result="BackgroundImageFix"/>
<feBlend mode="normal" in="SourceGraphic" in2="BackgroundImageFix" result="shape"/>
<feGaussianBlur stdDeviation="6.25" result="effect1_foregroundBlur_467_1183"/>
</filter>
<linearGradient id="paint0_linear_467_1183" x1="235.629" y1="253.213" x2="241.449" y2="252.321" gradientUnits="userSpaceOnUse">
<stop stop-color="#017994"/>
<stop offset="1" stop-color="#02BDE7"/>
</linearGradient>
<linearGradient id="paint1_linear_467_1183" x1="334.289" y1="253.213" x2="328.469" y2="252.321" gradientUnits="userSpaceOnUse">
<stop stop-color="#017994"/>
<stop offset="1" stop-color="#02BDE7"/>
</linearGradient>
<linearGradient id="paint2_linear_467_1183" x1="1389.63" y1="194.213" x2="1395.45" y2="193.321" gradientUnits="userSpaceOnUse">
<stop stop-color="#017994"/>
<stop offset="1" stop-color="#02BDE7"/>
</linearGradient>
<linearGradient id="paint3_linear_467_1183" x1="1488.29" y1="194.213" x2="1482.47" y2="193.321" gradientUnits="userSpaceOnUse">
<stop stop-color="#017994"/>
<stop offset="1" stop-color="#02BDE7"/>
</linearGradient>
</defs>
</svg>
