<svg width="1920" height="1080" viewBox="0 0 1920 1080" fill="none" xmlns="http://www.w3.org/2000/svg">
<rect width="1920" height="1080" fill="#F5F5F5"/>
<path d="M366.306 331.567C374.16 330.763 379.201 329.001 381.428 326.279C383.654 323.496 384.768 317.095 384.768 307.075V229.888C384.768 223.022 383.685 218.569 381.521 216.528C379.356 214.425 374.439 213.188 366.77 212.817V209.292H404.343L448.317 305.127L490.344 209.292H528.195V212.817C521.145 213.312 516.599 214.611 514.558 216.714C512.517 218.755 511.496 223.146 511.496 229.888V314.404C511.496 321.331 512.517 325.785 514.558 327.764C516.599 329.681 521.145 330.949 528.195 331.567V335H474.943V331.567C482.613 330.949 487.375 329.588 489.23 327.485C491.148 325.321 492.106 320.218 492.106 312.178V226.826L443.493 335H440.896L393.117 231.279V307.075C393.117 317.466 394.632 324.238 397.663 327.393C399.642 329.434 404.064 330.825 410.93 331.567V335H366.306V331.567ZM560.714 249.092V308.467C560.714 312.673 561.302 316.043 562.477 318.579C564.765 323.28 568.971 325.63 575.094 325.63C579.3 325.63 583.413 324.238 587.433 321.455C589.721 319.909 592.041 317.775 594.391 315.054V264.214C594.391 259.451 593.463 256.328 591.608 254.844C589.752 253.359 586.041 252.463 580.475 252.153V249.092H610.441V314.404C610.441 318.61 611.183 321.517 612.667 323.125C614.214 324.671 617.43 325.352 622.316 325.166V327.764C618.914 328.691 616.409 329.403 614.801 329.897C613.193 330.33 610.503 331.165 606.73 332.402C605.122 332.959 601.596 334.289 596.154 336.392C595.844 336.392 595.659 336.237 595.597 335.928C595.535 335.68 595.504 335.371 595.504 335V320.063C591.299 325.073 587.464 328.784 584 331.196C578.743 334.907 573.177 336.763 567.301 336.763C561.92 336.763 556.849 334.845 552.086 331.011C547.262 327.238 544.85 320.898 544.85 311.992V263.843C544.85 258.895 543.799 255.586 541.696 253.916C540.335 252.865 537.428 252.122 532.975 251.689V249.092H560.714ZM628.302 332.402C634.054 331.846 637.95 330.701 639.991 328.97C642.032 327.176 643.053 323.713 643.053 318.579V227.939C643.053 223.857 642.712 221.043 642.032 219.497C640.795 216.899 638.29 215.601 634.517 215.601C633.652 215.601 632.693 215.693 631.641 215.879C630.652 216.064 629.384 216.343 627.838 216.714V213.652C636.187 211.426 646.238 208.457 657.989 204.746C658.422 204.746 658.669 204.932 658.731 205.303C658.855 205.674 658.917 206.478 658.917 207.715V318.95C658.917 324.331 659.845 327.826 661.7 329.434C663.555 330.98 667.39 331.969 673.204 332.402V335H628.302V332.402ZM723.721 249.463V256.143H704.795L704.61 309.58C704.61 314.281 705.012 317.837 705.816 320.249C707.3 324.517 710.207 326.65 714.536 326.65C716.763 326.65 718.68 326.125 720.288 325.073C721.958 324.022 723.845 322.352 725.947 320.063L728.36 322.104L726.319 324.888C723.102 329.217 719.701 332.279 716.113 334.072C712.526 335.866 709.063 336.763 705.723 336.763C698.425 336.763 693.477 333.516 690.879 327.021C689.457 323.496 688.745 318.61 688.745 312.363V256.143H678.633C678.324 255.957 678.076 255.771 677.891 255.586C677.767 255.4 677.705 255.153 677.705 254.844C677.705 254.225 677.829 253.761 678.076 253.452C678.386 253.081 679.282 252.277 680.767 251.04C685.034 247.515 688.096 244.67 689.951 242.505C691.869 240.278 696.322 234.465 703.311 225.063C704.115 225.063 704.579 225.125 704.702 225.249C704.888 225.373 704.981 225.837 704.981 226.641V249.463H723.721ZM741.953 215.229C741.953 212.57 742.88 210.282 744.736 208.364C746.591 206.447 748.88 205.488 751.601 205.488C754.261 205.488 756.518 206.447 758.374 208.364C760.291 210.22 761.25 212.508 761.25 215.229C761.25 217.889 760.291 220.177 758.374 222.095C756.518 223.95 754.261 224.878 751.601 224.878C748.88 224.878 746.591 223.95 744.736 222.095C742.88 220.177 741.953 217.889 741.953 215.229ZM730.078 332.402C736.696 331.784 740.87 330.671 742.602 329.062C744.334 327.393 745.2 322.939 745.2 315.703V271.45C745.2 267.43 744.922 264.647 744.365 263.101C743.437 260.565 741.489 259.297 738.52 259.297C737.84 259.297 737.159 259.359 736.479 259.482C735.861 259.606 734.005 260.101 730.913 260.967V258.091L734.902 256.792C745.726 253.267 753.271 250.607 757.539 248.813C759.27 248.071 760.384 247.7 760.879 247.7C761.002 248.133 761.064 248.597 761.064 249.092V315.703C761.064 322.754 761.899 327.176 763.569 328.97C765.301 330.763 769.166 331.908 775.166 332.402V335H730.078V332.402ZM781.244 332.402C786.996 331.846 790.893 330.701 792.934 328.97C794.975 327.176 795.995 323.713 795.995 318.579V227.939C795.995 223.857 795.655 221.043 794.975 219.497C793.738 216.899 791.233 215.601 787.46 215.601C786.594 215.601 785.635 215.693 784.584 215.879C783.594 216.064 782.326 216.343 780.78 216.714V213.652C789.13 211.426 799.18 208.457 810.932 204.746C811.365 204.746 811.612 204.932 811.674 205.303C811.798 205.674 811.859 206.478 811.859 207.715V318.95C811.859 324.331 812.787 327.826 814.643 329.434C816.498 330.98 820.333 331.969 826.146 332.402V335H781.244V332.402ZM882.786 283.604C875.674 285.954 869.798 288.551 865.16 291.396C856.253 296.901 851.8 303.148 851.8 310.137C851.8 315.765 853.656 319.909 857.367 322.568C859.779 324.3 862.469 325.166 865.438 325.166C869.52 325.166 873.416 324.022 877.127 321.733C880.9 319.445 882.786 316.538 882.786 313.013V283.604ZM835.286 316.538C835.286 307.57 839.771 300.086 848.739 294.087C854.429 290.376 865.778 285.335 882.786 278.965V271.079C882.786 264.771 882.168 260.379 880.931 257.905C878.828 253.761 874.468 251.689 867.85 251.689C864.696 251.689 861.696 252.493 858.851 254.102C856.006 255.771 854.583 258.06 854.583 260.967C854.583 261.709 854.738 262.977 855.047 264.771C855.356 266.502 855.511 267.616 855.511 268.11C855.511 271.574 854.367 273.986 852.078 275.347C850.78 276.151 849.233 276.553 847.44 276.553C844.657 276.553 842.523 275.656 841.038 273.862C839.554 272.007 838.812 269.966 838.812 267.739C838.812 263.41 841.471 258.895 846.79 254.194C852.171 249.432 860.026 247.051 870.355 247.051C882.354 247.051 890.487 250.947 894.754 258.74C897.043 263.008 898.187 269.224 898.187 277.388V314.59C898.187 318.177 898.434 320.651 898.929 322.012C899.733 324.424 901.403 325.63 903.939 325.63C905.361 325.63 906.536 325.413 907.464 324.98C908.392 324.548 910 323.496 912.288 321.826V326.65C910.309 329.062 908.175 331.042 905.887 332.588C902.424 334.938 898.898 336.113 895.311 336.113C891.105 336.113 888.044 334.753 886.126 332.031C884.271 329.31 883.25 326.063 883.065 322.29C878.364 326.372 874.344 329.403 871.004 331.382C865.376 334.722 860.026 336.392 854.954 336.392C849.635 336.392 845.028 334.536 841.131 330.825C837.235 327.052 835.286 322.29 835.286 316.538ZM959.187 249.463V256.143H940.262L940.076 309.58C940.076 314.281 940.478 317.837 941.282 320.249C942.766 324.517 945.673 326.65 950.003 326.65C952.229 326.65 954.147 326.125 955.755 325.073C957.425 324.022 959.311 322.352 961.414 320.063L963.826 322.104L961.785 324.888C958.569 329.217 955.167 332.279 951.58 334.072C947.993 335.866 944.529 336.763 941.189 336.763C933.891 336.763 928.943 333.516 926.346 327.021C924.923 323.496 924.212 318.61 924.212 312.363V256.143H914.099C913.79 255.957 913.543 255.771 913.357 255.586C913.234 255.4 913.172 255.153 913.172 254.844C913.172 254.225 913.295 253.761 913.543 253.452C913.852 253.081 914.749 252.277 916.233 251.04C920.501 247.515 923.562 244.67 925.418 242.505C927.335 240.278 931.788 234.465 938.777 225.063C939.581 225.063 940.045 225.125 940.169 225.249C940.354 225.373 940.447 225.837 940.447 226.641V249.463H959.187ZM1005.34 247.979C1014.06 247.979 1021.7 251.009 1028.26 257.07C1034.81 263.07 1038.09 271.605 1038.09 282.676H979.182C979.8 297.025 983.047 307.477 988.923 314.033C994.799 320.589 1001.76 323.867 1009.8 323.867C1016.29 323.867 1021.76 322.166 1026.22 318.765C1030.67 315.363 1034.78 310.539 1038.56 304.292L1041.8 305.405C1039.27 313.26 1034.51 320.527 1027.52 327.207C1020.59 333.887 1012.09 337.227 1002 337.227C990.376 337.227 981.377 332.835 975.007 324.053C968.698 315.27 965.544 305.158 965.544 293.716C965.544 281.284 969.224 270.553 976.584 261.523C983.944 252.493 993.531 247.979 1005.34 247.979ZM999.963 254.751C992.912 254.751 987.531 257.874 983.82 264.121C981.841 267.461 980.419 271.667 979.553 276.738H1018.7C1018.02 270.553 1016.85 265.946 1015.18 262.915C1012.15 257.472 1007.08 254.751 999.963 254.751ZM1045.19 331.938C1050.88 331.444 1054.65 330.454 1056.51 328.97C1058.37 327.424 1059.29 324.176 1059.29 319.229V277.388C1059.29 271.265 1058.71 266.904 1057.53 264.307C1056.42 261.647 1054.35 260.317 1051.32 260.317C1050.7 260.317 1049.86 260.41 1048.81 260.596C1047.82 260.719 1046.77 260.905 1045.66 261.152V258.091C1049.18 256.854 1052.8 255.586 1056.51 254.287C1060.22 252.988 1062.79 252.061 1064.21 251.504C1067.3 250.329 1070.49 248.999 1073.77 247.515C1074.2 247.515 1074.45 247.669 1074.51 247.979C1074.63 248.288 1074.69 248.937 1074.69 249.927V265.142C1078.65 259.637 1082.46 255.339 1086.11 252.246C1089.82 249.154 1093.65 247.607 1097.61 247.607C1100.76 247.607 1103.33 248.566 1105.31 250.483C1107.29 252.339 1108.28 254.689 1108.28 257.534C1108.28 260.07 1107.5 262.204 1105.96 263.936C1104.47 265.667 1102.59 266.533 1100.3 266.533C1097.95 266.533 1095.57 265.451 1093.16 263.286C1090.81 261.121 1088.95 260.039 1087.59 260.039C1085.42 260.039 1082.77 261.802 1079.61 265.327C1076.46 268.791 1074.88 272.378 1074.88 276.089V317.93C1074.88 323.249 1076.12 326.96 1078.59 329.062C1081.06 331.104 1085.18 332.062 1090.93 331.938V335H1045.19V331.938ZM1160.19 283.604C1153.07 285.954 1147.2 288.551 1142.56 291.396C1133.65 296.901 1129.2 303.148 1129.2 310.137C1129.2 315.765 1131.06 319.909 1134.77 322.568C1137.18 324.3 1139.87 325.166 1142.84 325.166C1146.92 325.166 1150.82 324.022 1154.53 321.733C1158.3 319.445 1160.19 316.538 1160.19 313.013V283.604ZM1112.69 316.538C1112.69 307.57 1117.17 300.086 1126.14 294.087C1131.83 290.376 1143.18 285.335 1160.19 278.965V271.079C1160.19 264.771 1159.57 260.379 1158.33 257.905C1156.23 253.761 1151.87 251.689 1145.25 251.689C1142.1 251.689 1139.1 252.493 1136.25 254.102C1133.41 255.771 1131.98 258.06 1131.98 260.967C1131.98 261.709 1132.14 262.977 1132.45 264.771C1132.76 266.502 1132.91 267.616 1132.91 268.11C1132.91 271.574 1131.77 273.986 1129.48 275.347C1128.18 276.151 1126.63 276.553 1124.84 276.553C1122.06 276.553 1119.92 275.656 1118.44 273.862C1116.95 272.007 1116.21 269.966 1116.21 267.739C1116.21 263.41 1118.87 258.895 1124.19 254.194C1129.57 249.432 1137.43 247.051 1147.75 247.051C1159.75 247.051 1167.89 250.947 1172.15 258.74C1174.44 263.008 1175.59 269.224 1175.59 277.388V314.59C1175.59 318.177 1175.83 320.651 1176.33 322.012C1177.13 324.424 1178.8 325.63 1181.34 325.63C1182.76 325.63 1183.94 325.413 1184.86 324.98C1185.79 324.548 1187.4 323.496 1189.69 321.826V326.65C1187.71 329.062 1185.58 331.042 1183.29 332.588C1179.82 334.938 1176.3 336.113 1172.71 336.113C1168.51 336.113 1165.44 334.753 1163.53 332.031C1161.67 329.31 1160.65 326.063 1160.46 322.29C1155.76 326.372 1151.74 329.403 1148.4 331.382C1142.78 334.722 1137.43 336.392 1132.35 336.392C1127.04 336.392 1122.43 334.536 1118.53 330.825C1114.63 327.052 1112.69 322.29 1112.69 316.538ZM1192.15 332.402C1197.9 331.846 1201.8 330.701 1203.84 328.97C1205.88 327.176 1206.9 323.713 1206.9 318.579V227.939C1206.9 223.857 1206.56 221.043 1205.88 219.497C1204.64 216.899 1202.14 215.601 1198.36 215.601C1197.5 215.601 1196.54 215.693 1195.49 215.879C1194.5 216.064 1193.23 216.343 1191.68 216.714V213.652C1200.03 211.426 1210.09 208.457 1221.84 204.746C1222.27 204.746 1222.52 204.932 1222.58 205.303C1222.7 205.674 1222.76 206.478 1222.76 207.715V318.95C1222.76 324.331 1223.69 327.826 1225.55 329.434C1227.4 330.98 1231.24 331.969 1237.05 332.402V335H1192.15V332.402ZM1254.82 215.229C1254.82 212.57 1255.75 210.282 1257.6 208.364C1259.46 206.447 1261.75 205.488 1264.47 205.488C1267.13 205.488 1269.38 206.447 1271.24 208.364C1273.16 210.22 1274.12 212.508 1274.12 215.229C1274.12 217.889 1273.16 220.177 1271.24 222.095C1269.38 223.95 1267.13 224.878 1264.47 224.878C1261.75 224.878 1259.46 223.95 1257.6 222.095C1255.75 220.177 1254.82 217.889 1254.82 215.229ZM1242.94 332.402C1249.56 331.784 1253.74 330.671 1255.47 329.062C1257.2 327.393 1258.07 322.939 1258.07 315.703V271.45C1258.07 267.43 1257.79 264.647 1257.23 263.101C1256.3 260.565 1254.36 259.297 1251.39 259.297C1250.71 259.297 1250.03 259.359 1249.35 259.482C1248.73 259.606 1246.87 260.101 1243.78 260.967V258.091L1247.77 256.792C1258.59 253.267 1266.14 250.607 1270.41 248.813C1272.14 248.071 1273.25 247.7 1273.74 247.7C1273.87 248.133 1273.93 248.597 1273.93 249.092V315.703C1273.93 322.754 1274.77 327.176 1276.44 328.97C1278.17 330.763 1282.03 331.908 1288.03 332.402V335H1242.94V332.402ZM1300.05 305.776H1303.11C1304.53 312.827 1306.45 318.239 1308.86 322.012C1313.19 328.939 1319.53 332.402 1327.88 332.402C1332.52 332.402 1336.17 331.134 1338.83 328.599C1341.55 326.001 1342.91 322.661 1342.91 318.579C1342.91 315.981 1342.14 313.477 1340.59 311.064C1339.04 308.652 1336.32 306.302 1332.43 304.014L1322.04 298.076C1314.43 293.994 1308.83 289.881 1305.24 285.737C1301.66 281.593 1299.86 276.707 1299.86 271.079C1299.86 264.152 1302.34 258.462 1307.28 254.009C1312.23 249.556 1318.45 247.329 1325.93 247.329C1329.21 247.329 1332.8 247.948 1336.69 249.185C1340.65 250.422 1342.88 251.04 1343.37 251.04C1344.49 251.04 1345.29 250.885 1345.79 250.576C1346.28 250.267 1346.71 249.772 1347.08 249.092H1349.31L1349.96 274.976H1347.08C1345.85 268.976 1344.18 264.307 1342.07 260.967C1338.24 254.782 1332.7 251.689 1325.47 251.689C1321.14 251.689 1317.74 253.019 1315.26 255.679C1312.79 258.338 1311.55 261.462 1311.55 265.049C1311.55 270.739 1315.82 275.811 1324.35 280.264L1336.6 286.851C1349.77 294.025 1356.36 302.375 1356.36 311.899C1356.36 319.198 1353.61 325.166 1348.1 329.805C1342.66 334.443 1335.52 336.763 1326.67 336.763C1322.96 336.763 1318.76 336.144 1314.06 334.907C1309.36 333.67 1306.57 333.052 1305.71 333.052C1304.97 333.052 1304.32 333.33 1303.76 333.887C1303.2 334.382 1302.77 335 1302.46 335.742H1300.05V305.776ZM1365.41 332.588C1370.23 332.155 1373.45 331.351 1375.06 330.176C1377.53 328.382 1378.77 324.795 1378.77 319.414V271.45C1378.77 266.873 1378.15 263.874 1376.91 262.451C1375.74 261.029 1373.76 260.317 1370.98 260.317C1369.68 260.317 1368.69 260.379 1368.01 260.503C1367.39 260.627 1366.65 260.843 1365.78 261.152V257.905L1372.46 255.679C1374.87 254.875 1378.83 253.421 1384.33 251.318C1389.84 249.215 1392.75 248.164 1393.06 248.164C1393.36 248.164 1393.55 248.319 1393.61 248.628C1393.67 248.937 1393.7 249.525 1393.7 250.391V262.915C1399.83 257.349 1405.12 253.514 1409.57 251.411C1414.02 249.246 1418.6 248.164 1423.3 248.164C1429.67 248.164 1434.74 250.329 1438.51 254.658C1440.49 257.008 1442.13 260.194 1443.43 264.214C1448.01 259.575 1452 256.143 1455.4 253.916C1461.27 250.081 1467.27 248.164 1473.4 248.164C1483.35 248.164 1490 252.215 1493.34 260.317C1495.26 264.894 1496.22 272.131 1496.22 282.026V320.527C1496.22 324.919 1497.18 327.918 1499.1 329.526C1501.07 331.073 1504.6 332.093 1509.67 332.588V335H1467.83V332.402C1473.21 331.908 1476.74 330.825 1478.41 329.155C1480.14 327.485 1481 324.084 1481 318.95V278.965C1481 272.965 1480.36 268.543 1479.06 265.698C1476.77 260.627 1472.28 258.091 1465.6 258.091C1461.58 258.091 1457.59 259.421 1453.64 262.08C1451.35 263.626 1448.53 266.1 1445.19 269.502V317.002C1445.19 322.012 1446.06 325.815 1447.79 328.413C1449.59 331.011 1453.33 332.402 1459.02 332.588V335H1416.43V332.588C1422.31 331.846 1426.05 330.423 1427.66 328.32C1429.27 326.217 1430.07 321.053 1430.07 312.827V286.851C1430.07 277.326 1429.45 270.77 1428.22 267.183C1426.18 261.121 1421.85 258.091 1415.23 258.091C1411.46 258.091 1407.74 259.142 1404.1 261.245C1400.45 263.286 1397.23 265.977 1394.45 269.316V320.063C1394.45 324.764 1395.25 328.011 1396.86 329.805C1398.53 331.598 1402.12 332.526 1407.62 332.588V335H1365.41V332.588ZM1554.9 333.052C1554.9 339.299 1552.64 345.112 1548.13 350.493C1543.61 355.874 1538.76 359.74 1533.56 362.09L1531.8 358.379C1537.74 355.039 1541.82 351.421 1544.05 347.524C1546.33 343.628 1547.48 340.381 1547.48 337.783C1547.48 336.917 1547.2 336.361 1546.64 336.113C1546.09 335.866 1545.5 335.742 1544.88 335.742L1538.67 336.392C1536.07 336.392 1533.69 335.557 1531.52 333.887C1529.36 332.155 1528.27 329.681 1528.27 326.465C1528.27 323.991 1529.17 321.579 1530.96 319.229C1532.76 316.878 1535.7 315.703 1539.78 315.703C1543.67 315.703 1547.17 317.249 1550.26 320.342C1553.35 323.372 1554.9 327.609 1554.9 333.052ZM489.279 414.804C489.279 403.176 484.269 395.198 474.249 390.868C468.869 388.518 462.065 387.343 453.839 387.343C449.943 387.343 447.531 387.745 446.603 388.549C445.737 389.291 445.304 390.992 445.304 393.651V443.192C448.706 443.502 450.932 443.687 451.984 443.749C453.035 443.811 454.056 443.842 455.045 443.842C463.766 443.842 470.631 442.605 475.641 440.131C484.733 435.616 489.279 427.174 489.279 414.804ZM410.143 502.567C417.379 501.887 421.894 500.465 423.688 498.3C425.481 496.073 426.378 491.033 426.378 483.178V400.888C426.378 394.27 425.358 389.91 423.317 387.807C421.338 385.704 416.946 384.374 410.143 383.817V380.292H460.241C476.321 380.292 488.629 383.415 497.164 389.662C505.7 395.909 509.967 404.135 509.967 414.34C509.967 427.266 505.236 436.636 495.773 442.45C486.31 448.264 474.466 451.171 460.241 451.171C458.2 451.171 455.571 451.14 452.355 451.078C449.201 450.954 446.85 450.893 445.304 450.893V485.404C445.304 492.579 446.386 497.094 448.551 498.949C450.778 500.805 455.695 502.011 463.302 502.567V506H410.143V502.567ZM554.454 418.979C563.175 418.979 570.813 422.009 577.369 428.07C583.925 434.07 587.203 442.605 587.203 453.676H528.292C528.91 468.025 532.157 478.477 538.033 485.033C543.909 491.589 550.867 494.867 558.907 494.867C565.401 494.867 570.875 493.166 575.328 489.765C579.781 486.363 583.894 481.539 587.667 475.292L590.914 476.405C588.378 484.26 583.616 491.527 576.627 498.207C569.7 504.887 561.195 508.227 551.114 508.227C539.486 508.227 530.487 503.835 524.117 495.053C517.808 486.27 514.654 476.158 514.654 464.716C514.654 452.284 518.334 441.553 525.694 432.523C533.054 423.493 542.641 418.979 554.454 418.979ZM549.073 425.751C542.022 425.751 536.641 428.874 532.93 435.121C530.951 438.461 529.529 442.667 528.663 447.738H567.813C567.133 441.553 565.958 436.946 564.288 433.915C561.257 428.472 556.186 425.751 549.073 425.751ZM594.302 502.938C599.992 502.444 603.765 501.454 605.62 499.97C607.476 498.424 608.404 495.176 608.404 490.229V448.388C608.404 442.265 607.816 437.904 606.641 435.307C605.528 432.647 603.456 431.317 600.425 431.317C599.806 431.317 598.972 431.41 597.92 431.596C596.931 431.719 595.879 431.905 594.766 432.152V429.091C598.291 427.854 601.909 426.586 605.62 425.287C609.331 423.988 611.898 423.061 613.32 422.504C616.413 421.329 619.598 419.999 622.876 418.515C623.309 418.515 623.556 418.669 623.618 418.979C623.742 419.288 623.804 419.937 623.804 420.927V436.142C627.762 430.637 631.566 426.339 635.215 423.246C638.926 420.154 642.761 418.607 646.719 418.607C649.873 418.607 652.44 419.566 654.419 421.483C656.398 423.339 657.388 425.689 657.388 428.534C657.388 431.07 656.615 433.204 655.069 434.936C653.584 436.667 651.698 437.533 649.409 437.533C647.059 437.533 644.678 436.451 642.266 434.286C639.916 432.121 638.06 431.039 636.699 431.039C634.535 431.039 631.875 432.802 628.721 436.327C625.567 439.791 623.989 443.378 623.989 447.089V488.93C623.989 494.249 625.226 497.96 627.7 500.062C630.174 502.104 634.287 503.062 640.039 502.938V506H594.302V502.938ZM657.9 503.588C662.724 503.155 665.94 502.351 667.548 501.176C670.022 499.382 671.259 495.795 671.259 490.414V442.45C671.259 437.873 670.641 434.874 669.404 433.451C668.229 432.029 666.25 431.317 663.466 431.317C662.168 431.317 661.178 431.379 660.498 431.503C659.879 431.627 659.137 431.843 658.271 432.152V428.905L664.951 426.679C667.363 425.875 671.321 424.421 676.826 422.318C682.33 420.215 685.237 419.164 685.546 419.164C685.856 419.164 686.041 419.319 686.103 419.628C686.165 419.937 686.196 420.525 686.196 421.391V433.915C692.319 428.349 697.607 424.514 702.06 422.411C706.513 420.246 711.09 419.164 715.791 419.164C722.161 419.164 727.233 421.329 731.005 425.658C732.985 428.008 734.624 431.194 735.922 435.214C740.499 430.575 744.489 427.143 747.89 424.916C753.766 421.081 759.765 419.164 765.888 419.164C775.846 419.164 782.495 423.215 785.835 431.317C787.752 435.894 788.711 443.131 788.711 453.026V491.527C788.711 495.919 789.669 498.918 791.586 500.526C793.566 502.073 797.091 503.093 802.163 503.588V506H760.322V503.402C765.703 502.908 769.228 501.825 770.898 500.155C772.63 498.485 773.496 495.084 773.496 489.95V449.965C773.496 443.965 772.846 439.543 771.547 436.698C769.259 431.627 764.775 429.091 758.095 429.091C754.075 429.091 750.086 430.421 746.128 433.08C743.839 434.626 741.025 437.1 737.685 440.502V488.002C737.685 493.012 738.551 496.815 740.283 499.413C742.076 502.011 745.818 503.402 751.508 503.588V506H708.925V503.588C714.801 502.846 718.543 501.423 720.151 499.32C721.759 497.217 722.563 492.053 722.563 483.827V457.851C722.563 448.326 721.945 441.77 720.708 438.183C718.667 432.121 714.337 429.091 707.719 429.091C703.947 429.091 700.236 430.142 696.586 432.245C692.937 434.286 689.721 436.977 686.938 440.316V491.063C686.938 495.764 687.742 499.011 689.35 500.805C691.02 502.598 694.607 503.526 700.112 503.588V506H657.9V503.588ZM816.405 386.229C816.405 383.57 817.333 381.282 819.188 379.364C821.044 377.447 823.332 376.488 826.054 376.488C828.713 376.488 830.971 377.447 832.826 379.364C834.743 381.22 835.702 383.508 835.702 386.229C835.702 388.889 834.743 391.177 832.826 393.095C830.971 394.95 828.713 395.878 826.054 395.878C823.332 395.878 821.044 394.95 819.188 393.095C817.333 391.177 816.405 388.889 816.405 386.229ZM804.53 503.402C811.148 502.784 815.323 501.671 817.055 500.062C818.786 498.393 819.652 493.939 819.652 486.703V442.45C819.652 438.43 819.374 435.647 818.817 434.101C817.89 431.565 815.941 430.297 812.973 430.297C812.292 430.297 811.612 430.359 810.932 430.482C810.313 430.606 808.458 431.101 805.365 431.967V429.091L809.354 427.792C820.178 424.267 827.724 421.607 831.991 419.813C833.723 419.071 834.836 418.7 835.331 418.7C835.455 419.133 835.517 419.597 835.517 420.092V486.703C835.517 493.754 836.352 498.176 838.021 499.97C839.753 501.763 843.619 502.908 849.618 503.402V506H804.53V503.402ZM861.634 476.776H864.696C866.118 483.827 868.036 489.239 870.448 493.012C874.777 499.939 881.117 503.402 889.466 503.402C894.105 503.402 897.754 502.134 900.413 499.599C903.135 497.001 904.495 493.661 904.495 489.579C904.495 486.981 903.722 484.477 902.176 482.064C900.63 479.652 897.909 477.302 894.012 475.014L883.621 469.076C876.014 464.994 870.417 460.881 866.829 456.737C863.242 452.593 861.449 447.707 861.449 442.079C861.449 435.152 863.923 429.462 868.87 425.009C873.818 420.556 880.034 418.329 887.518 418.329C890.796 418.329 894.383 418.948 898.28 420.185C902.238 421.422 904.465 422.04 904.959 422.04C906.073 422.04 906.877 421.885 907.371 421.576C907.866 421.267 908.299 420.772 908.67 420.092H910.897L911.546 445.976H908.67C907.433 439.976 905.763 435.307 903.661 431.967C899.826 425.782 894.29 422.689 887.054 422.689C882.725 422.689 879.323 424.019 876.849 426.679C874.375 429.338 873.138 432.462 873.138 436.049C873.138 441.739 877.406 446.811 885.941 451.264L898.187 457.851C911.361 465.025 917.948 473.375 917.948 482.899C917.948 490.198 915.195 496.166 909.691 500.805C904.248 505.443 897.105 507.763 888.26 507.763C884.549 507.763 880.343 507.144 875.643 505.907C870.942 504.67 868.159 504.052 867.293 504.052C866.551 504.052 865.902 504.33 865.345 504.887C864.788 505.382 864.356 506 864.046 506.742H861.634V476.776ZM933.767 476.776H936.829C938.251 483.827 940.169 489.239 942.581 493.012C946.91 499.939 953.25 503.402 961.599 503.402C966.238 503.402 969.887 502.134 972.547 499.599C975.268 497.001 976.629 493.661 976.629 489.579C976.629 486.981 975.856 484.477 974.309 482.064C972.763 479.652 970.042 477.302 966.145 475.014L955.755 469.076C948.147 464.994 942.55 460.881 938.963 456.737C935.375 452.593 933.582 447.707 933.582 442.079C933.582 435.152 936.056 429.462 941.004 425.009C945.952 420.556 952.167 418.329 959.651 418.329C962.929 418.329 966.516 418.948 970.413 420.185C974.371 421.422 976.598 422.04 977.093 422.04C978.206 422.04 979.01 421.885 979.505 421.576C979.999 421.267 980.432 420.772 980.803 420.092H983.03L983.679 445.976H980.803C979.566 439.976 977.897 435.307 975.794 431.967C971.959 425.782 966.424 422.689 959.187 422.689C954.858 422.689 951.456 424.019 948.982 426.679C946.508 429.338 945.271 432.462 945.271 436.049C945.271 441.739 949.539 446.811 958.074 451.264L970.32 457.851C983.494 465.025 990.081 473.375 990.081 482.899C990.081 490.198 987.329 496.166 981.824 500.805C976.381 505.443 969.238 507.763 960.393 507.763C956.682 507.763 952.477 507.144 947.776 505.907C943.076 504.67 940.292 504.052 939.427 504.052C938.684 504.052 938.035 504.33 937.478 504.887C936.922 505.382 936.489 506 936.179 506.742H933.767V476.776ZM1011.65 386.229C1011.65 383.57 1012.58 381.282 1014.44 379.364C1016.29 377.447 1018.58 376.488 1021.3 376.488C1023.96 376.488 1026.22 377.447 1028.07 379.364C1029.99 381.22 1030.95 383.508 1030.95 386.229C1030.95 388.889 1029.99 391.177 1028.07 393.095C1026.22 394.95 1023.96 395.878 1021.3 395.878C1018.58 395.878 1016.29 394.95 1014.44 393.095C1012.58 391.177 1011.65 388.889 1011.65 386.229ZM999.778 503.402C1006.4 502.784 1010.57 501.671 1012.3 500.062C1014.03 498.393 1014.9 493.939 1014.9 486.703V442.45C1014.9 438.43 1014.62 435.647 1014.06 434.101C1013.14 431.565 1011.19 430.297 1008.22 430.297C1007.54 430.297 1006.86 430.359 1006.18 430.482C1005.56 430.606 1003.7 431.101 1000.61 431.967V429.091L1004.6 427.792C1015.43 424.267 1022.97 421.607 1027.24 419.813C1028.97 419.071 1030.08 418.7 1030.58 418.7C1030.7 419.133 1030.76 419.597 1030.76 420.092V486.703C1030.76 493.754 1031.6 498.176 1033.27 499.97C1035 501.763 1038.87 502.908 1044.87 503.402V506H999.778V503.402ZM1051.87 462.953C1051.87 450.645 1055.77 440.255 1063.56 431.781C1071.42 423.246 1081.5 418.979 1093.81 418.979C1106.05 418.979 1116.19 422.999 1124.23 431.039C1132.28 439.079 1136.3 449.779 1136.3 463.139C1136.3 475.447 1132.4 486.146 1124.61 495.238C1116.81 504.33 1106.73 508.876 1094.36 508.876C1082.49 508.876 1072.44 504.516 1064.21 495.795C1055.98 487.074 1051.87 476.127 1051.87 462.953ZM1091.21 424.545C1086.32 424.545 1082.08 426.153 1078.5 429.369C1072.31 434.997 1069.22 444.708 1069.22 458.5C1069.22 469.509 1071.69 479.776 1076.64 489.301C1081.65 498.826 1088.58 503.588 1097.42 503.588C1104.35 503.588 1109.67 500.403 1113.38 494.032C1117.15 487.662 1119.04 479.312 1119.04 468.983C1119.04 458.284 1116.66 448.202 1111.9 438.739C1107.13 429.276 1100.24 424.545 1091.21 424.545ZM1143.58 503.402C1147.97 502.846 1151.03 501.763 1152.76 500.155C1154.56 498.485 1155.46 494.805 1155.46 489.115V442.079C1155.46 438.121 1155.08 435.338 1154.34 433.729C1153.17 431.379 1150.75 430.204 1147.11 430.204C1146.55 430.204 1145.96 430.235 1145.34 430.297C1144.79 430.359 1144.07 430.451 1143.21 430.575V427.328C1145.74 426.586 1151.74 424.669 1161.21 421.576L1169.93 418.7C1170.36 418.7 1170.61 418.855 1170.67 419.164C1170.79 419.473 1170.86 419.906 1170.86 420.463V434.101C1176.55 428.782 1181 425.132 1184.21 423.153C1189.04 420.123 1194.05 418.607 1199.24 418.607C1203.45 418.607 1207.28 419.813 1210.75 422.226C1217.43 426.926 1220.77 435.307 1220.77 447.367V490.692C1220.77 495.146 1221.66 498.362 1223.46 500.341C1225.25 502.32 1228.25 503.34 1232.46 503.402V506H1192.84V503.402C1197.36 502.784 1200.51 501.547 1202.31 499.691C1204.1 497.774 1205 493.661 1205 487.353V447.738C1205 442.419 1204.01 438.028 1202.03 434.564C1200.05 431.039 1196.4 429.276 1191.08 429.276C1187.43 429.276 1183.72 430.513 1179.95 432.987C1177.84 434.41 1175.12 436.76 1171.78 440.038V491.991C1171.78 496.444 1172.77 499.444 1174.75 500.99C1176.73 502.475 1179.85 503.279 1184.12 503.402V506H1143.58V503.402ZM1237.14 503.402C1242.9 502.846 1246.79 501.701 1248.83 499.97C1250.87 498.176 1251.89 494.713 1251.89 489.579V398.939C1251.89 394.857 1251.55 392.043 1250.87 390.497C1249.64 387.899 1247.13 386.601 1243.36 386.601C1242.49 386.601 1241.54 386.693 1240.48 386.879C1239.49 387.064 1238.23 387.343 1236.68 387.714V384.652C1245.03 382.426 1255.08 379.457 1266.83 375.746C1267.26 375.746 1267.51 375.932 1267.57 376.303C1267.7 376.674 1267.76 377.478 1267.76 378.715V489.95C1267.76 495.331 1268.69 498.826 1270.54 500.434C1272.4 501.98 1276.23 502.969 1282.05 503.402V506H1237.14V503.402ZM1327.74 418.979C1336.46 418.979 1344.1 422.009 1350.65 428.07C1357.21 434.07 1360.49 442.605 1360.49 453.676H1301.58C1302.2 468.025 1305.44 478.477 1311.32 485.033C1317.19 491.589 1324.15 494.867 1332.19 494.867C1338.69 494.867 1344.16 493.166 1348.61 489.765C1353.07 486.363 1357.18 481.539 1360.95 475.292L1364.2 476.405C1361.66 484.26 1356.9 491.527 1349.91 498.207C1342.98 504.887 1334.48 508.227 1324.4 508.227C1312.77 508.227 1303.77 503.835 1297.4 495.053C1291.09 486.27 1287.94 476.158 1287.94 464.716C1287.94 452.284 1291.62 441.553 1298.98 432.523C1306.34 423.493 1315.93 418.979 1327.74 418.979ZM1322.36 425.751C1315.31 425.751 1309.93 428.874 1306.22 435.121C1304.24 438.461 1302.81 442.667 1301.95 447.738H1341.1C1340.42 441.553 1339.24 436.946 1337.57 433.915C1334.54 428.472 1329.47 425.751 1322.36 425.751ZM1376.59 476.776H1379.65C1381.07 483.827 1382.99 489.239 1385.4 493.012C1389.73 499.939 1396.07 503.402 1404.42 503.402C1409.06 503.402 1412.71 502.134 1415.37 499.599C1418.09 497.001 1419.45 493.661 1419.45 489.579C1419.45 486.981 1418.67 484.477 1417.13 482.064C1415.58 479.652 1412.86 477.302 1408.96 475.014L1398.57 469.076C1390.97 464.994 1385.37 460.881 1381.78 456.737C1378.19 452.593 1376.4 447.707 1376.4 442.079C1376.4 435.152 1378.87 429.462 1383.82 425.009C1388.77 420.556 1394.99 418.329 1402.47 418.329C1405.75 418.329 1409.34 418.948 1413.23 420.185C1417.19 421.422 1419.42 422.04 1419.91 422.04C1421.02 422.04 1421.83 421.885 1422.32 421.576C1422.82 421.267 1423.25 420.772 1423.62 420.092H1425.85L1426.5 445.976H1423.62C1422.39 439.976 1420.72 435.307 1418.61 431.967C1414.78 425.782 1409.24 422.689 1402.01 422.689C1397.68 422.689 1394.27 424.019 1391.8 426.679C1389.33 429.338 1388.09 432.462 1388.09 436.049C1388.09 441.739 1392.36 446.811 1400.89 451.264L1413.14 457.851C1426.31 465.025 1432.9 473.375 1432.9 482.899C1432.9 490.198 1430.15 496.166 1424.64 500.805C1419.2 505.443 1412.06 507.763 1403.21 507.763C1399.5 507.763 1395.3 507.144 1390.59 505.907C1385.89 504.67 1383.11 504.052 1382.25 504.052C1381.5 504.052 1380.85 504.33 1380.3 504.887C1379.74 505.382 1379.31 506 1379 506.742H1376.59V476.776ZM1448.72 476.776H1451.78C1453.2 483.827 1455.12 489.239 1457.53 493.012C1461.86 499.939 1468.2 503.402 1476.55 503.402C1481.19 503.402 1484.84 502.134 1487.5 499.599C1490.22 497.001 1491.58 493.661 1491.58 489.579C1491.58 486.981 1490.81 484.477 1489.26 482.064C1487.72 479.652 1484.99 477.302 1481.1 475.014L1470.71 469.076C1463.1 464.994 1457.5 460.881 1453.91 456.737C1450.33 452.593 1448.53 447.707 1448.53 442.079C1448.53 435.152 1451.01 429.462 1455.96 425.009C1460.9 420.556 1467.12 418.329 1474.6 418.329C1477.88 418.329 1481.47 418.948 1485.36 420.185C1489.32 421.422 1491.55 422.04 1492.04 422.04C1493.16 422.04 1493.96 421.885 1494.46 421.576C1494.95 421.267 1495.38 420.772 1495.76 420.092H1497.98L1498.63 445.976H1495.76C1494.52 439.976 1492.85 435.307 1490.75 431.967C1486.91 425.782 1481.38 422.689 1474.14 422.689C1469.81 422.689 1466.41 424.019 1463.93 426.679C1461.46 429.338 1460.22 432.462 1460.22 436.049C1460.22 441.739 1464.49 446.811 1473.03 451.264L1485.27 457.851C1498.45 465.025 1505.03 473.375 1505.03 482.899C1505.03 490.198 1502.28 496.166 1496.78 500.805C1491.33 505.443 1484.19 507.763 1475.35 507.763C1471.63 507.763 1467.43 507.144 1462.73 505.907C1458.03 504.67 1455.24 504.052 1454.38 504.052C1453.64 504.052 1452.99 504.33 1452.43 504.887C1451.87 505.382 1451.44 506 1451.13 506.742H1448.72V476.776ZM310.846 589.329C315.361 589.329 319.505 590.319 323.277 592.298C325.751 593.597 328.132 595.39 330.421 597.679V568.177C330.421 564.404 329.988 561.806 329.122 560.384C328.318 558.961 326.339 558.25 323.185 558.25C322.442 558.25 321.793 558.281 321.236 558.343C320.68 558.405 319.443 558.528 317.525 558.714V555.652L325.133 553.704C327.916 552.962 330.699 552.189 333.482 551.385C336.266 550.581 338.709 549.808 340.812 549.065C341.801 548.756 343.44 548.169 345.729 547.303L346.285 547.488L346.1 557.229C346.038 560.755 345.976 564.404 345.914 568.177C345.852 571.888 345.821 575.568 345.821 579.217L345.636 655.013C345.636 659.033 346.131 661.847 347.12 663.455C348.11 665.063 350.738 665.867 355.006 665.867C355.686 665.867 356.367 665.867 357.047 665.867C357.727 665.805 358.408 665.713 359.088 665.589V668.65C358.717 668.774 354.233 670.32 345.636 673.289L331.07 678.763L330.421 677.928V666.517C326.957 670.289 323.958 672.98 321.422 674.588C316.907 677.371 311.681 678.763 305.743 678.763C295.229 678.763 286.694 674.712 280.138 666.609C273.644 658.445 270.396 649.013 270.396 638.313C270.396 624.892 274.293 613.388 282.086 603.802C289.941 594.153 299.527 589.329 310.846 589.329ZM314.278 668.743C319.103 668.743 322.999 667.321 325.968 664.476C328.937 661.631 330.421 658.94 330.421 656.404V616.604C330.421 608.564 328.256 602.905 323.927 599.627C319.659 596.287 315.484 594.617 311.402 594.617C303.609 594.617 297.548 598.081 293.219 605.008C288.889 611.873 286.725 620.346 286.725 630.428C286.725 640.385 289.013 649.261 293.59 657.054C298.229 664.847 305.125 668.743 314.278 668.743ZM374.537 557.229C374.537 554.57 375.464 552.282 377.32 550.364C379.175 548.447 381.464 547.488 384.185 547.488C386.844 547.488 389.102 548.447 390.957 550.364C392.875 552.22 393.833 554.508 393.833 557.229C393.833 559.889 392.875 562.177 390.957 564.095C389.102 565.95 386.844 566.878 384.185 566.878C381.464 566.878 379.175 565.95 377.32 564.095C375.464 562.177 374.537 559.889 374.537 557.229ZM362.662 674.402C369.279 673.784 373.454 672.671 375.186 671.062C376.918 669.393 377.784 664.939 377.784 657.703V613.45C377.784 609.43 377.505 606.647 376.949 605.101C376.021 602.565 374.073 601.297 371.104 601.297C370.424 601.297 369.743 601.359 369.063 601.482C368.444 601.606 366.589 602.101 363.496 602.967V600.091L367.486 598.792C378.309 595.267 385.855 592.607 390.122 590.813C391.854 590.071 392.968 589.7 393.462 589.7C393.586 590.133 393.648 590.597 393.648 591.092V657.703C393.648 664.754 394.483 669.176 396.153 670.97C397.885 672.763 401.75 673.908 407.749 674.402V677H362.662V674.402ZM428.579 694.163C428.579 699.358 431.486 702.946 437.3 704.925C443.175 706.904 449.886 707.894 457.431 707.894C467.698 707.894 476.048 706.1 482.48 702.513C488.913 698.987 492.129 694.627 492.129 689.432C492.129 685.288 489.531 682.535 484.336 681.175C481.12 680.371 475.027 679.907 466.059 679.783C463.771 679.721 461.359 679.629 458.823 679.505C456.287 679.443 453.968 679.35 451.865 679.227C450.504 679.165 448.309 678.917 445.278 678.484C442.248 678.051 439.99 677.68 438.506 677.371C437.763 677.371 435.939 679.319 433.032 683.216C430.063 687.174 428.579 690.823 428.579 694.163ZM440.639 645.828C435.011 643.973 430.62 640.664 427.466 635.901C424.373 631.139 422.827 625.789 422.827 619.852C422.827 612.615 425.703 605.75 431.455 599.256C437.207 592.762 445.34 589.515 455.854 589.515C460.369 589.515 465.348 590.597 470.791 592.762C476.234 594.865 481.46 595.916 486.47 595.916C487.768 595.916 489.717 595.885 492.314 595.823C494.974 595.7 496.891 595.638 498.066 595.638H499.18V603.152H483.13C484.243 605.75 485.109 608.007 485.727 609.925C486.779 613.512 487.305 616.914 487.305 620.13C487.305 627.181 484.367 633.675 478.491 639.612C472.677 645.488 464.822 648.426 454.927 648.426C453.38 648.426 450.597 648.147 446.577 647.591C444.783 647.591 442.402 649.106 439.433 652.137C436.527 655.167 435.073 657.641 435.073 659.559C435.073 661.538 437.238 662.991 441.567 663.919C444.412 664.537 447.567 664.847 451.03 664.847C466.925 664.847 477.718 665.743 483.408 667.537C492.747 670.444 497.417 676.691 497.417 686.277C497.417 696.049 491.943 703.842 480.996 709.656C470.11 715.47 459.101 718.377 447.969 718.377C437.825 718.377 429.785 716.305 423.847 712.161C417.91 708.079 414.941 703.781 414.941 699.266C414.941 697.039 415.714 694.843 417.261 692.679C418.869 690.576 421.992 687.422 426.631 683.216L432.754 677.742L433.867 676.629C431.022 675.516 428.888 674.433 427.466 673.382C424.992 671.465 423.755 669.269 423.755 666.795C423.755 664.507 424.806 662.002 426.909 659.28C429.074 656.497 433.651 652.013 440.639 645.828ZM458.266 643.973C461.668 643.973 464.513 643.045 466.802 641.189C470.513 638.221 472.368 633.056 472.368 625.696C472.368 619.821 470.853 613.203 467.822 605.843C464.853 598.483 459.874 594.803 452.886 594.803C446.824 594.803 442.65 597.679 440.361 603.431C439.186 606.461 438.598 610.203 438.598 614.656C438.598 622.202 440.423 628.974 444.072 634.974C447.721 640.973 452.453 643.973 458.266 643.973ZM518.617 557.229C518.617 554.57 519.545 552.282 521.401 550.364C523.256 548.447 525.544 547.488 528.266 547.488C530.925 547.488 533.183 548.447 535.038 550.364C536.956 552.22 537.914 554.508 537.914 557.229C537.914 559.889 536.956 562.177 535.038 564.095C533.183 565.95 530.925 566.878 528.266 566.878C525.544 566.878 523.256 565.95 521.401 564.095C519.545 562.177 518.617 559.889 518.617 557.229ZM506.742 674.402C513.36 673.784 517.535 672.671 519.267 671.062C520.999 669.393 521.864 664.939 521.864 657.703V613.45C521.864 609.43 521.586 606.647 521.029 605.101C520.102 602.565 518.154 601.297 515.185 601.297C514.504 601.297 513.824 601.359 513.144 601.482C512.525 601.606 510.67 602.101 507.577 602.967V600.091L511.567 598.792C522.39 595.267 529.936 592.607 534.203 590.813C535.935 590.071 537.048 589.7 537.543 589.7C537.667 590.133 537.729 590.597 537.729 591.092V657.703C537.729 664.754 538.564 669.176 540.234 670.97C541.965 672.763 545.831 673.908 551.83 674.402V677H506.742V674.402ZM602.347 591.463V598.143H583.421L583.236 651.58C583.236 656.281 583.638 659.837 584.442 662.249C585.926 666.517 588.833 668.65 593.163 668.65C595.389 668.65 597.307 668.125 598.915 667.073C600.585 666.022 602.471 664.352 604.574 662.063L606.986 664.104L604.945 666.888C601.729 671.217 598.327 674.279 594.74 676.072C591.153 677.866 587.689 678.763 584.349 678.763C577.051 678.763 572.103 675.516 569.505 669.021C568.083 665.496 567.372 660.61 567.372 654.363V598.143H557.259C556.95 597.957 556.703 597.771 556.517 597.586C556.393 597.4 556.332 597.153 556.332 596.844C556.332 596.225 556.455 595.761 556.703 595.452C557.012 595.081 557.909 594.277 559.393 593.04C563.661 589.515 566.722 586.67 568.578 584.505C570.495 582.278 574.948 576.465 581.937 567.063C582.741 567.063 583.205 567.125 583.329 567.249C583.514 567.373 583.607 567.837 583.607 568.641V591.463H602.347ZM659.451 625.604C652.339 627.954 646.463 630.551 641.824 633.396C632.918 638.901 628.465 645.148 628.465 652.137C628.465 657.765 630.32 661.909 634.031 664.568C636.443 666.3 639.134 667.166 642.103 667.166C646.185 667.166 650.081 666.022 653.792 663.733C657.565 661.445 659.451 658.538 659.451 655.013V625.604ZM611.951 658.538C611.951 649.57 616.435 642.086 625.403 636.087C631.093 632.376 642.443 627.335 659.451 620.965V613.079C659.451 606.771 658.833 602.379 657.596 599.905C655.493 595.761 651.132 593.689 644.515 593.689C641.36 593.689 638.361 594.493 635.516 596.102C632.671 597.771 631.248 600.06 631.248 602.967C631.248 603.709 631.403 604.977 631.712 606.771C632.021 608.502 632.176 609.616 632.176 610.11C632.176 613.574 631.032 615.986 628.743 617.347C627.444 618.151 625.898 618.553 624.104 618.553C621.321 618.553 619.188 617.656 617.703 615.862C616.219 614.007 615.477 611.966 615.477 609.739C615.477 605.41 618.136 600.895 623.455 596.194C628.836 591.432 636.691 589.051 647.02 589.051C659.018 589.051 667.151 592.947 671.419 600.74C673.707 605.008 674.852 611.224 674.852 619.388V656.59C674.852 660.177 675.099 662.651 675.594 664.012C676.398 666.424 678.068 667.63 680.604 667.63C682.026 667.63 683.201 667.413 684.129 666.98C685.057 666.548 686.665 665.496 688.953 663.826V668.65C686.974 671.062 684.84 673.042 682.552 674.588C679.088 676.938 675.563 678.113 671.976 678.113C667.77 678.113 664.708 676.753 662.791 674.031C660.936 671.31 659.915 668.063 659.729 664.29C655.029 668.372 651.009 671.403 647.669 673.382C642.041 676.722 636.691 678.392 631.619 678.392C626.3 678.392 621.692 676.536 617.796 672.825C613.899 669.052 611.951 664.29 611.951 658.538ZM691.413 674.402C697.165 673.846 701.062 672.701 703.103 670.97C705.144 669.176 706.164 665.713 706.164 660.579V569.939C706.164 565.857 705.824 563.043 705.144 561.497C703.907 558.899 701.402 557.601 697.629 557.601C696.763 557.601 695.805 557.693 694.753 557.879C693.764 558.064 692.496 558.343 690.95 558.714V555.652C699.299 553.426 709.35 550.457 721.101 546.746C721.534 546.746 721.781 546.932 721.843 547.303C721.967 547.674 722.029 548.478 722.029 549.715V660.95C722.029 666.331 722.956 669.826 724.812 671.434C726.667 672.98 730.502 673.969 736.316 674.402V677H691.413V674.402ZM799.684 557.229C799.684 554.57 800.612 552.282 802.467 550.364C804.322 548.447 806.611 547.488 809.332 547.488C811.992 547.488 814.249 548.447 816.105 550.364C818.022 552.22 818.981 554.508 818.981 557.229C818.981 559.889 818.022 562.177 816.105 564.095C814.249 565.95 811.992 566.878 809.332 566.878C806.611 566.878 804.322 565.95 802.467 564.095C800.612 562.177 799.684 559.889 799.684 557.229ZM787.809 674.402C794.427 673.784 798.601 672.671 800.333 671.062C802.065 669.393 802.931 664.939 802.931 657.703V613.45C802.931 609.43 802.653 606.647 802.096 605.101C801.168 602.565 799.22 601.297 796.251 601.297C795.571 601.297 794.89 601.359 794.21 601.482C793.592 601.606 791.736 602.101 788.644 602.967V600.091L792.633 598.792C803.457 595.267 811.002 592.607 815.27 590.813C817.001 590.071 818.115 589.7 818.61 589.7C818.733 590.133 818.795 590.597 818.795 591.092V657.703C818.795 664.754 819.63 669.176 821.3 670.97C823.032 672.763 826.897 673.908 832.897 674.402V677H787.809V674.402ZM838.511 674.402C842.903 673.846 845.964 672.763 847.696 671.155C849.49 669.485 850.386 665.805 850.386 660.115V613.079C850.386 609.121 850.015 606.338 849.273 604.729C848.098 602.379 845.686 601.204 842.037 601.204C841.48 601.204 840.893 601.235 840.274 601.297C839.717 601.359 839.006 601.451 838.14 601.575V598.328C840.676 597.586 846.675 595.669 856.138 592.576L864.859 589.7C865.292 589.7 865.539 589.855 865.601 590.164C865.725 590.473 865.787 590.906 865.787 591.463V605.101C871.477 599.782 875.93 596.132 879.146 594.153C883.97 591.123 888.98 589.607 894.175 589.607C898.381 589.607 902.216 590.813 905.679 593.226C912.359 597.926 915.699 606.307 915.699 618.367V661.692C915.699 666.146 916.596 669.362 918.389 671.341C920.183 673.32 923.183 674.34 927.388 674.402V677H887.774V674.402C892.289 673.784 895.443 672.547 897.237 670.691C899.031 668.774 899.927 664.661 899.927 658.353V618.738C899.927 613.419 898.938 609.028 896.959 605.564C894.979 602.039 891.33 600.276 886.011 600.276C882.362 600.276 878.651 601.513 874.879 603.987C872.776 605.41 870.054 607.76 866.714 611.038V662.991C866.714 667.444 867.704 670.444 869.683 671.99C871.662 673.475 874.786 674.279 879.053 674.402V677H838.511V674.402ZM938.013 647.776H941.074C942.497 654.827 944.414 660.239 946.826 664.012C951.156 670.939 957.495 674.402 965.845 674.402C970.483 674.402 974.132 673.134 976.792 670.599C979.513 668.001 980.874 664.661 980.874 660.579C980.874 657.981 980.101 655.477 978.555 653.064C977.008 650.652 974.287 648.302 970.391 646.014L960 640.076C952.393 635.994 946.795 631.881 943.208 627.737C939.621 623.593 937.827 618.707 937.827 613.079C937.827 606.152 940.301 600.462 945.249 596.009C950.197 591.556 956.413 589.329 963.896 589.329C967.174 589.329 970.762 589.948 974.658 591.185C978.617 592.422 980.843 593.04 981.338 593.04C982.451 593.04 983.255 592.885 983.75 592.576C984.245 592.267 984.678 591.772 985.049 591.092H987.275L987.925 616.976H985.049C983.812 610.976 982.142 606.307 980.039 602.967C976.204 596.782 970.669 593.689 963.433 593.689C959.103 593.689 955.701 595.019 953.228 597.679C950.754 600.338 949.517 603.462 949.517 607.049C949.517 612.739 953.784 617.811 962.319 622.264L974.565 628.851C987.739 636.025 994.326 644.375 994.326 653.899C994.326 661.198 991.574 667.166 986.069 671.805C980.627 676.443 973.483 678.763 964.639 678.763C960.928 678.763 956.722 678.144 952.021 676.907C947.321 675.67 944.538 675.052 943.672 675.052C942.93 675.052 942.28 675.33 941.724 675.887C941.167 676.382 940.734 677 940.425 677.742H938.013V647.776ZM1048.65 591.463V598.143H1029.72L1029.54 651.58C1029.54 656.281 1029.94 659.837 1030.74 662.249C1032.23 666.517 1035.13 668.65 1039.46 668.65C1041.69 668.65 1043.61 668.125 1045.21 667.073C1046.88 666.022 1048.77 664.352 1050.87 662.063L1053.29 664.104L1051.24 666.888C1048.03 671.217 1044.63 674.279 1041.04 676.072C1037.45 677.866 1033.99 678.763 1030.65 678.763C1023.35 678.763 1018.4 675.516 1015.81 669.021C1014.38 665.496 1013.67 660.61 1013.67 654.363V598.143H1003.56C1003.25 597.957 1003 597.771 1002.82 597.586C1002.69 597.4 1002.63 597.153 1002.63 596.844C1002.63 596.225 1002.75 595.761 1003 595.452C1003.31 595.081 1004.21 594.277 1005.69 593.04C1009.96 589.515 1013.02 586.67 1014.88 584.505C1016.79 582.278 1021.25 576.465 1028.24 567.063C1029.04 567.063 1029.5 567.125 1029.63 567.249C1029.81 567.373 1029.91 567.837 1029.91 568.641V591.463H1048.65ZM1066.88 557.229C1066.88 554.57 1067.81 552.282 1069.66 550.364C1071.52 548.447 1073.81 547.488 1076.53 547.488C1079.19 547.488 1081.44 548.447 1083.3 550.364C1085.22 552.22 1086.18 554.508 1086.18 557.229C1086.18 559.889 1085.22 562.177 1083.3 564.095C1081.44 565.95 1079.19 566.878 1076.53 566.878C1073.81 566.878 1071.52 565.95 1069.66 564.095C1067.81 562.177 1066.88 559.889 1066.88 557.229ZM1055 674.402C1061.62 673.784 1065.8 672.671 1067.53 671.062C1069.26 669.393 1070.13 664.939 1070.13 657.703V613.45C1070.13 609.43 1069.85 606.647 1069.29 605.101C1068.36 602.565 1066.41 601.297 1063.45 601.297C1062.77 601.297 1062.09 601.359 1061.41 601.482C1060.79 601.606 1058.93 602.101 1055.84 602.967V600.091L1059.83 598.792C1070.65 595.267 1078.2 592.607 1082.46 590.813C1084.2 590.071 1085.31 589.7 1085.8 589.7C1085.93 590.133 1085.99 590.597 1085.99 591.092V657.703C1085.99 664.754 1086.83 669.176 1088.49 670.97C1090.23 672.763 1094.09 673.908 1100.09 674.402V677H1055V674.402ZM1150.61 591.463V598.143H1131.68L1131.5 651.58C1131.5 656.281 1131.9 659.837 1132.7 662.249C1134.19 666.517 1137.09 668.65 1141.42 668.65C1143.65 668.65 1145.57 668.125 1147.18 667.073C1148.85 666.022 1150.73 664.352 1152.84 662.063L1155.25 664.104L1153.21 666.888C1149.99 671.217 1146.59 674.279 1143 676.072C1139.41 677.866 1135.95 678.763 1132.61 678.763C1125.31 678.763 1120.36 675.516 1117.77 669.021C1116.34 665.496 1115.63 660.61 1115.63 654.363V598.143H1105.52C1105.21 597.957 1104.96 597.771 1104.78 597.586C1104.65 597.4 1104.59 597.153 1104.59 596.844C1104.59 596.225 1104.72 595.761 1104.96 595.452C1105.27 595.081 1106.17 594.277 1107.65 593.04C1111.92 589.515 1114.98 586.67 1116.84 584.505C1118.76 582.278 1123.21 576.465 1130.2 567.063C1131 567.063 1131.47 567.125 1131.59 567.249C1131.78 567.373 1131.87 567.837 1131.87 568.641V591.463H1150.61ZM1182.66 591.092V650.467C1182.66 654.673 1183.25 658.043 1184.43 660.579C1186.71 665.28 1190.92 667.63 1197.04 667.63C1201.25 667.63 1205.36 666.238 1209.38 663.455C1211.67 661.909 1213.99 659.775 1216.34 657.054V606.214C1216.34 601.451 1215.41 598.328 1213.56 596.844C1211.7 595.359 1207.99 594.463 1202.42 594.153V591.092H1232.39V656.404C1232.39 660.61 1233.13 663.517 1234.62 665.125C1236.16 666.671 1239.38 667.352 1244.27 667.166V669.764C1240.86 670.691 1238.36 671.403 1236.75 671.897C1235.14 672.33 1232.45 673.165 1228.68 674.402C1227.07 674.959 1223.55 676.289 1218.1 678.392C1217.79 678.392 1217.61 678.237 1217.55 677.928C1217.48 677.68 1217.45 677.371 1217.45 677V662.063C1213.25 667.073 1209.41 670.784 1205.95 673.196C1200.69 676.907 1195.13 678.763 1189.25 678.763C1183.87 678.763 1178.8 676.845 1174.04 673.011C1169.21 669.238 1166.8 662.898 1166.8 653.992V605.843C1166.8 600.895 1165.75 597.586 1163.65 595.916C1162.28 594.865 1159.38 594.122 1154.92 593.689V591.092H1182.66ZM1294.69 591.463V598.143H1275.76L1275.58 651.58C1275.58 656.281 1275.98 659.837 1276.78 662.249C1278.27 666.517 1281.18 668.65 1285.5 668.65C1287.73 668.65 1289.65 668.125 1291.26 667.073C1292.93 666.022 1294.81 664.352 1296.92 662.063L1299.33 664.104L1297.29 666.888C1294.07 671.217 1290.67 674.279 1287.08 676.072C1283.49 677.866 1280.03 678.763 1276.69 678.763C1269.39 678.763 1264.45 675.516 1261.85 669.021C1260.43 665.496 1259.71 660.61 1259.71 654.363V598.143H1249.6C1249.29 597.957 1249.04 597.771 1248.86 597.586C1248.74 597.4 1248.67 597.153 1248.67 596.844C1248.67 596.225 1248.8 595.761 1249.04 595.452C1249.35 595.081 1250.25 594.277 1251.74 593.04C1256 589.515 1259.06 586.67 1260.92 584.505C1262.84 582.278 1267.29 576.465 1274.28 567.063C1275.08 567.063 1275.55 567.125 1275.67 567.249C1275.86 567.373 1275.95 567.837 1275.95 568.641V591.463H1294.69ZM1312.92 557.229C1312.92 554.57 1313.85 552.282 1315.7 550.364C1317.56 548.447 1319.85 547.488 1322.57 547.488C1325.23 547.488 1327.49 548.447 1329.34 550.364C1331.26 552.22 1332.22 554.508 1332.22 557.229C1332.22 559.889 1331.26 562.177 1329.34 564.095C1327.49 565.95 1325.23 566.878 1322.57 566.878C1319.85 566.878 1317.56 565.95 1315.7 564.095C1313.85 562.177 1312.92 559.889 1312.92 557.229ZM1301.05 674.402C1307.66 673.784 1311.84 672.671 1313.57 671.062C1315.3 669.393 1316.17 664.939 1316.17 657.703V613.45C1316.17 609.43 1315.89 606.647 1315.33 605.101C1314.41 602.565 1312.46 601.297 1309.49 601.297C1308.81 601.297 1308.13 601.359 1307.45 601.482C1306.83 601.606 1304.97 602.101 1301.88 602.967V600.091L1305.87 598.792C1316.69 595.267 1324.24 592.607 1328.51 590.813C1330.24 590.071 1331.35 589.7 1331.85 589.7C1331.97 590.133 1332.03 590.597 1332.03 591.092V657.703C1332.03 664.754 1332.87 669.176 1334.54 670.97C1336.27 672.763 1340.13 673.908 1346.13 674.402V677H1301.05V674.402ZM1353.14 633.953C1353.14 621.645 1357.04 611.255 1364.83 602.781C1372.68 594.246 1382.77 589.979 1395.07 589.979C1407.32 589.979 1417.46 593.999 1425.5 602.039C1433.54 610.079 1437.56 620.779 1437.56 634.139C1437.56 646.447 1433.67 657.146 1425.87 666.238C1418.08 675.33 1408 679.876 1395.63 679.876C1383.76 679.876 1373.71 675.516 1365.48 666.795C1357.25 658.074 1353.14 647.127 1353.14 633.953ZM1392.48 595.545C1387.59 595.545 1383.35 597.153 1379.77 600.369C1373.58 605.997 1370.49 615.708 1370.49 629.5C1370.49 640.509 1372.96 650.776 1377.91 660.301C1382.92 669.826 1389.85 674.588 1398.69 674.588C1405.62 674.588 1410.94 671.403 1414.65 665.032C1418.42 658.662 1420.31 650.312 1420.31 639.983C1420.31 629.284 1417.93 619.202 1413.16 609.739C1408.4 600.276 1401.51 595.545 1392.48 595.545ZM1444.85 674.402C1449.24 673.846 1452.3 672.763 1454.03 671.155C1455.83 669.485 1456.72 665.805 1456.72 660.115V613.079C1456.72 609.121 1456.35 606.338 1455.61 604.729C1454.44 602.379 1452.02 601.204 1448.37 601.204C1447.82 601.204 1447.23 601.235 1446.61 601.297C1446.05 601.359 1445.34 601.451 1444.48 601.575V598.328C1447.01 597.586 1453.01 595.669 1462.48 592.576L1471.2 589.7C1471.63 589.7 1471.88 589.855 1471.94 590.164C1472.06 590.473 1472.12 590.906 1472.12 591.463V605.101C1477.81 599.782 1482.27 596.132 1485.48 594.153C1490.31 591.123 1495.32 589.607 1500.51 589.607C1504.72 589.607 1508.55 590.813 1512.02 593.226C1518.7 597.926 1522.04 606.307 1522.04 618.367V661.692C1522.04 666.146 1522.93 669.362 1524.73 671.341C1526.52 673.32 1529.52 674.34 1533.73 674.402V677H1494.11V674.402C1498.63 673.784 1501.78 672.547 1503.57 670.691C1505.37 668.774 1506.26 664.661 1506.26 658.353V618.738C1506.26 613.419 1505.28 609.028 1503.3 605.564C1501.32 602.039 1497.67 600.276 1492.35 600.276C1488.7 600.276 1484.99 601.513 1481.22 603.987C1479.11 605.41 1476.39 607.76 1473.05 611.038V662.991C1473.05 667.444 1474.04 670.444 1476.02 671.99C1478 673.475 1481.12 674.279 1485.39 674.402V677H1444.85V674.402ZM1544.35 647.776H1547.41C1548.83 654.827 1550.75 660.239 1553.16 664.012C1557.49 670.939 1563.83 674.402 1572.18 674.402C1576.82 674.402 1580.47 673.134 1583.13 670.599C1585.85 668.001 1587.21 664.661 1587.21 660.579C1587.21 657.981 1586.44 655.477 1584.89 653.064C1583.35 650.652 1580.62 648.302 1576.73 646.014L1566.34 640.076C1558.73 635.994 1553.13 631.881 1549.55 627.737C1545.96 623.593 1544.16 618.707 1544.16 613.079C1544.16 606.152 1546.64 600.462 1551.59 596.009C1556.53 591.556 1562.75 589.329 1570.23 589.329C1573.51 589.329 1577.1 589.948 1581 591.185C1584.95 592.422 1587.18 593.04 1587.68 593.04C1588.79 593.04 1589.59 592.885 1590.09 592.576C1590.58 592.267 1591.02 591.772 1591.39 591.092H1593.61L1594.26 616.976H1591.39C1590.15 610.976 1588.48 606.307 1586.38 602.967C1582.54 596.782 1577.01 593.689 1569.77 593.689C1565.44 593.689 1562.04 595.019 1559.57 597.679C1557.09 600.338 1555.85 603.462 1555.85 607.049C1555.85 612.739 1560.12 617.811 1568.66 622.264L1580.9 628.851C1594.08 636.025 1600.66 644.375 1600.66 653.899C1600.66 661.198 1597.91 667.166 1592.41 671.805C1586.96 676.443 1579.82 678.763 1570.98 678.763C1567.27 678.763 1563.06 678.144 1558.36 676.907C1553.66 675.67 1550.88 675.052 1550.01 675.052C1549.27 675.052 1548.62 675.33 1548.06 675.887C1547.5 676.382 1547.07 677 1546.76 677.742H1544.35V647.776ZM1653.22 675.052C1653.22 681.299 1650.96 687.112 1646.45 692.493C1641.93 697.874 1637.08 701.74 1631.88 704.09L1630.12 700.379C1636.06 697.039 1640.14 693.421 1642.37 689.524C1644.66 685.628 1645.8 682.381 1645.8 679.783C1645.8 678.917 1645.52 678.361 1644.96 678.113C1644.41 677.866 1643.82 677.742 1643.2 677.742L1636.99 678.392C1634.39 678.392 1632.01 677.557 1629.84 675.887C1627.68 674.155 1626.6 671.681 1626.6 668.465C1626.6 665.991 1627.49 663.579 1629.29 661.229C1631.08 658.878 1634.02 657.703 1638.1 657.703C1642 657.703 1645.49 659.249 1648.58 662.342C1651.68 665.372 1653.22 669.609 1653.22 675.052ZM168.858 844.567C175.847 843.825 180.362 842.588 182.403 840.856C184.506 839.063 185.557 834.579 185.557 827.404V742.888C185.557 736.146 184.536 731.755 182.495 729.714C180.454 727.611 175.909 726.312 168.858 725.817V722.292H222.574V725.817C215.585 726.188 210.884 727.333 208.472 729.25C206.122 731.167 204.947 735.28 204.947 741.589V832.878C204.947 834.981 205.287 836.651 205.967 837.888C206.709 839.063 208.286 839.805 210.699 840.114C212.121 840.3 213.606 840.424 215.152 840.485C216.76 840.547 219.729 840.578 224.058 840.578C240.943 840.578 252.354 839.187 258.291 836.403C264.229 833.62 269.981 826.507 275.547 815.065H280.371L271.094 848H168.858V844.567ZM285.801 804.953C285.801 792.645 289.697 782.255 297.49 773.781C305.345 765.246 315.426 760.979 327.734 760.979C339.98 760.979 350.123 764.999 358.164 773.039C366.204 781.079 370.224 791.779 370.224 805.139C370.224 817.447 366.328 828.146 358.535 837.238C350.742 846.33 340.661 850.876 328.291 850.876C316.416 850.876 306.365 846.516 298.139 837.795C289.914 829.074 285.801 818.127 285.801 804.953ZM325.137 766.545C320.25 766.545 316.014 768.153 312.427 771.369C306.242 776.997 303.149 786.708 303.149 800.5C303.149 811.509 305.623 821.776 310.571 831.301C315.581 840.826 322.508 845.588 331.352 845.588C338.279 845.588 343.598 842.403 347.309 836.032C351.082 829.662 352.969 821.312 352.969 810.983C352.969 800.284 350.587 790.202 345.825 780.739C341.063 771.276 334.166 766.545 325.137 766.545ZM377.509 845.402C381.9 844.846 384.962 843.763 386.694 842.155C388.487 840.485 389.384 836.805 389.384 831.115V784.079C389.384 780.121 389.013 777.338 388.271 775.729C387.096 773.379 384.683 772.204 381.034 772.204C380.478 772.204 379.89 772.235 379.272 772.297C378.715 772.359 378.004 772.451 377.138 772.575V769.328C379.674 768.586 385.673 766.669 395.136 763.576L403.857 760.7C404.29 760.7 404.537 760.855 404.599 761.164C404.723 761.473 404.784 761.906 404.784 762.463V776.101C410.474 770.782 414.928 767.132 418.144 765.153C422.968 762.123 427.978 760.607 433.173 760.607C437.379 760.607 441.213 761.813 444.677 764.226C451.357 768.926 454.696 777.307 454.696 789.367V832.692C454.696 837.146 455.593 840.362 457.387 842.341C459.181 844.32 462.18 845.34 466.386 845.402V848H426.772V845.402C431.287 844.784 434.441 843.547 436.235 841.691C438.028 839.774 438.925 835.661 438.925 829.353V789.738C438.925 784.419 437.935 780.028 435.956 776.564C433.977 773.039 430.328 771.276 425.009 771.276C421.36 771.276 417.649 772.513 413.876 774.987C411.773 776.41 409.052 778.76 405.712 782.038V833.991C405.712 838.444 406.702 841.444 408.681 842.99C410.66 844.475 413.783 845.279 418.051 845.402V848H377.509V845.402ZM485.824 865.163C485.824 870.358 488.731 873.946 494.544 875.925C500.42 877.904 507.131 878.894 514.676 878.894C524.943 878.894 533.293 877.1 539.725 873.513C546.157 869.987 549.374 865.627 549.374 860.432C549.374 856.288 546.776 853.535 541.581 852.175C538.364 851.371 532.272 850.907 523.304 850.783C521.016 850.721 518.604 850.629 516.068 850.505C513.532 850.443 511.213 850.35 509.11 850.227C507.749 850.165 505.554 849.917 502.523 849.484C499.492 849.051 497.235 848.68 495.751 848.371C495.008 848.371 493.184 850.319 490.277 854.216C487.308 858.174 485.824 861.823 485.824 865.163ZM497.884 816.828C492.256 814.973 487.865 811.664 484.711 806.901C481.618 802.139 480.072 796.789 480.072 790.852C480.072 783.615 482.948 776.75 488.7 770.256C494.452 763.762 502.585 760.515 513.099 760.515C517.614 760.515 522.593 761.597 528.036 763.762C533.478 765.865 538.705 766.916 543.714 766.916C545.013 766.916 546.961 766.885 549.559 766.823C552.219 766.7 554.136 766.638 555.311 766.638H556.424V774.152H540.375C541.488 776.75 542.354 779.007 542.972 780.925C544.024 784.512 544.549 787.914 544.549 791.13C544.549 798.181 541.612 804.675 535.736 810.612C529.922 816.488 522.067 819.426 512.171 819.426C510.625 819.426 507.842 819.147 503.822 818.591C502.028 818.591 499.647 820.106 496.678 823.137C493.771 826.167 492.318 828.641 492.318 830.559C492.318 832.538 494.483 833.991 498.812 834.919C501.657 835.537 504.811 835.847 508.275 835.847C524.17 835.847 534.963 836.743 540.653 838.537C549.992 841.444 554.662 847.691 554.662 857.277C554.662 867.049 549.188 874.842 538.241 880.656C527.355 886.47 516.346 889.377 505.213 889.377C495.07 889.377 487.03 887.305 481.092 883.161C475.155 879.079 472.186 874.781 472.186 870.266C472.186 868.039 472.959 865.843 474.505 863.679C476.114 861.576 479.237 858.422 483.876 854.216L489.999 848.742L491.112 847.629C488.267 846.516 486.133 845.433 484.711 844.382C482.237 842.465 481 840.269 481 837.795C481 835.507 482.051 833.002 484.154 830.28C486.319 827.497 490.895 823.013 497.884 816.828ZM515.511 814.973C518.913 814.973 521.758 814.045 524.046 812.189C527.757 809.221 529.613 804.056 529.613 796.696C529.613 790.821 528.098 784.203 525.067 776.843C522.098 769.483 517.119 765.803 510.13 765.803C504.069 765.803 499.894 768.679 497.606 774.431C496.431 777.461 495.843 781.203 495.843 785.656C495.843 793.202 497.668 799.974 501.317 805.974C504.966 811.973 509.697 814.973 515.511 814.973ZM567.698 799.201H614.363V811.076H567.698V799.201ZM669.983 762.463V769.143H651.057L650.871 822.58C650.871 827.281 651.273 830.837 652.078 833.249C653.562 837.517 656.469 839.65 660.798 839.65C663.025 839.65 664.942 839.125 666.55 838.073C668.22 837.022 670.106 835.352 672.209 833.063L674.621 835.104L672.58 837.888C669.364 842.217 665.963 845.279 662.375 847.072C658.788 848.866 655.325 849.763 651.985 849.763C644.687 849.763 639.739 846.516 637.141 840.021C635.718 836.496 635.007 831.61 635.007 825.363V769.143H624.895C624.586 768.957 624.338 768.771 624.153 768.586C624.029 768.4 623.967 768.153 623.967 767.844C623.967 767.225 624.091 766.761 624.338 766.452C624.648 766.081 625.544 765.277 627.029 764.04C631.296 760.515 634.358 757.67 636.213 755.505C638.131 753.278 642.584 747.465 649.573 738.063C650.377 738.063 650.841 738.125 650.964 738.249C651.15 738.373 651.243 738.837 651.243 739.641V762.463H669.983ZM716.139 760.979C724.86 760.979 732.498 764.009 739.054 770.07C745.61 776.07 748.888 784.605 748.888 795.676H689.977C690.596 810.025 693.843 820.477 699.719 827.033C705.594 833.589 712.552 836.867 720.593 836.867C727.087 836.867 732.56 835.166 737.013 831.765C741.467 828.363 745.58 823.539 749.352 817.292L752.599 818.405C750.064 826.26 745.301 833.527 738.312 840.207C731.385 846.887 722.881 850.227 712.8 850.227C701.172 850.227 692.173 845.835 685.802 837.053C679.494 828.27 676.34 818.158 676.34 806.716C676.34 794.284 680.02 783.553 687.38 774.523C694.74 765.493 704.326 760.979 716.139 760.979ZM710.759 767.751C703.708 767.751 698.327 770.874 694.616 777.121C692.637 780.461 691.214 784.667 690.348 789.738H729.499C728.818 783.553 727.643 778.946 725.973 775.915C722.943 770.472 717.871 767.751 710.759 767.751ZM755.987 844.938C761.678 844.444 765.45 843.454 767.306 841.97C769.161 840.424 770.089 837.176 770.089 832.229V790.388C770.089 784.265 769.501 779.904 768.326 777.307C767.213 774.647 765.141 773.317 762.111 773.317C761.492 773.317 760.657 773.41 759.606 773.596C758.616 773.719 757.565 773.905 756.451 774.152V771.091C759.977 769.854 763.595 768.586 767.306 767.287C771.017 765.988 773.584 765.061 775.006 764.504C778.098 763.329 781.284 761.999 784.562 760.515C784.995 760.515 785.242 760.669 785.304 760.979C785.428 761.288 785.489 761.937 785.489 762.927V778.142C789.448 772.637 793.251 768.339 796.901 765.246C800.612 762.154 804.446 760.607 808.404 760.607C811.559 760.607 814.126 761.566 816.105 763.483C818.084 765.339 819.073 767.689 819.073 770.534C819.073 773.07 818.3 775.204 816.754 776.936C815.27 778.667 813.383 779.533 811.095 779.533C808.745 779.533 806.363 778.451 803.951 776.286C801.601 774.121 799.746 773.039 798.385 773.039C796.22 773.039 793.561 774.802 790.406 778.327C787.252 781.791 785.675 785.378 785.675 789.089V830.93C785.675 836.249 786.912 839.96 789.386 842.062C791.86 844.104 795.973 845.062 801.725 844.938V848H755.987V844.938ZM819.586 845.588C824.41 845.155 827.626 844.351 829.234 843.176C831.708 841.382 832.945 837.795 832.945 832.414V784.45C832.945 779.873 832.326 776.874 831.089 775.451C829.914 774.029 827.935 773.317 825.152 773.317C823.853 773.317 822.864 773.379 822.183 773.503C821.565 773.627 820.822 773.843 819.957 774.152V770.905L826.636 768.679C829.048 767.875 833.007 766.421 838.511 764.318C844.016 762.215 846.923 761.164 847.232 761.164C847.541 761.164 847.727 761.319 847.789 761.628C847.85 761.937 847.881 762.525 847.881 763.391V775.915C854.004 770.349 859.293 766.514 863.746 764.411C868.199 762.246 872.776 761.164 877.476 761.164C883.847 761.164 888.918 763.329 892.691 767.658C894.67 770.008 896.309 773.194 897.608 777.214C902.185 772.575 906.174 769.143 909.576 766.916C915.451 763.081 921.451 761.164 927.574 761.164C937.531 761.164 944.18 765.215 947.52 773.317C949.437 777.894 950.396 785.131 950.396 795.026V833.527C950.396 837.919 951.355 840.918 953.272 842.526C955.251 844.073 958.777 845.093 963.848 845.588V848H922.007V845.402C927.388 844.908 930.914 843.825 932.584 842.155C934.315 840.485 935.181 837.084 935.181 831.95V791.965C935.181 785.965 934.532 781.543 933.233 778.698C930.945 773.627 926.461 771.091 919.781 771.091C915.761 771.091 911.771 772.421 907.813 775.08C905.525 776.626 902.711 779.1 899.371 782.502V830.002C899.371 835.012 900.237 838.815 901.968 841.413C903.762 844.011 907.504 845.402 913.194 845.588V848H870.611V845.588C876.487 844.846 880.228 843.423 881.836 841.32C883.445 839.217 884.249 834.053 884.249 825.827V799.851C884.249 790.326 883.63 783.77 882.393 780.183C880.352 774.121 876.023 771.091 869.405 771.091C865.632 771.091 861.921 772.142 858.272 774.245C854.623 776.286 851.407 778.977 848.624 782.316V833.063C848.624 837.764 849.428 841.011 851.036 842.805C852.706 844.598 856.293 845.526 861.797 845.588V848H819.586V845.588ZM1062.56 796.604C1055.45 798.954 1049.57 801.551 1044.94 804.396C1036.03 809.901 1031.58 816.148 1031.58 823.137C1031.58 828.765 1033.43 832.909 1037.14 835.568C1039.56 837.3 1042.25 838.166 1045.21 838.166C1049.3 838.166 1053.19 837.022 1056.9 834.733C1060.68 832.445 1062.56 829.538 1062.56 826.013V796.604ZM1015.06 829.538C1015.06 820.57 1019.55 813.086 1028.52 807.087C1034.21 803.376 1045.55 798.335 1062.56 791.965V784.079C1062.56 777.771 1061.94 773.379 1060.71 770.905C1058.6 766.761 1054.24 764.689 1047.63 764.689C1044.47 764.689 1041.47 765.493 1038.63 767.102C1035.78 768.771 1034.36 771.06 1034.36 773.967C1034.36 774.709 1034.51 775.977 1034.82 777.771C1035.13 779.502 1035.29 780.616 1035.29 781.11C1035.29 784.574 1034.14 786.986 1031.85 788.347C1030.56 789.151 1029.01 789.553 1027.22 789.553C1024.43 789.553 1022.3 788.656 1020.81 786.862C1019.33 785.007 1018.59 782.966 1018.59 780.739C1018.59 776.41 1021.25 771.895 1026.57 767.194C1031.95 762.432 1039.8 760.051 1050.13 760.051C1062.13 760.051 1070.26 763.947 1074.53 771.74C1076.82 776.008 1077.96 782.224 1077.96 790.388V827.59C1077.96 831.177 1078.21 833.651 1078.71 835.012C1079.51 837.424 1081.18 838.63 1083.72 838.63C1085.14 838.63 1086.31 838.413 1087.24 837.98C1088.17 837.548 1089.78 836.496 1092.06 834.826V839.65C1090.09 842.062 1087.95 844.042 1085.66 845.588C1082.2 847.938 1078.67 849.113 1075.09 849.113C1070.88 849.113 1067.82 847.753 1065.9 845.031C1064.05 842.31 1063.03 839.063 1062.84 835.29C1058.14 839.372 1054.12 842.403 1050.78 844.382C1045.15 847.722 1039.8 849.392 1034.73 849.392C1029.41 849.392 1024.8 847.536 1020.91 843.825C1017.01 840.052 1015.06 835.29 1015.06 829.538ZM1094.53 845.402C1100.28 844.846 1104.17 843.701 1106.21 841.97C1108.26 840.176 1109.28 836.713 1109.28 831.579V740.939C1109.28 736.857 1108.94 734.043 1108.26 732.497C1107.02 729.899 1104.51 728.601 1100.74 728.601C1099.88 728.601 1098.92 728.693 1097.86 728.879C1096.88 729.064 1095.61 729.343 1094.06 729.714V726.652C1102.41 724.426 1112.46 721.457 1124.21 717.746C1124.65 717.746 1124.89 717.932 1124.95 718.303C1125.08 718.674 1125.14 719.478 1125.14 720.715V831.95C1125.14 837.331 1126.07 840.826 1127.92 842.434C1129.78 843.98 1133.61 844.969 1139.43 845.402V848H1094.53V845.402ZM1157.2 728.229C1157.2 725.57 1158.12 723.282 1159.98 721.364C1161.83 719.447 1164.12 718.488 1166.84 718.488C1169.5 718.488 1171.76 719.447 1173.62 721.364C1175.53 723.22 1176.49 725.508 1176.49 728.229C1176.49 730.889 1175.53 733.177 1173.62 735.095C1171.76 736.95 1169.5 737.878 1166.84 737.878C1164.12 737.878 1161.83 736.95 1159.98 735.095C1158.12 733.177 1157.2 730.889 1157.2 728.229ZM1145.32 845.402C1151.94 844.784 1156.11 843.671 1157.84 842.062C1159.58 840.393 1160.44 835.939 1160.44 828.703V784.45C1160.44 780.43 1160.16 777.647 1159.61 776.101C1158.68 773.565 1156.73 772.297 1153.76 772.297C1153.08 772.297 1152.4 772.359 1151.72 772.482C1151.1 772.606 1149.25 773.101 1146.16 773.967V771.091L1150.14 769.792C1160.97 766.267 1168.51 763.607 1172.78 761.813C1174.51 761.071 1175.63 760.7 1176.12 760.7C1176.25 761.133 1176.31 761.597 1176.31 762.092V828.703C1176.31 835.754 1177.14 840.176 1178.81 841.97C1180.54 843.763 1184.41 844.908 1190.41 845.402V848H1145.32V845.402ZM1211.24 865.163C1211.24 870.358 1214.14 873.946 1219.96 875.925C1225.83 877.904 1232.54 878.894 1240.09 878.894C1250.36 878.894 1258.71 877.1 1265.14 873.513C1271.57 869.987 1274.79 865.627 1274.79 860.432C1274.79 856.288 1272.19 853.535 1266.99 852.175C1263.78 851.371 1257.69 850.907 1248.72 850.783C1246.43 850.721 1244.02 850.629 1241.48 850.505C1238.95 850.443 1236.63 850.35 1234.52 850.227C1233.16 850.165 1230.97 849.917 1227.94 849.484C1224.91 849.051 1222.65 848.68 1221.16 848.371C1220.42 848.371 1218.6 850.319 1215.69 854.216C1212.72 858.174 1211.24 861.823 1211.24 865.163ZM1223.3 816.828C1217.67 814.973 1213.28 811.664 1210.12 806.901C1207.03 802.139 1205.49 796.789 1205.49 790.852C1205.49 783.615 1208.36 776.75 1214.11 770.256C1219.87 763.762 1228 760.515 1238.51 760.515C1243.03 760.515 1248.01 761.597 1253.45 763.762C1258.89 765.865 1264.12 766.916 1269.13 766.916C1270.43 766.916 1272.38 766.885 1274.97 766.823C1277.63 766.7 1279.55 766.638 1280.73 766.638H1281.84V774.152H1265.79C1266.9 776.75 1267.77 779.007 1268.39 780.925C1269.44 784.512 1269.96 787.914 1269.96 791.13C1269.96 798.181 1267.03 804.675 1261.15 810.612C1255.34 816.488 1247.48 819.426 1237.59 819.426C1236.04 819.426 1233.26 819.147 1229.24 818.591C1227.44 818.591 1225.06 820.106 1222.09 823.137C1219.19 826.167 1217.73 828.641 1217.73 830.559C1217.73 832.538 1219.9 833.991 1224.23 834.919C1227.07 835.537 1230.23 835.847 1233.69 835.847C1249.58 835.847 1260.38 836.743 1266.07 838.537C1275.41 841.444 1280.08 847.691 1280.08 857.277C1280.08 867.049 1274.6 874.842 1263.65 880.656C1252.77 886.47 1241.76 889.377 1230.63 889.377C1220.48 889.377 1212.44 887.305 1206.51 883.161C1200.57 879.079 1197.6 874.781 1197.6 870.266C1197.6 868.039 1198.37 865.843 1199.92 863.679C1201.53 861.576 1204.65 858.422 1209.29 854.216L1215.41 848.742L1216.53 847.629C1213.68 846.516 1211.55 845.433 1210.12 844.382C1207.65 842.465 1206.41 840.269 1206.41 837.795C1206.41 835.507 1207.47 833.002 1209.57 830.28C1211.73 827.497 1216.31 823.013 1223.3 816.828ZM1240.93 814.973C1244.33 814.973 1247.17 814.045 1249.46 812.189C1253.17 809.221 1255.03 804.056 1255.03 796.696C1255.03 790.821 1253.51 784.203 1250.48 776.843C1247.51 769.483 1242.53 765.803 1235.54 765.803C1229.48 765.803 1225.31 768.679 1223.02 774.431C1221.85 777.461 1221.26 781.203 1221.26 785.656C1221.26 793.202 1223.08 799.974 1226.73 805.974C1230.38 811.973 1235.11 814.973 1240.93 814.973ZM1289.12 845.402C1293.51 844.846 1296.58 843.763 1298.31 842.155C1300.1 840.485 1301 836.805 1301 831.115V784.079C1301 780.121 1300.63 777.338 1299.88 775.729C1298.71 773.379 1296.3 772.204 1292.65 772.204C1292.09 772.204 1291.5 772.235 1290.89 772.297C1290.33 772.359 1289.62 772.451 1288.75 772.575V769.328C1291.29 768.586 1297.29 766.669 1306.75 763.576L1315.47 760.7C1315.9 760.7 1316.15 760.855 1316.21 761.164C1316.34 761.473 1316.4 761.906 1316.4 762.463V776.101C1322.09 770.782 1326.54 767.132 1329.76 765.153C1334.58 762.123 1339.59 760.607 1344.79 760.607C1348.99 760.607 1352.83 761.813 1356.29 764.226C1362.97 768.926 1366.31 777.307 1366.31 789.367V832.692C1366.31 837.146 1367.21 840.362 1369 842.341C1370.79 844.32 1373.79 845.34 1378 845.402V848H1338.39V845.402C1342.9 844.784 1346.06 843.547 1347.85 841.691C1349.64 839.774 1350.54 835.661 1350.54 829.353V789.738C1350.54 784.419 1349.55 780.028 1347.57 776.564C1345.59 773.039 1341.94 771.276 1336.62 771.276C1332.97 771.276 1329.26 772.513 1325.49 774.987C1323.39 776.41 1320.67 778.76 1317.33 782.038V833.991C1317.33 838.444 1318.32 841.444 1320.29 842.99C1322.27 844.475 1325.4 845.279 1329.67 845.402V848H1289.12V845.402ZM1381.85 845.588C1386.68 845.155 1389.89 844.351 1391.5 843.176C1393.97 841.382 1395.21 837.795 1395.21 832.414V784.45C1395.21 779.873 1394.59 776.874 1393.36 775.451C1392.18 774.029 1390.2 773.317 1387.42 773.317C1386.12 773.317 1385.13 773.379 1384.45 773.503C1383.83 773.627 1383.09 773.843 1382.22 774.152V770.905L1388.9 768.679C1391.31 767.875 1395.27 766.421 1400.78 764.318C1406.28 762.215 1409.19 761.164 1409.5 761.164C1409.81 761.164 1409.99 761.319 1410.06 761.628C1410.12 761.937 1410.15 762.525 1410.15 763.391V775.915C1416.27 770.349 1421.56 766.514 1426.01 764.411C1430.47 762.246 1435.04 761.164 1439.74 761.164C1446.11 761.164 1451.18 763.329 1454.96 767.658C1456.94 770.008 1458.58 773.194 1459.87 777.214C1464.45 772.575 1468.44 769.143 1471.84 766.916C1477.72 763.081 1483.72 761.164 1489.84 761.164C1499.8 761.164 1506.45 765.215 1509.79 773.317C1511.7 777.894 1512.66 785.131 1512.66 795.026V833.527C1512.66 837.919 1513.62 840.918 1515.54 842.526C1517.52 844.073 1521.04 845.093 1526.11 845.588V848H1484.27V845.402C1489.65 844.908 1493.18 843.825 1494.85 842.155C1496.58 840.485 1497.45 837.084 1497.45 831.95V791.965C1497.45 785.965 1496.8 781.543 1495.5 778.698C1493.21 773.627 1488.73 771.091 1482.05 771.091C1478.03 771.091 1474.04 772.421 1470.08 775.08C1467.79 776.626 1464.98 779.1 1461.64 782.502V830.002C1461.64 835.012 1462.5 838.815 1464.23 841.413C1466.03 844.011 1469.77 845.402 1475.46 845.588V848H1432.88V845.588C1438.75 844.846 1442.49 843.423 1444.1 841.32C1445.71 839.217 1446.52 834.053 1446.52 825.827V799.851C1446.52 790.326 1445.9 783.77 1444.66 780.183C1442.62 774.121 1438.29 771.091 1431.67 771.091C1427.9 771.091 1424.19 772.142 1420.54 774.245C1416.89 776.286 1413.67 778.977 1410.89 782.316V833.063C1410.89 837.764 1411.69 841.011 1413.3 842.805C1414.97 844.598 1418.56 845.526 1424.06 845.588V848H1381.85V845.588ZM1568.28 760.979C1577 760.979 1584.64 764.009 1591.2 770.07C1597.75 776.07 1601.03 784.605 1601.03 795.676H1542.12C1542.74 810.025 1545.99 820.477 1551.86 827.033C1557.74 833.589 1564.69 836.867 1572.74 836.867C1579.23 836.867 1584.7 835.166 1589.16 831.765C1593.61 828.363 1597.72 823.539 1601.49 817.292L1604.74 818.405C1602.21 826.26 1597.44 833.527 1590.45 840.207C1583.53 846.887 1575.02 850.227 1564.94 850.227C1553.31 850.227 1544.32 845.835 1537.95 837.053C1531.64 828.27 1528.48 818.158 1528.48 806.716C1528.48 794.284 1532.16 783.553 1539.52 774.523C1546.88 765.493 1556.47 760.979 1568.28 760.979ZM1562.9 767.751C1555.85 767.751 1550.47 770.874 1546.76 777.121C1544.78 780.461 1543.36 784.667 1542.49 789.738H1581.64C1580.96 783.553 1579.79 778.946 1578.12 775.915C1575.09 770.472 1570.01 767.751 1562.9 767.751ZM1610.73 845.402C1615.12 844.846 1618.18 843.763 1619.91 842.155C1621.71 840.485 1622.6 836.805 1622.6 831.115V784.079C1622.6 780.121 1622.23 777.338 1621.49 775.729C1620.31 773.379 1617.9 772.204 1614.25 772.204C1613.7 772.204 1613.11 772.235 1612.49 772.297C1611.93 772.359 1611.22 772.451 1610.36 772.575V769.328C1612.89 768.586 1618.89 766.669 1628.35 763.576L1637.08 760.7C1637.51 760.7 1637.76 760.855 1637.82 761.164C1637.94 761.473 1638 761.906 1638 762.463V776.101C1643.69 770.782 1648.15 767.132 1651.36 765.153C1656.19 762.123 1661.2 760.607 1666.39 760.607C1670.6 760.607 1674.43 761.813 1677.9 764.226C1684.58 768.926 1687.92 777.307 1687.92 789.367V832.692C1687.92 837.146 1688.81 840.362 1690.61 842.341C1692.4 844.32 1695.4 845.34 1699.6 845.402V848H1659.99V845.402C1664.51 844.784 1667.66 843.547 1669.45 841.691C1671.25 839.774 1672.14 835.661 1672.14 829.353V789.738C1672.14 784.419 1671.15 780.028 1669.17 776.564C1667.2 773.039 1663.55 771.276 1658.23 771.276C1654.58 771.276 1650.87 772.513 1647.09 774.987C1644.99 776.41 1642.27 778.76 1638.93 782.038V833.991C1638.93 838.444 1639.92 841.444 1641.9 842.99C1643.88 844.475 1647 845.279 1651.27 845.402V848H1610.73V845.402ZM1748.73 762.463V769.143H1729.8L1729.62 822.58C1729.62 827.281 1730.02 830.837 1730.82 833.249C1732.31 837.517 1735.22 839.65 1739.55 839.65C1741.77 839.65 1743.69 839.125 1745.3 838.073C1746.97 837.022 1748.85 835.352 1750.96 833.063L1753.37 835.104L1751.33 837.888C1748.11 842.217 1744.71 845.279 1741.12 847.072C1737.54 848.866 1734.07 849.763 1730.73 849.763C1723.43 849.763 1718.49 846.516 1715.89 840.021C1714.47 836.496 1713.75 831.61 1713.75 825.363V769.143H1703.64C1703.33 768.957 1703.09 768.771 1702.9 768.586C1702.78 768.4 1702.71 768.153 1702.71 767.844C1702.71 767.225 1702.84 766.761 1703.09 766.452C1703.39 766.081 1704.29 765.277 1705.78 764.04C1710.04 760.515 1713.11 757.67 1714.96 755.505C1716.88 753.278 1721.33 747.465 1728.32 738.063C1729.12 738.063 1729.59 738.125 1729.71 738.249C1729.9 738.373 1729.99 738.837 1729.99 739.641V762.463H1748.73Z" fill="black"/>
</svg>
