<svg width="1920" height="1080" viewBox="0 0 1920 1080" fill="none" xmlns="http://www.w3.org/2000/svg">
<rect width="1920" height="1080" fill="#F5F5F5"/>
<path d="M479.406 288.31C461.08 288.31 447.99 281.072 441.984 267.828C438.904 260.898 437.672 253.198 437.672 238.876V174.196H452.764V238.568C452.764 253.968 454.458 261.514 459.078 267.366C463.698 273.064 470.782 276.452 479.406 276.452C487.876 276.452 496.038 272.756 500.042 267.366C504.508 261.514 506.356 253.044 506.356 238.568V174.196H521.448V238.876C521.448 255.046 519.754 263.824 514.98 271.37C508.358 281.842 495.73 288.31 479.406 288.31ZM542.741 286V206.536H555.831V216.7C563.069 207.152 573.079 204.842 581.087 204.842C594.793 204.842 602.801 210.078 606.343 219.01C608.499 224.4 609.115 230.868 609.115 238.414V286H594.947V241.186C594.947 228.866 593.253 216.084 578.007 216.084C564.763 216.084 556.909 225.324 556.909 244.42V286H542.741ZM629.781 316.954V206.536H643.333V217.316C648.723 209.308 657.039 204.842 668.743 204.842C689.995 204.842 702.007 222.09 702.007 246.268C702.007 272.294 687.685 287.694 668.127 287.694C657.347 287.694 648.877 284.614 643.949 277.068V316.954H629.781ZM665.971 276.452C679.061 276.452 687.531 265.21 687.531 246.268C687.531 227.326 679.061 216.084 665.971 216.084C652.573 216.084 643.641 228.404 643.641 246.268C643.641 264.286 652.573 276.452 665.971 276.452ZM718.325 286V206.536H731.723V218.24C737.883 208.692 745.275 205.612 754.053 205.612C756.979 205.612 760.059 205.92 762.985 206.536V219.01C759.443 218.394 756.363 217.932 753.591 217.932C736.497 217.932 732.493 230.252 732.493 249.502V286H718.325ZM804.92 288.31C780.588 288.31 767.19 272.448 767.19 246.268C767.19 222.244 781.82 204.226 805.228 204.226C830.022 204.226 841.264 221.32 841.264 250.734H781.974C782.744 266.442 792.446 277.068 805.382 277.068C815.546 277.068 823.246 272.448 826.172 262.284H841.11C837.722 279.378 823.092 288.31 804.92 288.31ZM782.282 239.184H826.172C824.632 223.168 816.008 215.622 804.612 215.622C792.6 215.622 784.284 223.168 782.282 239.184ZM889.239 288.31C865.215 288.31 852.125 271.37 852.125 246.268C852.125 222.244 865.677 204.226 889.547 204.226C908.643 204.226 920.501 214.698 922.965 232.562H908.181C906.487 221.32 900.019 215.622 889.393 215.622C874.763 215.622 866.909 227.942 866.909 246.268C866.909 264.748 875.071 277.068 889.393 277.068C899.711 277.068 906.795 271.37 909.259 259.358H923.119C919.731 278.762 908.643 288.31 889.239 288.31ZM970.127 288.31C945.795 288.31 932.397 272.448 932.397 246.268C932.397 222.244 947.027 204.226 970.435 204.226C995.229 204.226 1006.47 221.32 1006.47 250.734H947.181C947.951 266.442 957.653 277.068 970.589 277.068C980.753 277.068 988.453 272.448 991.379 262.284H1006.32C1002.93 279.378 988.299 288.31 970.127 288.31ZM947.489 239.184H991.379C989.839 223.168 981.215 215.622 969.819 215.622C957.807 215.622 949.491 223.168 947.489 239.184ZM1051.52 287.694C1030.58 287.694 1017.49 272.756 1017.49 246.268C1017.49 222.552 1030.88 204.842 1051.52 204.842C1062.3 204.842 1070.31 207.768 1075.54 215.776V174.196H1089.71V286H1076.16V275.528C1070.77 283.536 1062.3 287.694 1051.52 287.694ZM1053.52 276.452C1066.92 276.452 1075.85 264.748 1075.85 246.268C1075.85 227.326 1066.92 216.084 1053.52 216.084C1040.43 216.084 1032.12 227.326 1032.12 246.268C1032.12 264.748 1040.43 276.452 1053.52 276.452ZM1143.61 288.31C1119.27 288.31 1105.88 272.448 1105.88 246.268C1105.88 222.244 1120.51 204.226 1143.91 204.226C1168.71 204.226 1179.95 221.32 1179.95 250.734H1120.66C1121.43 266.442 1131.13 277.068 1144.07 277.068C1154.23 277.068 1161.93 272.448 1164.86 262.284H1179.8C1176.41 279.378 1161.78 288.31 1143.61 288.31ZM1120.97 239.184H1164.86C1163.32 223.168 1154.69 215.622 1143.3 215.622C1131.29 215.622 1122.97 223.168 1120.97 239.184ZM1196.2 286V206.536H1209.29V216.7C1216.53 207.152 1226.54 204.842 1234.55 204.842C1248.25 204.842 1256.26 210.078 1259.8 219.01C1261.96 224.4 1262.57 230.868 1262.57 238.414V286H1248.41V241.186C1248.41 228.866 1246.71 216.084 1231.47 216.084C1218.22 216.084 1210.37 225.324 1210.37 244.42V286H1196.2ZM1307.14 287.386C1294.67 287.386 1287.12 281.842 1287.12 264.44V218.24H1272.49V206.536H1287.12V187.286H1301.29V206.536H1318.54V218.24H1301.29V257.818C1301.29 269.06 1301.75 275.374 1310.84 275.374C1312.99 275.374 1315.61 275.374 1318.84 274.604V286C1314.69 286.924 1310.68 287.386 1307.14 287.386ZM1363.52 288.31C1339.19 288.31 1325.79 272.448 1325.79 246.268C1325.79 222.244 1340.42 204.226 1363.83 204.226C1388.62 204.226 1399.86 221.32 1399.86 250.734H1340.57C1341.34 266.442 1351.05 277.068 1363.98 277.068C1374.15 277.068 1381.85 272.448 1384.77 262.284H1399.71C1396.32 279.378 1381.69 288.31 1363.52 288.31ZM1340.88 239.184H1384.77C1383.23 223.168 1374.61 215.622 1363.21 215.622C1351.2 215.622 1342.88 223.168 1340.88 239.184ZM1444.91 287.694C1423.97 287.694 1410.88 272.756 1410.88 246.268C1410.88 222.552 1424.28 204.842 1444.91 204.842C1455.69 204.842 1463.7 207.768 1468.94 215.776V174.196H1483.1V286H1469.55V275.528C1464.16 283.536 1455.69 287.694 1444.91 287.694ZM1446.91 276.452C1460.31 276.452 1469.24 264.748 1469.24 246.268C1469.24 227.326 1460.31 216.084 1446.91 216.084C1433.82 216.084 1425.51 227.326 1425.51 246.268C1425.51 264.748 1433.82 276.452 1446.91 276.452ZM426.769 442.31C400.435 442.31 384.573 428.296 384.573 403.348H399.819C399.819 420.75 409.213 430.298 426.769 430.298C442.477 430.298 451.871 422.752 451.871 411.048C451.871 397.034 437.857 393.184 422.919 389.18C405.363 384.406 386.729 378.708 386.729 356.532C386.729 338.36 403.207 325.886 426.307 325.886C450.639 325.886 465.577 339.13 465.577 361.46H450.793C450.793 345.136 438.473 337.898 425.999 337.898C414.449 337.898 402.591 343.596 402.591 355.608C402.591 369.16 415.373 372.702 430.157 376.86C448.021 381.788 467.887 387.64 467.887 410.124C467.887 429.374 451.255 442.31 426.769 442.31ZM515.942 442.31C491.918 442.31 478.828 425.37 478.828 400.268C478.828 376.244 492.38 358.226 516.25 358.226C535.346 358.226 547.204 368.698 549.668 386.562H534.884C533.19 375.32 526.722 369.622 516.096 369.622C501.466 369.622 493.612 381.942 493.612 400.268C493.612 418.748 501.774 431.068 516.096 431.068C526.414 431.068 533.498 425.37 535.962 413.358H549.822C546.434 432.762 535.346 442.31 515.942 442.31ZM597.293 442.31C573.731 442.31 559.101 425.062 559.101 400.268C559.101 375.628 573.885 358.226 597.447 358.226C621.163 358.226 636.101 375.628 636.101 400.268C636.101 425.062 621.317 442.31 597.293 442.31ZM597.293 431.068C612.231 431.068 621.471 418.748 621.471 400.422C621.471 382.096 612.077 369.622 597.447 369.622C582.971 369.622 573.731 381.788 573.731 400.114C573.731 418.594 582.817 431.068 597.293 431.068ZM652.283 470.954V360.536H665.835V371.316C671.225 363.308 679.541 358.842 691.245 358.842C712.497 358.842 724.509 376.09 724.509 400.268C724.509 426.294 710.187 441.694 690.629 441.694C679.849 441.694 671.379 438.614 666.451 431.068V470.954H652.283ZM688.473 430.452C701.563 430.452 710.033 419.21 710.033 400.268C710.033 381.326 701.563 370.084 688.473 370.084C675.075 370.084 666.143 382.404 666.143 400.268C666.143 418.286 675.075 430.452 688.473 430.452ZM773.167 442.31C748.835 442.31 735.437 426.448 735.437 400.268C735.437 376.244 750.067 358.226 773.475 358.226C798.269 358.226 809.511 375.32 809.511 404.734H750.221C750.991 420.442 760.693 431.068 773.629 431.068C783.793 431.068 791.493 426.448 794.419 416.284H809.357C805.969 433.378 791.339 442.31 773.167 442.31ZM750.529 393.184H794.419C792.879 377.168 784.255 369.622 772.859 369.622C760.847 369.622 752.531 377.168 750.529 393.184ZM877.073 441.694C859.517 441.694 849.507 431.684 849.507 417.67C849.507 391.644 882.771 392.568 902.483 390.258V387.486C902.483 375.628 897.093 368.852 884.927 368.852C873.839 368.852 866.447 374.396 866.447 385.022H852.433C852.433 368.698 865.831 358.226 884.927 358.226C914.957 358.226 916.343 378.246 916.343 394.262V415.976C916.343 425.216 916.805 432.762 918.345 440H905.101C904.639 437.69 904.177 434.61 904.023 429.22C897.247 438.152 888.469 441.694 877.073 441.694ZM880.307 431.376C891.703 431.376 902.483 426.756 902.483 405.658V401.192C890.471 402.732 863.829 401.808 863.829 417.978C863.829 425.678 870.143 431.376 880.307 431.376ZM936.677 440V360.536H949.767V370.7C957.005 361.152 967.015 358.842 975.023 358.842C988.729 358.842 996.737 364.078 1000.28 373.01C1002.44 378.4 1003.05 384.868 1003.05 392.414V440H988.883V395.186C988.883 382.866 987.189 370.084 971.943 370.084C958.699 370.084 950.845 379.324 950.845 398.42V440H936.677ZM1052.52 441.694C1031.57 441.694 1018.48 426.756 1018.48 400.268C1018.48 376.552 1031.88 358.842 1052.52 358.842C1063.3 358.842 1071.3 361.768 1076.54 369.776V328.196H1090.71V440H1077.16V429.528C1071.77 437.536 1063.3 441.694 1052.52 441.694ZM1054.52 430.452C1067.92 430.452 1076.85 418.748 1076.85 400.268C1076.85 381.326 1067.92 370.084 1054.52 370.084C1041.43 370.084 1033.11 381.326 1033.11 400.268C1033.11 418.748 1041.43 430.452 1054.52 430.452ZM1178.51 442.31C1152.18 442.31 1136.32 428.296 1136.32 403.348H1151.56C1151.56 420.75 1160.96 430.298 1178.51 430.298C1194.22 430.298 1203.61 422.752 1203.61 411.048C1203.61 397.034 1189.6 393.184 1174.66 389.18C1157.11 384.406 1138.47 378.708 1138.47 356.532C1138.47 338.36 1154.95 325.886 1178.05 325.886C1202.38 325.886 1217.32 339.13 1217.32 361.46H1202.54C1202.54 345.136 1190.22 337.898 1177.74 337.898C1166.19 337.898 1154.33 343.596 1154.33 355.608C1154.33 369.16 1167.12 372.702 1181.9 376.86C1199.76 381.788 1219.63 387.64 1219.63 410.124C1219.63 429.374 1203 442.31 1178.51 442.31ZM1267.68 442.31C1243.66 442.31 1230.57 425.37 1230.57 400.268C1230.57 376.244 1244.12 358.226 1267.99 358.226C1287.09 358.226 1298.95 368.698 1301.41 386.562H1286.63C1284.93 375.32 1278.46 369.622 1267.84 369.622C1253.21 369.622 1245.35 381.942 1245.35 400.268C1245.35 418.748 1253.52 431.068 1267.84 431.068C1278.16 431.068 1285.24 425.37 1287.7 413.358H1301.56C1298.18 432.762 1287.09 442.31 1267.68 442.31ZM1338.26 441.694C1320.7 441.694 1310.69 431.684 1310.69 417.67C1310.69 391.644 1343.95 392.568 1363.67 390.258V387.486C1363.67 375.628 1358.28 368.852 1346.11 368.852C1335.02 368.852 1327.63 374.396 1327.63 385.022H1313.62C1313.62 368.698 1327.01 358.226 1346.11 358.226C1376.14 358.226 1377.53 378.246 1377.53 394.262V415.976C1377.53 425.216 1377.99 432.762 1379.53 440H1366.28C1365.82 437.69 1365.36 434.61 1365.21 429.22C1358.43 438.152 1349.65 441.694 1338.26 441.694ZM1341.49 431.376C1352.89 431.376 1363.67 426.756 1363.67 405.658V401.192C1351.65 402.732 1325.01 401.808 1325.01 417.978C1325.01 425.678 1331.33 431.376 1341.49 431.376ZM1397.86 440V328.196H1412.03V440H1397.86ZM1465.96 442.31C1441.62 442.31 1428.23 426.448 1428.23 400.268C1428.23 376.244 1442.86 358.226 1466.26 358.226C1491.06 358.226 1502.3 375.32 1502.3 404.734H1443.01C1443.78 420.442 1453.48 431.068 1466.42 431.068C1476.58 431.068 1484.28 426.448 1487.21 416.284H1502.15C1498.76 433.378 1484.13 442.31 1465.96 442.31ZM1443.32 393.184H1487.21C1485.67 377.168 1477.04 369.622 1465.65 369.622C1453.64 369.622 1445.32 377.168 1443.32 393.184ZM1524.56 461.252H1515.32L1522.55 438.614H1515.32V421.674H1533.33V440L1524.56 461.252ZM302.153 594V482.196H335.109C354.821 482.196 378.229 483.582 378.229 511.61C378.229 522.544 371.608 533.17 358.979 536.558V536.866C373.147 540.1 381.155 547.492 381.155 563.2C381.155 590.304 355.591 594 333.877 594H302.153ZM317.245 581.834H334.031C351.125 581.834 365.601 580.14 365.601 562.892C365.601 547.03 355.591 543.488 332.029 543.488H317.245V581.834ZM317.245 531.322H331.259C343.887 531.322 363.137 531.322 363.137 512.996C363.137 495.902 349.739 494.516 332.953 494.516H317.245V531.322ZM398.324 594V482.196H412.492V594H398.324ZM460.877 595.694C447.017 595.694 439.933 589.996 435.775 581.526C433.157 576.136 433.157 568.282 433.157 560.736V514.536H447.171V559.35C447.171 571.516 448.711 584.452 463.957 584.452C477.201 584.452 485.055 575.366 485.055 556.27V514.536H499.069V594H485.979V583.836C478.895 593.384 468.885 595.694 460.877 595.694ZM520.67 594V514.536H534.068V526.24C540.228 516.692 547.62 513.612 556.398 513.612C559.324 513.612 562.404 513.92 565.33 514.536V527.01C561.788 526.394 558.708 525.932 555.936 525.932C538.842 525.932 534.838 538.252 534.838 557.502V594H520.67ZM577.331 594V514.536H590.729V526.24C596.889 516.692 604.281 513.612 613.059 513.612C615.985 513.612 619.065 513.92 621.991 514.536V527.01C618.449 526.394 615.369 525.932 612.597 525.932C595.503 525.932 591.499 538.252 591.499 557.502V594H577.331ZM663.926 596.31C639.594 596.31 626.196 580.448 626.196 554.268C626.196 530.244 640.826 512.226 664.234 512.226C689.028 512.226 700.27 529.32 700.27 558.734H640.98C641.75 574.442 651.452 585.068 664.388 585.068C674.552 585.068 682.252 580.448 685.178 570.284H700.116C696.728 587.378 682.098 596.31 663.926 596.31ZM641.288 547.184H685.178C683.638 531.168 675.014 523.622 663.618 523.622C651.606 523.622 643.29 531.168 641.288 547.184ZM745.319 595.694C724.375 595.694 711.285 580.756 711.285 554.268C711.285 530.552 724.683 512.842 745.319 512.842C756.099 512.842 764.107 515.768 769.343 523.776V482.196H783.511V594H769.959V583.528C764.569 591.536 756.099 595.694 745.319 595.694ZM747.321 584.452C760.719 584.452 769.651 572.748 769.651 554.268C769.651 535.326 760.719 524.084 747.321 524.084C734.231 524.084 725.915 535.326 725.915 554.268C725.915 572.748 734.231 584.452 747.321 584.452ZM872.701 595.694C861.921 595.694 853.451 591.844 847.907 583.836V594H834.355V482.196H848.523V523.93C855.299 515.46 863.461 512.842 873.317 512.842C893.953 512.842 906.581 530.09 906.581 554.268C906.581 579.832 892.259 595.694 872.701 595.694ZM870.545 584.452C883.635 584.452 892.105 573.21 892.105 554.268C892.105 535.326 883.635 524.084 870.545 524.084C857.147 524.084 848.215 536.404 848.215 554.268C848.215 571.054 857.147 584.452 870.545 584.452ZM955.701 596.31C932.139 596.31 917.509 579.062 917.509 554.268C917.509 529.628 932.293 512.226 955.855 512.226C979.571 512.226 994.509 529.628 994.509 554.268C994.509 579.062 979.725 596.31 955.701 596.31ZM955.701 585.068C970.639 585.068 979.879 572.748 979.879 554.422C979.879 536.096 970.485 523.622 955.855 523.622C941.379 523.622 932.139 535.788 932.139 554.114C932.139 572.594 941.225 585.068 955.701 585.068ZM1037.49 595.694C1023.63 595.694 1016.54 589.996 1012.38 581.526C1009.77 576.136 1009.77 568.282 1009.77 560.736V514.536H1023.78V559.35C1023.78 571.516 1025.32 584.452 1040.57 584.452C1053.81 584.452 1061.66 575.366 1061.66 556.27V514.536H1075.68V594H1062.59V583.836C1055.5 593.384 1045.49 595.694 1037.49 595.694ZM1097.28 594V514.536H1110.37V524.7C1117.61 515.152 1127.62 512.842 1135.63 512.842C1149.33 512.842 1157.34 518.078 1160.88 527.01C1163.04 532.4 1163.65 538.868 1163.65 546.414V594H1149.49V549.186C1149.49 536.866 1147.79 524.084 1132.55 524.084C1119.3 524.084 1111.45 533.324 1111.45 552.42V594H1097.28ZM1213.12 595.694C1192.17 595.694 1179.08 580.756 1179.08 554.268C1179.08 530.552 1192.48 512.842 1213.12 512.842C1223.9 512.842 1231.91 515.768 1237.14 523.776V482.196H1251.31V594H1237.76V583.528C1232.37 591.536 1223.9 595.694 1213.12 595.694ZM1215.12 584.452C1228.52 584.452 1237.45 572.748 1237.45 554.268C1237.45 535.326 1228.52 524.084 1215.12 524.084C1202.03 524.084 1193.71 535.326 1193.71 554.268C1193.71 572.748 1202.03 584.452 1215.12 584.452ZM1294.89 595.694C1277.33 595.694 1267.32 585.684 1267.32 571.67C1267.32 545.644 1300.58 546.568 1320.3 544.258V541.486C1320.3 529.628 1314.91 522.852 1302.74 522.852C1291.65 522.852 1284.26 528.396 1284.26 539.022H1270.25C1270.25 522.698 1283.64 512.226 1302.74 512.226C1332.77 512.226 1334.16 532.246 1334.16 548.262V569.976C1334.16 579.216 1334.62 586.762 1336.16 594H1322.91C1322.45 591.69 1321.99 588.61 1321.84 583.22C1315.06 592.152 1306.28 595.694 1294.89 595.694ZM1298.12 585.376C1309.52 585.376 1320.3 580.756 1320.3 559.658V555.192C1308.28 556.732 1281.64 555.808 1281.64 571.978C1281.64 579.678 1287.96 585.376 1298.12 585.376ZM1354.49 594V514.536H1367.89V526.24C1374.05 516.692 1381.44 513.612 1390.22 513.612C1393.14 513.612 1396.22 513.92 1399.15 514.536V527.01C1395.61 526.394 1392.53 525.932 1389.76 525.932C1372.66 525.932 1368.66 538.252 1368.66 557.502V594H1354.49ZM1411.15 594V514.536H1425.32V594H1411.15ZM1411.15 497.596V482.196H1425.32V497.596H1411.15ZM1479.25 596.31C1454.92 596.31 1441.52 580.448 1441.52 554.268C1441.52 530.244 1456.15 512.226 1479.56 512.226C1504.35 512.226 1515.59 529.32 1515.59 558.734H1456.3C1457.07 574.442 1466.77 585.068 1479.71 585.068C1489.87 585.068 1497.57 580.448 1500.5 570.284H1515.44C1512.05 587.378 1497.42 596.31 1479.25 596.31ZM1456.61 547.184H1500.5C1498.96 531.168 1490.34 523.622 1478.94 523.622C1466.93 523.622 1458.61 531.168 1456.61 547.184ZM1560.33 596.31C1538.31 596.31 1525.84 586.146 1525.68 568.436H1540C1540 579.678 1547.55 585.376 1560.64 585.376C1571.42 585.376 1577.58 581.218 1577.58 573.518C1577.58 563.816 1567.88 561.814 1557.1 559.812C1543.24 557.194 1527.53 554.73 1527.53 535.326C1527.53 521.774 1539.85 512.226 1558.64 512.226C1578.66 512.226 1590.21 521.62 1590.36 538.868H1576.35C1576.19 528.396 1570.5 523.314 1558.33 523.314C1548.63 523.314 1542.31 527.626 1542.31 534.402C1542.31 543.334 1551.4 545.336 1561.87 547.338C1576.04 550.11 1592.67 552.882 1592.67 572.594C1592.67 586.916 1578.97 596.31 1560.33 596.31ZM1614.06 615.252H1604.82L1612.06 592.614H1604.82V575.674H1622.84V594L1614.06 615.252ZM276.548 748V636.196H310.428C319.822 636.196 330.756 636.196 340.304 641.124C350.16 646.206 355.242 657.294 355.242 669.922C355.242 683.32 349.236 693.176 340.15 698.566C333.836 702.416 323.364 703.956 309.504 703.956H291.64V748H276.548ZM291.64 691.636H311.044C318.744 691.636 325.674 691.02 329.062 689.326C335.992 685.784 339.688 678.238 339.688 669.922C339.688 661.606 335.992 654.214 329.062 650.672C325.52 648.824 318.744 648.516 311.044 648.516H291.64V691.636ZM368.508 748V668.536H381.906V680.24C388.066 670.692 395.458 667.612 404.236 667.612C407.162 667.612 410.242 667.92 413.168 668.536V681.01C409.626 680.394 406.546 679.932 403.774 679.932C386.68 679.932 382.676 692.252 382.676 711.502V748H368.508ZM455.565 750.31C432.003 750.31 417.373 733.062 417.373 708.268C417.373 683.628 432.157 666.226 455.719 666.226C479.435 666.226 494.373 683.628 494.373 708.268C494.373 733.062 479.589 750.31 455.565 750.31ZM455.565 739.068C470.503 739.068 479.743 726.748 479.743 708.422C479.743 690.096 470.349 677.622 455.719 677.622C441.243 677.622 432.003 689.788 432.003 708.114C432.003 726.594 441.089 739.068 455.565 739.068ZM533.852 749.386C521.378 749.386 513.832 743.842 513.832 726.44V680.24H499.202V668.536H513.832V649.286H528V668.536H545.248V680.24H528V719.818C528 731.06 528.462 737.374 537.548 737.374C539.704 737.374 542.322 737.374 545.556 736.604V748C541.398 748.924 537.394 749.386 533.852 749.386ZM590.694 750.31C567.132 750.31 552.502 733.062 552.502 708.268C552.502 683.628 567.286 666.226 590.848 666.226C614.564 666.226 629.502 683.628 629.502 708.268C629.502 733.062 614.718 750.31 590.694 750.31ZM590.694 739.068C605.632 739.068 614.872 726.748 614.872 708.422C614.872 690.096 605.478 677.622 590.848 677.622C576.372 677.622 567.132 689.788 567.132 708.114C567.132 726.594 576.218 739.068 590.694 739.068ZM677.408 750.31C653.384 750.31 640.294 733.37 640.294 708.268C640.294 684.244 653.846 666.226 677.716 666.226C696.812 666.226 708.67 676.698 711.134 694.562H696.35C694.656 683.32 688.188 677.622 677.562 677.622C662.932 677.622 655.078 689.942 655.078 708.268C655.078 726.748 663.24 739.068 677.562 739.068C687.88 739.068 694.964 733.37 697.428 721.358H711.288C707.9 740.762 696.812 750.31 677.408 750.31ZM758.758 750.31C735.196 750.31 720.566 733.062 720.566 708.268C720.566 683.628 735.35 666.226 758.912 666.226C782.628 666.226 797.566 683.628 797.566 708.268C797.566 733.062 782.782 750.31 758.758 750.31ZM758.758 739.068C773.696 739.068 782.936 726.748 782.936 708.422C782.936 690.096 773.542 677.622 758.912 677.622C744.436 677.622 735.196 689.788 735.196 708.114C735.196 726.594 744.282 739.068 758.758 739.068ZM813.748 748V636.196H827.916V748H813.748ZM847.349 697.95H888.159V710.424H847.349V697.95ZM929.012 749.386C916.538 749.386 908.992 743.842 908.992 726.44V680.24H894.362V668.536H908.992V649.286H923.16V668.536H940.408V680.24H923.16V719.818C923.16 731.06 923.622 737.374 932.708 737.374C934.864 737.374 937.482 737.374 940.716 736.604V748C936.558 748.924 932.554 749.386 929.012 749.386ZM985.854 750.31C962.292 750.31 947.662 733.062 947.662 708.268C947.662 683.628 962.446 666.226 986.008 666.226C1009.72 666.226 1024.66 683.628 1024.66 708.268C1024.66 733.062 1009.88 750.31 985.854 750.31ZM985.854 739.068C1000.79 739.068 1010.03 726.748 1010.03 708.422C1010.03 690.096 1000.64 677.622 986.008 677.622C971.532 677.622 962.292 689.788 962.292 708.114C962.292 726.594 971.378 739.068 985.854 739.068ZM1038.69 697.95H1079.5V710.424H1038.69V697.95ZM1098.86 778.954V668.536H1112.41V679.316C1117.8 671.308 1126.12 666.842 1137.82 666.842C1159.07 666.842 1171.08 684.09 1171.08 708.268C1171.08 734.294 1156.76 749.694 1137.2 749.694C1126.42 749.694 1117.95 746.614 1113.03 739.068V778.954H1098.86ZM1135.05 738.452C1148.14 738.452 1156.61 727.21 1156.61 708.268C1156.61 689.326 1148.14 678.084 1135.05 678.084C1121.65 678.084 1112.72 690.404 1112.72 708.268C1112.72 726.286 1121.65 738.452 1135.05 738.452ZM1187.4 748V668.536H1200.8V680.24C1206.96 670.692 1214.35 667.612 1223.13 667.612C1226.06 667.612 1229.14 667.92 1232.06 668.536V681.01C1228.52 680.394 1225.44 679.932 1222.67 679.932C1205.57 679.932 1201.57 692.252 1201.57 711.502V748H1187.4ZM1274.46 750.31C1250.9 750.31 1236.27 733.062 1236.27 708.268C1236.27 683.628 1251.05 666.226 1274.61 666.226C1298.33 666.226 1313.27 683.628 1313.27 708.268C1313.27 733.062 1298.48 750.31 1274.46 750.31ZM1274.46 739.068C1289.4 739.068 1298.64 726.748 1298.64 708.422C1298.64 690.096 1289.24 677.622 1274.61 677.622C1260.14 677.622 1250.9 689.788 1250.9 708.114C1250.9 726.594 1259.98 739.068 1274.46 739.068ZM1352.75 749.386C1340.27 749.386 1332.73 743.842 1332.73 726.44V680.24H1318.1V668.536H1332.73V649.286H1346.89V668.536H1364.14V680.24H1346.89V719.818C1346.89 731.06 1347.36 737.374 1356.44 737.374C1358.6 737.374 1361.22 737.374 1364.45 736.604V748C1360.29 748.924 1356.29 749.386 1352.75 749.386ZM1409.59 750.31C1386.03 750.31 1371.4 733.062 1371.4 708.268C1371.4 683.628 1386.18 666.226 1409.74 666.226C1433.46 666.226 1448.4 683.628 1448.4 708.268C1448.4 733.062 1433.61 750.31 1409.59 750.31ZM1409.59 739.068C1424.53 739.068 1433.77 726.748 1433.77 708.422C1433.77 690.096 1424.37 677.622 1409.74 677.622C1395.27 677.622 1386.03 689.788 1386.03 708.114C1386.03 726.594 1395.11 739.068 1409.59 739.068ZM1496.3 750.31C1472.28 750.31 1459.19 733.37 1459.19 708.268C1459.19 684.244 1472.74 666.226 1496.61 666.226C1515.71 666.226 1527.56 676.698 1530.03 694.562H1515.24C1513.55 683.32 1507.08 677.622 1496.46 677.622C1481.83 677.622 1473.97 689.942 1473.97 708.268C1473.97 726.748 1482.13 739.068 1496.46 739.068C1506.77 739.068 1513.86 733.37 1516.32 721.358H1530.18C1526.79 740.762 1515.71 750.31 1496.3 750.31ZM1577.65 750.31C1554.09 750.31 1539.46 733.062 1539.46 708.268C1539.46 683.628 1554.25 666.226 1577.81 666.226C1601.52 666.226 1616.46 683.628 1616.46 708.268C1616.46 733.062 1601.68 750.31 1577.65 750.31ZM1577.65 739.068C1592.59 739.068 1601.83 726.748 1601.83 708.422C1601.83 690.096 1592.44 677.622 1577.81 677.622C1563.33 677.622 1554.09 689.788 1554.09 708.114C1554.09 726.594 1563.18 739.068 1577.65 739.068ZM1632.64 748V636.196H1646.81V748H1632.64ZM604.006 903.694C583.062 903.694 569.972 888.756 569.972 862.268C569.972 838.552 583.37 820.842 604.006 820.842C614.786 820.842 622.794 823.768 628.03 831.776V790.196H642.198V902H628.646V891.528C623.256 899.536 614.786 903.694 604.006 903.694ZM606.008 892.452C619.406 892.452 628.338 880.748 628.338 862.268C628.338 843.326 619.406 832.084 606.008 832.084C592.918 832.084 584.602 843.326 584.602 862.268C584.602 880.748 592.918 892.452 606.008 892.452ZM696.092 904.31C671.76 904.31 658.362 888.448 658.362 862.268C658.362 838.244 672.992 820.226 696.4 820.226C721.194 820.226 732.436 837.32 732.436 866.734H673.146C673.916 882.442 683.618 893.068 696.554 893.068C706.718 893.068 714.418 888.448 717.344 878.284H732.282C728.894 895.378 714.264 904.31 696.092 904.31ZM673.454 855.184H717.344C715.804 839.168 707.18 831.622 695.784 831.622C683.772 831.622 675.456 839.168 673.454 855.184ZM770.708 903.694C753.152 903.694 743.142 893.684 743.142 879.67C743.142 853.644 776.406 854.568 796.118 852.258V849.486C796.118 837.628 790.728 830.852 778.562 830.852C767.474 830.852 760.082 836.396 760.082 847.022H746.068C746.068 830.698 759.466 820.226 778.562 820.226C808.592 820.226 809.978 840.246 809.978 856.262V877.976C809.978 887.216 810.44 894.762 811.98 902H798.736C798.274 899.69 797.812 896.61 797.658 891.22C790.882 900.152 782.104 903.694 770.708 903.694ZM773.942 893.376C785.338 893.376 796.118 888.756 796.118 867.658V863.192C784.106 864.732 757.464 863.808 757.464 879.978C757.464 887.678 763.778 893.376 773.942 893.376ZM830.312 902V790.196H844.48V902H830.312ZM866.069 902V822.536H879.313V832.7C883.933 825.308 892.557 820.842 903.183 820.842C912.269 820.842 921.201 825.154 924.897 835.472C931.519 825.154 941.837 820.842 953.079 820.842C971.405 820.842 978.643 832.238 978.643 850.256V902H964.475V857.956C964.475 846.406 963.551 832.084 948.767 832.084C931.673 832.084 929.517 850.872 929.517 862.73V902H915.349V857.956C915.349 846.406 914.271 832.084 899.487 832.084C882.393 832.084 880.237 850.872 880.237 862.73V902H866.069ZM1021.3 903.694C1003.75 903.694 993.735 893.684 993.735 879.67C993.735 853.644 1027 854.568 1046.71 852.258V849.486C1046.71 837.628 1041.32 830.852 1029.16 830.852C1018.07 830.852 1010.68 836.396 1010.68 847.022H996.661C996.661 830.698 1010.06 820.226 1029.16 820.226C1059.19 820.226 1060.57 840.246 1060.57 856.262V877.976C1060.57 887.216 1061.03 894.762 1062.57 902H1049.33C1048.87 899.69 1048.41 896.61 1048.25 891.22C1041.48 900.152 1032.7 903.694 1021.3 903.694ZM1024.54 893.376C1035.93 893.376 1046.71 888.756 1046.71 867.658V863.192C1034.7 864.732 1008.06 863.808 1008.06 879.978C1008.06 887.678 1014.37 893.376 1024.54 893.376ZM1080.91 902V790.196H1095.07V855.184L1127.26 822.536H1144.05L1108.93 857.34L1147.59 902H1129.72L1095.07 860.42V902H1080.91ZM1156.36 902V822.536H1170.53V902H1156.36ZM1156.36 805.596V790.196H1170.53V805.596H1156.36ZM1192.12 902V822.536H1205.21V832.7C1212.45 823.152 1222.46 820.842 1230.47 820.842C1244.17 820.842 1252.18 826.078 1255.72 835.01C1257.88 840.4 1258.5 846.868 1258.5 854.414V902H1244.33V857.186C1244.33 844.866 1242.63 832.084 1227.39 832.084C1214.14 832.084 1206.29 841.324 1206.29 860.42V902H1192.12ZM1310.12 933.57C1290.87 933.57 1278.7 925.408 1277.31 908.622H1291.94C1292.56 918.478 1299.18 922.944 1310.42 922.944C1324.28 922.944 1331.52 916.168 1331.52 895.224V887.37C1324.75 896.456 1317.66 899.382 1306.42 899.382C1286.71 899.382 1273.93 883.212 1273.93 860.728C1273.93 840.092 1286.09 820.842 1307.19 820.842C1318.74 820.842 1327.21 825.154 1331.83 833.624V822.536H1344.92V890.604C1344.92 917.708 1337.22 933.57 1310.12 933.57ZM1309.96 888.448C1323.21 888.448 1331.68 877.206 1331.68 859.342C1331.68 843.172 1322.9 831.776 1309.96 831.776C1296.26 831.776 1288.4 842.864 1288.4 859.188C1288.4 877.514 1296.72 888.448 1309.96 888.448Z" fill="black"/>
</svg>
