<svg width="1920" height="1080" viewBox="0 0 1920 1080" fill="none" xmlns="http://www.w3.org/2000/svg">
<rect width="1920" height="1080" fill="#F5F5F5"/>
<path d="M413.471 257.49L410.351 256.58C397.091 252.68 384.351 246.96 384.351 228.76C384.351 213.68 396.571 203.93 414.511 203.93C433.361 203.93 444.671 214.72 444.671 233.57H432.191C432.191 219.79 422.961 213.81 413.991 213.81C405.801 213.81 397.351 218.62 397.351 228.76C397.351 239.42 405.151 242.67 415.031 245.66L418.151 246.57C431.801 250.6 446.231 256.06 446.231 275.04C446.231 291.29 434.141 301.95 415.031 301.95C394.621 301.95 382.271 290.38 382.271 269.32H395.271C395.271 284.01 402.551 292.07 415.031 292.07C426.341 292.07 433.231 284.92 433.231 275.04C433.231 263.21 424.521 260.87 413.471 257.49ZM492.33 301.95C473.48 301.95 462.17 288.04 462.17 265.94C462.17 244.1 473.48 229.93 492.33 229.93C511.18 229.93 522.49 244.1 522.49 265.94C522.49 287.78 511.18 301.95 492.33 301.95ZM492.33 292.2C504.16 292.2 510.01 281.02 510.01 265.94C510.01 250.86 504.16 239.68 492.33 239.68C480.5 239.68 474.65 250.86 474.65 265.94C474.65 281.28 480.5 292.2 492.33 292.2ZM545.579 215.76V205.88H577.299V290.12H597.059V300H545.579V290.12H565.079V215.76H545.579ZM658.369 219.4H644.329V205.88H658.369V219.4ZM625.609 244.75V234.87H657.329V290.12H677.089V300H625.609V290.12H645.369V244.75H625.609ZM753.478 300H742.038V290.64C737.748 297.4 729.818 301.43 722.278 301.43C705.378 301.43 694.718 289.21 694.718 265.94C694.718 243.19 706.808 230.45 722.798 230.45C731.118 230.45 737.228 233.44 741.518 240.2V205.88H753.478V300ZM724.358 240.2C713.828 240.2 707.198 249.17 707.198 265.94C707.198 282.71 713.828 291.68 724.358 291.68C734.628 291.68 741.128 282.06 741.518 267.11V264.9C741.128 250.73 734.628 240.2 724.358 240.2ZM805.037 301.95C786.707 301.95 777.087 293.63 776.957 278.68H788.787C788.787 288.17 794.507 292.72 805.297 292.72C814.137 292.72 819.337 289.34 819.337 282.84C819.337 264.38 778.257 278.55 778.257 249.69C778.257 238.25 788.007 229.93 803.607 229.93C820.247 229.93 829.477 237.6 829.607 252.16H818.037C817.907 243.32 813.357 239.16 803.347 239.16C795.417 239.16 790.347 243.06 790.347 248.78C790.347 266.98 831.557 253.33 831.557 282.32C831.557 294.41 820.507 301.95 805.037 301.95ZM875.186 319.89L881.686 298.44H873.366V281.93H891.046V300.26L882.726 319.89H875.186ZM1022.11 300H1010.67V205.88H1022.63V240.98C1026.92 234.48 1034.33 230.45 1041.87 230.45C1058.77 230.45 1069.43 242.67 1069.43 265.94C1069.43 288.69 1057.34 301.43 1041.35 301.43C1033.03 301.43 1026.66 298.18 1022.11 291.16V300ZM1039.79 291.55C1050.32 291.55 1056.95 282.71 1056.95 265.94C1056.95 249.17 1050.32 240.33 1039.79 240.33C1029.52 240.33 1022.89 249.82 1022.63 264.77V265.94C1022.63 280.63 1029.26 291.55 1039.79 291.55ZM1091.22 215.76V205.88H1122.94V290.12H1142.7V300H1091.22V290.12H1110.72V215.76H1091.22ZM1209.86 290.64C1206.09 297.92 1196.86 301.43 1189.06 301.43C1172.42 301.43 1166.18 291.68 1166.18 272.96V231.88H1178.14V271.4C1178.14 281.8 1180.48 291.68 1192.18 291.68C1201.54 291.68 1208.82 283.62 1208.82 268.15V231.88H1220.78V300H1209.86V290.64ZM1303.28 254.76H1291.32C1290.41 246.57 1287.55 240.46 1278.06 240.46C1268.7 240.46 1262.72 248.65 1262.72 263.73V300H1250.76V231.88H1261.68V241.37C1265.45 234.09 1273.38 230.45 1281.18 230.45C1293.92 230.45 1302.37 238.38 1303.28 254.76ZM1350.68 301.95C1332.35 301.95 1322.73 293.63 1322.6 278.68H1334.43C1334.43 288.17 1340.15 292.72 1350.94 292.72C1359.78 292.72 1364.98 289.34 1364.98 282.84C1364.98 264.38 1323.9 278.55 1323.9 249.69C1323.9 238.25 1333.65 229.93 1349.25 229.93C1365.89 229.93 1375.12 237.6 1375.25 252.16H1363.68C1363.55 243.32 1359 239.16 1348.99 239.16C1341.06 239.16 1335.99 243.06 1335.99 248.78C1335.99 266.98 1377.2 253.33 1377.2 282.32C1377.2 294.41 1366.15 301.95 1350.68 301.95ZM1420.83 319.89L1427.33 298.44H1419.01V281.93H1436.69V300.26L1428.37 319.89H1420.83ZM463.86 424.67C463.86 409.72 477.38 402.7 505.98 401.79V396.98C505.98 387.23 500.91 382.29 491.81 382.29C483.23 382.29 477.12 386.84 477.12 395.81H465.68C465.68 382.03 476.47 372.93 491.81 372.93C509.36 372.93 517.42 382.03 517.42 396.59V422.2C517.42 429.35 518.2 435.98 519.11 443H507.93C507.54 440.01 507.02 437.28 507.02 434.16C501.69 441.7 495.06 444.43 486.22 444.43C472.83 444.43 463.86 439.23 463.86 424.67ZM488.82 435.72C500.91 435.72 505.98 426.36 505.98 412.84V410.76C485.96 411.54 475.69 414.14 475.69 425.32C475.69 431.82 481.28 435.72 488.82 435.72ZM554.289 384.24C558.059 376.96 567.289 373.45 575.089 373.45C591.729 373.45 597.969 383.2 597.969 401.92V443H586.009V403.48C586.009 393.08 583.669 383.2 571.969 383.2C562.609 383.2 555.329 391.39 555.329 406.47V443H543.369V374.88H554.289V384.24ZM675.529 443H664.089V433.64C659.799 440.4 651.869 444.43 644.329 444.43C627.429 444.43 616.769 432.21 616.769 408.94C616.769 386.19 628.859 373.45 644.849 373.45C653.169 373.45 659.279 376.44 663.569 383.2V348.88H675.529V443ZM646.409 383.2C635.879 383.2 629.249 392.17 629.249 408.94C629.249 425.71 635.879 434.68 646.409 434.68C656.679 434.68 663.179 425.06 663.569 410.11V407.9C663.179 393.73 656.679 383.2 646.409 383.2ZM834.027 407.9V411.54H786.837C787.617 425.97 794.507 435.07 805.557 435.07C812.967 435.07 817.647 430.52 820.377 423.63H833.117C828.827 436.89 819.467 444.95 805.557 444.95C786.057 444.95 774.357 431.43 774.357 408.94C774.357 387.36 785.797 372.93 804.907 372.93C824.277 372.93 834.027 387.36 834.027 407.9ZM804.907 382.81C794.637 382.81 788.917 390.22 787.227 401.66H820.897C819.727 390.09 815.307 382.81 804.907 382.81ZM854.516 377.87H874.276V371.76C874.276 355.64 884.806 347.84 898.586 347.84C901.576 347.84 905.346 348.23 908.466 348.88V358.76C905.476 358.24 901.966 357.85 899.236 357.85C891.956 357.85 886.236 361.1 886.236 371.76V377.87H907.816V387.75H886.236V443H874.276V387.75H854.516V377.87ZM932.465 377.87H952.225V371.76C952.225 355.64 962.755 347.84 976.535 347.84C979.525 347.84 983.295 348.23 986.415 348.88V358.76C983.425 358.24 979.915 357.85 977.185 357.85C969.905 357.85 964.185 361.1 964.185 371.76V377.87H985.765V387.75H964.185V443H952.225V387.75H932.465V377.87ZM1067.87 407.9V411.54H1020.68C1021.46 425.97 1028.35 435.07 1039.4 435.07C1046.81 435.07 1051.49 430.52 1054.22 423.63H1066.96C1062.67 436.89 1053.31 444.95 1039.4 444.95C1019.9 444.95 1008.2 431.43 1008.2 408.94C1008.2 387.36 1019.64 372.93 1038.75 372.93C1058.12 372.93 1067.87 387.36 1067.87 407.9ZM1038.75 382.81C1028.48 382.81 1022.76 390.22 1021.07 401.66H1054.74C1053.57 390.09 1049.15 382.81 1038.75 382.81ZM1117.09 444.95C1098.11 444.95 1086.93 430 1086.93 409.2C1086.93 388.79 1098.24 372.93 1117.09 372.93C1133.47 372.93 1143.22 382.42 1145.3 399.45H1133.21C1131.78 388.01 1125.28 382.81 1117.09 382.81C1105.26 382.81 1099.41 394.25 1099.41 409.33C1099.41 424.67 1105.78 435.2 1117.09 435.2C1125.02 435.2 1132.17 430.13 1134.25 418.04H1145.69C1142.83 436.37 1131.91 444.95 1117.09 444.95ZM1218.44 387.75H1196.6V419.6C1196.6 430.91 1201.02 433.9 1210.38 433.9C1212.72 433.9 1216.23 433.77 1219.35 433.38V443C1215.45 443.65 1211.16 443.91 1207.65 443.91C1194.52 443.91 1184.64 438.97 1184.64 421.16V387.75H1165.14V377.87H1184.64V356.16H1196.6V377.87H1218.44V387.75ZM1281.96 362.4H1267.92V348.88H1281.96V362.4ZM1249.2 387.75V377.87H1280.92V433.12H1300.68V443H1249.2V433.12H1268.96V387.75H1249.2ZM1357.57 443H1341.97L1318.57 374.88H1331.96L1342.88 409.72C1345.22 417.39 1347.69 425.06 1349.64 432.6H1350.68C1352.63 425.06 1355.1 417.39 1357.44 409.72L1367.84 374.88H1380.97L1357.57 443ZM1457.62 407.9V411.54H1410.43C1411.21 425.97 1418.1 435.07 1429.15 435.07C1436.56 435.07 1441.24 430.52 1443.97 423.63H1456.71C1452.42 436.89 1443.06 444.95 1429.15 444.95C1409.65 444.95 1397.95 431.43 1397.95 408.94C1397.95 387.36 1409.39 372.93 1428.5 372.93C1447.87 372.93 1457.62 387.36 1457.62 407.9ZM1428.5 382.81C1418.23 382.81 1412.51 390.22 1410.82 401.66H1444.49C1443.32 390.09 1438.9 382.81 1428.5 382.81ZM289.942 540.76H277.982C277.072 532.57 274.212 526.46 264.722 526.46C255.362 526.46 249.382 534.65 249.382 549.73V586H237.422V517.88H248.342V527.37C252.112 520.09 260.042 516.45 267.842 516.45C280.582 516.45 289.032 524.38 289.942 540.76ZM366.332 550.9V554.54H319.142C319.922 568.97 326.812 578.07 337.862 578.07C345.272 578.07 349.952 573.52 352.682 566.63H365.422C361.132 579.89 351.772 587.95 337.862 587.95C318.362 587.95 306.662 574.43 306.662 551.94C306.662 530.36 318.102 515.93 337.212 515.93C356.582 515.93 366.332 530.36 366.332 550.9ZM337.212 525.81C326.942 525.81 321.222 533.22 319.532 544.66H353.202C352.032 533.09 347.612 525.81 337.212 525.81ZM415.291 587.95C396.961 587.95 387.341 579.63 387.211 564.68H399.041C399.041 574.17 404.761 578.72 415.551 578.72C424.391 578.72 429.591 575.34 429.591 568.84C429.591 550.38 388.511 564.55 388.511 535.69C388.511 524.25 398.261 515.93 413.861 515.93C430.501 515.93 439.731 523.6 439.861 538.16H428.291C428.161 529.32 423.611 525.16 413.601 525.16C405.671 525.16 400.601 529.06 400.601 534.78C400.601 552.98 441.811 539.33 441.811 568.32C441.811 580.41 430.761 587.95 415.291 587.95ZM492.33 587.95C473.48 587.95 462.17 574.04 462.17 551.94C462.17 530.1 473.48 515.93 492.33 515.93C511.18 515.93 522.49 530.1 522.49 551.94C522.49 573.78 511.18 587.95 492.33 587.95ZM492.33 578.2C504.16 578.2 510.01 567.02 510.01 551.94C510.01 536.86 504.16 525.68 492.33 525.68C480.5 525.68 474.65 536.86 474.65 551.94C474.65 567.28 480.5 578.2 492.33 578.2ZM586.269 576.64C582.499 583.92 573.269 587.43 565.469 587.43C548.829 587.43 542.589 577.68 542.589 558.96V517.88H554.549V557.4C554.549 567.8 556.889 577.68 568.589 577.68C577.949 577.68 585.229 569.62 585.229 554.15V517.88H597.189V586H586.269V576.64ZM679.689 540.76H667.729C666.819 532.57 663.959 526.46 654.469 526.46C645.109 526.46 639.129 534.65 639.129 549.73V586H627.169V517.88H638.089V527.37C641.859 520.09 649.789 516.45 657.589 516.45C670.329 516.45 678.779 524.38 679.689 540.76ZM727.348 587.95C708.368 587.95 697.188 573 697.188 552.2C697.188 531.79 708.498 515.93 727.348 515.93C743.728 515.93 753.478 525.42 755.558 542.45H743.468C742.038 531.01 735.538 525.81 727.348 525.81C715.518 525.81 709.668 537.25 709.668 552.33C709.668 567.67 716.038 578.2 727.348 578.2C735.278 578.2 742.428 573.13 744.508 561.04H755.948C753.088 579.37 742.168 587.95 727.348 587.95ZM834.027 550.9V554.54H786.837C787.617 568.97 794.507 578.07 805.557 578.07C812.967 578.07 817.647 573.52 820.377 566.63H833.117C828.827 579.89 819.467 587.95 805.557 587.95C786.057 587.95 774.357 574.43 774.357 551.94C774.357 530.36 785.797 515.93 804.907 515.93C824.277 515.93 834.027 530.36 834.027 550.9ZM804.907 525.81C794.637 525.81 788.917 533.22 787.227 544.66H820.897C819.727 533.09 815.307 525.81 804.907 525.81ZM931.555 567.67C931.555 552.72 945.075 545.7 973.675 544.79V539.98C973.675 530.23 968.605 525.29 959.505 525.29C950.925 525.29 944.815 529.84 944.815 538.81H933.375C933.375 525.03 944.165 515.93 959.505 515.93C977.055 515.93 985.115 525.03 985.115 539.59V565.2C985.115 572.35 985.895 578.98 986.805 586H975.625C975.235 583.01 974.715 580.28 974.715 577.16C969.385 584.7 962.755 587.43 953.915 587.43C940.525 587.43 931.555 582.23 931.555 567.67ZM956.515 578.72C968.605 578.72 973.675 569.36 973.675 555.84V553.76C953.655 554.54 943.385 557.14 943.385 568.32C943.385 574.82 948.975 578.72 956.515 578.72ZM1013.27 501.76V491.88H1044.99V576.12H1064.75V586H1013.27V576.12H1032.77V501.76H1013.27ZM1091.22 501.76V491.88H1122.94V576.12H1142.7V586H1091.22V576.12H1110.72V501.76H1091.22ZM1193.87 587.95C1175.02 587.95 1163.71 574.04 1163.71 551.94C1163.71 530.1 1175.02 515.93 1193.87 515.93C1212.72 515.93 1224.03 530.1 1224.03 551.94C1224.03 573.78 1212.72 587.95 1193.87 587.95ZM1193.87 578.2C1205.7 578.2 1211.55 567.02 1211.55 551.94C1211.55 536.86 1205.7 525.68 1193.87 525.68C1182.04 525.68 1176.19 536.86 1176.19 551.94C1176.19 567.28 1182.04 578.2 1193.87 578.2ZM1272.99 587.95C1254.01 587.95 1242.83 573 1242.83 552.2C1242.83 531.79 1254.14 515.93 1272.99 515.93C1289.37 515.93 1299.12 525.42 1301.2 542.45H1289.11C1287.68 531.01 1281.18 525.81 1272.99 525.81C1261.16 525.81 1255.31 537.25 1255.31 552.33C1255.31 567.67 1261.68 578.2 1272.99 578.2C1280.92 578.2 1288.07 573.13 1290.15 561.04H1301.59C1298.73 579.37 1287.81 587.95 1272.99 587.95ZM1321.3 567.67C1321.3 552.72 1334.82 545.7 1363.42 544.79V539.98C1363.42 530.23 1358.35 525.29 1349.25 525.29C1340.67 525.29 1334.56 529.84 1334.56 538.81H1323.12C1323.12 525.03 1333.91 515.93 1349.25 515.93C1366.8 515.93 1374.86 525.03 1374.86 539.59V565.2C1374.86 572.35 1375.64 578.98 1376.55 586H1365.37C1364.98 583.01 1364.46 580.28 1364.46 577.16C1359.13 584.7 1352.5 587.43 1343.66 587.43C1330.27 587.43 1321.3 582.23 1321.3 567.67ZM1346.26 578.72C1358.35 578.72 1363.42 569.36 1363.42 555.84V553.76C1343.4 554.54 1333.13 557.14 1333.13 568.32C1333.13 574.82 1338.72 578.72 1346.26 578.72ZM1452.29 530.75H1430.45V562.6C1430.45 573.91 1434.87 576.9 1444.23 576.9C1446.57 576.9 1450.08 576.77 1453.2 576.38V586C1449.3 586.65 1445.01 586.91 1441.5 586.91C1428.37 586.91 1418.49 581.97 1418.49 564.16V530.75H1398.99V520.87H1418.49V499.16H1430.45V520.87H1452.29V530.75ZM1515.81 505.4H1501.77V491.88H1515.81V505.4ZM1483.05 530.75V520.87H1514.77V576.12H1534.53V586H1483.05V576.12H1502.81V530.75H1483.05ZM1583.62 587.95C1564.77 587.95 1553.46 574.04 1553.46 551.94C1553.46 530.1 1564.77 515.93 1583.62 515.93C1602.47 515.93 1613.78 530.1 1613.78 551.94C1613.78 573.78 1602.47 587.95 1583.62 587.95ZM1583.62 578.2C1595.45 578.2 1601.3 567.02 1601.3 551.94C1601.3 536.86 1595.45 525.68 1583.62 525.68C1571.79 525.68 1565.94 536.86 1565.94 551.94C1565.94 567.28 1571.79 578.2 1583.62 578.2ZM1645.58 527.24C1649.35 519.96 1658.58 516.45 1666.38 516.45C1683.02 516.45 1689.26 526.2 1689.26 544.92V586H1677.3V546.48C1677.3 536.08 1674.96 526.2 1663.26 526.2C1653.9 526.2 1646.62 534.39 1646.62 549.47V586H1634.66V517.88H1645.58V527.24ZM421.115 700.92H433.855C433.855 713.53 441.005 721.07 453.095 721.07C464.665 721.07 471.815 713.27 471.815 702.87C471.815 692.21 464.535 686.1 452.315 686.1H448.155V676.09H451.015C463.625 676.09 470.775 670.37 470.775 659.06C470.775 649.18 463.885 642.81 453.225 642.81C441.785 642.81 434.895 649.57 434.505 661.66H422.155C422.935 643.33 434.765 632.93 453.875 632.93C471.425 632.93 483.385 643.33 483.385 658.02C483.385 668.68 476.625 678.04 467.265 680.38V681.03C478.575 684.02 484.555 691.43 484.555 703.13C484.555 718.99 472.465 730.95 452.445 730.95C433.075 730.95 421.115 719.12 421.115 700.92ZM522.465 729V710.93H540.145V729H522.465ZM586.374 729V718.47H605.874V659.32H586.374V650.87C601.064 650.09 606.394 645.93 607.694 634.88H617.704V718.47H637.204V729H586.374ZM721.263 694.16V704.43H705.273V729H693.183V704.43H652.493V694.55L690.843 634.88H705.273V694.16H721.263ZM684.993 662.05L665.233 694.16H693.833V673.49C693.833 667.25 693.963 655.03 694.483 648.53L693.573 648.4C690.713 653.6 688.243 656.85 684.993 662.05ZM742.272 729V718.47H761.772V659.32H742.272V650.87C756.962 650.09 762.292 645.93 763.592 634.88H773.602V718.47H793.102V729H742.272ZM813.462 687.66L818.402 634.88H869.492V645.28H828.412L825.292 675.96C830.362 668.94 837.122 666.6 845.962 666.6C863.902 666.6 874.952 679.86 874.952 698.19C874.952 717.43 861.822 730.95 843.232 730.95C826.072 730.95 814.372 721.07 812.292 705.34H824.772C825.942 715.09 833.092 721.07 843.102 721.07C854.672 721.07 862.342 712.88 862.342 698.84C862.342 685.84 855.582 676.48 843.622 676.48C834.912 676.48 829.192 680.77 826.202 688.83L813.462 687.66ZM890.241 706.77H902.461C903.761 716 910.131 721.07 919.491 721.07C932.751 721.07 939.771 707.29 939.771 686.75V681.68C934.961 689.87 927.941 693.9 918.061 693.9C901.031 693.9 889.331 681.81 889.331 663.48C889.331 645.02 902.461 632.93 919.621 632.93C941.071 632.93 952.121 648.66 952.121 677.26C952.121 711.58 944.191 730.95 919.881 730.95C903.111 730.95 891.671 721.98 890.241 706.77ZM919.231 642.68C908.701 642.68 901.291 651.52 901.291 663.48C901.291 675.05 908.571 684.15 918.841 684.15C929.631 684.15 937.691 675.05 937.691 663.74C937.691 651.65 930.671 642.68 919.231 642.68ZM1028.77 729H969.23V725.23C969.23 705.47 980.15 694.81 996.01 684.28C1010.83 674.53 1015.77 668.42 1015.77 658.15C1015.77 648.53 1009.01 642.81 999.26 642.81C988.08 642.81 981.71 649.7 981.19 663.09H969.1C969.36 643.85 982.1 632.93 1000.3 632.93C1017.46 632.93 1028.25 643.98 1028.25 658.8C1028.25 671.8 1021.62 679.99 1004.72 691.56C995.75 697.67 984.31 705.34 982.75 718.47H1028.77V729ZM1107.76 657.37H1095.02C1093.98 647.75 1088.52 642.81 1079.42 642.81C1066.03 642.81 1057.97 656.46 1057.97 677.39V680.64C1063.04 671.8 1070.58 667.51 1080.59 667.51C1095.41 667.51 1108.67 678.82 1108.67 698.45C1108.67 718.99 1096.06 730.95 1078.38 730.95C1055.5 730.95 1045.62 713.27 1045.62 682.46C1045.62 651.13 1057.84 632.93 1079.42 632.93C1095.67 632.93 1106.07 641.9 1107.76 657.37ZM1078.9 677.39C1068.11 677.39 1060.05 686.62 1060.05 698.71C1060.05 711.58 1068.11 721.2 1078.9 721.2C1089.3 721.2 1096.45 712.49 1096.45 698.97C1096.45 686.36 1089.69 677.39 1078.9 677.39ZM1125.26 687.66L1130.2 634.88H1181.29V645.28H1140.21L1137.09 675.96C1142.16 668.94 1148.92 666.6 1157.76 666.6C1175.7 666.6 1186.75 679.86 1186.75 698.19C1186.75 717.43 1173.62 730.95 1155.03 730.95C1137.87 730.95 1126.17 721.07 1124.09 705.34H1136.57C1137.74 715.09 1144.89 721.07 1154.9 721.07C1166.47 721.07 1174.14 712.88 1174.14 698.84C1174.14 685.84 1167.38 676.48 1155.42 676.48C1146.71 676.48 1140.99 680.77 1138 688.83L1125.26 687.66ZM1200.61 700.92H1213.35C1213.35 713.53 1220.5 721.07 1232.59 721.07C1244.16 721.07 1251.31 713.27 1251.31 702.87C1251.31 692.21 1244.03 686.1 1231.81 686.1H1227.65V676.09H1230.51C1243.12 676.09 1250.27 670.37 1250.27 659.06C1250.27 649.18 1243.38 642.81 1232.72 642.81C1221.28 642.81 1214.39 649.57 1214 661.66H1201.65C1202.43 643.33 1214.26 632.93 1233.37 632.93C1250.92 632.93 1262.88 643.33 1262.88 658.02C1262.88 668.68 1256.12 678.04 1246.76 680.38V681.03C1258.07 684.02 1264.05 691.43 1264.05 703.13C1264.05 718.99 1251.96 730.95 1231.94 730.95C1212.57 730.95 1200.61 719.12 1200.61 700.92ZM1281.16 687.66L1286.1 634.88H1337.19V645.28H1296.11L1292.99 675.96C1298.06 668.94 1304.82 666.6 1313.66 666.6C1331.6 666.6 1342.65 679.86 1342.65 698.19C1342.65 717.43 1329.52 730.95 1310.93 730.95C1293.77 730.95 1282.07 721.07 1279.99 705.34H1292.47C1293.64 715.09 1300.79 721.07 1310.8 721.07C1322.37 721.07 1330.04 712.88 1330.04 698.84C1330.04 685.84 1323.28 676.48 1311.32 676.48C1302.61 676.48 1296.89 680.77 1293.9 688.83L1281.16 687.66ZM1357.94 706.77H1370.16C1371.46 716 1377.83 721.07 1387.19 721.07C1400.45 721.07 1407.47 707.29 1407.47 686.75V681.68C1402.66 689.87 1395.64 693.9 1385.76 693.9C1368.73 693.9 1357.03 681.81 1357.03 663.48C1357.03 645.02 1370.16 632.93 1387.32 632.93C1408.77 632.93 1419.82 648.66 1419.82 677.26C1419.82 711.58 1411.89 730.95 1387.58 730.95C1370.81 730.95 1359.37 721.98 1357.94 706.77ZM1386.93 642.68C1376.4 642.68 1368.99 651.52 1368.99 663.48C1368.99 675.05 1376.27 684.15 1386.54 684.15C1397.33 684.15 1405.39 675.05 1405.39 663.74C1405.39 651.65 1398.37 642.68 1386.93 642.68ZM1466.57 632.93C1486.59 632.93 1499.07 649.96 1499.07 681.81C1499.07 714.44 1486.59 730.95 1466.57 730.95C1446.55 730.95 1434.2 713.66 1434.2 681.81C1434.2 649.96 1446.55 632.93 1466.57 632.93ZM1466.57 642.81C1453.18 642.81 1446.94 656.2 1446.94 681.81C1446.94 706.9 1453.18 721.07 1466.57 721.07C1479.83 721.07 1486.2 706.9 1486.2 681.81C1486.2 656.2 1479.83 642.81 1466.57 642.81ZM361.002 816.75H339.162V848.6C339.162 859.91 343.582 862.9 352.942 862.9C355.282 862.9 358.792 862.77 361.912 862.38V872C358.012 872.65 353.722 872.91 350.212 872.91C337.082 872.91 327.202 867.97 327.202 850.16V816.75H307.702V806.87H327.202V785.16H339.162V806.87H361.002V816.75ZM424.521 791.4H410.481V777.88H424.521V791.4ZM391.761 816.75V806.87H423.481V862.12H443.241V872H391.761V862.12H411.521V816.75H391.761ZM471.79 831.96V872H460.35V803.88H469.71V812.72C471.66 805.44 478.16 802.45 483.23 802.45C489.99 802.45 494.02 805.44 496.23 811.03C498.83 804.92 505.07 802.45 509.75 802.45C520.93 802.45 524.83 810.64 524.83 824.68V872H513.39V826.76C513.39 816.36 513 811.42 507.15 811.42C501.3 811.42 498.31 818.05 498.31 831.96V872H486.87V826.76C486.87 816.36 486.48 811.42 480.63 811.42C474.78 811.42 471.79 818.05 471.79 831.96ZM600.179 836.9V840.54H552.989C553.769 854.97 560.659 864.07 571.709 864.07C579.119 864.07 583.799 859.52 586.529 852.63H599.269C594.979 865.89 585.619 873.95 571.709 873.95C552.209 873.95 540.509 860.43 540.509 837.94C540.509 816.36 551.949 801.93 571.059 801.93C590.429 801.93 600.179 816.36 600.179 836.9ZM571.059 811.81C560.789 811.81 555.069 819.22 553.379 830.66H587.049C585.879 819.09 581.459 811.81 571.059 811.81ZM651.349 840.15C650.439 835.99 649.139 828.71 648.749 824.03H647.709C647.319 828.71 646.019 835.99 645.109 840.15L637.829 872H623.529L611.829 803.88H622.749L629.249 845.87C629.899 850.16 630.939 855.75 631.329 860.43H632.369C632.629 855.75 633.539 850.03 634.449 845.87L643.939 803.88H653.039L662.529 845.87C663.439 850.03 664.349 855.75 664.609 860.43H665.649C666.039 855.75 667.079 850.16 667.729 845.87L674.229 803.88H684.629L672.929 872H658.629L651.349 840.15ZM697.708 853.67C697.708 838.72 711.228 831.7 739.828 830.79V825.98C739.828 816.23 734.758 811.29 725.658 811.29C717.078 811.29 710.968 815.84 710.968 824.81H699.528C699.528 811.03 710.318 801.93 725.658 801.93C743.208 801.93 751.268 811.03 751.268 825.59V851.2C751.268 858.35 752.048 864.98 752.958 872H741.778C741.388 869.01 740.868 866.28 740.868 863.16C735.538 870.7 728.908 873.43 720.068 873.43C706.678 873.43 697.708 868.23 697.708 853.67ZM722.668 864.72C734.758 864.72 739.828 855.36 739.828 841.84V839.76C719.808 840.54 709.538 843.14 709.538 854.32C709.538 860.82 715.128 864.72 722.668 864.72ZM811.927 872H796.327L772.927 803.88H786.317L797.237 838.72C799.577 846.39 802.047 854.06 803.997 861.6H805.037C806.987 854.06 809.457 846.39 811.797 838.72L822.197 803.88H835.327L811.927 872ZM911.976 836.9V840.54H864.786C865.566 854.97 872.456 864.07 883.506 864.07C890.916 864.07 895.596 859.52 898.326 852.63H911.066C906.776 865.89 897.416 873.95 883.506 873.95C864.006 873.95 852.306 860.43 852.306 837.94C852.306 816.36 863.746 801.93 882.856 801.93C902.226 801.93 911.976 816.36 911.976 836.9ZM882.856 811.81C872.586 811.81 866.866 819.22 865.176 830.66H898.846C897.676 819.09 893.256 811.81 882.856 811.81ZM951.185 872V853.93H968.865V872H951.185ZM1039.14 873.95C1020.16 873.95 1008.98 859 1008.98 838.2C1008.98 817.79 1020.29 801.93 1039.14 801.93C1055.52 801.93 1065.27 811.42 1067.35 828.45H1055.26C1053.83 817.01 1047.33 811.81 1039.14 811.81C1027.31 811.81 1021.46 823.25 1021.46 838.33C1021.46 853.67 1027.83 864.2 1039.14 864.2C1047.07 864.2 1054.22 859.13 1056.3 847.04H1067.74C1064.88 865.37 1053.96 873.95 1039.14 873.95ZM1115.92 873.95C1097.07 873.95 1085.76 860.04 1085.76 837.94C1085.76 816.1 1097.07 801.93 1115.92 801.93C1134.77 801.93 1146.08 816.1 1146.08 837.94C1146.08 859.78 1134.77 873.95 1115.92 873.95ZM1115.92 864.2C1127.75 864.2 1133.6 853.02 1133.6 837.94C1133.6 822.86 1127.75 811.68 1115.92 811.68C1104.09 811.68 1098.24 822.86 1098.24 837.94C1098.24 853.28 1104.09 864.2 1115.92 864.2ZM1173.33 831.96V872H1161.89V803.88H1171.25V812.72C1173.2 805.44 1179.7 802.45 1184.77 802.45C1191.53 802.45 1195.56 805.44 1197.77 811.03C1200.37 804.92 1206.61 802.45 1211.29 802.45C1222.47 802.45 1226.37 810.64 1226.37 824.68V872H1214.93V826.76C1214.93 816.36 1214.54 811.42 1208.69 811.42C1202.84 811.42 1199.85 818.05 1199.85 831.96V872H1188.41V826.76C1188.41 816.36 1188.02 811.42 1182.17 811.42C1176.32 811.42 1173.33 818.05 1173.33 831.96ZM1244.52 803.88H1255.96V813.24C1260.25 806.48 1268.18 802.45 1275.72 802.45C1292.62 802.45 1303.28 814.8 1303.28 838.07C1303.28 860.82 1291.19 873.43 1275.2 873.43C1266.88 873.43 1260.77 870.44 1256.48 863.68V896.44H1244.52V803.88ZM1273.64 863.68C1284.17 863.68 1290.8 854.84 1290.8 838.07C1290.8 821.3 1284.17 812.2 1273.64 812.2C1263.37 812.2 1256.74 821.95 1256.48 836.9V838.07C1256.48 852.76 1263.11 863.68 1273.64 863.68ZM1365.76 862.64C1361.99 869.92 1352.76 873.43 1344.96 873.43C1328.32 873.43 1322.08 863.68 1322.08 844.96V803.88H1334.04V843.4C1334.04 853.8 1336.38 863.68 1348.08 863.68C1357.44 863.68 1364.72 855.62 1364.72 840.15V803.88H1376.68V872H1365.76V862.64ZM1452.29 816.75H1430.45V848.6C1430.45 859.91 1434.87 862.9 1444.23 862.9C1446.57 862.9 1450.08 862.77 1453.2 862.38V872C1449.3 872.65 1445.01 872.91 1441.5 872.91C1428.37 872.91 1418.49 867.97 1418.49 850.16V816.75H1398.99V806.87H1418.49V785.16H1430.45V806.87H1452.29V816.75ZM1535.57 836.9V840.54H1488.38C1489.16 854.97 1496.05 864.07 1507.1 864.07C1514.51 864.07 1519.19 859.52 1521.92 852.63H1534.66C1530.37 865.89 1521.01 873.95 1507.1 873.95C1487.6 873.95 1475.9 860.43 1475.9 837.94C1475.9 816.36 1487.34 801.93 1506.45 801.93C1525.82 801.93 1535.57 816.36 1535.57 836.9ZM1506.45 811.81C1496.18 811.81 1490.46 819.22 1488.77 830.66H1522.44C1521.27 819.09 1516.85 811.81 1506.45 811.81ZM1615.08 826.76H1603.12C1602.21 818.57 1599.35 812.46 1589.86 812.46C1580.5 812.46 1574.52 820.65 1574.52 835.73V872H1562.56V803.88H1573.48V813.37C1577.25 806.09 1585.18 802.45 1592.98 802.45C1605.72 802.45 1614.17 810.38 1615.08 826.76Z" fill="black"/>
</svg>
