<svg width="1920" height="1080" viewBox="0 0 1920 1080" fill="none" xmlns="http://www.w3.org/2000/svg">
<rect width="1920" height="1080" fill="#F5F5F5"/>
<g filter="url(#filter0_f_349_1281)">
<path d="M960 640C1070.46 640 1160 550.457 1160 440C1160 329.543 1070.46 240 960 240C849.543 240 760 329.543 760 440C760 550.457 849.543 640 960 640Z" fill="#FF2A00"/>
</g>
<path fill-rule="evenodd" clip-rule="evenodd" d="M1160 640C1160 750.457 1070.46 840 960 840C849.543 840 760 750.457 760 640C760 629.747 760.772 619.673 762.26 609.835C762.349 610.169 762.454 610.503 762.573 610.834C764.384 615.884 769.161 618.958 774.212 618.958C775.584 618.958 777.012 618.683 778.439 618.189C784.808 615.829 788.157 608.749 785.796 602.327C783.49 595.961 776.408 592.613 769.984 594.973C767.517 595.879 765.512 597.482 764.108 599.476C782.84 508.448 863.427 440 960 440C1056.77 440 1137.49 508.725 1156 600.028C1154.6 597.88 1152.51 596.148 1149.91 595.192C1143.54 592.832 1136.46 596.125 1134.09 602.547C1131.79 608.968 1135.08 616.049 1141.51 618.409H1141.45C1142.82 618.958 1144.25 619.177 1145.68 619.177C1150.73 619.177 1155.45 616.104 1157.26 611.054C1157.44 610.568 1157.59 610.079 1157.7 609.588C1159.22 619.505 1160 629.661 1160 640ZM800.62 656.554C795.404 660.945 794.69 668.739 799.082 673.953V674.008C801.553 676.916 805.012 678.398 808.581 678.398C811.381 678.398 814.181 677.41 816.541 675.489C821.702 671.099 822.416 663.305 818.024 658.091C813.632 652.877 805.835 652.163 800.62 656.554ZM1103.35 675.599C1098.13 671.263 1097.47 663.415 1101.87 658.201C1106.26 652.986 1114.05 652.328 1119.27 656.719C1124.49 661.109 1125.15 668.903 1120.75 674.117C1118.34 677.026 1114.82 678.508 1111.31 678.508C1108.51 678.508 1105.71 677.575 1103.35 675.599ZM850.416 703.92C847.012 709.848 849.043 717.422 854.918 720.825L854.973 720.77C856.894 721.868 859.035 722.416 861.122 722.416C865.349 722.416 869.522 720.221 871.828 716.269C875.231 710.397 873.2 702.822 867.326 699.419C861.396 696.017 853.82 698.047 850.416 703.92ZM1048.01 716.434C1044.6 710.561 1046.64 702.987 1052.56 699.584C1058.49 696.181 1066.02 698.212 1069.47 704.085C1072.88 710.012 1070.85 717.532 1064.97 720.935C1063.05 722.087 1060.91 722.581 1058.82 722.581C1054.54 722.581 1050.42 720.331 1048.06 716.434H1048.01ZM913.443 731.527C912.235 738.168 916.737 744.645 923.435 745.798L923.381 745.743L923.534 745.765C924.245 745.867 924.911 745.962 925.577 745.962C931.451 745.962 936.667 741.736 937.71 735.753C938.918 729.112 934.471 722.636 927.718 721.483C921.02 720.331 914.596 724.831 913.443 731.527ZM992.118 721.538C985.365 722.691 980.863 729.112 982.071 735.808H982.126C983.169 741.791 988.33 746.017 994.259 746.017C994.973 746.017 995.631 745.962 996.4 745.852C1003.1 744.7 1007.6 738.278 1006.39 731.582C1005.24 724.886 998.816 720.331 992.118 721.538Z" fill="black"/>
<path d="M1157.65 551.613C1150.84 551.613 1145.29 546.07 1145.29 539.264C1145.29 532.458 1150.84 526.915 1157.65 526.915C1164.51 526.915 1170 532.458 1170 539.264C1170 546.125 1164.45 551.613 1157.65 551.613Z" fill="black"/>
<path d="M750 539.045V538.551C750 531.745 755.545 526.256 762.353 526.256C769.161 526.256 774.706 531.8 774.706 538.605V539.045C774.706 545.85 769.161 551.394 762.353 551.394C755.49 551.394 750 545.85 750 539.045Z" fill="black"/>
<mask id="mask0_349_1281" style="mask-type:alpha" maskUnits="userSpaceOnUse" x="760" y="440" width="400" height="400">
<path d="M960 840C1070.46 840 1160 750.457 1160 640C1160 529.543 1070.46 440 960 440C849.543 440 760 529.543 760 640C760 750.457 849.543 840 960 840Z" fill="black"/>
</mask>
<g mask="url(#mask0_349_1281)">
<g filter="url(#filter1_f_349_1281)">
<path d="M960 640C1070.46 640 1160 550.457 1160 440C1160 329.543 1070.46 240 960 240C849.543 240 760 329.543 760 440C760 550.457 849.543 640 960 640Z" fill="#02D5FF"/>
</g>
</g>
<path d="M770.094 482.677C763.671 480.317 760.377 473.237 762.737 466.815C765.098 460.394 772.235 457.156 778.604 459.516C785.028 461.876 788.322 468.956 785.961 475.378C784.149 480.372 779.373 483.501 774.377 483.501C772.949 483.501 771.522 483.226 770.149 482.732L770.094 482.677Z" fill="url(#paint0_linear_349_1281)"/>
<path d="M1145.29 483.391C1140.24 483.391 1135.52 480.262 1133.71 475.268C1131.35 468.846 1134.64 461.766 1141.07 459.406C1147.49 457.046 1154.57 460.339 1156.93 466.706C1159.24 473.127 1155.95 480.207 1149.58 482.568C1148.2 483.062 1146.78 483.336 1145.35 483.336L1145.29 483.391Z" fill="url(#paint1_linear_349_1281)"/>
<path d="M1102.09 420.163C1097.69 414.949 1098.41 407.1 1103.62 402.764C1108.84 398.373 1116.64 399.032 1121.03 404.301C1125.42 409.515 1124.71 417.309 1119.49 421.7C1117.18 423.621 1114.38 424.609 1111.58 424.609C1108.07 424.609 1104.56 423.072 1102.09 420.163ZM800.839 421.206C795.624 416.815 794.965 409.021 799.357 403.807C803.749 398.593 811.545 397.934 816.761 402.325C822.031 406.716 822.635 414.51 818.243 419.724C815.773 422.633 812.314 424.115 808.8 424.115C806 424.115 803.2 423.182 800.839 421.206ZM1052.89 378.724C1046.96 375.322 1044.99 367.747 1048.39 361.875C1051.8 356.002 1059.37 353.971 1065.3 357.374C1071.18 360.777 1073.21 368.351 1069.8 374.224C1067.5 378.176 1063.33 380.371 1059.1 380.371C1056.96 380.371 1054.87 379.822 1052.95 378.67L1052.89 378.724ZM850.8 373.895C847.396 368.022 849.427 360.448 855.302 357.045C861.231 353.642 868.808 355.673 872.212 361.545C875.616 367.473 873.584 374.992 867.655 378.395C865.733 379.548 863.592 380.042 861.506 380.042C857.278 380.042 853.106 377.846 850.8 373.84V373.895ZM992.502 356.606C985.804 355.398 981.302 349.032 982.51 342.336C983.718 335.585 990.086 331.139 996.784 332.346C1003.54 333.499 1007.98 339.975 1006.83 346.671C1005.79 352.654 1000.57 356.825 994.698 356.825C993.984 356.825 993.271 356.77 992.502 356.661V356.606ZM913.827 346.452C912.675 339.756 917.176 333.334 923.875 332.182C930.627 331.029 936.996 335.475 938.149 342.226C939.302 348.922 934.855 355.343 928.102 356.496C927.388 356.606 926.675 356.661 925.961 356.661C920.086 356.661 914.871 352.434 913.827 346.452Z" fill="#02D5FF"/>
<line x1="560" y1="840" x2="960" y2="840" stroke="#00A3FF" stroke-width="2"/>
<line x1="560" y1="440" x2="960" y2="440" stroke="#00A3FF" stroke-width="2"/>
<line x1="961" y1="440" x2="1238" y2="440" stroke="#00A3FF" stroke-width="2" stroke-dasharray="4 4"/>
<line x1="683" y1="640" x2="960" y2="640" stroke="#00A3FF" stroke-width="2" stroke-dasharray="4 4"/>
<line x1="960" y1="640" x2="1360" y2="640" stroke="#00A3FF" stroke-width="2"/>
<line x1="961" y1="166" x2="961" y2="892" stroke="#00A3FF" stroke-width="2" stroke-dasharray="4 4"/>
<line x1="761" y1="641" x2="761" y2="976" stroke="#00A3FF" stroke-width="2"/>
<line x1="1159" y1="641" x2="1159" y2="976" stroke="#00A3FF" stroke-width="2"/>
<line x1="960" y1="240" x2="1360" y2="240" stroke="#00A3FF" stroke-width="2"/>
<path d="M960 740C1070.46 740 1160 650.457 1160 540C1160 429.543 1070.46 340 960 340C849.543 340 760 429.543 760 540C760 650.457 849.543 740 960 740Z" stroke="#00A3FF" stroke-width="2" stroke-miterlimit="10" stroke-dasharray="4 4"/>
<path d="M960 640C1070.46 640 1160 550.457 1160 440C1160 329.543 1070.46 240 960 240C849.543 240 760 329.543 760 440C760 550.457 849.543 640 960 640Z" stroke="#00A3FF" stroke-width="2" stroke-miterlimit="10" stroke-dasharray="4 4"/>
<path d="M580 650.805C580 650.348 580.141 650.025 580.422 649.838C580.703 649.639 580.99 649.539 581.283 649.539C581.424 649.539 581.564 649.562 581.705 649.609C581.846 649.645 581.998 649.709 582.162 649.803L582.777 650.137C582.859 650.184 582.936 650.219 583.006 650.242C583.088 650.254 583.176 650.26 583.27 650.26C583.562 650.26 583.785 650.189 583.938 650.049C584.102 649.896 584.512 649.381 585.168 648.502C585.602 647.928 586.586 646.527 588.121 644.301C588.121 644.219 587.986 643.592 587.717 642.42C587.447 641.236 587.201 640.234 586.979 639.414C586.756 638.582 586.557 638.037 586.381 637.779C586.205 637.51 585.877 637.375 585.396 637.375C585.232 637.375 584.91 637.434 584.43 637.551C584.125 637.621 583.797 637.703 583.445 637.797L583.287 637.252L585.238 636.584C585.742 636.408 586.205 636.268 586.627 636.162C587.061 636.057 587.43 636.004 587.734 636.004C588.227 636.004 588.596 636.15 588.842 636.443C589.217 636.912 589.533 637.838 589.791 639.221L590.16 641.225C591.215 639.607 592.035 638.471 592.621 637.814C593.148 637.217 593.646 636.771 594.115 636.479C594.584 636.186 595.029 636.039 595.451 636.039C595.85 636.039 596.172 636.098 596.418 636.215C596.863 636.426 597.086 636.824 597.086 637.41C597.086 637.809 596.975 638.119 596.752 638.342C596.529 638.564 596.242 638.676 595.891 638.676C595.762 638.676 595.639 638.664 595.521 638.641C595.404 638.605 595.281 638.559 595.152 638.5L594.695 638.307C594.566 638.248 594.443 638.201 594.326 638.166C594.209 638.119 594.121 638.096 594.062 638.096C593.535 638.096 592.803 638.781 591.865 640.152C590.928 641.512 590.459 642.297 590.459 642.508C590.459 642.684 590.564 643.258 590.775 644.23C590.998 645.191 591.238 646.211 591.496 647.289C591.73 648.309 591.93 649.012 592.094 649.398C592.363 650.031 592.668 650.348 593.008 650.348C593.324 650.348 593.646 650.172 593.975 649.82C594.303 649.469 594.795 648.836 595.451 647.922L595.943 648.221C595.439 649.135 594.918 649.914 594.379 650.559C593.359 651.777 592.387 652.387 591.461 652.387C590.875 652.387 590.412 652.105 590.072 651.543C589.873 651.215 589.68 650.676 589.492 649.926L588.402 645.584L584.799 650.312C584.096 651.133 583.551 651.684 583.164 651.965C582.789 652.246 582.32 652.387 581.758 652.387C581.008 652.387 580.498 652.152 580.229 651.684C580.076 651.438 580 651.145 580 650.805Z" fill="#00A3FF"/>
<path d="M951 968.805C951 968.348 951.141 968.025 951.422 967.838C951.703 967.639 951.99 967.539 952.283 967.539C952.424 967.539 952.564 967.562 952.705 967.609C952.846 967.645 952.998 967.709 953.162 967.803L953.777 968.137C953.859 968.184 953.936 968.219 954.006 968.242C954.088 968.254 954.176 968.26 954.27 968.26C954.562 968.26 954.785 968.189 954.938 968.049C955.102 967.896 955.512 967.381 956.168 966.502C956.602 965.928 957.586 964.527 959.121 962.301C959.121 962.219 958.986 961.592 958.717 960.42C958.447 959.236 958.201 958.234 957.979 957.414C957.756 956.582 957.557 956.037 957.381 955.779C957.205 955.51 956.877 955.375 956.396 955.375C956.232 955.375 955.91 955.434 955.43 955.551C955.125 955.621 954.797 955.703 954.445 955.797L954.287 955.252L956.238 954.584C956.742 954.408 957.205 954.268 957.627 954.162C958.061 954.057 958.43 954.004 958.734 954.004C959.227 954.004 959.596 954.15 959.842 954.443C960.217 954.912 960.533 955.838 960.791 957.221L961.16 959.225C962.215 957.607 963.035 956.471 963.621 955.814C964.148 955.217 964.646 954.771 965.115 954.479C965.584 954.186 966.029 954.039 966.451 954.039C966.85 954.039 967.172 954.098 967.418 954.215C967.863 954.426 968.086 954.824 968.086 955.41C968.086 955.809 967.975 956.119 967.752 956.342C967.529 956.564 967.242 956.676 966.891 956.676C966.762 956.676 966.639 956.664 966.521 956.641C966.404 956.605 966.281 956.559 966.152 956.5L965.695 956.307C965.566 956.248 965.443 956.201 965.326 956.166C965.209 956.119 965.121 956.096 965.062 956.096C964.535 956.096 963.803 956.781 962.865 958.152C961.928 959.512 961.459 960.297 961.459 960.508C961.459 960.684 961.564 961.258 961.775 962.23C961.998 963.191 962.238 964.211 962.496 965.289C962.73 966.309 962.93 967.012 963.094 967.398C963.363 968.031 963.668 968.348 964.008 968.348C964.324 968.348 964.646 968.172 964.975 967.82C965.303 967.469 965.795 966.836 966.451 965.922L966.943 966.221C966.439 967.135 965.918 967.914 965.379 968.559C964.359 969.777 963.387 970.387 962.461 970.387C961.875 970.387 961.412 970.105 961.072 969.543C960.873 969.215 960.68 968.676 960.492 967.926L959.402 963.584L955.799 968.312C955.096 969.133 954.551 969.684 954.164 969.965C953.789 970.246 953.32 970.387 952.758 970.387C952.008 970.387 951.498 970.152 951.229 969.684C951.076 969.438 951 969.145 951 968.805Z" fill="#00A3FF"/>
<path d="M1342 448.805C1342 448.348 1342.14 448.025 1342.42 447.838C1342.7 447.639 1342.99 447.539 1343.28 447.539C1343.42 447.539 1343.56 447.562 1343.71 447.609C1343.85 447.645 1344 447.709 1344.16 447.803L1344.78 448.137C1344.86 448.184 1344.94 448.219 1345.01 448.242C1345.09 448.254 1345.18 448.26 1345.27 448.26C1345.56 448.26 1345.79 448.189 1345.94 448.049C1346.1 447.896 1346.51 447.381 1347.17 446.502C1347.6 445.928 1348.59 444.527 1350.12 442.301C1350.12 442.219 1349.99 441.592 1349.72 440.42C1349.45 439.236 1349.2 438.234 1348.98 437.414C1348.76 436.582 1348.56 436.037 1348.38 435.779C1348.21 435.51 1347.88 435.375 1347.4 435.375C1347.23 435.375 1346.91 435.434 1346.43 435.551C1346.12 435.621 1345.8 435.703 1345.45 435.797L1345.29 435.252L1347.24 434.584C1347.74 434.408 1348.21 434.268 1348.63 434.162C1349.06 434.057 1349.43 434.004 1349.73 434.004C1350.23 434.004 1350.6 434.15 1350.84 434.443C1351.22 434.912 1351.53 435.838 1351.79 437.221L1352.16 439.225C1353.21 437.607 1354.04 436.471 1354.62 435.814C1355.15 435.217 1355.65 434.771 1356.12 434.479C1356.58 434.186 1357.03 434.039 1357.45 434.039C1357.85 434.039 1358.17 434.098 1358.42 434.215C1358.86 434.426 1359.09 434.824 1359.09 435.41C1359.09 435.809 1358.97 436.119 1358.75 436.342C1358.53 436.564 1358.24 436.676 1357.89 436.676C1357.76 436.676 1357.64 436.664 1357.52 436.641C1357.4 436.605 1357.28 436.559 1357.15 436.5L1356.7 436.307C1356.57 436.248 1356.44 436.201 1356.33 436.166C1356.21 436.119 1356.12 436.096 1356.06 436.096C1355.54 436.096 1354.8 436.781 1353.87 438.152C1352.93 439.512 1352.46 440.297 1352.46 440.508C1352.46 440.684 1352.56 441.258 1352.78 442.23C1353 443.191 1353.24 444.211 1353.5 445.289C1353.73 446.309 1353.93 447.012 1354.09 447.398C1354.36 448.031 1354.67 448.348 1355.01 448.348C1355.32 448.348 1355.65 448.172 1355.97 447.82C1356.3 447.469 1356.79 446.836 1357.45 445.922L1357.94 446.221C1357.44 447.135 1356.92 447.914 1356.38 448.559C1355.36 449.777 1354.39 450.387 1353.46 450.387C1352.88 450.387 1352.41 450.105 1352.07 449.543C1351.87 449.215 1351.68 448.676 1351.49 447.926L1350.4 443.584L1346.8 448.312C1346.1 449.133 1345.55 449.684 1345.16 449.965C1344.79 450.246 1344.32 450.387 1343.76 450.387C1343.01 450.387 1342.5 450.152 1342.23 449.684C1342.08 449.438 1342 449.145 1342 448.805Z" fill="#00A3FF"/>
<path d="M569.328 255.391C570.984 255.391 572.276 255.161 573.203 254.703C574.786 253.911 575.578 252.464 575.578 250.359C575.578 249.161 575.24 248.318 574.562 247.828C573.896 247.328 573.016 247.078 571.922 247.078C571.224 247.078 570.75 247.146 570.5 247.281C570.26 247.406 570.094 247.635 570 247.969L567.922 255.375L569.328 255.391ZM567.672 265.984C569.776 265.984 571.318 265.432 572.297 264.328C573.276 263.224 573.766 261.896 573.766 260.344C573.766 258.615 573.193 257.484 572.047 256.953C571.318 256.63 569.844 256.453 567.625 256.422L565.625 263.672C565.573 263.849 565.531 264.026 565.5 264.203C565.469 264.37 565.453 264.526 565.453 264.672C565.453 265.245 565.719 265.625 566.25 265.812C566.552 265.927 567.026 265.984 567.672 265.984ZM559.703 266.484C560.453 266.422 560.969 266.286 561.25 266.078C561.688 265.766 562.047 265.115 562.328 264.125L566.25 249.969C566.344 249.615 566.417 249.339 566.469 249.141C566.573 248.661 566.625 248.307 566.625 248.078C566.625 247.536 566.448 247.167 566.094 246.969C565.75 246.771 565.099 246.661 564.141 246.641V246.125H572.406C573.812 246.125 575.052 246.307 576.125 246.672C577.927 247.432 578.828 248.797 578.828 250.766C578.828 252.401 578.094 253.672 576.625 254.578C575.823 255.068 574.708 255.469 573.281 255.781C574.385 256.198 575.214 256.656 575.766 257.156C576.755 258.062 577.25 259.292 577.25 260.844C577.25 262.594 576.474 264.057 574.922 265.234C573.37 266.411 571.245 267 568.547 267H559.703V266.484ZM586.335 248.047C586.377 247.911 586.403 247.776 586.413 247.641C586.424 247.505 586.429 247.396 586.429 247.312C586.429 246.958 586.283 246.745 585.991 246.672C585.71 246.589 585.142 246.552 584.288 246.562V246.047C584.757 245.984 585.293 245.911 585.897 245.828C586.512 245.745 586.913 245.688 587.101 245.656C587.684 245.552 588.392 245.396 589.226 245.188C589.299 245.188 589.371 245.24 589.444 245.344L584.522 264.125C584.408 264.573 584.34 264.844 584.319 264.938C584.299 265.031 584.288 265.125 584.288 265.219C584.288 265.417 584.325 265.589 584.397 265.734C584.47 265.87 584.606 265.938 584.804 265.938C585.179 265.938 585.668 265.604 586.272 264.938C586.877 264.271 587.387 263.625 587.804 263L588.226 263.297C587.33 264.62 586.632 265.536 586.132 266.047C585.267 266.911 584.397 267.344 583.522 267.344C583.147 267.344 582.814 267.25 582.522 267.062C582.075 266.781 581.851 266.302 581.851 265.625C581.851 265.365 581.892 265.016 581.976 264.578C582.028 264.318 582.095 264.016 582.179 263.672L586.335 248.047ZM594.045 255.719C594.066 255.615 594.081 255.521 594.092 255.438C594.113 255.344 594.123 255.25 594.123 255.156C594.123 254.708 593.988 254.438 593.717 254.344C593.456 254.24 592.962 254.188 592.233 254.188V253.75L594.529 253.297L597.014 252.828C597.066 252.818 597.113 252.839 597.154 252.891C597.196 252.943 597.212 252.995 597.201 253.047L597.154 253.266L594.389 263.891C594.316 264.151 594.264 264.354 594.233 264.5C594.201 264.646 594.186 264.75 594.186 264.812C594.186 265.052 594.253 265.24 594.389 265.375C594.524 265.51 594.701 265.578 594.92 265.578C595.535 265.578 596.3 265.031 597.217 263.938C598.144 262.844 598.967 261.708 599.686 260.531C600.331 259.479 600.925 258.307 601.467 257.016C601.8 256.214 602.279 254.938 602.904 253.188H605.264L602.311 264.266C602.259 264.474 602.212 264.667 602.17 264.844C602.128 265.021 602.108 265.167 602.108 265.281C602.108 265.417 602.139 265.536 602.201 265.641C602.264 265.734 602.373 265.781 602.529 265.781C602.686 265.781 602.847 265.724 603.014 265.609C603.18 265.484 603.389 265.297 603.639 265.047C603.753 264.932 603.962 264.688 604.264 264.312C604.451 264.083 604.738 263.734 605.123 263.266L605.561 263.562C605.081 264.354 604.581 265.036 604.061 265.609C603.029 266.766 602.071 267.344 601.186 267.344C600.727 267.344 600.352 267.219 600.061 266.969C599.769 266.719 599.623 266.328 599.623 265.797C599.623 265.526 599.649 265.229 599.701 264.906C599.753 264.583 599.837 264.219 599.951 263.812C600.139 263.083 600.378 262.172 600.67 261.078L601.014 259.75H600.904C599.467 262.135 598.337 263.823 597.514 264.812C596.087 266.51 594.738 267.359 593.467 267.359C593.123 267.359 592.811 267.286 592.529 267.141C591.988 266.849 591.717 266.328 591.717 265.578C591.717 265.359 591.727 265.182 591.748 265.047C591.769 264.911 591.805 264.724 591.858 264.484L594.045 255.719ZM613.864 252.781C613.958 252.781 614.021 252.812 614.052 252.875C614.094 252.927 614.114 252.99 614.114 253.062C614.104 253.167 614.094 253.245 614.083 253.297L612.521 259.344L612.864 258.672C613.614 257.203 614.489 255.865 615.489 254.656C616.5 253.438 617.458 252.828 618.364 252.828C618.854 252.828 619.229 252.99 619.489 253.312C619.76 253.635 619.896 254.005 619.896 254.422C619.896 254.891 619.76 255.281 619.489 255.594C619.229 255.896 618.864 256.047 618.396 256.047C618.073 256.047 617.828 255.984 617.661 255.859C617.495 255.734 617.364 255.589 617.271 255.422L617.083 255.078C617.041 255.016 616.989 254.969 616.927 254.938C616.875 254.896 616.807 254.875 616.724 254.875C616.318 254.875 615.729 255.443 614.958 256.578C614.198 257.714 613.515 258.943 612.911 260.266C612.547 261.068 612.14 262.13 611.693 263.453C611.411 264.286 611.036 265.469 610.568 267H608.161L610.755 257.594C610.901 257.052 611.015 256.568 611.099 256.141C611.193 255.714 611.239 255.365 611.239 255.094C611.239 254.781 611.161 254.542 611.005 254.375C610.849 254.208 610.578 254.125 610.193 254.125C610.068 254.125 609.911 254.135 609.724 254.156C609.536 254.177 609.312 254.203 609.052 254.234V253.719L609.677 253.594C610.489 253.427 611.375 253.25 612.333 253.062C613.302 252.875 613.812 252.781 613.864 252.781ZM628.403 256.453C627.903 256.453 627.481 256.281 627.137 255.938C626.793 255.583 626.621 255.161 626.621 254.672C626.621 254.182 626.793 253.766 627.137 253.422C627.491 253.068 627.913 252.891 628.403 252.891C628.892 252.891 629.309 253.068 629.653 253.422C630.007 253.766 630.184 254.182 630.184 254.672C630.184 255.161 630.012 255.583 629.668 255.938C629.324 256.281 628.903 256.453 628.403 256.453ZM625.215 267.375C624.715 267.375 624.293 267.203 623.949 266.859C623.606 266.505 623.434 266.083 623.434 265.594C623.434 265.104 623.606 264.688 623.949 264.344C624.304 264 624.725 263.828 625.215 263.828C625.705 263.828 626.121 264 626.465 264.344C626.819 264.688 626.996 265.104 626.996 265.594C626.996 266.083 626.824 266.505 626.481 266.859C626.137 267.203 625.715 267.375 625.215 267.375ZM566.297 298.375C568.286 298.375 570.01 296.396 571.469 292.438C572.729 289.052 573.359 285.812 573.359 282.719C573.359 281.646 573.245 280.781 573.016 280.125C572.599 278.875 571.812 278.25 570.656 278.25C568.521 278.25 566.714 280.552 565.234 285.156C564.109 288.677 563.547 291.609 563.547 293.953C563.547 294.943 563.661 295.771 563.891 296.438C564.328 297.729 565.13 298.375 566.297 298.375ZM570.703 277.344C572.703 277.344 574.146 278.339 575.031 280.328C575.604 281.63 575.891 283.146 575.891 284.875C575.891 288.688 574.885 292.042 572.875 294.938C570.896 297.771 568.661 299.188 566.172 299.188C564.724 299.188 563.5 298.573 562.5 297.344C561.5 296.104 561 294.396 561 292.219C561 288.583 561.984 285.214 563.953 282.109C565.974 278.932 568.224 277.344 570.703 277.344ZM582.179 299.375C581.679 299.375 581.257 299.203 580.913 298.859C580.569 298.505 580.397 298.083 580.397 297.594C580.397 297.104 580.569 296.688 580.913 296.344C581.267 296 581.689 295.828 582.179 295.828C582.668 295.828 583.085 296 583.429 296.344C583.783 296.688 583.96 297.104 583.96 297.594C583.96 298.083 583.788 298.505 583.444 298.859C583.101 299.203 582.679 299.375 582.179 299.375ZM587.467 298.469L588.529 298.453C589.227 298.37 589.785 298.219 590.201 298C590.618 297.771 590.904 297.38 591.061 296.828L595.467 281.078C595.54 280.818 595.592 280.599 595.623 280.422C595.665 280.234 595.686 280.068 595.686 279.922C595.686 279.557 595.566 279.312 595.326 279.188C595.087 279.062 594.706 279 594.186 279L592.654 279.078V278.594L593.061 278.531C593.352 278.479 594.123 278.328 595.373 278.078C596.634 277.828 597.529 277.646 598.061 277.531L598.545 277.422L598.842 277.375L599.029 277.484C599.029 277.547 599.024 277.609 599.014 277.672C599.014 277.734 599.003 277.797 598.983 277.859L593.733 297C593.712 297.083 593.691 297.167 593.67 297.25C593.66 297.333 593.654 297.417 593.654 297.5C593.654 297.927 593.842 298.198 594.217 298.312C594.592 298.427 595.316 298.5 596.389 298.531V299H587.467V298.469ZM603.239 298.453L609.989 291.297C611.146 290.078 612.068 288.984 612.755 288.016C613.974 286.307 614.583 284.859 614.583 283.672C614.583 282.568 614.224 281.63 613.505 280.859C612.797 280.089 611.823 279.703 610.583 279.703C609.416 279.703 608.396 280.094 607.521 280.875C607.052 281.302 606.578 281.917 606.099 282.719L605.427 282.484C606.229 280.318 607.489 278.818 609.208 277.984C610.104 277.557 611.057 277.344 612.068 277.344C613.703 277.344 614.989 277.901 615.927 279.016C616.875 280.13 617.349 281.37 617.349 282.734C617.349 283.922 616.984 285.042 616.255 286.094C615.536 287.146 614.312 288.536 612.583 290.266L606.427 296.422V296.562H612.505C613.39 296.562 614.047 296.422 614.474 296.141C614.911 295.859 615.318 295.333 615.693 294.562L616.208 294.781L614.614 299H603.239V298.453ZM623.59 299.281C622.934 299.281 622.324 299.193 621.762 299.016C620.783 298.693 620.293 298.151 620.293 297.391C620.293 296.974 620.429 296.651 620.699 296.422C620.981 296.193 621.283 296.078 621.606 296.078C622.022 296.078 622.637 296.385 623.449 297C624.262 297.604 624.96 297.906 625.543 297.906C626.918 297.906 628.173 297.276 629.309 296.016C630.455 294.745 631.028 293.161 631.028 291.266C631.028 289.161 630.236 287.615 628.653 286.625C627.736 286.052 626.189 285.562 624.012 285.156V284.672L627.356 277.672H635.543L634.793 279.969H627.465L626.199 282.781C628.491 283.146 630.251 283.938 631.481 285.156C632.72 286.365 633.34 288.036 633.34 290.172C633.34 292.495 632.403 294.599 630.528 296.484C628.653 298.349 626.34 299.281 623.59 299.281ZM635.909 297.938C635.909 297.531 636.034 297.245 636.284 297.078C636.534 296.901 636.79 296.812 637.05 296.812C637.175 296.812 637.3 296.833 637.425 296.875C637.55 296.906 637.685 296.964 637.831 297.047L638.378 297.344C638.451 297.385 638.519 297.417 638.581 297.438C638.654 297.448 638.732 297.453 638.816 297.453C639.076 297.453 639.274 297.391 639.409 297.266C639.555 297.13 639.92 296.672 640.503 295.891C640.889 295.38 641.764 294.135 643.128 292.156C643.128 292.083 643.008 291.526 642.769 290.484C642.529 289.432 642.31 288.542 642.113 287.812C641.915 287.073 641.738 286.589 641.581 286.359C641.425 286.12 641.133 286 640.706 286C640.56 286 640.274 286.052 639.847 286.156C639.576 286.219 639.284 286.292 638.972 286.375L638.831 285.891L640.566 285.297C641.014 285.141 641.425 285.016 641.8 284.922C642.185 284.828 642.514 284.781 642.784 284.781C643.222 284.781 643.55 284.911 643.769 285.172C644.102 285.589 644.383 286.411 644.613 287.641L644.941 289.422C645.878 287.984 646.607 286.974 647.128 286.391C647.597 285.859 648.04 285.464 648.456 285.203C648.873 284.943 649.269 284.812 649.644 284.812C649.998 284.812 650.284 284.865 650.503 284.969C650.899 285.156 651.097 285.51 651.097 286.031C651.097 286.385 650.998 286.661 650.8 286.859C650.602 287.057 650.347 287.156 650.034 287.156C649.92 287.156 649.81 287.146 649.706 287.125C649.602 287.094 649.493 287.052 649.378 287L648.972 286.828C648.857 286.776 648.748 286.734 648.644 286.703C648.54 286.661 648.461 286.641 648.409 286.641C647.941 286.641 647.29 287.25 646.456 288.469C645.623 289.677 645.206 290.375 645.206 290.562C645.206 290.719 645.3 291.229 645.488 292.094C645.685 292.948 645.899 293.854 646.128 294.812C646.336 295.719 646.514 296.344 646.659 296.688C646.899 297.25 647.17 297.531 647.472 297.531C647.753 297.531 648.04 297.375 648.331 297.062C648.623 296.75 649.06 296.188 649.644 295.375L650.081 295.641C649.633 296.453 649.17 297.146 648.691 297.719C647.784 298.802 646.92 299.344 646.097 299.344C645.576 299.344 645.165 299.094 644.863 298.594C644.685 298.302 644.514 297.823 644.347 297.156L643.378 293.297L640.175 297.5C639.55 298.229 639.066 298.719 638.722 298.969C638.389 299.219 637.972 299.344 637.472 299.344C636.805 299.344 636.352 299.135 636.113 298.719C635.977 298.5 635.909 298.24 635.909 297.938Z" fill="#00A3FF"/>
<defs>
<filter id="filter0_f_349_1281" x="710" y="190" width="500" height="500" filterUnits="userSpaceOnUse" color-interpolation-filters="sRGB">
<feFlood flood-opacity="0" result="BackgroundImageFix"/>
<feBlend mode="normal" in="SourceGraphic" in2="BackgroundImageFix" result="shape"/>
<feGaussianBlur stdDeviation="25" result="effect1_foregroundBlur_349_1281"/>
</filter>
<filter id="filter1_f_349_1281" x="710" y="190" width="500" height="500" filterUnits="userSpaceOnUse" color-interpolation-filters="sRGB">
<feFlood flood-opacity="0" result="BackgroundImageFix"/>
<feBlend mode="normal" in="SourceGraphic" in2="BackgroundImageFix" result="shape"/>
<feGaussianBlur stdDeviation="25" result="effect1_foregroundBlur_349_1281"/>
</filter>
<linearGradient id="paint0_linear_349_1281" x1="762.518" y1="472.853" x2="785.796" y2="469.283" gradientUnits="userSpaceOnUse">
<stop stop-color="#017994"/>
<stop offset="1" stop-color="#02BDE7"/>
</linearGradient>
<linearGradient id="paint1_linear_349_1281" x1="1157.15" y1="472.853" x2="1133.87" y2="469.283" gradientUnits="userSpaceOnUse">
<stop stop-color="#017994"/>
<stop offset="1" stop-color="#02BDE7"/>
</linearGradient>
</defs>
</svg>
