<svg width="1920" height="1080" viewBox="0 0 1920 1080" fill="none" xmlns="http://www.w3.org/2000/svg">
<rect width="1920" height="1080" fill="#F5F5F5"/>
<g filter="url(#filter0_f_349_1284)">
<path d="M960 640C1070.46 640 1160 550.457 1160 440C1160 329.543 1070.46 240 960 240C849.543 240 760 329.543 760 440C760 550.457 849.543 640 960 640Z" fill="#FF2A00"/>
</g>
<path fill-rule="evenodd" clip-rule="evenodd" d="M1160 640C1160 750.457 1070.46 840 960 840C849.543 840 760 750.457 760 640C760 629.747 760.772 619.673 762.26 609.835C762.349 610.169 762.454 610.503 762.573 610.834C764.384 615.884 769.161 618.958 774.212 618.958C775.584 618.958 777.012 618.683 778.439 618.189C784.808 615.829 788.157 608.749 785.796 602.327C783.49 595.961 776.408 592.613 769.984 594.973C767.517 595.879 765.512 597.482 764.108 599.476C782.84 508.448 863.427 440 960 440C1056.77 440 1137.49 508.725 1156 600.028C1154.6 597.88 1152.51 596.148 1149.91 595.192C1143.54 592.832 1136.46 596.125 1134.09 602.547C1131.79 608.968 1135.08 616.049 1141.51 618.409H1141.45C1142.82 618.958 1144.25 619.177 1145.68 619.177C1150.73 619.177 1155.45 616.104 1157.26 611.054C1157.44 610.568 1157.59 610.079 1157.7 609.588C1159.22 619.505 1160 629.661 1160 640ZM800.62 656.554C795.404 660.945 794.69 668.739 799.082 673.953V674.008C801.553 676.916 805.012 678.398 808.581 678.398C811.381 678.398 814.181 677.41 816.541 675.489C821.702 671.099 822.416 663.305 818.024 658.091C813.632 652.877 805.835 652.163 800.62 656.554ZM1103.35 675.599C1098.13 671.263 1097.47 663.415 1101.87 658.201C1106.26 652.986 1114.05 652.328 1119.27 656.719C1124.49 661.109 1125.15 668.903 1120.75 674.117C1118.34 677.026 1114.82 678.508 1111.31 678.508C1108.51 678.508 1105.71 677.575 1103.35 675.599ZM850.416 703.92C847.012 709.848 849.043 717.422 854.918 720.825L854.973 720.77C856.894 721.868 859.035 722.416 861.122 722.416C865.349 722.416 869.522 720.221 871.828 716.269C875.231 710.397 873.2 702.822 867.326 699.419C861.396 696.017 853.82 698.047 850.416 703.92ZM1048.01 716.434C1044.6 710.561 1046.64 702.987 1052.56 699.584C1058.49 696.181 1066.02 698.212 1069.47 704.085C1072.88 710.012 1070.85 717.532 1064.97 720.935C1063.05 722.087 1060.91 722.581 1058.82 722.581C1054.54 722.581 1050.42 720.331 1048.06 716.434H1048.01ZM913.443 731.527C912.235 738.168 916.737 744.645 923.435 745.798L923.381 745.743L923.534 745.765C924.245 745.867 924.911 745.962 925.577 745.962C931.451 745.962 936.667 741.736 937.71 735.753C938.918 729.112 934.471 722.636 927.718 721.483C921.02 720.331 914.596 724.831 913.443 731.527ZM992.118 721.538C985.365 722.691 980.863 729.112 982.071 735.808H982.126C983.169 741.791 988.33 746.017 994.259 746.017C994.973 746.017 995.631 745.962 996.4 745.852C1003.1 744.7 1007.6 738.278 1006.39 731.582C1005.24 724.886 998.816 720.331 992.118 721.538Z" fill="black"/>
<path d="M1157.65 551.613C1150.84 551.613 1145.29 546.07 1145.29 539.264C1145.29 532.458 1150.84 526.915 1157.65 526.915C1164.51 526.915 1170 532.458 1170 539.264C1170 546.125 1164.45 551.613 1157.65 551.613Z" fill="black"/>
<path d="M750 539.045V538.551C750 531.745 755.545 526.256 762.353 526.256C769.161 526.256 774.706 531.8 774.706 538.605V539.045C774.706 545.85 769.161 551.394 762.353 551.394C755.49 551.394 750 545.85 750 539.045Z" fill="black"/>
<mask id="mask0_349_1284" style="mask-type:alpha" maskUnits="userSpaceOnUse" x="760" y="440" width="400" height="400">
<path d="M960 840C1070.46 840 1160 750.457 1160 640C1160 529.543 1070.46 440 960 440C849.543 440 760 529.543 760 640C760 750.457 849.543 840 960 840Z" fill="black"/>
</mask>
<g mask="url(#mask0_349_1284)">
<g filter="url(#filter1_f_349_1284)">
<path d="M960 640C1070.46 640 1160 550.457 1160 440C1160 329.543 1070.46 240 960 240C849.543 240 760 329.543 760 440C760 550.457 849.543 640 960 640Z" fill="#02D5FF"/>
</g>
</g>
<path d="M770.094 482.677C763.671 480.317 760.377 473.237 762.737 466.815C765.098 460.394 772.235 457.156 778.604 459.516C785.028 461.876 788.322 468.956 785.961 475.377C784.149 480.372 779.373 483.501 774.377 483.501C772.949 483.501 771.522 483.226 770.149 482.732L770.094 482.677Z" fill="url(#paint0_linear_349_1284)"/>
<path d="M1145.29 483.391C1140.24 483.391 1135.52 480.262 1133.71 475.268C1131.35 468.846 1134.64 461.766 1141.07 459.406C1147.49 457.046 1154.57 460.339 1156.93 466.706C1159.24 473.127 1155.95 480.207 1149.58 482.567C1148.2 483.061 1146.78 483.336 1145.35 483.336L1145.29 483.391Z" fill="url(#paint1_linear_349_1284)"/>
<path d="M1102.09 420.163C1097.69 414.949 1098.41 407.1 1103.62 402.764C1108.84 398.373 1116.64 399.032 1121.03 404.301C1125.42 409.515 1124.71 417.309 1119.49 421.7C1117.18 423.621 1114.38 424.609 1111.58 424.609C1108.07 424.609 1104.56 423.072 1102.09 420.163ZM800.839 421.206C795.624 416.815 794.965 409.021 799.357 403.807C803.749 398.593 811.545 397.934 816.761 402.325C822.031 406.716 822.635 414.51 818.243 419.724C815.773 422.633 812.314 424.115 808.8 424.115C806 424.115 803.2 423.182 800.839 421.206ZM1052.89 378.724C1046.96 375.322 1044.99 367.747 1048.39 361.875C1051.8 356.002 1059.37 353.971 1065.3 357.374C1071.18 360.777 1073.21 368.351 1069.8 374.224C1067.5 378.176 1063.33 380.371 1059.1 380.371C1056.96 380.371 1054.87 379.822 1052.95 378.67L1052.89 378.724ZM850.8 373.895C847.396 368.022 849.427 360.448 855.302 357.045C861.231 353.642 868.808 355.673 872.212 361.545C875.616 367.473 873.584 374.992 867.655 378.395C865.733 379.548 863.592 380.042 861.506 380.042C857.278 380.042 853.106 377.846 850.8 373.84V373.895ZM992.502 356.606C985.804 355.398 981.302 349.032 982.51 342.336C983.718 335.585 990.086 331.139 996.784 332.346C1003.54 333.499 1007.98 339.975 1006.83 346.671C1005.79 352.654 1000.57 356.825 994.698 356.825C993.984 356.825 993.271 356.77 992.502 356.661V356.606ZM913.827 346.452C912.675 339.756 917.176 333.334 923.875 332.182C930.627 331.029 936.996 335.475 938.149 342.226C939.302 348.922 934.855 355.343 928.102 356.496C927.388 356.606 926.675 356.661 925.961 356.661C920.086 356.661 914.871 352.434 913.827 346.452Z" fill="#02D5FF"/>
<defs>
<filter id="filter0_f_349_1284" x="710" y="190" width="500" height="500" filterUnits="userSpaceOnUse" color-interpolation-filters="sRGB">
<feFlood flood-opacity="0" result="BackgroundImageFix"/>
<feBlend mode="normal" in="SourceGraphic" in2="BackgroundImageFix" result="shape"/>
<feGaussianBlur stdDeviation="25" result="effect1_foregroundBlur_349_1284"/>
</filter>
<filter id="filter1_f_349_1284" x="710" y="190" width="500" height="500" filterUnits="userSpaceOnUse" color-interpolation-filters="sRGB">
<feFlood flood-opacity="0" result="BackgroundImageFix"/>
<feBlend mode="normal" in="SourceGraphic" in2="BackgroundImageFix" result="shape"/>
<feGaussianBlur stdDeviation="25" result="effect1_foregroundBlur_349_1284"/>
</filter>
<linearGradient id="paint0_linear_349_1284" x1="762.518" y1="472.853" x2="785.796" y2="469.283" gradientUnits="userSpaceOnUse">
<stop stop-color="#017994"/>
<stop offset="1" stop-color="#02BDE7"/>
</linearGradient>
<linearGradient id="paint1_linear_349_1284" x1="1157.15" y1="472.853" x2="1133.87" y2="469.283" gradientUnits="userSpaceOnUse">
<stop stop-color="#017994"/>
<stop offset="1" stop-color="#02BDE7"/>
</linearGradient>
</defs>
</svg>
