<svg width="1920" height="1080" viewBox="0 0 1920 1080" fill="none" xmlns="http://www.w3.org/2000/svg">
<rect width="1920" height="1080" fill="#F5F5F5"/>
<path d="M675.136 432.796V440.576C667.729 441.945 662.065 444.31 658.269 447.671C652.791 452.713 647.937 460.431 643.704 470.887L570.572 649.33H564.846L486.299 468.584C482.253 459.31 479.452 453.647 477.772 451.593C475.22 448.418 472.046 445.929 468.249 444.062C464.514 442.257 459.411 441.074 453 440.576V432.796H538.705V440.576C528.995 441.51 522.709 443.128 519.846 445.555C516.983 447.92 515.489 450.97 515.489 454.705C515.489 459.871 517.854 467.9 522.585 478.854L575.925 601.778L625.406 480.348C630.26 468.397 632.688 460.12 632.688 455.451C632.688 452.464 631.194 449.601 628.206 446.862C625.219 444.124 620.177 442.194 613.02 441.074C612.522 440.95 611.651 440.825 610.406 440.638V432.796H675.073H675.136Z" fill="black"/>
<path d="M775.338 633.899V640.435C775.338 640.435 767.994 646.098 756.23 647.343C751.189 647.903 742.973 646.97 738.367 642.053C735.193 638.63 733.761 632.468 733.699 623.941C719.011 635.269 709.799 641.866 706.065 643.609C700.463 646.223 694.426 647.53 688.139 647.53C678.243 647.53 670.09 644.169 663.679 637.385C657.268 630.601 654.094 621.7 654.094 610.684C654.094 603.713 655.65 597.676 658.762 592.572C663.056 585.476 670.463 578.817 681.044 572.593C691.625 566.369 709.177 558.775 733.761 549.813V544.211C733.761 529.958 731.521 520.186 726.977 514.834C722.434 509.543 715.836 506.867 707.247 506.867C700.712 506.867 695.484 508.61 691.625 512.157C687.641 515.705 685.712 519.751 685.712 524.356L686.023 533.444C686.023 538.236 684.778 541.908 682.351 544.522C679.924 547.136 676.687 548.443 672.766 548.443C668.845 548.443 665.795 547.074 663.305 544.398C660.878 541.659 659.633 537.987 659.633 533.319C659.633 524.356 664.239 516.141 673.388 508.672C682.538 501.203 695.421 497.406 711.977 497.406C724.674 497.406 735.069 499.523 743.222 503.817C749.384 507.054 753.865 512.095 756.79 518.942C758.658 523.423 759.591 532.572 759.591 546.452V594.999C759.591 608.63 759.84 623.879 760.338 626.928C760.836 629.978 761.832 631.97 762.89 633.09C765.691 636.016 771.79 635.206 775.462 634.086L775.338 633.899ZM733.637 613.734V559.211C717.89 565.435 707.745 569.854 703.201 572.468C694.986 577.074 689.073 581.804 685.587 586.846C682.04 591.825 680.297 597.302 680.297 603.215C680.297 610.684 682.538 616.908 687.019 621.887C691.5 626.804 696.666 629.294 702.455 629.294C710.359 629.294 720.753 624.065 733.699 613.671L733.637 613.734Z" fill="black"/>
<path d="M923.724 555.347C923.599 576.571 928.765 593.252 939.159 605.326C949.553 617.401 961.815 623.438 975.881 623.438C985.279 623.438 993.371 620.886 1000.34 615.721C1007.31 610.555 1013.04 601.716 1017.77 589.268L1022.62 592.38C1020.45 606.633 1014.1 619.642 1003.58 631.343C993.059 643.044 979.864 648.895 964.055 648.895C946.877 648.895 932.188 642.235 919.927 628.853C907.666 615.472 901.566 597.484 901.566 574.891C901.566 550.43 907.852 531.323 920.363 517.63C932.935 503.937 948.62 497.09 967.603 497.09C983.661 497.09 996.794 502.381 1007.13 512.962C1017.46 523.543 1022.56 537.671 1022.56 555.347H923.724ZM923.724 546.26H989.947C989.45 537.111 988.329 530.638 986.649 526.904C984.035 521.053 980.176 516.509 975.01 513.148C969.844 509.787 964.491 508.169 958.827 508.169C950.176 508.169 942.458 511.53 935.612 518.252C928.765 524.974 924.782 534.31 923.661 546.26H923.724Z" fill="black"/>
<path d="M1326.42 590.21C1322.56 609.069 1315.03 623.571 1303.76 633.716C1292.5 643.862 1280.11 648.965 1266.42 648.965C1250.17 648.965 1236.04 642.181 1223.97 628.488C1211.9 614.795 1205.86 596.434 1205.86 573.219C1205.86 550.003 1212.58 532.451 1225.9 518.385C1239.28 504.319 1255.34 497.286 1274.07 497.286C1288.14 497.286 1299.65 501.02 1308.74 508.427C1317.83 515.895 1322.31 523.613 1322.31 531.642C1322.31 535.626 1321 538.8 1318.45 541.227C1315.9 543.655 1312.35 544.899 1307.75 544.899C1301.58 544.899 1296.98 542.908 1293.87 538.987C1292.06 536.808 1290.94 532.638 1290.38 526.476C1289.82 520.315 1287.7 515.647 1284.03 512.41C1280.42 509.298 1275.32 507.742 1268.91 507.742C1258.51 507.742 1250.11 511.601 1243.76 519.319C1235.36 529.526 1231.13 543.032 1231.13 559.775C1231.13 576.518 1235.3 591.891 1243.7 604.961C1252.1 618.032 1263.43 624.567 1277.68 624.567C1287.89 624.567 1297.04 621.082 1305.19 614.111C1310.92 609.318 1316.46 600.605 1321.87 588.032L1326.42 590.21Z" fill="black"/>
<path d="M1367.5 555.347C1367.37 576.571 1372.54 593.252 1382.93 605.326C1393.33 617.401 1405.59 623.438 1419.65 623.438C1429.05 623.438 1437.14 620.886 1444.11 615.721C1451.08 610.555 1456.81 601.716 1461.54 589.268L1466.4 592.38C1464.22 606.633 1457.87 619.642 1447.35 631.343C1436.83 643.044 1423.64 648.895 1407.83 648.895C1390.65 648.895 1375.96 642.235 1363.7 628.853C1351.44 615.472 1345.34 597.484 1345.34 574.891C1345.34 550.43 1351.62 531.323 1364.14 517.63C1376.71 503.937 1392.39 497.09 1411.38 497.09C1427.43 497.09 1440.57 502.381 1450.9 512.962C1461.23 523.543 1466.33 537.671 1466.33 555.347H1367.5ZM1367.5 546.26H1433.72C1433.22 537.111 1432.1 530.638 1430.42 526.904C1427.81 521.053 1423.95 516.509 1418.78 513.148C1413.62 509.787 1408.26 508.169 1402.6 508.169C1393.95 508.169 1386.23 511.53 1379.38 518.252C1372.54 524.974 1368.55 534.31 1367.43 546.26H1367.5Z" fill="black"/>
<path d="M783.498 437.22V448.859H802.543C806.775 448.859 818.414 449.419 821.028 451.411C823.643 453.402 824.887 454.772 825.696 458.506C826.443 462.24 826.63 471.39 826.63 487.697V598.982C826.63 611.679 825.385 619.833 822.896 623.132C818.912 628.235 808.331 634.522 792.087 634.522H783.56V644.48H895.841V634.522H886.443C872.812 634.522 865.655 631.845 861.173 629.356C857.812 627.488 855.634 622.945 854.638 620.331C853.269 616.908 852.584 609.688 852.584 598.982V430H844.804C844.804 430 815.489 435.539 783.56 437.22H783.498Z" fill="black"/>
<path d="M1088.85 527.597C1105.59 507.369 1121.59 497.286 1136.77 497.286C1144.55 497.286 1151.27 499.215 1156.94 503.136C1162.6 507.057 1167.02 513.468 1170.38 522.431C1172.69 528.655 1173.81 538.24 1173.81 551.186V607.887C1173.81 616.974 1174.55 623.073 1175.98 626.31C1177.1 628.924 1178.97 630.916 1181.52 632.409C1184.08 633.903 1188.81 634.588 1195.65 634.588V644.546H1124.88V634.588H1127.87C1134.53 634.588 1139.2 633.592 1141.88 631.538C1144.55 629.484 1146.36 626.497 1147.42 622.575C1147.85 621.019 1148.04 616.102 1148.04 607.887V553.675C1148.04 540.667 1146.36 531.207 1142.93 525.356C1139.57 519.505 1133.85 516.518 1125.82 516.518C1113.43 516.518 1101.11 523.302 1088.79 536.808V607.887C1088.79 617.596 1089.35 623.571 1090.53 625.812C1091.96 628.862 1094.01 631.04 1096.57 632.472C1099.12 633.903 1104.28 634.588 1112.13 634.588V644.546H1041.36V634.588H1044.47C1051.75 634.588 1056.67 632.721 1059.22 629.048C1061.77 625.376 1063.08 618.281 1063.08 607.887V559.153C1063.08 541.974 1062.71 527.348 1061.9 523.613C1061.15 519.879 1059.91 517.327 1058.29 515.958C1056.67 514.588 1054.49 513.904 1051.81 513.904C1048.89 513.904 1041.36 514.028 1041.36 514.028V505.252C1063.58 504.194 1082.13 497.286 1082.13 497.286H1088.85V527.597Z" fill="black"/>
</svg>
