<svg width="1920" height="1080" viewBox="0 0 1920 1080" fill="none" xmlns="http://www.w3.org/2000/svg">
<rect width="1920" height="1080" fill="#F5F5F5"/>
<path d="M1403.8 501.078C1418.54 501.078 1431.45 506.2 1442.53 516.446C1453.61 526.587 1459.15 541.014 1459.15 559.728H1359.57C1360.62 583.983 1366.11 601.651 1376.04 612.733C1385.97 623.815 1397.73 629.356 1411.32 629.356C1422.3 629.356 1431.55 626.481 1439.08 620.731C1446.61 614.98 1453.56 606.826 1459.94 596.267L1465.43 598.149C1461.14 611.426 1453.09 623.71 1441.28 635.001C1429.57 646.292 1415.19 651.937 1398.15 651.937C1378.5 651.937 1363.28 644.515 1352.52 629.669C1341.85 614.824 1336.52 597.73 1336.52 578.389C1336.52 557.376 1342.74 539.237 1355.18 523.973C1367.62 508.71 1383.83 501.078 1403.8 501.078ZM1394.7 512.525C1382.78 512.525 1373.69 517.805 1367.41 528.364C1364.07 534.01 1361.66 541.119 1360.2 549.692H1426.38C1425.23 539.237 1423.24 531.448 1420.42 526.325C1415.3 517.125 1406.72 512.525 1394.7 512.525Z" fill="#00A3FF"/>
<path d="M1267.36 500.294C1280.43 500.294 1291.67 503.691 1301.08 510.487C1310.59 517.178 1315.35 524.548 1315.35 532.598C1315.35 536.048 1314.15 539.289 1311.74 542.321C1309.34 545.248 1305.63 546.712 1300.61 546.712C1296.95 546.712 1293.71 545.457 1290.89 542.948C1288.17 540.439 1286.18 536.78 1284.93 531.971L1283.05 524.444C1281.69 518.903 1279.33 514.982 1275.99 512.682C1272.54 510.487 1267.99 509.389 1262.35 509.389C1250.43 509.389 1240.34 514.616 1232.08 525.071C1223.92 535.421 1219.85 549.221 1219.85 566.471C1219.85 582.258 1224.34 596.424 1233.33 608.969C1242.43 621.515 1254.66 627.787 1270.03 627.787C1280.9 627.787 1290.57 624.233 1299.04 617.124C1303.85 613.046 1309.29 606.565 1315.35 597.678L1319.74 600.344C1313.78 612.89 1307.51 622.821 1300.92 630.14C1288.27 644.149 1273.64 651.153 1257.01 651.153C1240.7 651.153 1226.28 644.724 1213.73 631.865C1201.19 619.006 1194.91 601.546 1194.91 579.487C1194.91 557.846 1201.76 539.237 1215.46 523.66C1229.15 508.082 1246.45 500.294 1267.36 500.294Z" fill="#00A3FF"/>
<path d="M1032.76 643.783C1040.18 642.842 1045.36 641.012 1048.29 638.294C1051.32 635.472 1052.83 629.251 1052.83 619.633V540.126C1052.83 533.435 1052.21 528.73 1050.95 526.012C1048.97 522.039 1044.89 520.053 1038.72 520.053C1037.78 520.053 1036.79 520.105 1035.74 520.21C1034.8 520.314 1033.6 520.471 1032.13 520.68V515.191C1036.42 513.937 1046.56 510.696 1062.56 505.469L1077.3 500.607C1078.03 500.607 1078.45 500.869 1078.55 501.391C1078.76 501.914 1078.87 502.646 1078.87 503.587V526.639C1088.49 517.648 1096.01 511.48 1101.45 508.134C1109.6 503.012 1118.07 500.45 1126.85 500.45C1133.96 500.45 1140.44 502.489 1146.3 506.566C1157.59 514.512 1163.24 528.678 1163.24 549.064V622.299C1163.24 629.826 1164.75 635.262 1167.78 638.608C1170.82 641.953 1175.89 643.678 1182.99 643.783V648.174H1116.03V643.783C1123.66 642.737 1129 640.647 1132.03 637.51C1135.06 634.269 1136.58 627.317 1136.58 616.653V549.692C1136.58 540.701 1134.9 533.278 1131.56 527.423C1128.21 521.464 1122.04 518.485 1113.05 518.485C1106.89 518.485 1100.61 520.575 1094.24 524.757C1090.68 527.162 1086.08 531.135 1080.44 536.676V624.494C1080.44 632.021 1082.11 637.092 1085.45 639.706C1088.8 642.215 1094.08 643.574 1101.29 643.783V648.174H1032.76V643.783Z" fill="#00A3FF"/>
<path d="M957.802 501.078C972.543 501.078 985.455 506.2 996.536 516.446C1007.62 526.587 1013.16 541.014 1013.16 559.728H913.579C914.625 583.983 920.113 601.651 930.045 612.733C939.977 623.815 951.739 629.356 965.33 629.356C976.307 629.356 985.559 626.481 993.086 620.731C1000.61 614.98 1007.57 606.826 1013.94 596.267L1019.43 598.149C1015.15 611.426 1007.1 623.71 995.282 635.001C983.573 646.292 969.198 651.937 952.157 651.937C932.502 651.937 917.291 644.515 906.522 629.669C895.859 614.824 890.527 597.73 890.527 578.389C890.527 557.376 896.747 539.237 909.188 523.973C921.629 508.71 937.834 501.078 957.802 501.078ZM948.707 512.525C936.788 512.525 927.693 517.805 921.42 528.364C918.075 534.01 915.67 541.119 914.207 549.692H980.384C979.234 539.237 977.248 531.448 974.425 526.325C969.302 517.125 960.729 512.525 948.707 512.525Z" fill="#00A3FF"/>
<path d="M801.454 643.783C811.177 642.842 817.763 640.908 821.213 637.981C824.663 634.949 826.388 629.094 826.388 620.417V467.205C826.388 460.305 825.813 455.548 824.663 452.934C822.572 448.543 818.338 446.348 811.961 446.348C810.497 446.348 808.877 446.505 807.099 446.818C805.427 447.132 803.284 447.602 800.67 448.23V443.055C814.784 439.291 831.772 434.273 851.636 428C852.368 428 852.786 428.314 852.891 428.941C853.1 429.568 853.204 430.927 853.204 433.018V621.044C853.204 630.14 854.772 636.047 857.909 638.765C861.045 641.378 867.527 643.051 877.354 643.783V648.174H801.454V643.783Z" fill="#00A3FF"/>
<path d="M744.215 561.296C732.192 565.269 722.26 569.66 714.42 574.469C699.365 583.774 691.838 594.333 691.838 606.146C691.838 615.66 694.974 622.665 701.247 627.16C705.324 630.087 709.872 631.551 714.89 631.551C721.79 631.551 728.376 629.617 734.649 625.749C741.026 621.881 744.215 616.967 744.215 611.008V561.296ZM663.924 616.967C663.924 601.808 671.503 589.158 686.663 579.017C696.281 572.744 715.465 564.223 744.215 553.455V540.126C744.215 529.462 743.17 522.039 741.079 517.857C737.524 510.853 730.154 507.35 718.967 507.35C713.635 507.35 708.565 508.71 703.756 511.428C698.947 514.25 696.542 518.119 696.542 523.032C696.542 524.287 696.804 526.43 697.326 529.462C697.849 532.389 698.11 534.271 698.11 535.107C698.11 540.962 696.176 545.039 692.308 547.339C690.113 548.698 687.499 549.378 684.467 549.378C679.763 549.378 676.156 547.862 673.647 544.83C671.138 541.694 669.883 538.244 669.883 534.48C669.883 527.162 674.378 519.53 683.369 511.585C692.465 503.534 705.742 499.509 723.201 499.509C743.483 499.509 757.231 506.096 764.445 519.269C768.313 526.482 770.247 536.989 770.247 550.789V613.674C770.247 619.737 770.665 623.919 771.502 626.219C772.861 630.296 775.683 632.335 779.97 632.335C782.374 632.335 784.361 631.969 785.929 631.237C787.497 630.506 790.215 628.728 794.084 625.906V634.06C790.738 638.137 787.131 641.483 783.263 644.097C777.408 648.069 771.449 650.056 765.386 650.056C758.277 650.056 753.102 647.756 749.861 643.156C746.724 638.556 744.999 633.067 744.686 626.69C736.74 633.59 729.945 638.712 724.299 642.058C714.785 647.703 705.742 650.526 697.169 650.526C688.178 650.526 680.39 647.39 673.803 641.117C667.217 634.74 663.924 626.69 663.924 616.967Z" fill="#00A3FF"/>
<path d="M546.466 435.684V441.643C538.416 441.748 532.928 442.271 530 443.211C524.878 444.884 522.316 448.282 522.316 453.405C522.316 456.018 523.205 459.677 524.982 464.382C526.864 469.087 530.314 476.98 535.332 488.062L585.514 599.874L631.149 478.809C633.135 473.478 634.651 468.982 635.696 465.323C636.742 461.664 637.265 458.684 637.265 456.384C637.265 450.216 634.599 446.034 629.267 443.839C626.13 442.584 620.955 441.852 613.742 441.643V435.684H679.449V441.173C672.653 442.114 667.635 443.943 664.394 446.661C659.481 450.739 654.619 458.946 649.81 471.282L578.771 651.938H573.91L494.716 475.359C488.025 460.409 482.641 451.105 478.564 447.446C474.591 443.786 468.736 441.696 461 441.173V435.684H546.466Z" fill="#00A3FF"/>
<g style="mix-blend-mode:multiply">
<path d="M675.136 435.796V443.576C667.729 444.945 662.065 447.31 658.269 450.671C652.791 455.713 647.937 463.431 643.704 473.887L570.572 652.33H564.846L486.299 471.584C482.253 462.31 479.452 456.646 477.772 454.593C475.22 451.418 472.046 448.929 468.249 447.061C464.514 445.256 459.411 444.074 453 443.576V435.796H538.705V443.576C528.995 444.51 522.709 446.128 519.846 448.555C516.983 450.92 515.489 453.97 515.489 457.705C515.489 462.871 517.854 470.9 522.585 481.854L575.925 604.778L625.406 483.348C630.26 471.397 632.688 463.119 632.688 458.451C632.688 455.464 631.194 452.601 628.206 449.862C625.219 447.124 620.177 445.194 613.02 444.074C612.522 443.949 611.651 443.825 610.406 443.638V435.796H675.073H675.136Z" fill="#FF2A00"/>
<path d="M775.338 636.899V643.435C775.338 643.435 767.994 649.099 756.23 650.343C751.189 650.903 742.973 649.97 738.367 645.053C735.193 641.63 733.761 635.468 733.699 626.941C719.01 638.269 709.799 644.866 706.064 646.609C700.463 649.223 694.425 650.53 688.139 650.53C678.243 650.53 670.09 647.169 663.679 640.385C657.268 633.601 654.094 624.7 654.094 613.684C654.094 606.713 655.65 600.676 658.762 595.572C663.056 588.476 670.463 581.817 681.044 575.593C691.625 569.369 709.176 561.775 733.761 552.813V547.211C733.761 532.958 731.521 523.186 726.977 517.834C722.434 512.543 715.836 509.867 707.247 509.867C700.712 509.867 695.484 511.61 691.625 515.157C687.641 518.705 685.712 522.751 685.712 527.356L686.023 536.444C686.023 541.236 684.778 544.908 682.351 547.522C679.923 550.136 676.687 551.443 672.766 551.443C668.845 551.443 665.795 550.074 663.305 547.398C660.878 544.659 659.633 540.987 659.633 536.319C659.633 527.356 664.239 519.141 673.388 511.672C682.538 504.203 695.421 500.406 711.977 500.406C724.674 500.406 735.068 502.523 743.222 506.817C749.384 510.054 753.865 515.095 756.79 521.942C758.657 526.423 759.591 535.572 759.591 549.452V597.999C759.591 611.63 759.84 626.879 760.338 629.928C760.836 632.978 761.832 634.97 762.89 636.09C765.691 639.016 771.79 638.206 775.462 637.086L775.338 636.899ZM733.637 616.734V562.211C717.89 568.435 707.745 572.854 703.201 575.468C694.986 580.074 689.073 584.804 685.587 589.846C682.04 594.825 680.297 600.302 680.297 606.215C680.297 613.684 682.538 619.908 687.019 624.887C691.5 629.804 696.666 632.294 702.454 632.294C710.359 632.294 720.753 627.065 733.699 616.671L733.637 616.734Z" fill="#FF2A00"/>
<path d="M923.724 558.347C923.599 579.571 928.765 596.252 939.159 608.326C949.553 620.401 961.815 626.438 975.881 626.438C985.279 626.438 993.37 623.887 1000.34 618.721C1007.31 613.555 1013.04 604.716 1017.77 592.268L1022.62 595.38C1020.44 609.633 1014.1 622.642 1003.58 634.343C993.059 646.044 979.864 651.895 964.055 651.895C946.877 651.895 932.188 645.235 919.927 631.853C907.665 618.472 901.566 600.484 901.566 577.891C901.566 553.43 907.852 534.323 920.363 520.63C932.935 506.937 948.62 500.091 967.603 500.091C983.661 500.091 996.794 505.381 1007.13 515.962C1017.46 526.543 1022.56 540.671 1022.56 558.347H923.724ZM923.724 549.26H989.947C989.449 540.111 988.329 533.638 986.648 529.904C984.034 524.053 980.175 519.509 975.01 516.149C969.844 512.788 964.491 511.169 958.827 511.169C950.176 511.169 942.458 514.53 935.611 521.252C928.765 527.974 924.782 537.31 923.661 549.26H923.724Z" fill="#FF2A00"/>
<path d="M1326.42 593.21C1322.56 612.069 1315.03 626.571 1303.76 636.716C1292.5 646.861 1280.11 651.965 1266.42 651.965C1250.17 651.965 1236.04 645.181 1223.97 631.488C1211.9 617.795 1205.86 599.434 1205.86 576.219C1205.86 553.003 1212.58 535.451 1225.9 521.385C1239.28 507.319 1255.34 500.286 1274.07 500.286C1288.14 500.286 1299.65 504.02 1308.74 511.427C1317.83 518.895 1322.31 526.613 1322.31 534.642C1322.31 538.626 1321 541.8 1318.45 544.227C1315.9 546.655 1312.35 547.899 1307.75 547.899C1301.58 547.899 1296.98 545.908 1293.87 541.987C1292.06 539.808 1290.94 535.638 1290.38 529.476C1289.82 523.315 1287.7 518.646 1284.03 515.41C1280.42 512.298 1275.32 510.742 1268.91 510.742C1258.51 510.742 1250.11 514.601 1243.76 522.319C1235.36 532.526 1231.13 546.032 1231.13 562.775C1231.13 579.517 1235.3 594.891 1243.7 607.961C1252.1 621.032 1263.43 627.567 1277.68 627.567C1287.89 627.567 1297.04 624.082 1305.19 617.111C1310.92 612.318 1316.46 603.604 1321.87 591.032L1326.42 593.21Z" fill="#FF2A00"/>
<path d="M1367.5 558.347C1367.37 579.571 1372.54 596.252 1382.93 608.326C1393.33 620.401 1405.59 626.438 1419.65 626.438C1429.05 626.438 1437.14 623.887 1444.11 618.721C1451.09 613.555 1456.81 604.716 1461.54 592.268L1466.4 595.38C1464.22 609.633 1457.87 622.642 1447.35 634.343C1436.83 646.044 1423.64 651.895 1407.83 651.895C1390.65 651.895 1375.96 645.235 1363.7 631.853C1351.44 618.472 1345.34 600.484 1345.34 577.891C1345.34 553.43 1351.63 534.323 1364.14 520.63C1376.71 506.937 1392.39 500.091 1411.38 500.091C1427.43 500.091 1440.57 505.381 1450.9 515.962C1461.23 526.543 1466.33 540.671 1466.33 558.347H1367.5ZM1367.5 549.26H1433.72C1433.22 540.111 1432.1 533.638 1430.42 529.904C1427.81 524.053 1423.95 519.509 1418.78 516.149C1413.62 512.788 1408.26 511.169 1402.6 511.169C1393.95 511.169 1386.23 514.53 1379.38 521.252C1372.54 527.974 1368.55 537.31 1367.43 549.26H1367.5Z" fill="#FF2A00"/>
<path d="M783.498 440.22V451.859H802.543C806.775 451.859 818.414 452.419 821.028 454.411C823.643 456.402 824.887 457.772 825.696 461.506C826.443 465.24 826.63 474.39 826.63 490.697V601.982C826.63 614.679 825.385 622.833 822.896 626.132C818.912 631.235 808.331 637.522 792.087 637.522H783.56V647.48H895.841V637.522H886.443C872.812 637.522 865.655 634.845 861.173 632.356C857.812 630.488 855.634 625.945 854.638 623.331C853.269 619.908 852.584 612.688 852.584 601.982V433H844.804C844.804 433 815.489 438.539 783.56 440.22H783.498Z" fill="#FF2A00"/>
<path d="M1088.85 530.597C1105.59 510.369 1121.59 500.286 1136.77 500.286C1144.55 500.286 1151.27 502.215 1156.94 506.136C1162.6 510.057 1167.02 516.468 1170.38 525.431C1172.69 531.655 1173.81 541.24 1173.81 554.186V610.887C1173.81 619.974 1174.55 626.073 1175.98 629.31C1177.1 631.924 1178.97 633.916 1181.52 635.409C1184.08 636.903 1188.81 637.588 1195.65 637.588V647.546H1124.88V637.588H1127.87C1134.53 637.588 1139.2 636.592 1141.88 634.538C1144.55 632.484 1146.36 629.497 1147.42 625.575C1147.85 624.019 1148.04 619.102 1148.04 610.887V556.675C1148.04 543.667 1146.36 534.207 1142.93 528.356C1139.57 522.505 1133.85 519.518 1125.82 519.518C1113.43 519.518 1101.11 526.302 1088.79 539.808V610.887C1088.79 620.596 1089.35 626.571 1090.53 628.812C1091.96 631.862 1094.01 634.04 1096.57 635.472C1099.12 636.903 1104.28 637.588 1112.13 637.588V647.546H1041.36V637.588H1044.47C1051.75 637.588 1056.67 635.721 1059.22 632.048C1061.77 628.376 1063.08 621.281 1063.08 610.887V562.152C1063.08 544.974 1062.71 530.348 1061.9 526.613C1061.15 522.879 1059.91 520.327 1058.29 518.958C1056.67 517.588 1054.49 516.904 1051.81 516.904C1048.89 516.904 1041.36 517.028 1041.36 517.028V508.252C1063.58 507.194 1082.13 500.286 1082.13 500.286H1088.85V530.597Z" fill="#FF2A00"/>
</g>
<path d="M859.207 914L854.887 896.576H857.311L859.903 907.808C860.143 908.864 860.407 910.136 860.623 911.312H860.743C860.959 910.136 861.199 908.912 861.511 907.808L864.559 896.576H867.487L870.439 907.808C870.583 908.384 870.703 909.008 871.207 911.312H871.351C871.807 909.032 871.951 908.408 872.095 907.808L874.735 896.576H876.895L872.599 914H869.791L866.791 902.432C866.647 901.856 866.503 901.256 865.999 898.928H865.879C865.375 901.232 865.231 901.856 865.087 902.432L861.991 914H859.207ZM884.858 914.36C881.186 914.36 878.906 911.672 878.906 907.808C878.906 903.968 881.21 901.256 884.882 901.256C888.578 901.256 890.906 903.968 890.906 907.808C890.906 911.672 888.602 914.36 884.858 914.36ZM884.858 912.608C887.186 912.608 888.626 910.688 888.626 907.832C888.626 904.976 887.162 903.032 884.882 903.032C882.626 903.032 881.186 904.928 881.186 907.784C881.186 910.664 882.602 912.608 884.858 912.608ZM894.868 914V901.616H896.956V903.44C897.916 901.952 899.068 901.472 900.436 901.472C900.892 901.472 901.372 901.52 901.828 901.616V903.56C901.276 903.464 900.796 903.392 900.364 903.392C897.7 903.392 897.076 905.312 897.076 908.312V914H894.868ZM909.275 914.264C906.011 914.264 903.971 911.936 903.971 907.808C903.971 904.112 906.059 901.352 909.275 901.352C910.955 901.352 912.203 901.808 913.019 903.056V896.576H915.227V914H913.115V912.368C912.275 913.616 910.955 914.264 909.275 914.264ZM909.587 912.512C911.675 912.512 913.067 910.688 913.067 907.808C913.067 904.856 911.675 903.104 909.587 903.104C907.547 903.104 906.251 904.856 906.251 907.808C906.251 910.688 907.547 912.512 909.587 912.512ZM920.026 914V901.616H922.09V903.2C922.81 902.048 924.154 901.352 925.81 901.352C927.226 901.352 928.618 902.024 929.194 903.632C930.226 902.024 931.834 901.352 933.586 901.352C936.442 901.352 937.57 903.128 937.57 905.936V914H935.362V907.136C935.362 905.336 935.218 903.104 932.914 903.104C930.25 903.104 929.914 906.032 929.914 907.88V914H927.706V907.136C927.706 905.336 927.538 903.104 925.234 903.104C922.57 903.104 922.234 906.032 922.234 907.88V914H920.026ZM945.658 914.264C942.922 914.264 941.362 912.704 941.362 910.52C941.362 906.464 946.546 906.608 949.618 906.248V905.816C949.618 903.968 948.778 902.912 946.882 902.912C945.154 902.912 944.002 903.776 944.002 905.432H941.818C941.818 902.888 943.906 901.256 946.882 901.256C951.562 901.256 951.778 904.376 951.778 906.872V910.256C951.778 911.696 951.85 912.872 952.09 914H950.026C949.954 913.64 949.882 913.16 949.858 912.32C948.802 913.712 947.434 914.264 945.658 914.264ZM946.162 912.656C947.938 912.656 949.618 911.936 949.618 908.648V907.952C947.746 908.192 943.594 908.048 943.594 910.568C943.594 911.768 944.578 912.656 946.162 912.656ZM956.387 914V901.616H958.475V903.44C959.435 901.952 960.587 901.472 961.955 901.472C962.411 901.472 962.891 901.52 963.347 901.616V903.56C962.795 903.464 962.315 903.392 961.883 903.392C959.219 903.392 958.595 905.312 958.595 908.312V914H956.387ZM966.657 914V896.576H968.865V906.704L973.881 901.616H976.497L971.025 907.04L977.049 914H974.265L968.865 907.52V914H966.657Z" fill="#FB2A00"/>
<path d="M985.502 914H983.582L989.774 896.576H991.67L985.502 914Z" fill="black"/>
<path d="M1004.02 914V898.52H998.28V896.576H1012.13V898.52H1006.39V914H1004.02ZM1015.27 914V901.616H1017.47V914H1015.27ZM1015.27 898.976V896.576H1017.47V898.976H1015.27ZM1022.28 914V901.616H1024.34V903.2C1025.06 902.048 1026.41 901.352 1028.06 901.352C1029.48 901.352 1030.87 902.024 1031.45 903.632C1032.48 902.024 1034.09 901.352 1035.84 901.352C1038.69 901.352 1039.82 903.128 1039.82 905.936V914H1037.61V907.136C1037.61 905.336 1037.47 903.104 1035.17 903.104C1032.5 903.104 1032.17 906.032 1032.17 907.88V914H1029.96V907.136C1029.96 905.336 1029.79 903.104 1027.49 903.104C1024.82 903.104 1024.49 906.032 1024.49 907.88V914H1022.28ZM1049.52 914.36C1045.73 914.36 1043.64 911.888 1043.64 907.808C1043.64 904.064 1045.92 901.256 1049.57 901.256C1053.43 901.256 1055.18 903.92 1055.18 908.504H1045.94C1046.06 910.952 1047.57 912.608 1049.59 912.608C1051.17 912.608 1052.37 911.888 1052.83 910.304H1055.16C1054.63 912.968 1052.35 914.36 1049.52 914.36ZM1045.99 906.704H1052.83C1052.59 904.208 1051.25 903.032 1049.47 903.032C1047.6 903.032 1046.3 904.208 1045.99 906.704ZM1063.6 914.36C1060.16 914.36 1058.22 912.776 1058.2 910.016H1060.43C1060.43 911.768 1061.6 912.656 1063.64 912.656C1065.32 912.656 1066.28 912.008 1066.28 910.808C1066.28 909.296 1064.77 908.984 1063.09 908.672C1060.93 908.264 1058.48 907.88 1058.48 904.856C1058.48 902.744 1060.4 901.256 1063.33 901.256C1066.45 901.256 1068.25 902.72 1068.28 905.408H1066.09C1066.07 903.776 1065.18 902.984 1063.28 902.984C1061.77 902.984 1060.79 903.656 1060.79 904.712C1060.79 906.104 1062.2 906.416 1063.84 906.728C1066.04 907.16 1068.64 907.592 1068.64 910.664C1068.64 912.896 1066.5 914.36 1063.6 914.36Z" fill="#00A3FF"/>
</svg>
